M48
;Layer_Color=9474304
;FILE_FORMAT=4:4
METRIC,LZ
;TYPE=PLATED
T3F00S00C0.5000
T4F00S00C0.6000
;TYPE=NON_PLATED
%
G90
G05
T03
G00X0086Y00199
M15
G01X00853
M16
G00X0086Y00265
M15
G01X00853
M16
G00X008605Y004005
M15
G01X008535
M16
G00X008605Y004665
M15
G01X008535
M16
T04
G00X003775Y000372
M15
G01Y000462
M16
G00X005345Y000372
M15
G01Y000462
M16
G00X006125Y0006625
M15
G01Y0005925
M16
G00X006125Y0002025
M15
G01Y0001525
M16
G00X00721Y0002025
M15
G01Y0001525
M16
G00X00721Y0006625
M15
G01Y0005925
M16
G00X005345Y001012
M15
G01Y001182
M16
G00X003775Y001012
M15
G01Y001182
M16
M17
M30
