M48
;Layer_Color=9474304
;FILE_FORMAT=4:4
METRIC,LZ
;TYPE=PLATED
T1F00S00C0.2000
T2F00S00C0.3000
T5F00S00C0.7000
T6F00S00C0.9000
T7F00S00C1.0500
T8F00S00C1.1000
T9F00S00C1.8000
;TYPE=NON_PLATED
T10F00S00C1.1000
T11F00S00C1.6000
T12F00S00C2.7000
T13F00S00C3.2000
%
T01
X0007825Y0001
X0014775Y0005475
X0015825Y000545
X0019425Y000225
X002445Y000175
X00267Y0002325
X003155Y0005575
X0056475Y000675
X0057425Y0006825
X0060075Y0005175
X00603Y0003425
X0062975Y000635
X0065475Y00063
X0066675
X0067875Y0006325
X0069075
X0070275Y00063
X0080075Y000625
X0079925Y0009825
X0081025Y00098
X0078325Y00157
Y00168
X0078925Y0022875
X00808552Y0022875
X0084075Y00245
X0083125Y00279
X0085225Y003025
X0087025Y00315
X008185Y0035775
X00772Y0040275
X008145Y0045675
X00842Y0044375
X00756Y0045225
X0073675Y00452
X00723731Y00453231
X007145Y0044975
X007155Y0043275
X0072625Y0043225
X00727Y0040275
X0071925Y003955
X00712Y0040275
X0069Y0039625
X006835Y0038675
X0067771
X006719
X00666
X00658Y003655
X00667Y0035425
X006795Y003435
X00691Y0036325
X0071975Y003635
X0074075Y0036775
X0074656Y00367714
X0075237
X0075825Y0036775
X0075775Y0035375
X007375Y0035425
X0074725Y00342
X0074175Y003875
X00742Y0040275
X00757
X0075775Y00388
X0069625Y0045
X006845Y004495
X0065775Y0045
X00657575Y00444065
X0065775Y0043808
X0065775Y0043225
X0062375Y00432
X0062375Y0043794
X00623803Y00443803
X0062375Y0044975
X0063675Y00452
X0060875Y004505
X00608803Y00444553
X0060875Y0043869
X0060875Y0043275
X0059375
X00593681Y00438714
X00593734Y00444577
X0059375Y004505
X005945Y0046225
X006095
X00579Y00462
X0057875Y004505
X00578803Y00444553
X0057875Y0043869
X0057875Y0043275
X00562Y0043875
X0056475Y0045
X005485Y00457
X00565323Y00402177
X0056898Y0039725
X0057479
X0058398
X0058979
X00594Y0040225
X0059898Y00397147
X0060479
X0061398Y00397195
X0061979
X006245Y0040175
X00625Y003925
X006095Y00392
X0060925Y00402
X0059425Y0039225
X0057925Y00392
Y00402
X005655Y00392
X00563Y0037125
X0059575Y003505
X00604Y0034075
X00614Y0036175
X00625Y0035125
X0063425Y00342
X0063075Y00377
X006305Y0022975
X006145Y00219
X00605597Y00204716
X006055Y0018025
X0059425Y00181787
X005835Y00181906
X00576Y0016575
X00622Y0015975
X0062325Y001785
X006305Y0019925
X00611Y0014825
X0061825Y00139
Y00118
X0062025Y0010025
X00637Y0010275
X0064125Y0013425
X0066
X0068025
X007005
X00718
X0073625Y0018575
X007485Y001855
X0069325Y0008575
X0066675
X0059175Y000875
X00586Y0008025
X005685Y000915
X0055525Y002415
X005455Y00241115
Y00246885
X00525Y0024975
X0052092Y0024567
X005855Y0026475
X00479Y0032575
Y0034525
X00468Y0034775
X00461984Y0034775
X00456174
X0045025Y0034775
X004435Y0035625
X0043475Y003425
X00435Y0032575
X0044675Y0032752
Y0032171
X0044675Y0031575
X0044575Y003335
X004645Y0031425
X004665Y003605
X00408Y0045625
X0039925Y004565
X004145Y00235
X00413014Y0022475
X00414Y002145
X00426Y0017475
X004855
X0030725Y0017575
X003095Y00206
X0029175Y0021575
X002225Y00217
X001795Y00225
X00184Y002485
X0016725Y00281
X0013175Y0027175
X0013725Y00244
X00143Y00231
X0013175Y002075
X00106Y00192
X00097Y002
X000975Y0023125
X000875Y0023575
X000755Y0023775
X000665Y0023575
X0006175Y0022525
X0004955Y0023105
X0003725Y002675
X0006575Y00288
X000745Y0028875
X000795Y0030425
X00079Y003115
X0007475Y003265
X0009Y00344
Y003665
X001075Y0038625
X001365Y0036525
X00159Y0036
X0017325Y0036825
X00173918Y00376832
X00155Y0038
X001735Y00345
X0018125Y0032825
X002095Y0032448
X002165
X00224
X002315Y0032425
X0025575Y00346
X00256Y00354
X0025925Y0039225
X0028875
X00256945Y00427648
X0025175Y0046325
X0024375Y0045925
X0023675Y0045775
X0022975Y0045725
X0021675Y00445
X002035Y004335
X00195106Y00432106
X00186356Y00431856
X0018725Y00465
X00158Y00464
X00137Y0046475
Y0047425
X0013875Y004445
X0015475Y0044375
X000895Y00433
X0009Y0042
X000785Y0042525
X0003775Y00444
Y004065
X001335Y003345
X001005Y00265
X0009125
X000205Y0020675
X0001475Y0016975
X00015Y0014748
X00104Y00147
X0021475Y0047475
X002895Y00473119
X00296Y0047375
X003405Y00462
X00353Y00467
X0033925Y004415
X0035075Y0040125
X00362Y0048475
X003445Y0051225
X0032075Y005175
X0031375Y005225
X003065Y0052475
X0029675Y0052125
X0029075Y005335
X002845Y00534
X002785Y00533
X00266773Y00529521
X002515Y005165
X002455Y0051875
X00247852Y00511326
X00235Y005145
X0022325Y00514918
X002165Y005195
X0021475Y005105
X001995Y00483
X001795Y00484
X0017025Y0051825
X0015175Y005175
X002545Y0048375
T02
X0017275Y00064
X0018675Y000635
X0020125
X00215
X0023025
X0024525
X0026075Y0006375
X0027625
X0035175Y000615
Y0005175
X0036675Y0001375
X0080475Y00043
X0079275Y0013725
X00772041Y00195948
X00837Y003015
X00833Y0030975
X0073525Y0028175
X00758843Y0043075
X00696889Y0042945
X00681889
X00666889
X00651889
X00637111Y00429321
X00521889Y0042945
X00446889
X00431889
X00416947
X00376889
X00392Y004005
X00541889Y00281889
X003595Y0017975
Y0016875
X0033225
X0033275Y0018025
X0030975Y0016275
X0030275
X002815Y0016225
X00264
X0026875Y0019075
X0028825Y001945
Y001865
X0029625
Y001945
X00262Y002265
Y00234
Y0024125
X0021275Y0023525
X0020075
Y00243
X00156Y0020975
X00106Y00215
X0007075Y0009425
X000705Y00084
X0005025Y0008425
X0005Y000935
X001715Y00119
X001865Y0011875
X002005Y00119
X00215
X0023025Y0011875
X0024525Y00119
X0026075
X0027575
X0028925Y001195
X0015925Y00324
X001495Y0042875
X0014225Y004285
X001345
X0017475Y0043225
X00316889Y0042945
X0033202
X00346889
X00361889
X00359389Y0051145
X003295Y004825
X003145
X00214613
X00152Y004835
X0014425
X00137Y0048325
X0012875Y005165
Y005255
X0010675Y0052525
Y005165
X0009675Y005175
Y0052575
X0008925Y0053475
X0008275
X0007425Y0052625
Y00517
X0008275Y00507
X0008925
X003745Y004825
X003895
X004245
X004395
X004545
X004645
X00479389Y0051145
X00494389
X00509Y0048175
X00564539Y004825
X005795
X005945
X006095
X006245
X006395
X006545
X006695
X006845
X0069925Y0048325
X0071525Y00484
X0073Y004835
X007445Y00483
X007745Y004825
T05
X00421Y00119
X00416Y00134
X00436
X00456
X00476
X00496
X00491Y00119
X00466
X00446
T06
X00012Y0006775
X003865Y001815
X004625Y0038125
X0074575Y0028275
X00315Y0024225
X0020475Y00269
X0018175Y002615
X0008625Y0040425
X00362889Y0052518
X00388289
X00413689
T07
X0085375Y000784
Y00103799
Y00129199
Y001546
T08
X0003Y00076
Y00186
T09
X0013Y00106
Y00156
T10
X00096694Y00455975
T11
X00784695Y00455975
T12
X00122695Y00035975
X00758695
T13
X0003Y0003
X0085
X0003Y0051
X0085
M30
