G04*
G04 #@! TF.GenerationSoftware,Altium Limited,Altium Designer,20.1.11 (218)*
G04*
G04 Layer_Physical_Order=1*
G04 Layer_Color=255*
%FSLAX44Y44*%
%MOMM*%
G71*
G04*
G04 #@! TF.SameCoordinates,4E8BECB8-10D7-4487-B94D-AC5258AA6689*
G04*
G04*
G04 #@! TF.FilePolarity,Positive*
G04*
G01*
G75*
%ADD12C,0.2540*%
%ADD13C,0.2500*%
%ADD14C,0.6000*%
%ADD15C,0.1500*%
%ADD17C,0.1270*%
%ADD19R,0.3000X1.7500*%
%ADD20R,2.0000X3.5000*%
%ADD25R,1.2500X0.6000*%
%ADD26R,2.7000X1.0000*%
%ADD27R,1.2000X0.6500*%
%ADD28R,0.5900X0.4500*%
%ADD29R,0.3500X0.8500*%
G04:AMPARAMS|DCode=30|XSize=0.4mm|YSize=1.2mm|CornerRadius=0.05mm|HoleSize=0mm|Usage=FLASHONLY|Rotation=270.000|XOffset=0mm|YOffset=0mm|HoleType=Round|Shape=RoundedRectangle|*
%AMROUNDEDRECTD30*
21,1,0.4000,1.1000,0,0,270.0*
21,1,0.3000,1.2000,0,0,270.0*
1,1,0.1000,-0.5500,-0.1500*
1,1,0.1000,-0.5500,0.1500*
1,1,0.1000,0.5500,0.1500*
1,1,0.1000,0.5500,-0.1500*
%
%ADD30ROUNDEDRECTD30*%
%ADD31O,0.3000X0.8000*%
%ADD32O,0.8000X0.3000*%
%ADD33R,1.5000X1.0000*%
G04:AMPARAMS|DCode=34|XSize=0.4mm|YSize=0.65mm|CornerRadius=0.05mm|HoleSize=0mm|Usage=FLASHONLY|Rotation=0.000|XOffset=0mm|YOffset=0mm|HoleType=Round|Shape=RoundedRectangle|*
%AMROUNDEDRECTD34*
21,1,0.4000,0.5500,0,0,0.0*
21,1,0.3000,0.6500,0,0,0.0*
1,1,0.1000,0.1500,-0.2750*
1,1,0.1000,-0.1500,-0.2750*
1,1,0.1000,-0.1500,0.2750*
1,1,0.1000,0.1500,0.2750*
%
%ADD34ROUNDEDRECTD34*%
%ADD35R,0.2300X1.0000*%
%ADD36R,0.8000X0.9000*%
%ADD37R,0.9000X1.6000*%
G04:AMPARAMS|DCode=38|XSize=0.2mm|YSize=0.565mm|CornerRadius=0.05mm|HoleSize=0mm|Usage=FLASHONLY|Rotation=180.000|XOffset=0mm|YOffset=0mm|HoleType=Round|Shape=RoundedRectangle|*
%AMROUNDEDRECTD38*
21,1,0.2000,0.4650,0,0,180.0*
21,1,0.1000,0.5650,0,0,180.0*
1,1,0.1000,-0.0500,0.2325*
1,1,0.1000,0.0500,0.2325*
1,1,0.1000,0.0500,-0.2325*
1,1,0.1000,-0.0500,-0.2325*
%
%ADD38ROUNDEDRECTD38*%
%ADD40R,1.3000X1.0000*%
G04:AMPARAMS|DCode=41|XSize=0.5mm|YSize=0.4mm|CornerRadius=0.02mm|HoleSize=0mm|Usage=FLASHONLY|Rotation=270.000|XOffset=0mm|YOffset=0mm|HoleType=Round|Shape=RoundedRectangle|*
%AMROUNDEDRECTD41*
21,1,0.5000,0.3600,0,0,270.0*
21,1,0.4600,0.4000,0,0,270.0*
1,1,0.0400,-0.1800,-0.2300*
1,1,0.0400,-0.1800,0.2300*
1,1,0.0400,0.1800,0.2300*
1,1,0.0400,0.1800,-0.2300*
%
%ADD41ROUNDEDRECTD41*%
G04:AMPARAMS|DCode=42|XSize=0.5mm|YSize=0.4mm|CornerRadius=0.02mm|HoleSize=0mm|Usage=FLASHONLY|Rotation=0.000|XOffset=0mm|YOffset=0mm|HoleType=Round|Shape=RoundedRectangle|*
%AMROUNDEDRECTD42*
21,1,0.5000,0.3600,0,0,0.0*
21,1,0.4600,0.4000,0,0,0.0*
1,1,0.0400,0.2300,-0.1800*
1,1,0.0400,-0.2300,-0.1800*
1,1,0.0400,-0.2300,0.1800*
1,1,0.0400,0.2300,0.1800*
%
%ADD42ROUNDEDRECTD42*%
%ADD43R,2.0000X2.0000*%
%ADD44R,0.5000X0.4000*%
%ADD45R,0.4000X0.5000*%
%ADD46R,1.4000X1.6000*%
%ADD47R,1.3500X0.4000*%
%ADD48R,0.7000X0.5000*%
%ADD49R,1.5000X4.0000*%
G04:AMPARAMS|DCode=50|XSize=0.8mm|YSize=0.7mm|CornerRadius=0.035mm|HoleSize=0mm|Usage=FLASHONLY|Rotation=0.000|XOffset=0mm|YOffset=0mm|HoleType=Round|Shape=RoundedRectangle|*
%AMROUNDEDRECTD50*
21,1,0.8000,0.6300,0,0,0.0*
21,1,0.7300,0.7000,0,0,0.0*
1,1,0.0700,0.3650,-0.3150*
1,1,0.0700,-0.3650,-0.3150*
1,1,0.0700,-0.3650,0.3150*
1,1,0.0700,0.3650,0.3150*
%
%ADD50ROUNDEDRECTD50*%
G04:AMPARAMS|DCode=51|XSize=0.8mm|YSize=0.7mm|CornerRadius=0.035mm|HoleSize=0mm|Usage=FLASHONLY|Rotation=90.000|XOffset=0mm|YOffset=0mm|HoleType=Round|Shape=RoundedRectangle|*
%AMROUNDEDRECTD51*
21,1,0.8000,0.6300,0,0,90.0*
21,1,0.7300,0.7000,0,0,90.0*
1,1,0.0700,0.3150,0.3650*
1,1,0.0700,0.3150,-0.3650*
1,1,0.0700,-0.3150,-0.3650*
1,1,0.0700,-0.3150,0.3650*
%
%ADD51ROUNDEDRECTD51*%
%ADD52O,0.5000X1.6000*%
G04:AMPARAMS|DCode=53|XSize=0.3mm|YSize=0.3mm|CornerRadius=0.03mm|HoleSize=0mm|Usage=FLASHONLY|Rotation=180.000|XOffset=0mm|YOffset=0mm|HoleType=Round|Shape=RoundedRectangle|*
%AMROUNDEDRECTD53*
21,1,0.3000,0.2400,0,0,180.0*
21,1,0.2400,0.3000,0,0,180.0*
1,1,0.0600,-0.1200,0.1200*
1,1,0.0600,0.1200,0.1200*
1,1,0.0600,0.1200,-0.1200*
1,1,0.0600,-0.1200,-0.1200*
%
%ADD53ROUNDEDRECTD53*%
G04:AMPARAMS|DCode=54|XSize=0.3mm|YSize=0.3mm|CornerRadius=0.03mm|HoleSize=0mm|Usage=FLASHONLY|Rotation=270.000|XOffset=0mm|YOffset=0mm|HoleType=Round|Shape=RoundedRectangle|*
%AMROUNDEDRECTD54*
21,1,0.3000,0.2400,0,0,270.0*
21,1,0.2400,0.3000,0,0,270.0*
1,1,0.0600,-0.1200,-0.1200*
1,1,0.0600,-0.1200,0.1200*
1,1,0.0600,0.1200,0.1200*
1,1,0.0600,0.1200,-0.1200*
%
%ADD54ROUNDEDRECTD54*%
%ADD55R,0.4500X1.4500*%
G04:AMPARAMS|DCode=56|XSize=1.7mm|YSize=1.7mm|CornerRadius=0.085mm|HoleSize=0mm|Usage=FLASHONLY|Rotation=270.000|XOffset=0mm|YOffset=0mm|HoleType=Round|Shape=RoundedRectangle|*
%AMROUNDEDRECTD56*
21,1,1.7000,1.5300,0,0,270.0*
21,1,1.5300,1.7000,0,0,270.0*
1,1,0.1700,-0.7650,-0.7650*
1,1,0.1700,-0.7650,0.7650*
1,1,0.1700,0.7650,0.7650*
1,1,0.1700,0.7650,-0.7650*
%
%ADD56ROUNDEDRECTD56*%
G04:AMPARAMS|DCode=57|XSize=1mm|YSize=1.7mm|CornerRadius=0.05mm|HoleSize=0mm|Usage=FLASHONLY|Rotation=180.000|XOffset=0mm|YOffset=0mm|HoleType=Round|Shape=RoundedRectangle|*
%AMROUNDEDRECTD57*
21,1,1.0000,1.6000,0,0,180.0*
21,1,0.9000,1.7000,0,0,180.0*
1,1,0.1000,-0.4500,0.8000*
1,1,0.1000,0.4500,0.8000*
1,1,0.1000,0.4500,-0.8000*
1,1,0.1000,-0.4500,-0.8000*
%
%ADD57ROUNDEDRECTD57*%
G04:AMPARAMS|DCode=58|XSize=0.8mm|YSize=0.8mm|CornerRadius=0.04mm|HoleSize=0mm|Usage=FLASHONLY|Rotation=0.000|XOffset=0mm|YOffset=0mm|HoleType=Round|Shape=RoundedRectangle|*
%AMROUNDEDRECTD58*
21,1,0.8000,0.7200,0,0,0.0*
21,1,0.7200,0.8000,0,0,0.0*
1,1,0.0800,0.3600,-0.3600*
1,1,0.0800,-0.3600,-0.3600*
1,1,0.0800,-0.3600,0.3600*
1,1,0.0800,0.3600,0.3600*
%
%ADD58ROUNDEDRECTD58*%
G04:AMPARAMS|DCode=59|XSize=0.8mm|YSize=0.8mm|CornerRadius=0.04mm|HoleSize=0mm|Usage=FLASHONLY|Rotation=90.000|XOffset=0mm|YOffset=0mm|HoleType=Round|Shape=RoundedRectangle|*
%AMROUNDEDRECTD59*
21,1,0.8000,0.7200,0,0,90.0*
21,1,0.7200,0.8000,0,0,90.0*
1,1,0.0800,0.3600,0.3600*
1,1,0.0800,0.3600,-0.3600*
1,1,0.0800,-0.3600,-0.3600*
1,1,0.0800,-0.3600,0.3600*
%
%ADD59ROUNDEDRECTD59*%
%ADD60R,0.4500X0.6000*%
%ADD61O,1.4000X0.4500*%
%ADD62R,0.6000X0.5000*%
%ADD125C,0.1618*%
%ADD126C,0.1431*%
%ADD127R,0.6500X0.8000*%
%ADD128R,1.0500X0.8000*%
%ADD129R,0.8000X1.0500*%
%ADD130R,0.8000X0.6500*%
G04:AMPARAMS|DCode=131|XSize=0.4mm|YSize=0.565mm|CornerRadius=0.05mm|HoleSize=0mm|Usage=FLASHONLY|Rotation=180.000|XOffset=0mm|YOffset=0mm|HoleType=Round|Shape=RoundedRectangle|*
%AMROUNDEDRECTD131*
21,1,0.4000,0.4650,0,0,180.0*
21,1,0.3000,0.5650,0,0,180.0*
1,1,0.1000,-0.1500,0.2325*
1,1,0.1000,0.1500,0.2325*
1,1,0.1000,0.1500,-0.2325*
1,1,0.1000,-0.1500,-0.2325*
%
%ADD131ROUNDEDRECTD131*%
%ADD132R,1.9000X1.9000*%
%ADD133C,0.4000*%
%ADD134C,0.1796*%
%ADD135C,0.5000*%
%ADD136C,1.0000*%
%ADD137C,0.3000*%
%ADD138R,1.1250X2.6750*%
%ADD139R,0.8750X5.7250*%
%ADD140R,2.8750X1.9250*%
%ADD141R,2.3056X2.5525*%
%ADD142R,0.8250X5.2000*%
%ADD143R,3.6750X0.9500*%
%ADD144R,2.2750X1.5250*%
%ADD145R,2.7500X2.5000*%
%ADD146R,1.5000X7.5500*%
%ADD147R,2.6000X2.2750*%
%ADD148R,2.6000X1.0500*%
%ADD149R,1.8250X0.8750*%
%ADD150R,3.0250X1.0000*%
%ADD151R,2.4000X0.5250*%
%ADD152R,2.4000X0.5750*%
%ADD153R,2.8500X0.8750*%
%ADD154R,3.6250X1.7500*%
%ADD155R,2.3056X2.6275*%
%ADD156R,3.9250X2.4000*%
%ADD157C,1.9000*%
%ADD158C,1.5000*%
%ADD159O,1.2000X1.9000*%
%ADD160O,1.2000X1.7000*%
%ADD161R,1.5000X1.5000*%
%ADD162O,2.0000X1.2000*%
%ADD163C,1.2000*%
%ADD164C,2.8000*%
%ADD165C,1.8000*%
%ADD166O,1.2000X3.0000*%
%ADD167O,1.2000X2.2000*%
%ADD168C,2.5000*%
%ADD169C,3.2000*%
%ADD170C,0.4500*%
%ADD171C,0.6000*%
G36*
X132250Y511250D02*
X131000D01*
X131000Y485500D01*
X128444Y482944D01*
Y406225D01*
X105444D01*
X105444Y455248D01*
X105540Y455975D01*
X105444Y456702D01*
X105444Y511250D01*
X103000D01*
Y533000D01*
X132250D01*
Y511250D01*
D02*
G37*
G36*
X158750Y160125D02*
X157778Y159722D01*
X157778Y159722D01*
X138681Y140625D01*
X85000D01*
X84028Y140222D01*
X83988Y140125D01*
X81500Y140131D01*
Y104249D01*
X31500D01*
Y111250D01*
X36500D01*
Y117599D01*
X31500D01*
Y124599D01*
X36500D01*
Y130899D01*
X31500D01*
Y137899D01*
X36500D01*
Y140233D01*
X29000Y140250D01*
Y164750D01*
X52750Y188500D01*
X104452D01*
X104529Y188449D01*
X106000Y188156D01*
X107471Y188449D01*
X107548Y188500D01*
X158750D01*
Y160125D01*
D02*
G37*
G36*
X296500Y180250D02*
Y169250D01*
X297500Y168250D01*
X315750D01*
Y161500D01*
X311750Y157500D01*
X288250D01*
Y180500D01*
X296250D01*
X296500Y180250D01*
D02*
G37*
G36*
X326750Y161125D02*
X353750D01*
Y128750D01*
X262500D01*
Y153750D01*
X309500D01*
X311964Y156214D01*
X312437Y156410D01*
X312722Y156528D01*
X312722Y156528D01*
X316722Y160528D01*
X317021Y161250D01*
X326449D01*
X326750Y161125D01*
D02*
G37*
G36*
X195250Y127500D02*
X161500D01*
X161750Y127250D01*
Y72500D01*
X85000D01*
Y139250D01*
X139250D01*
X158750Y158750D01*
X195250D01*
Y127500D01*
D02*
G37*
G36*
X260500Y126250D02*
X350964D01*
X351743Y125247D01*
X338723Y74394D01*
X299350Y59250D01*
X167000Y59250D01*
Y125250D01*
X197750D01*
Y152750D01*
X260500D01*
X260500Y126250D01*
D02*
G37*
G36*
X355000Y48750D02*
X352500Y46250D01*
X340000D01*
Y65000D01*
X355000D01*
Y48750D01*
D02*
G37*
G36*
X369500Y25000D02*
X340000D01*
Y43750D01*
X357500D01*
Y67500D01*
X350250D01*
X348000Y69750D01*
Y88750D01*
X357250Y98000D01*
Y130500D01*
X369500D01*
Y25000D01*
D02*
G37*
%LPC*%
G36*
X101270Y151320D02*
X86730D01*
Y142279D01*
X101270D01*
Y143465D01*
X103727D01*
X104000Y143411D01*
X105373Y143684D01*
X106538Y144462D01*
X107316Y145627D01*
X107589Y147000D01*
X107316Y148373D01*
X106538Y149538D01*
X105373Y150316D01*
X104000Y150589D01*
X102627Y150316D01*
X102540Y150258D01*
X101270Y150624D01*
Y151320D01*
D02*
G37*
G36*
X130000Y121344D02*
X127007Y121049D01*
X124128Y120176D01*
X121475Y118758D01*
X119150Y116850D01*
X117242Y114525D01*
X115824Y111872D01*
X114951Y108993D01*
X114656Y106000D01*
X114951Y103007D01*
X115824Y100128D01*
X117242Y97475D01*
X119150Y95150D01*
X121475Y93242D01*
X124128Y91824D01*
X127007Y90951D01*
X130000Y90656D01*
X132994Y90951D01*
X135872Y91824D01*
X138525Y93242D01*
X140850Y95150D01*
X142758Y97475D01*
X144176Y100128D01*
X145049Y103007D01*
X145344Y106000D01*
X145049Y108993D01*
X144176Y111872D01*
X142758Y114525D01*
X140850Y116850D01*
X138525Y118758D01*
X135872Y120176D01*
X132994Y121049D01*
X130000Y121344D01*
D02*
G37*
%LPD*%
D12*
X211000Y40500D02*
X217500Y34000D01*
Y22250D02*
X222250Y17500D01*
X46520Y209730D02*
X49250Y207000D01*
Y198500D02*
Y207000D01*
X12750Y214000D02*
X17250Y218500D01*
X825000Y219000D02*
X829750D01*
X813480Y207479D02*
X825000Y219000D01*
X813480Y204980D02*
Y207479D01*
X813250Y204750D02*
X813480Y204980D01*
X806250Y204750D02*
X813250D01*
X789375Y186125D02*
Y210125D01*
X789250Y210250D02*
X800750D01*
X806250Y204750D01*
X789250Y210250D02*
X789375Y210125D01*
Y186125D02*
X789500Y186000D01*
X17250Y218500D02*
X22750D01*
X27750Y223500D01*
X28450D01*
X29150D01*
X42920Y209730D01*
X46520D01*
X49250Y198500D02*
X54750Y193000D01*
X81750D01*
X84250Y195500D02*
Y202000D01*
X81750Y193000D02*
X84250Y195500D01*
Y202000D02*
X89250D01*
X283750Y209125D02*
Y223000D01*
Y209125D02*
X284750Y208125D01*
Y205500D02*
Y208125D01*
X217500Y22250D02*
Y34000D01*
X277500Y41000D02*
X277750Y41250D01*
X278250Y41750D02*
X302000D01*
X621945Y414975D02*
X622174Y415205D01*
X277750Y41250D02*
X278250Y41750D01*
D13*
X314445Y482555D02*
Y496975D01*
X329445Y482555D02*
Y496975D01*
X214529Y482584D02*
X214613Y482500D01*
X214529Y482584D02*
Y496891D01*
X256945Y414975D02*
Y427648D01*
X214445Y496975D02*
X214529Y496891D01*
X750500Y98000D02*
X750500D01*
X746250Y80215D02*
Y93750D01*
X750500Y98000D01*
X747714Y78750D02*
X801500D01*
X746250Y80215D02*
X747714Y78750D01*
X391945Y400555D02*
Y414975D01*
X316945D02*
Y429395D01*
X73000Y425250D02*
X78000D01*
X78000Y425250D01*
X78500D01*
X603000Y177750D02*
X605500Y180250D01*
X594250Y181787D02*
Y188750D01*
X583500Y181906D02*
Y189250D01*
X714445Y482555D02*
Y496975D01*
X173500Y345000D02*
X173500Y345000D01*
X167000Y345000D02*
X173500D01*
X536000Y276000D02*
X542000Y282000D01*
X735250Y257919D02*
Y281750D01*
Y216250D02*
Y257919D01*
X836000Y289500D02*
X851750D01*
X867750D02*
X870500Y292250D01*
Y297000D01*
X875750Y302250D02*
Y330750D01*
X870500Y297000D02*
X875750Y302250D01*
X861500Y337000D02*
X869500D01*
X875750Y330750D01*
X850250Y344926D02*
Y356000D01*
Y344926D02*
X852000Y343176D01*
Y337000D02*
Y343176D01*
X758250Y117750D02*
Y193250D01*
X735250Y216250D02*
X758250Y193250D01*
Y117250D02*
Y117750D01*
Y117250D02*
X760250Y115250D01*
Y108250D02*
Y115250D01*
Y107750D02*
Y108250D01*
X750500Y98000D02*
X760250Y107750D01*
X804750Y70500D02*
X805500Y69750D01*
X804750Y70500D02*
Y75500D01*
X801500Y78750D02*
X804750Y75500D01*
X536000Y247750D02*
Y276000D01*
X539750Y206750D02*
Y222619D01*
X535980Y226389D02*
X539750Y222619D01*
X535980Y226389D02*
Y247730D01*
X536000Y247750D01*
X539750Y206750D02*
X546000Y200500D01*
Y144750D02*
Y200500D01*
X563125Y135625D02*
X563250Y135500D01*
X546125Y135625D02*
X563125D01*
X546000Y135750D02*
X546125Y135625D01*
X545750Y78500D02*
Y126000D01*
X634750Y172000D02*
Y172500D01*
X622500Y159750D02*
X634750Y172000D01*
X622000Y159750D02*
X622500D01*
X588250Y148250D02*
X611000D01*
X566000Y126000D02*
X588250Y148250D01*
X545750Y126000D02*
X566000D01*
X603250Y124000D02*
X618250D01*
X603000Y123750D02*
X603250Y124000D01*
X602617Y124133D02*
X603000Y123750D01*
X602617Y124133D02*
Y132383D01*
X599250Y135750D02*
X602617Y132383D01*
X583883Y133383D02*
X586250Y135750D01*
X599250D01*
X583500Y123750D02*
X583883Y124133D01*
Y133383D01*
X618250Y118000D02*
Y124000D01*
Y118000D02*
X618250Y118000D01*
X620250Y94250D02*
Y100250D01*
X589250Y89750D02*
X591500Y87500D01*
X591750D01*
X589250Y89750D02*
Y93750D01*
X589500Y94000D01*
X555250Y54750D02*
Y69000D01*
X545750Y78500D02*
X555250Y69000D01*
X564750Y32750D02*
X565000Y32500D01*
Y19250D02*
Y32500D01*
X569500Y14750D02*
X578500D01*
X565000Y19250D02*
X569500Y14750D01*
X94250Y202750D02*
Y212000D01*
Y202750D02*
X97000Y200000D01*
X106000Y222000D02*
X115750D01*
X105500Y207500D02*
Y213553D01*
X106000Y214053D01*
X105500Y207500D02*
X115750D01*
X106000Y214053D02*
Y222000D01*
X115750D02*
X125500D01*
X289750Y205500D02*
Y213750D01*
X291750Y215750D01*
X231250Y17500D02*
X244500D01*
X78000Y10250D02*
Y22000D01*
Y10250D02*
X78250Y10000D01*
X267000Y13500D02*
Y23250D01*
X416947Y429397D02*
Y429450D01*
X416945Y429395D02*
X416947Y429397D01*
X331945Y414975D02*
Y429375D01*
X332020Y429450D01*
X636945Y414975D02*
Y429395D01*
X454445Y482555D02*
Y496975D01*
X609445Y482555D02*
Y496975D01*
X564492Y482547D02*
X564539Y482500D01*
X564492Y482547D02*
Y496927D01*
X624445Y482555D02*
Y496975D01*
X576945Y414975D02*
X577195Y415225D01*
X564445Y496975D02*
X564492Y496927D01*
X579445Y482555D02*
Y496975D01*
X696945Y414975D02*
Y429395D01*
X479445Y496975D02*
Y511395D01*
X494445Y496975D02*
Y511395D01*
X346945Y414975D02*
Y429395D01*
X361945Y414975D02*
Y429395D01*
X376945Y414975D02*
Y429395D01*
X416945Y414975D02*
Y429395D01*
X431944Y414975D02*
Y429395D01*
X446945Y414975D02*
Y429395D01*
X521945Y414975D02*
Y429395D01*
X651945Y414975D02*
Y429395D01*
X666945Y414975D02*
Y429395D01*
X681945Y414975D02*
Y429395D01*
X509445Y482555D02*
Y496975D01*
X359445D02*
Y511395D01*
X374445Y482555D02*
Y496975D01*
X389445Y482555D02*
Y496975D01*
X424444Y482555D02*
Y496975D01*
X439445Y482555D02*
Y496975D01*
X464445Y482555D02*
Y496975D01*
X594445Y482555D02*
Y496975D01*
X639445Y482555D02*
Y496975D01*
X654445Y482555D02*
Y496975D01*
X669445Y482555D02*
Y496975D01*
X684445Y482555D02*
Y496975D01*
X699445Y482555D02*
Y496975D01*
X729445Y482555D02*
Y496975D01*
X744445Y482555D02*
Y496975D01*
X774445Y482555D02*
X774500Y482500D01*
X774445Y482555D02*
Y496975D01*
D14*
X817250Y373750D02*
X832750D01*
X834750Y375750D01*
Y376250D01*
X817250Y389750D02*
Y413750D01*
X819250Y415750D01*
D15*
X222500Y9500D02*
X226750Y13750D01*
Y27250D02*
X231500Y32000D01*
X226750Y13750D02*
Y27250D01*
X14500Y162750D02*
X14750Y163000D01*
Y169750D01*
X302750Y51250D02*
Y68500D01*
X315000Y218250D02*
Y242250D01*
Y253250D01*
X309250Y259000D02*
X315000Y253250D01*
X202500Y259000D02*
X309250D01*
X239500Y328750D02*
X309250Y259000D01*
X181750Y328750D02*
X239500D01*
X196500Y304500D02*
X216480Y324480D01*
X223980D02*
X224000D01*
X209230D02*
X209500D01*
X216480D02*
X216500D01*
X195750Y311000D02*
X209230Y324480D01*
X197500Y298000D02*
X223980Y324480D01*
X181250Y328250D02*
X181750Y328750D01*
X179500Y484000D02*
Y484250D01*
X179445Y484305D02*
Y496975D01*
Y484305D02*
X179500Y484250D01*
X254445Y484556D02*
X254500Y484500D01*
Y483750D02*
Y484500D01*
X254445Y484556D02*
Y496975D01*
X344445D02*
Y512195D01*
X344500Y512250D01*
X148000Y291500D02*
X198750D01*
X231500Y324250D01*
X148000Y298000D02*
X197500D01*
X148000Y304500D02*
X196500D01*
X148000Y311000D02*
X195750D01*
X184000Y248500D02*
X184500D01*
X205000Y269000D01*
X249445Y465555D02*
X251750Y463250D01*
X249445Y465555D02*
Y496975D01*
X203500Y433500D02*
X203500D01*
X174445Y462556D02*
X203500Y433500D01*
X230750Y514500D02*
X230750Y514500D01*
X235000D01*
X292500Y521250D02*
X292500Y521250D01*
X296750D01*
X263000Y529500D02*
X263010Y529510D01*
X266763D01*
X266773Y529521D01*
X187250Y464750D02*
X221945Y430056D01*
Y414975D02*
Y430056D01*
X187250Y464750D02*
Y465000D01*
X158000Y464000D02*
Y478226D01*
Y449000D02*
Y464000D01*
X140750Y521750D02*
Y524250D01*
Y521750D02*
X145000Y517500D01*
X151750D01*
X180750Y522500D02*
Y524250D01*
X176500Y518250D02*
X180750Y522500D01*
X170250Y518250D02*
X176500D01*
X164445Y453767D02*
Y496975D01*
Y453767D02*
X186356Y431856D01*
X158000Y449000D02*
X174750Y432250D01*
X158000Y478226D02*
X159445Y479671D01*
X169445Y457767D02*
X195106Y432106D01*
X169445Y457767D02*
Y496975D01*
X174445Y462556D02*
Y496975D01*
X294445Y475305D02*
Y496975D01*
Y475305D02*
X296000Y473750D01*
X289500Y473119D02*
Y496919D01*
X289445Y496975D02*
X289500Y496919D01*
X219633Y451770D02*
X223903Y447500D01*
X219445Y484767D02*
X219633Y484579D01*
Y451770D02*
Y484579D01*
X219445Y484767D02*
Y496975D01*
X155000Y380000D02*
X166945Y391945D01*
Y414975D01*
X159445Y479671D02*
Y496975D01*
X243750Y459250D02*
Y496281D01*
X244445Y496975D01*
X236750Y480440D02*
X239445Y483135D01*
X236750Y457750D02*
Y480440D01*
X229750Y479211D02*
X234445Y483905D01*
X229750Y457250D02*
Y479211D01*
X227750Y452000D02*
X323000D01*
X224445Y455306D02*
Y496975D01*
Y455306D02*
X227750Y452000D01*
X223903Y447500D02*
X326000D01*
X323000Y452000D02*
X338000Y467000D01*
X326000Y447500D02*
X340500Y462000D01*
X202500Y388000D02*
X249764D01*
X413014Y224750D01*
X245500Y383000D02*
X414000Y214500D01*
X201250Y383000D02*
X245500D01*
X190750Y346000D02*
X255750D01*
X183750Y339000D02*
X190750Y346000D01*
X167000Y354000D02*
X256000D01*
X644750Y452000D02*
X655500Y462750D01*
X636750Y452000D02*
X644750D01*
X486750Y434000D02*
X509750Y457000D01*
X548500D01*
X627250Y427500D02*
X655750Y456000D01*
X720961D02*
X723731Y453231D01*
X655750Y456000D02*
X720961D01*
X73000Y303502D02*
X78502Y298000D01*
X73000Y303502D02*
Y310396D01*
X78502Y298000D02*
X91000D01*
X66001Y305249D02*
X79750Y291500D01*
X49500Y305249D02*
X66001D01*
X79750Y291500D02*
X91000D01*
X79500Y304250D02*
X79625Y304375D01*
X90875D01*
X91000Y304500D01*
X338000Y467000D02*
X353000D01*
X414000Y214500D02*
X414000D01*
X400750Y248750D02*
X414500Y235000D01*
X400750Y248750D02*
Y315750D01*
X239445Y483135D02*
Y496975D01*
X186945Y403555D02*
X202500Y388000D01*
X181945Y402305D02*
X201250Y383000D01*
X75250Y417250D02*
X87250D01*
X90000Y420000D01*
X70750Y421750D02*
X75250Y417250D01*
X64500Y421750D02*
X70750D01*
X75069Y433000D02*
X89500D01*
X70819Y428750D02*
X75069Y433000D01*
X64500Y428750D02*
X70819D01*
X61750Y419000D02*
X64500Y421750D01*
X49500Y419000D02*
X61750D01*
X61750Y431500D02*
X64500Y428750D01*
X49500Y431500D02*
X61750D01*
X485500Y169750D02*
Y174750D01*
Y169750D02*
X485500Y169750D01*
X693250Y85750D02*
Y91825D01*
X693250Y91825D01*
X598520Y173020D02*
Y181270D01*
X596500Y166000D02*
Y171000D01*
X598520Y173020D01*
Y181270D02*
X600250Y183000D01*
X593750Y197750D02*
X594250D01*
X580250Y211250D02*
X593750Y197750D01*
X561000Y211250D02*
X580250D01*
X583000Y198250D02*
X583500D01*
X575000Y206250D02*
X583000Y198250D01*
X583500D02*
X584000D01*
X588500Y193750D01*
Y167500D02*
Y193750D01*
Y167500D02*
X590000Y166000D01*
X594250Y197750D02*
X594750D01*
X600250Y192250D01*
Y183000D02*
Y192250D01*
X654750Y63000D02*
Y73250D01*
X577750Y265000D02*
X585250D01*
X585500Y264750D01*
X555500Y241250D02*
X561750D01*
X555250Y241500D02*
X555500Y241250D01*
X566500Y265000D02*
X577750D01*
X564750Y263250D02*
X566500Y265000D01*
X564250Y263250D02*
X564750D01*
X65750Y326646D02*
X74604D01*
X74750Y326500D01*
X568500Y91500D02*
Y99250D01*
Y91500D02*
X568500Y91500D01*
X569750Y101000D02*
Y116500D01*
X568500Y99750D02*
X569750Y101000D01*
X568500Y99250D02*
Y99750D01*
X562695Y404805D02*
X565500Y402000D01*
X561945Y414975D02*
X562695Y414225D01*
Y404805D02*
Y414225D01*
X774445Y496975D02*
X774500Y497030D01*
Y508250D01*
X773000Y509750D02*
X774500Y508250D01*
X759445Y508195D02*
X761000Y509750D01*
X773000D01*
X759445Y496975D02*
Y508195D01*
X564250Y254250D02*
X575000D01*
X577250Y252000D01*
X575500Y237750D02*
Y250250D01*
X577250Y252000D01*
X569750Y224750D02*
X575500D01*
X563500Y231000D02*
X569750Y224750D01*
X563500Y231000D02*
Y231000D01*
X562250Y232250D02*
X563500Y231000D01*
X561750Y232250D02*
X562250D01*
X690750Y63250D02*
Y73250D01*
X702750Y63000D02*
Y73250D01*
X678750Y63250D02*
Y73250D01*
X666750Y63000D02*
Y73250D01*
X631211Y63500D02*
X634750Y67039D01*
X629750Y63500D02*
X631211D01*
X634750Y67039D02*
Y73250D01*
X84250Y232750D02*
X87375Y235875D01*
X213746Y9500D02*
X213746Y9500D01*
X222500D01*
X204000Y9500D02*
X213746D01*
X300443Y207250D02*
X304000D01*
X299750Y206557D02*
X300443Y207250D01*
X299750Y205500D02*
Y206557D01*
X304000Y207250D02*
X315000Y218250D01*
X193250Y249750D02*
X202500Y259000D01*
X193250Y217500D02*
Y249750D01*
X190750Y215000D02*
X193250Y217500D01*
X186000Y215000D02*
X190750D01*
X770250Y216750D02*
Y274500D01*
X748500Y296250D02*
X770250Y274500D01*
X711500Y296250D02*
X748500D01*
X630750Y377000D02*
X711500Y296250D01*
X559445Y441306D02*
Y496975D01*
Y441306D02*
X562000Y438750D01*
X125500Y231000D02*
X143000D01*
X127250Y353750D02*
X142000Y339000D01*
X183750D01*
X554250Y263750D02*
X562500Y255500D01*
X554250Y263750D02*
Y313000D01*
X562500Y255500D02*
Y255500D01*
Y255500D02*
X563750Y254250D01*
X564250D01*
X541945Y325305D02*
X554250Y313000D01*
X541945Y325305D02*
Y414975D01*
X861500Y315000D02*
X870250D01*
X814500Y456750D02*
Y461750D01*
Y456750D02*
X814500Y456750D01*
X808552Y228750D02*
X812750D01*
X746750Y68000D02*
X791250D01*
X736250Y78500D02*
X746750Y68000D01*
X736250Y78500D02*
Y185750D01*
X748875Y116875D02*
Y185125D01*
X747250Y108250D02*
Y115250D01*
X748875Y116875D01*
X804625Y120375D02*
X809750Y125500D01*
X804625Y118125D02*
Y120375D01*
X802250Y115750D02*
X804625Y118125D01*
X772500Y100000D02*
X773000D01*
X788750Y115750D01*
X802250D01*
X853450Y103500D02*
X853750Y103799D01*
X791750Y103500D02*
X853450D01*
X772500Y91000D02*
X779250D01*
X791750Y103500D01*
X753750Y89250D02*
X770250D01*
X772000Y91000D01*
X772500D01*
X812000Y52750D02*
Y78250D01*
X794750Y83000D02*
X807250D01*
X812000Y78250D01*
X792500Y85250D02*
X794750Y83000D01*
X792500Y85250D02*
Y90250D01*
X812000Y52750D02*
X812750Y52000D01*
X641500Y85000D02*
X646750Y79750D01*
X633500Y89750D02*
X638250Y85000D01*
X641500D01*
X640791Y81791D02*
X642750Y79833D01*
X637541Y81791D02*
X640791D01*
X635583Y83750D02*
X637541Y81791D01*
X646750Y73250D02*
Y79750D01*
X642750Y73250D02*
Y79833D01*
X623750Y89750D02*
X633500D01*
X622500Y88500D02*
X623750Y89750D01*
X612750Y88500D02*
X622500D01*
X611250Y90000D02*
Y94250D01*
Y90000D02*
X612750Y88500D01*
X530250Y158750D02*
X534500Y154500D01*
X530250Y378000D02*
X536945Y384695D01*
X530250Y158750D02*
Y378000D01*
X544250Y239865D02*
X545500Y241115D01*
X561000Y206250D02*
X575000D01*
X539250Y228000D02*
Y240904D01*
Y228000D02*
X561000Y206250D01*
X544250Y228000D02*
X561000Y211250D01*
X544250Y228000D02*
Y239865D01*
X545500Y135750D02*
X546000D01*
X534500Y146750D02*
X545500Y135750D01*
X534500Y146750D02*
Y154500D01*
X630500Y177250D02*
Y184750D01*
Y177250D02*
X634750Y173000D01*
Y172500D02*
Y173000D01*
X611250Y94250D02*
Y99750D01*
X596500Y114500D02*
Y123750D01*
Y114500D02*
X611250Y99750D01*
X589500Y123250D02*
X590000Y123750D01*
X589500Y109250D02*
Y123250D01*
X598500Y94000D02*
Y100250D01*
X589500Y109250D02*
X598500Y100250D01*
X599000Y84250D02*
X599500Y83750D01*
X599000Y84250D02*
Y93500D01*
X598500Y94000D02*
X599000Y93500D01*
X556750Y102500D02*
Y116500D01*
Y102500D02*
X559500Y99750D01*
Y99250D02*
Y99750D01*
Y80250D02*
Y99250D01*
X568500Y79750D02*
Y80250D01*
Y79750D02*
X574000Y74250D01*
X590750D01*
X593250Y76750D02*
X599500D01*
X590750Y74250D02*
X593250Y76750D01*
X599500Y83750D02*
X635583D01*
X630750Y73250D02*
Y76350D01*
X630350Y76750D02*
X630750Y76350D01*
X599500Y76750D02*
X630350D01*
X82500Y81500D02*
X88000D01*
X48016Y68234D02*
X69234D01*
X82500Y81500D01*
X148000Y55000D02*
Y65000D01*
X147750Y54750D02*
X148000Y55000D01*
X158250Y64750D02*
X158500Y65000D01*
X158250Y54500D02*
Y64750D01*
X86250Y404250D02*
X89091D01*
X92841Y400500D01*
X95250D01*
X95500Y400250D02*
X154250D01*
X95250Y400500D02*
X95500Y400250D01*
X156945Y402944D02*
Y414975D01*
X154250Y400250D02*
X156945Y402944D01*
X54750Y215500D02*
Y235000D01*
Y215500D02*
X58250Y212000D01*
X54750Y235000D02*
X63750Y244000D01*
X66500Y235750D02*
X69250Y233000D01*
X63750Y244000D02*
X137250D01*
X115750Y240250D02*
X125000Y231000D01*
X79250Y233750D02*
X85750Y240250D01*
X115750D01*
X58250Y212000D02*
X64250D01*
X49550Y223500D02*
Y231050D01*
X12750Y223000D02*
Y227000D01*
X16800Y231050D01*
X49550D01*
X74250Y202000D02*
X79250D01*
X69250D02*
X74250D01*
Y227000D02*
Y236500D01*
X75500Y237750D01*
X98000Y227000D02*
X101500D01*
X89250D02*
X98000D01*
X97500Y231250D02*
X98000Y230750D01*
Y227000D02*
Y230750D01*
X69250Y227000D02*
Y233000D01*
X125000Y231000D02*
X125500D01*
X79250Y227000D02*
Y233750D01*
X115750Y231000D02*
Y235500D01*
X114000Y237250D02*
X115750Y235500D01*
X88750Y237250D02*
X114000D01*
X84250Y227000D02*
Y232750D01*
X101500Y227000D02*
X105500Y231000D01*
X106000D01*
X100500Y205760D02*
X103240Y203020D01*
X110730D01*
X115250Y198500D01*
X115750D02*
X125500D01*
X115250D02*
X115750D01*
X94250Y217000D02*
X96750D01*
X100500Y213250D01*
Y205760D02*
Y213250D01*
X315500Y55750D02*
X325000D01*
X67000Y49000D02*
Y55750D01*
Y49000D02*
X78000Y38000D01*
X84500Y55750D02*
X129250D01*
X169000Y16000D02*
X185000D01*
X129250Y55750D02*
X169000Y16000D01*
X235500Y32000D02*
X244750Y41250D01*
X231500Y32000D02*
X235500D01*
X284500Y13500D02*
X304250D01*
X325000Y18250D02*
Y33750D01*
X320250Y13500D02*
X325000Y18250D01*
X334500Y17500D02*
Y33750D01*
Y17500D02*
X338250Y13750D01*
Y13250D02*
Y13750D01*
X42250Y74000D02*
X48016Y68234D01*
X42250Y74000D02*
Y82250D01*
X24000Y100500D02*
X42250Y82250D01*
X92250Y85750D02*
Y88750D01*
X88000Y81500D02*
X92250Y85750D01*
X16250Y102000D02*
Y102750D01*
Y102000D02*
X17750Y100500D01*
X24000D01*
X90750Y311250D02*
X91000Y311000D01*
X79250Y311250D02*
X90750D01*
X79000Y311500D02*
X79250Y311250D01*
X65750Y280249D02*
Y288000D01*
X65750Y288000D01*
X49500Y280249D02*
X65750D01*
X49500Y292749D02*
X70501D01*
X74500Y288750D01*
X65750Y317647D02*
X66250D01*
X67500Y316397D01*
Y315896D02*
X73000Y310396D01*
X67500Y315896D02*
Y316397D01*
X49500Y317749D02*
X49603Y317647D01*
X65750D01*
X118500Y366750D02*
X122444Y370695D01*
X107500Y366750D02*
X118500D01*
X122444Y370695D02*
Y387750D01*
X107500Y373250D02*
Y386250D01*
X148500Y373250D02*
Y387000D01*
X161750Y400250D02*
Y406031D01*
X148500Y387000D02*
X161750Y400250D01*
X630500Y184750D02*
X631000D01*
X640500Y194250D01*
X630500Y229750D02*
X640500Y219750D01*
Y194250D02*
Y219750D01*
X311945Y404555D02*
X400750Y315750D01*
X311945Y404555D02*
Y414975D01*
X791250Y68000D02*
X792500Y69250D01*
X181945Y402305D02*
Y414975D01*
X186945Y403555D02*
Y414975D01*
X748500Y185500D02*
X748875Y185125D01*
X107500Y353750D02*
X127250D01*
X408000Y517600D02*
X414150Y523750D01*
X408000Y456250D02*
Y517600D01*
X388750Y523750D02*
X399250Y513250D01*
Y456500D02*
Y513250D01*
X148500Y353750D02*
X148625Y353875D01*
X166875D01*
X167000Y354000D01*
X234445Y483905D02*
Y496975D01*
X655500Y462750D02*
X720250D01*
X712000Y402750D02*
Y403250D01*
X711945Y403305D02*
Y414975D01*
Y403305D02*
X712000Y403250D01*
X726945Y402805D02*
Y414975D01*
Y402805D02*
X727000Y402750D01*
X742000D02*
Y403250D01*
X741945Y403305D02*
Y414975D01*
Y403305D02*
X742000Y403250D01*
X756945Y414975D02*
X756972Y414947D01*
Y402778D02*
Y414947D01*
Y402778D02*
X757000Y402750D01*
X772000D02*
Y403000D01*
X771945Y403055D02*
Y414975D01*
Y403055D02*
X772000Y403000D01*
X486722Y415197D02*
X486750Y415225D01*
Y434000D01*
X495243Y435000D02*
X541250D01*
X491945Y414975D02*
Y431702D01*
X495243Y435000D01*
X541250D02*
X548750Y427500D01*
X720250Y462750D02*
X731000Y452000D01*
X736750D01*
X548750Y427500D02*
X627250D01*
X486722Y415197D02*
X486945Y414975D01*
X624250Y402000D02*
Y402250D01*
Y402000D02*
X624500Y401750D01*
X621945Y404556D02*
X624250Y402250D01*
X621945Y404556D02*
Y414975D01*
X576945Y404194D02*
Y404305D01*
Y414975D01*
Y404305D02*
X579250Y402000D01*
X606945Y404305D02*
X609250Y402000D01*
X606945Y404305D02*
Y414975D01*
X594000Y402250D02*
Y402750D01*
X591945Y404805D02*
Y414975D01*
Y404805D02*
X594000Y402750D01*
X561750Y414781D02*
X561945Y414975D01*
X426000Y174750D02*
X426000Y174750D01*
Y169750D02*
Y174750D01*
X456000Y134000D02*
Y161250D01*
Y134000D02*
X456000Y134000D01*
X693250Y91825D02*
Y100170D01*
X666750Y85750D02*
Y100170D01*
X539250Y240904D02*
X545231Y246885D01*
X545500D01*
X516000Y250590D02*
X520920Y245670D01*
X516000Y250590D02*
Y382750D01*
X521000Y253750D02*
X525000Y249750D01*
X521000Y253750D02*
Y380679D01*
X531945Y391623D01*
Y414975D01*
X516000Y382750D02*
X526945Y393694D01*
Y414975D01*
X536945Y384695D02*
Y414975D01*
X641250Y134250D02*
Y135000D01*
X643750Y137500D01*
Y141750D01*
X655751D02*
X656251D01*
X657501Y140500D01*
Y137561D02*
Y140500D01*
Y137561D02*
X660000Y135062D01*
Y134250D02*
Y135062D01*
X664000Y138250D02*
Y141750D01*
X660000Y134250D02*
X664000Y138250D01*
X676001Y141750D02*
X676500D01*
X677750Y140500D01*
Y137561D02*
Y140500D01*
Y137561D02*
X680250Y135062D01*
Y134250D02*
Y135062D01*
X684250Y138250D02*
Y141750D01*
X680250Y134250D02*
X684250Y138250D01*
X696251Y141750D02*
X696750D01*
X698000Y140500D01*
Y137561D02*
Y140500D01*
Y137561D02*
X700500Y135062D01*
Y134250D02*
Y135062D01*
X704500Y138250D02*
Y141750D01*
X700500Y134250D02*
X704500Y138250D01*
X716500Y136562D02*
Y141750D01*
Y136562D02*
X718000Y135062D01*
Y134250D02*
Y135062D01*
X637000Y98250D02*
Y102500D01*
X637000Y102500D02*
X637000Y102500D01*
X637000Y102500D02*
Y102750D01*
X586000Y80250D02*
X590500D01*
X586000Y80250D02*
X586000Y80250D01*
X161750Y406031D02*
X161945Y406225D01*
D17*
X661750Y100170D02*
Y101995D01*
Y91825D02*
Y100170D01*
X656750D02*
Y101995D01*
Y91825D02*
Y100170D01*
X661385Y102360D02*
X661750Y101995D01*
X661379Y102360D02*
X661385D01*
X652635Y113385D02*
X654000Y114750D01*
X652129Y113385D02*
X652635D01*
X651385Y112641D02*
X652129Y113385D01*
X651385Y110288D02*
Y112641D01*
X660635Y103104D02*
Y106048D01*
X657138Y109544D02*
X660635Y106048D01*
Y103104D02*
X661379Y102360D01*
X651385Y110288D02*
X652129Y109544D01*
X657138D01*
X657865Y103104D02*
Y104900D01*
X655991Y106774D02*
X657865Y104900D01*
X657121Y102360D02*
X657865Y103104D01*
X656750Y101995D02*
X657115Y102360D01*
X657121D01*
X647871Y113385D02*
X648615Y112641D01*
Y109141D02*
Y112641D01*
X646000Y114750D02*
X647365Y113385D01*
X647871D01*
X648615Y109141D02*
X650982Y106774D01*
X655991D01*
X657121Y89635D02*
X657865Y88891D01*
X660635Y87095D02*
X662135Y85595D01*
X656750Y90000D02*
Y91825D01*
X660635Y88891D02*
X661379Y89635D01*
X661385D01*
X661750Y90000D01*
X656750D02*
X657115Y89635D01*
X657865Y85948D02*
X659365Y84448D01*
X660635Y87095D02*
Y88891D01*
X661750Y90000D02*
Y91825D01*
X657115Y89635D02*
X657121D01*
X657865Y85948D02*
Y88891D01*
X662135Y81302D02*
Y85595D01*
X659365Y80155D02*
Y84448D01*
X658750Y73250D02*
X659265Y73765D01*
X662135Y78359D02*
X662235Y78259D01*
X662135Y78359D02*
Y81302D01*
X662135Y81302D02*
X662135Y81302D01*
X659365Y80155D02*
X659365Y80155D01*
X662235Y73765D02*
X662750Y73250D01*
X659265Y78259D02*
X659365Y78359D01*
X659265Y73765D02*
Y78259D01*
X659365Y78359D02*
Y80155D01*
X662235Y73765D02*
Y78259D01*
X676750Y100170D02*
Y101995D01*
Y91825D02*
Y100170D01*
X671750D02*
Y101995D01*
Y91825D02*
Y100170D01*
X676385Y102360D02*
X676750Y101995D01*
X676379Y102360D02*
X676385D01*
X675635Y103104D02*
Y106048D01*
Y103104D02*
X676379Y102360D01*
X672385Y113635D02*
X673750Y115000D01*
X671879Y113635D02*
X672385D01*
X671135Y112891D02*
X671879Y113635D01*
X671135Y110538D02*
Y112891D01*
X671888Y109794D02*
X675635Y106048D01*
X671135Y110538D02*
X671879Y109794D01*
X671888D01*
X672865Y103104D02*
Y104900D01*
X672121Y102360D02*
X672865Y103104D01*
X671750Y101995D02*
X672115Y102360D01*
X672121D01*
X667621Y113635D02*
X668365Y112891D01*
Y109391D02*
Y112891D01*
X665750Y115000D02*
X667115Y113635D01*
X667621D01*
X670741Y107024D02*
X672865Y104900D01*
X668365Y109391D02*
X670732Y107024D01*
X670741D01*
X676385Y89635D02*
X676750Y90000D01*
Y91825D01*
X674135Y78359D02*
X674235Y78259D01*
X670750Y73250D02*
X671265Y73765D01*
X676379Y89635D02*
X676385D01*
X674235Y73765D02*
Y78259D01*
Y73765D02*
X674750Y73250D01*
X671750Y90000D02*
Y91825D01*
X672865Y83050D02*
Y88891D01*
X671365Y78359D02*
Y81550D01*
X675635Y88891D02*
X676379Y89635D01*
X674135Y78359D02*
Y80403D01*
X671750Y90000D02*
X672115Y89635D01*
X672121D01*
X672865Y88891D01*
X671365Y81550D02*
X672865Y83050D01*
X675635Y81903D02*
Y88891D01*
X674135Y80403D02*
X675635Y81903D01*
X671265Y78259D02*
X671365Y78359D01*
X671265Y73765D02*
Y78259D01*
X683250Y100170D02*
Y101995D01*
Y91825D02*
Y100170D01*
Y90000D02*
Y91825D01*
X688250Y100170D02*
Y101995D01*
Y91825D02*
Y100170D01*
X688121Y113635D02*
X688865Y112891D01*
X686250Y115000D02*
X687615Y113635D01*
X688121D01*
X688865Y111095D02*
Y112891D01*
X684365Y106595D02*
X688865Y111095D01*
X684365Y103104D02*
Y106595D01*
X683621Y102360D02*
X684365Y103104D01*
X683615Y102360D02*
X683621D01*
X683250Y101995D02*
X683615Y102360D01*
X692885Y113635D02*
X694250Y115000D01*
X692379Y113635D02*
X692885D01*
X691635Y112891D02*
X692379Y113635D01*
X691635Y109948D02*
Y112891D01*
X687879Y102360D02*
X687885D01*
X688250Y101995D01*
X687135Y105448D02*
X691635Y109948D01*
X687135Y103104D02*
Y105448D01*
Y103104D02*
X687879Y102360D01*
X683250Y90000D02*
X683615Y89635D01*
X683265Y73765D02*
Y78259D01*
X687135Y88891D02*
X687879Y89635D01*
X687885D01*
X688250Y90000D01*
Y91825D01*
X683615Y89635D02*
X683621D01*
X683365Y81800D02*
X684365Y82800D01*
X682750Y73250D02*
X683265Y73765D01*
X686135Y78359D02*
Y80653D01*
X683621Y89635D02*
X684365Y88891D01*
Y82800D02*
Y88891D01*
X683265Y78259D02*
X683365Y78359D01*
X686235Y73765D02*
Y78259D01*
X686135Y78359D02*
X686235Y78259D01*
X686135Y80653D02*
X687135Y81653D01*
Y88891D01*
X686235Y73765D02*
X686750Y73250D01*
X683365Y78359D02*
Y81800D01*
X703250Y100170D02*
Y101995D01*
Y91825D02*
Y100170D01*
X698250D02*
Y101995D01*
Y91825D02*
Y100170D01*
X713135Y113385D02*
X714500Y114750D01*
X712629Y113385D02*
X713135D01*
X711885Y112641D02*
X712629Y113385D01*
X711885Y109698D02*
Y112641D01*
X709034Y106846D02*
X711885Y109698D01*
X703700Y106846D02*
X709034D01*
X702885Y102360D02*
X703250Y101995D01*
X702135Y105281D02*
X703700Y106846D01*
X702879Y102360D02*
X702885D01*
X702135Y103104D02*
Y105281D01*
Y103104D02*
X702879Y102360D01*
X708371Y113385D02*
X709115Y112641D01*
Y110845D02*
Y112641D01*
X706500Y114750D02*
X707865Y113385D01*
X708371D01*
X707886Y109616D02*
X709115Y110845D01*
X702553Y109616D02*
X707886D01*
X699365Y106429D02*
X702553Y109616D01*
X699365Y103104D02*
Y106429D01*
X698621Y102360D02*
X699365Y103104D01*
X698615Y102360D02*
X698621D01*
X698250Y101995D02*
X698615Y102360D01*
X702135Y88891D02*
X702879Y89635D01*
X703250Y90000D02*
Y91825D01*
X698250Y90000D02*
Y91825D01*
X698235Y79850D02*
X702135Y83750D01*
Y88891D01*
X698621Y89635D02*
X699365Y88891D01*
X698250Y90000D02*
X698615Y89635D01*
X702879D02*
X702885D01*
X703250Y90000D01*
X699365Y84897D02*
Y88891D01*
X695365Y80897D02*
X699365Y84897D01*
X698615Y89635D02*
X698621D01*
X695365Y79750D02*
Y80897D01*
X698235Y73765D02*
Y79850D01*
Y73765D02*
X698750Y73250D01*
X695265Y79650D02*
X695365Y79750D01*
X695265Y73765D02*
Y79650D01*
X694750Y73250D02*
X695265Y73765D01*
X622938Y437940D02*
X623750D01*
X622991Y443803D02*
X623803D01*
X619473Y442257D02*
X621444D01*
X622991Y443803D01*
X618326Y439487D02*
X621391D01*
X615560Y442253D02*
X618326Y439487D01*
X621391D02*
X622938Y437940D01*
X618330Y443400D02*
Y472998D01*
X615560Y442253D02*
Y471850D01*
X618330Y443400D02*
X619473Y442257D01*
X615560Y471850D02*
X615560Y471850D01*
X618330Y472998D02*
Y488116D01*
X615560Y471850D02*
Y488116D01*
X618330Y472998D02*
X618330Y472998D01*
X574473Y443007D02*
X576444D01*
X577991Y444553D02*
X578803D01*
X576391Y440237D02*
X577938Y438690D01*
X573330Y444150D02*
X574473Y443007D01*
X570560Y443003D02*
Y488116D01*
X573330Y444150D02*
Y488116D01*
X577938Y438690D02*
X578750D01*
X576444Y443007D02*
X577991Y444553D01*
X570560Y443003D02*
X573326Y440237D01*
X576391D01*
X709240Y180490D02*
Y279843D01*
X636271Y352812D02*
X709240Y279843D01*
X707500Y178750D02*
X709240Y180490D01*
X707000Y178750D02*
X707500D01*
X636271Y352812D02*
Y352812D01*
X615500Y373583D02*
X636271Y352812D01*
X618580Y496110D02*
X619445Y496975D01*
X618330Y488116D02*
X618580Y488366D01*
Y496110D01*
X618270Y374730D02*
X637250Y355750D01*
X712010Y180490D02*
Y280990D01*
X670375Y322625D02*
X712010Y280990D01*
X713750Y178750D02*
X714250D01*
X712010Y180490D02*
X713750Y178750D01*
X637250Y355750D02*
X669396Y323604D01*
X637250Y355750D02*
Y355750D01*
X670375Y322625D02*
X670375D01*
X669396Y323604D02*
X670375Y322625D01*
X615309Y488366D02*
Y496110D01*
Y488366D02*
X615560Y488116D01*
X614445Y496975D02*
X615309Y496110D01*
X619790Y396356D02*
Y397195D01*
X618270Y394836D02*
X619790Y396356D01*
X618270Y374730D02*
Y394836D01*
X613980Y396356D02*
Y397195D01*
Y396356D02*
X615500Y394836D01*
Y373583D02*
Y394836D01*
X603270Y358480D02*
Y394788D01*
X600500Y357333D02*
Y394788D01*
X606391Y440237D02*
X607938Y438690D01*
X609750Y352000D02*
Y352000D01*
X607938Y438690D02*
X608750D01*
X689439Y272311D02*
X691760Y269990D01*
X693500Y178750D02*
X694000D01*
X691760Y180490D02*
X693500Y178750D01*
X634771Y326979D02*
X689439Y272311D01*
X609750Y352000D02*
X634771Y326979D01*
X691760Y180490D02*
Y269990D01*
X689439Y272311D02*
X689439D01*
X600309Y488366D02*
X600560Y488116D01*
X603326Y440237D02*
X606391D01*
X600560Y443003D02*
X603326Y440237D01*
X600309Y488366D02*
Y496110D01*
X599444Y496975D02*
X600309Y496110D01*
X600560Y443003D02*
Y488116D01*
X603270Y358480D02*
X609750Y352000D01*
X607991Y444553D02*
X608803D01*
X606444Y443007D02*
X607991Y444553D01*
X603579Y496110D02*
X604445Y496975D01*
X604473Y443007D02*
X606444D01*
X688990Y180490D02*
Y268843D01*
X633791Y324041D02*
X688990Y268843D01*
X687250Y178750D02*
X688990Y180490D01*
X608771Y349062D02*
X633791Y324041D01*
X608771Y349062D02*
Y349062D01*
X686750Y178750D02*
X687250D01*
X633791Y324041D02*
Y324041D01*
X603579Y488366D02*
Y496110D01*
X603330Y444150D02*
X604473Y443007D01*
X603330Y444150D02*
Y488116D01*
X603579Y488366D01*
X600500Y357333D02*
X608771Y349062D01*
X604790Y396308D02*
Y397147D01*
X603270Y394788D02*
X604790Y396308D01*
X598980Y396309D02*
Y397147D01*
Y396309D02*
X600500Y394788D01*
X573270Y322132D02*
X651260Y244142D01*
X570500Y320985D02*
X648490Y242995D01*
X651260Y180490D02*
X653000Y178750D01*
X653500D01*
X651260Y180490D02*
Y244142D01*
X570309Y488366D02*
X570560Y488116D01*
X570309Y488366D02*
Y496110D01*
X569445Y496975D02*
X570309Y496110D01*
X648490Y180490D02*
Y242995D01*
X646750Y178750D02*
X648490Y180490D01*
X646250Y178750D02*
X646750D01*
X573579Y496110D02*
X574445Y496975D01*
X573579Y488366D02*
Y496110D01*
X573330Y488116D02*
X573579Y488366D01*
X574790Y396411D02*
Y397250D01*
X573270Y394891D02*
X574790Y396411D01*
X573270Y322132D02*
Y394891D01*
X568980Y396411D02*
Y397250D01*
Y396411D02*
X570500Y394891D01*
Y320985D02*
Y394891D01*
X588270Y342730D02*
X595750Y335250D01*
X585500Y341583D02*
X593791Y333291D01*
X591322Y440261D02*
X592868Y438714D01*
X588257Y440261D02*
X591322D01*
X592868Y438714D02*
X593681D01*
X585560Y442958D02*
Y478350D01*
Y442958D02*
X588257Y440261D01*
X671510Y180490D02*
Y259490D01*
X669750Y261250D02*
X671510Y259490D01*
X673250Y178750D02*
X673750D01*
X671510Y180490D02*
X673250Y178750D01*
X595750Y335250D02*
X669750Y261250D01*
X595750Y335250D02*
Y335250D01*
X585309Y488366D02*
X585560Y488116D01*
Y478350D02*
Y488116D01*
Y478350D02*
X585560Y478350D01*
X585309Y488366D02*
Y496110D01*
X584445Y496975D02*
X585309Y496110D01*
X591375Y443031D02*
X592921Y444577D01*
X588579Y496110D02*
X589445Y496975D01*
X592921Y444577D02*
X593734D01*
X588579Y488366D02*
Y496110D01*
X588330Y444105D02*
Y479497D01*
Y444105D02*
X589404Y443031D01*
X666980Y260103D02*
X668740Y258343D01*
Y180490D02*
Y258343D01*
X667000Y178750D02*
X668740Y180490D01*
X666500Y178750D02*
X667000D01*
X593791Y333291D02*
Y333291D01*
X589404Y443031D02*
X591375D01*
X666980Y260103D02*
X666980D01*
X593791Y333291D02*
X666980Y260103D01*
X588330Y488116D02*
X588579Y488366D01*
X588330Y479497D02*
Y488116D01*
Y479497D02*
X588330Y479497D01*
X589790Y396411D02*
Y397250D01*
X588270Y394891D02*
X589790Y396411D01*
X588270Y342730D02*
Y394891D01*
X583980Y396411D02*
Y397250D01*
Y396411D02*
X585500Y394891D01*
Y341583D02*
Y394891D01*
X648365Y154866D02*
Y161573D01*
X643750Y150750D02*
X644250D01*
X645615Y152115D01*
Y152116D01*
X648365Y154866D01*
Y135990D02*
Y146635D01*
X644250Y150750D02*
X645615Y149385D01*
X645615D01*
X648365Y146635D01*
X651135Y137137D02*
Y146635D01*
X655251Y150750D02*
X655751D01*
X653886Y149385D02*
X655251Y150750D01*
X653886Y149385D02*
Y149385D01*
X651135Y146635D02*
X653886Y149385D01*
X651135Y154865D02*
Y160425D01*
X655251Y150750D02*
X655251D01*
X653886Y152115D02*
X655251Y150750D01*
X653886Y152115D02*
Y152115D01*
X651135Y154865D02*
X653886Y152115D01*
X668615Y138885D02*
Y146619D01*
X664500Y150750D02*
X665865Y149385D01*
Y149369D02*
Y149385D01*
Y149369D02*
X668615Y146619D01*
X664000Y150750D02*
X664500D01*
X668615Y154865D02*
Y161573D01*
X664500Y150750D02*
X668615Y154865D01*
X671385Y137738D02*
Y146635D01*
X675500Y150750D02*
X676001D01*
X674136Y149385D02*
Y149385D01*
X675500Y150750D01*
X671385Y146635D02*
X674136Y149385D01*
X671385Y154865D02*
Y160425D01*
X675500Y150750D02*
X675500D01*
X674136Y152115D02*
X675500Y150750D01*
X674136Y152115D02*
Y152115D01*
X671385Y154865D02*
X674136Y152115D01*
X709115Y135865D02*
Y146635D01*
X705000Y150750D02*
X706365Y149385D01*
Y149385D02*
Y149385D01*
X704500Y150750D02*
X705000D01*
X706365Y149385D02*
X709115Y146635D01*
Y154865D02*
Y159950D01*
X705000Y150750D02*
X706365Y152115D01*
Y152115D01*
X709115Y154865D01*
X711885Y137013D02*
Y146633D01*
X714635Y149385D02*
X716000Y150750D01*
X714635Y149383D02*
Y149385D01*
X711885Y146633D02*
X714635Y149383D01*
X716000Y150750D02*
X716500D01*
X714635Y152115D02*
X716000Y150750D01*
X711885Y154866D02*
Y158803D01*
X714635Y152115D02*
Y152116D01*
X711885Y154866D02*
X714635Y152116D01*
X688865Y154867D02*
Y161573D01*
X684250Y150750D02*
X684750D01*
X686115Y152117D02*
X688865Y154867D01*
X684750Y150750D02*
X686115Y152115D01*
Y152117D01*
X688865Y126109D02*
Y146635D01*
X685615Y149385D02*
X686115D01*
X684250Y150750D02*
X685615Y149385D01*
X686115D02*
X688865Y146635D01*
X688990Y161697D02*
Y168010D01*
X687250Y169750D02*
X688990Y168010D01*
X686750Y169750D02*
X687250D01*
X688865Y161573D02*
X688990Y161697D01*
X691635Y154896D02*
Y160425D01*
Y154896D02*
X694386Y152146D01*
X695751Y150750D02*
X696251D01*
X694386Y152115D02*
X695751Y150750D01*
X694386Y152115D02*
Y152146D01*
X691635Y126109D02*
Y146627D01*
X695751Y150750D02*
X695758D01*
X694386Y149385D02*
X695751Y150750D01*
X694386Y149377D02*
Y149385D01*
X691635Y146627D02*
X694386Y149377D01*
X712635Y125115D02*
X713135D01*
X712629D02*
X712635D01*
X711885Y131387D02*
Y137012D01*
X709115Y125859D02*
Y135865D01*
X713750Y169750D02*
X714250D01*
X712010Y168010D02*
X713750Y169750D01*
X712010Y158927D02*
Y168010D01*
X713135Y125115D02*
X714500Y123750D01*
X711885Y158803D02*
X712010Y158927D01*
X711885Y125859D02*
Y131387D01*
Y125859D02*
X712629Y125115D01*
X709240Y160075D02*
Y168010D01*
X709115Y159950D02*
X709240Y160075D01*
X707500Y169750D02*
X709240Y168010D01*
X707000Y169750D02*
X707500D01*
X708371Y125115D02*
X709115Y125859D01*
X706500Y123750D02*
X707865Y125115D01*
X711885Y137013D02*
X711885Y137012D01*
X709115Y135865D02*
X709115Y135865D01*
X707865Y125115D02*
X708371D01*
X692885Y125365D02*
X694250Y124000D01*
X692379Y125365D02*
X692885D01*
X691635Y126109D02*
X692379Y125365D01*
X688121D02*
X688865Y126109D01*
X687615Y125365D02*
X688121D01*
X686250Y124000D02*
X687615Y125365D01*
X691635Y160425D02*
X691760Y160550D01*
X693500Y169750D02*
X694000D01*
X691760Y160550D02*
Y168010D01*
X693500Y169750D01*
X672385Y125365D02*
X673750Y124000D01*
X671879Y125365D02*
X672385D01*
X671135Y137488D02*
X671385Y137738D01*
X671135Y126109D02*
X671879Y125365D01*
X671135Y126109D02*
Y137488D01*
X668365Y138635D02*
X668615Y138885D01*
X668365Y126109D02*
Y138635D01*
X667621Y125365D02*
X668365Y126109D01*
X667115Y125365D02*
X667621D01*
X665750Y124000D02*
X667115Y125365D01*
X671385Y160425D02*
X671510Y160550D01*
Y168010D02*
X673250Y169750D01*
X671510Y160550D02*
Y168010D01*
X673250Y169750D02*
X673750D01*
X666500D02*
X667000D01*
X668740Y161697D02*
Y168010D01*
X667000Y169750D02*
X668740Y168010D01*
X668615Y161573D02*
X668740Y161697D01*
X652635Y125115D02*
X654000Y123750D01*
X652129Y125115D02*
X652635D01*
X651385Y125859D02*
Y136888D01*
Y125859D02*
X652129Y125115D01*
X651135Y137137D02*
X651385Y136888D01*
X648365Y135990D02*
X648615Y135740D01*
Y125859D02*
Y135740D01*
X647871Y125115D02*
X648615Y125859D01*
X647365Y125115D02*
X647871D01*
X646000Y123750D02*
X647365Y125115D01*
X651135Y160425D02*
X651260Y160550D01*
Y168010D01*
X653000Y169750D01*
X653500D01*
X646750D02*
X648490Y168010D01*
X646250Y169750D02*
X646750D01*
X648490Y161697D02*
Y168010D01*
X648365Y161573D02*
X648490Y161697D01*
D19*
X611945Y414975D02*
D03*
X616945D02*
D03*
X626945D02*
D03*
X631945D02*
D03*
X641945D02*
D03*
X646945D02*
D03*
X656945D02*
D03*
X661945D02*
D03*
X671945D02*
D03*
X676945D02*
D03*
X716945D02*
D03*
X721945D02*
D03*
X701945D02*
D03*
X706945D02*
D03*
X686945D02*
D03*
X691945D02*
D03*
X731945D02*
D03*
X736945D02*
D03*
X761945D02*
D03*
X766945D02*
D03*
X719445Y496975D02*
D03*
X724445D02*
D03*
X704445D02*
D03*
X709445D02*
D03*
X689445D02*
D03*
X694445D02*
D03*
X291945Y414975D02*
D03*
X296945D02*
D03*
X336945D02*
D03*
X341945D02*
D03*
X499445Y496975D02*
D03*
X504445D02*
D03*
X734445D02*
D03*
X739445D02*
D03*
X349445D02*
D03*
X354445D02*
D03*
X614445D02*
D03*
X619445D02*
D03*
X674445D02*
D03*
X679445D02*
D03*
X109445D02*
D03*
X106945Y414975D02*
D03*
X114444Y496975D02*
D03*
X111945Y414975D02*
D03*
X119445Y496975D02*
D03*
X116945Y414975D02*
D03*
X124445Y496975D02*
D03*
X121945Y414975D02*
D03*
X129445Y496975D02*
D03*
X126945Y414975D02*
D03*
X134445Y496975D02*
D03*
X131945Y414975D02*
D03*
X139445Y496975D02*
D03*
X136945Y414975D02*
D03*
X144445Y496975D02*
D03*
X141945Y414975D02*
D03*
X149445Y496975D02*
D03*
X146945Y414975D02*
D03*
X154445Y496975D02*
D03*
X151945Y414975D02*
D03*
X159445Y496975D02*
D03*
X156945Y414975D02*
D03*
X164445Y496975D02*
D03*
X161945Y414975D02*
D03*
X169445Y496975D02*
D03*
X166945Y414975D02*
D03*
X174445Y496975D02*
D03*
X171945Y414975D02*
D03*
X179445Y496975D02*
D03*
X176945Y414975D02*
D03*
X184445Y496975D02*
D03*
X181945Y414975D02*
D03*
X189445Y496975D02*
D03*
X186945Y414975D02*
D03*
X194445Y496975D02*
D03*
X191945Y414975D02*
D03*
X199445Y496975D02*
D03*
X196945Y414975D02*
D03*
X204445Y496975D02*
D03*
X201945Y414975D02*
D03*
X209445Y496975D02*
D03*
X206945Y414975D02*
D03*
X214445Y496975D02*
D03*
X211945Y414975D02*
D03*
X219445Y496975D02*
D03*
X216945Y414975D02*
D03*
X224445Y496975D02*
D03*
X221945Y414975D02*
D03*
X229445Y496975D02*
D03*
X226945Y414975D02*
D03*
X234445Y496975D02*
D03*
X231945Y414975D02*
D03*
X239445Y496975D02*
D03*
X236945Y414975D02*
D03*
X244445Y496975D02*
D03*
X241945Y414975D02*
D03*
X249445Y496975D02*
D03*
X246945Y414975D02*
D03*
X254445Y496975D02*
D03*
X251945Y414975D02*
D03*
X259445Y496975D02*
D03*
X256945Y414975D02*
D03*
X264445Y496975D02*
D03*
X261945Y414975D02*
D03*
X269445Y496975D02*
D03*
X266945Y414975D02*
D03*
X274445Y496975D02*
D03*
X271945Y414975D02*
D03*
X279445Y496975D02*
D03*
X276945Y414975D02*
D03*
X284445Y496975D02*
D03*
X281945Y414975D02*
D03*
X289445Y496975D02*
D03*
X286945Y414975D02*
D03*
X294445Y496975D02*
D03*
X299445D02*
D03*
X304445D02*
D03*
X301945Y414975D02*
D03*
X309445Y496975D02*
D03*
X306945Y414975D02*
D03*
X314445Y496975D02*
D03*
X311945Y414975D02*
D03*
X319445Y496975D02*
D03*
X316945Y414975D02*
D03*
X324445Y496975D02*
D03*
X321945Y414975D02*
D03*
X329445Y496975D02*
D03*
X326945Y414975D02*
D03*
X364445Y496975D02*
D03*
X359445D02*
D03*
X344445D02*
D03*
X339445D02*
D03*
X334445D02*
D03*
X394445D02*
D03*
X389445D02*
D03*
X384445D02*
D03*
X379445D02*
D03*
X374445D02*
D03*
X369445D02*
D03*
X361945Y414975D02*
D03*
X356945D02*
D03*
X351945D02*
D03*
X346945D02*
D03*
X331945D02*
D03*
X391945D02*
D03*
X386945D02*
D03*
X381945D02*
D03*
X376945D02*
D03*
X371945D02*
D03*
X366945D02*
D03*
X681945D02*
D03*
X696945D02*
D03*
X651945D02*
D03*
X666945D02*
D03*
X684445Y496975D02*
D03*
X699445D02*
D03*
X644445D02*
D03*
X649445D02*
D03*
X654445D02*
D03*
X659445D02*
D03*
X664445D02*
D03*
X669445D02*
D03*
X636945Y414975D02*
D03*
X639445Y496975D02*
D03*
X634445D02*
D03*
X629445D02*
D03*
X621945Y414975D02*
D03*
X624445Y496975D02*
D03*
X606945Y414975D02*
D03*
X609445Y496975D02*
D03*
X601945Y414975D02*
D03*
X604445Y496975D02*
D03*
X596945Y414975D02*
D03*
X599444Y496975D02*
D03*
X591945Y414975D02*
D03*
X594445Y496975D02*
D03*
X586945Y414975D02*
D03*
X589445Y496975D02*
D03*
X581945Y414975D02*
D03*
X584445Y496975D02*
D03*
X576945Y414975D02*
D03*
X579445Y496975D02*
D03*
X571945Y414975D02*
D03*
X574445Y496975D02*
D03*
X566945Y414975D02*
D03*
X569445Y496975D02*
D03*
X561945Y414975D02*
D03*
X564445Y496975D02*
D03*
X556945Y414975D02*
D03*
X559445Y496975D02*
D03*
X551945Y414975D02*
D03*
X554445Y496975D02*
D03*
X546945Y414975D02*
D03*
X549445Y496975D02*
D03*
X541945Y414975D02*
D03*
X544445Y496975D02*
D03*
X536945Y414975D02*
D03*
X539445Y496975D02*
D03*
X531945Y414975D02*
D03*
X534445Y496975D02*
D03*
X526945Y414975D02*
D03*
X529445Y496975D02*
D03*
X521945Y414975D02*
D03*
X524445Y496975D02*
D03*
X516945Y414975D02*
D03*
X519445Y496975D02*
D03*
X511945Y414975D02*
D03*
X514445Y496975D02*
D03*
X506945Y414975D02*
D03*
X509445Y496975D02*
D03*
X501945Y414975D02*
D03*
X496945D02*
D03*
X491945D02*
D03*
X494445Y496975D02*
D03*
X486945Y414975D02*
D03*
X489445Y496975D02*
D03*
X481945Y414975D02*
D03*
X484445Y496975D02*
D03*
X476945Y414975D02*
D03*
X479445Y496975D02*
D03*
X471945Y414975D02*
D03*
X474445Y496975D02*
D03*
X466945Y414975D02*
D03*
X469445Y496975D02*
D03*
X461945Y414975D02*
D03*
X464445Y496975D02*
D03*
X456945Y414975D02*
D03*
X459445Y496975D02*
D03*
X451945Y414975D02*
D03*
X454445Y496975D02*
D03*
X446945Y414975D02*
D03*
X449445Y496975D02*
D03*
X441945Y414975D02*
D03*
X444445Y496975D02*
D03*
X436945Y414975D02*
D03*
X439445Y496975D02*
D03*
X431944Y414975D02*
D03*
X434444Y496975D02*
D03*
X426945Y414975D02*
D03*
X429445Y496975D02*
D03*
X421944Y414975D02*
D03*
X424444Y496975D02*
D03*
X416945Y414975D02*
D03*
X419444Y496975D02*
D03*
X714445D02*
D03*
X749445D02*
D03*
X744445D02*
D03*
X729445D02*
D03*
X711945Y414975D02*
D03*
X746945D02*
D03*
X741945D02*
D03*
X726945D02*
D03*
X751945D02*
D03*
X756945D02*
D03*
X771945D02*
D03*
X754445Y496975D02*
D03*
X759445D02*
D03*
X764445D02*
D03*
X769445D02*
D03*
X774445D02*
D03*
D20*
X818445Y335975D02*
D03*
X63444Y375975D02*
D03*
D25*
X49500Y444000D02*
D03*
Y406500D02*
D03*
Y431500D02*
D03*
Y419000D02*
D03*
Y330249D02*
D03*
Y317749D02*
D03*
Y305249D02*
D03*
Y292749D02*
D03*
Y280249D02*
D03*
Y267749D02*
D03*
D26*
X17500Y462750D02*
D03*
Y387750D02*
D03*
Y348999D02*
D03*
Y248999D02*
D03*
D27*
X37810Y107683D02*
D03*
Y121145D02*
D03*
Y134354D02*
D03*
Y147816D02*
D03*
X94000Y146799D02*
D03*
Y134100D02*
D03*
Y121399D02*
D03*
Y108700D02*
D03*
D28*
X28450Y223500D02*
D03*
X49550D02*
D03*
D29*
X173000Y237000D02*
D03*
X186000D02*
D03*
Y215000D02*
D03*
X179500D02*
D03*
X173000D02*
D03*
D30*
X148000Y285000D02*
D03*
Y291500D02*
D03*
Y298000D02*
D03*
Y304500D02*
D03*
Y311000D02*
D03*
Y317500D02*
D03*
Y324000D02*
D03*
X91000Y285000D02*
D03*
Y291500D02*
D03*
Y298000D02*
D03*
Y304500D02*
D03*
Y311000D02*
D03*
Y317500D02*
D03*
Y324000D02*
D03*
D31*
X89250Y227000D02*
D03*
X84250D02*
D03*
X79250D02*
D03*
X74250D02*
D03*
X69250D02*
D03*
Y202000D02*
D03*
X74250D02*
D03*
X79250D02*
D03*
X84250D02*
D03*
X89250D02*
D03*
X284750Y175500D02*
D03*
X289750D02*
D03*
X294750D02*
D03*
X299750D02*
D03*
Y205500D02*
D03*
X294750D02*
D03*
X289750D02*
D03*
X284750D02*
D03*
D32*
X64250Y217000D02*
D03*
Y212000D02*
D03*
X94250D02*
D03*
Y217000D02*
D03*
X307250Y183000D02*
D03*
Y188000D02*
D03*
Y193000D02*
D03*
Y198000D02*
D03*
X277250D02*
D03*
Y193000D02*
D03*
Y188000D02*
D03*
Y183000D02*
D03*
D33*
X79250Y214500D02*
D03*
D34*
X805500Y69750D02*
D03*
X799000D02*
D03*
X792500D02*
D03*
Y90250D02*
D03*
X799000D02*
D03*
X805500D02*
D03*
D35*
X694750Y73250D02*
D03*
X682750D02*
D03*
X670750D02*
D03*
X658750D02*
D03*
X654750D02*
D03*
X650750D02*
D03*
X646750D02*
D03*
X642750D02*
D03*
X638750D02*
D03*
X634750D02*
D03*
X630750D02*
D03*
X666750D02*
D03*
X662750D02*
D03*
X678750D02*
D03*
X674750D02*
D03*
X690750D02*
D03*
X686750D02*
D03*
X702750D02*
D03*
X698750D02*
D03*
D36*
X364000Y142500D02*
D03*
Y126500D02*
D03*
X817250Y372750D02*
D03*
Y388750D02*
D03*
X810250Y151750D02*
D03*
Y167750D02*
D03*
D37*
X87749Y522000D02*
D03*
X116749D02*
D03*
D38*
X676750Y91825D02*
D03*
X671750D02*
D03*
X661750D02*
D03*
X656750D02*
D03*
Y100170D02*
D03*
X661750D02*
D03*
X671750D02*
D03*
X676750D02*
D03*
X703250Y100170D02*
D03*
X698250D02*
D03*
X688250D02*
D03*
X683250D02*
D03*
Y91825D02*
D03*
X688250D02*
D03*
X698250D02*
D03*
X703250D02*
D03*
D40*
X304000Y117500D02*
D03*
Y137500D02*
D03*
X323750D02*
D03*
Y117500D02*
D03*
X343750D02*
D03*
Y137500D02*
D03*
D41*
X222250Y17500D02*
D03*
X231250D02*
D03*
X122444Y387750D02*
D03*
X131445D02*
D03*
X114944Y338750D02*
D03*
X123945D02*
D03*
X598500Y94000D02*
D03*
X589500D02*
D03*
X620250Y94250D02*
D03*
X611250D02*
D03*
X568500Y80250D02*
D03*
X559500D02*
D03*
X568500Y99250D02*
D03*
X559500D02*
D03*
X749250Y117750D02*
D03*
X758250D02*
D03*
X810250Y139000D02*
D03*
X801250D02*
D03*
X91250Y271500D02*
D03*
X100250D02*
D03*
X147250Y271750D02*
D03*
X138250D02*
D03*
D42*
X302750Y51250D02*
D03*
Y42250D02*
D03*
X14500Y162750D02*
D03*
Y153750D02*
D03*
X65750Y317647D02*
D03*
Y326646D02*
D03*
Y271249D02*
D03*
Y280249D02*
D03*
X115750Y198500D02*
D03*
Y207500D02*
D03*
X12750Y214000D02*
D03*
Y223000D02*
D03*
X115750Y222000D02*
D03*
Y231000D02*
D03*
X106000Y222000D02*
D03*
Y231000D02*
D03*
X125500Y222000D02*
D03*
Y231000D02*
D03*
X167000Y345000D02*
D03*
Y354000D02*
D03*
X630500Y184750D02*
D03*
Y193750D02*
D03*
X583500Y198250D02*
D03*
Y189250D02*
D03*
X594250Y188750D02*
D03*
Y197750D02*
D03*
X546000Y135750D02*
D03*
Y144750D02*
D03*
X564250Y254250D02*
D03*
Y263250D02*
D03*
X561750Y241250D02*
D03*
Y232250D02*
D03*
X797000Y52000D02*
D03*
Y43000D02*
D03*
X772500Y91000D02*
D03*
Y100000D02*
D03*
X812750Y52000D02*
D03*
Y43000D02*
D03*
X646000Y123750D02*
D03*
Y114750D02*
D03*
X654000D02*
D03*
Y123750D02*
D03*
X665750Y124000D02*
D03*
Y115000D02*
D03*
X673750D02*
D03*
Y124000D02*
D03*
X686250Y124000D02*
D03*
Y115000D02*
D03*
X694250D02*
D03*
Y124000D02*
D03*
X706500Y123750D02*
D03*
Y114750D02*
D03*
X714500D02*
D03*
Y123750D02*
D03*
X643750Y150750D02*
D03*
Y141750D02*
D03*
X655751D02*
D03*
Y150750D02*
D03*
X664000D02*
D03*
Y141750D02*
D03*
X676001D02*
D03*
Y150750D02*
D03*
X684250D02*
D03*
Y141750D02*
D03*
X696251D02*
D03*
Y150750D02*
D03*
X704500D02*
D03*
Y141750D02*
D03*
X716500D02*
D03*
Y150750D02*
D03*
X646250Y169750D02*
D03*
Y178750D02*
D03*
X653500D02*
D03*
Y169750D02*
D03*
X666500D02*
D03*
Y178750D02*
D03*
X673750D02*
D03*
Y169750D02*
D03*
X686750D02*
D03*
Y178750D02*
D03*
X694000D02*
D03*
Y169750D02*
D03*
X707000Y169750D02*
D03*
Y178750D02*
D03*
X714250D02*
D03*
Y169750D02*
D03*
X618250Y124000D02*
D03*
Y133000D02*
D03*
X605750Y197500D02*
D03*
Y188500D02*
D03*
X431000Y203250D02*
D03*
Y194250D02*
D03*
X421000D02*
D03*
Y203250D02*
D03*
X125500Y198500D02*
D03*
Y207500D02*
D03*
X167000Y377000D02*
D03*
Y368000D02*
D03*
X90000Y350000D02*
D03*
Y359000D02*
D03*
X106000Y207500D02*
D03*
Y198500D02*
D03*
D43*
X178750Y41250D02*
D03*
X211750D02*
D03*
X244750D02*
D03*
X277750D02*
D03*
Y140250D02*
D03*
X244750D02*
D03*
X211750D02*
D03*
X178750D02*
D03*
X180250Y79250D02*
D03*
X204250D02*
D03*
X228250D02*
D03*
X252250D02*
D03*
X276250D02*
D03*
Y102250D02*
D03*
X252250D02*
D03*
X228250D02*
D03*
X204250D02*
D03*
X180250D02*
D03*
D44*
X770250Y216750D02*
D03*
X789250Y223250D02*
D03*
Y210250D02*
D03*
X204000Y9500D02*
D03*
Y22500D02*
D03*
X185000Y16000D02*
D03*
X596750Y258500D02*
D03*
X577750Y252000D02*
D03*
Y265000D02*
D03*
D45*
X628250Y153500D02*
D03*
X621750Y172500D02*
D03*
X634750D02*
D03*
X556750Y116500D02*
D03*
X569750D02*
D03*
X563250Y135500D02*
D03*
X760250Y108250D02*
D03*
X747250D02*
D03*
X753750Y89250D02*
D03*
D46*
X832000Y264000D02*
D03*
Y200000D02*
D03*
X832500Y401500D02*
D03*
Y465500D02*
D03*
D47*
X829750Y245000D02*
D03*
Y238500D02*
D03*
Y231999D02*
D03*
Y225499D02*
D03*
Y219000D02*
D03*
X830250Y420500D02*
D03*
Y427000D02*
D03*
Y433500D02*
D03*
Y440000D02*
D03*
Y446501D02*
D03*
D48*
X596500Y231250D02*
D03*
X575500Y224750D02*
D03*
Y237750D02*
D03*
D49*
X252000Y190000D02*
D03*
X216000D02*
D03*
D50*
X346000Y173250D02*
D03*
Y155750D02*
D03*
X212750Y243750D02*
D03*
Y226250D02*
D03*
X593000Y51750D02*
D03*
Y34250D02*
D03*
X156000Y236500D02*
D03*
Y219000D02*
D03*
D51*
X789500Y186000D02*
D03*
X772000D02*
D03*
X267000Y13500D02*
D03*
X284500D02*
D03*
X338250Y13250D02*
D03*
X355750D02*
D03*
X67000Y55750D02*
D03*
X84500D02*
D03*
X818500Y289500D02*
D03*
X836000D02*
D03*
X850250Y356000D02*
D03*
X867750D02*
D03*
X596000Y14750D02*
D03*
X578500D02*
D03*
X792250Y126000D02*
D03*
X809750D02*
D03*
X248000Y226250D02*
D03*
X230500D02*
D03*
X248000Y240750D02*
D03*
X230500D02*
D03*
X48750Y207000D02*
D03*
X31250D02*
D03*
X301250Y223000D02*
D03*
X283750D02*
D03*
X155750Y199750D02*
D03*
X173250D02*
D03*
X291750Y162000D02*
D03*
X274250D02*
D03*
D52*
X344000Y55750D02*
D03*
X334500D02*
D03*
X325000D02*
D03*
X344000Y33750D02*
D03*
X334500D02*
D03*
X325000D02*
D03*
X861500Y337000D02*
D03*
X852000D02*
D03*
X842500D02*
D03*
X861500Y315000D02*
D03*
X852000D02*
D03*
X842500D02*
D03*
X574250Y54750D02*
D03*
X564750D02*
D03*
X555250D02*
D03*
X574250Y32750D02*
D03*
X564750D02*
D03*
X555250D02*
D03*
D53*
X459500Y169750D02*
D03*
X452500D02*
D03*
X456000Y161250D02*
D03*
X813250Y204750D02*
D03*
X806250D02*
D03*
X809750Y196250D02*
D03*
X485500Y169750D02*
D03*
X489000Y161250D02*
D03*
X482000D02*
D03*
X422500D02*
D03*
X429500D02*
D03*
X426000Y169750D02*
D03*
X637000Y98250D02*
D03*
X640500Y89750D02*
D03*
X633500D02*
D03*
X814500Y461750D02*
D03*
X811000Y470250D02*
D03*
X818000D02*
D03*
D54*
X812750Y228750D02*
D03*
X804250Y225250D02*
D03*
Y232250D02*
D03*
X599500Y76750D02*
D03*
Y83750D02*
D03*
X591000Y80250D02*
D03*
X301000Y517750D02*
D03*
Y524750D02*
D03*
X292500Y521250D02*
D03*
X263000Y529500D02*
D03*
X271500Y533000D02*
D03*
Y526000D02*
D03*
X239250Y511000D02*
D03*
Y518000D02*
D03*
X230750Y514500D02*
D03*
X73000Y425250D02*
D03*
X64500Y421750D02*
D03*
Y428750D02*
D03*
D55*
X603000Y122000D02*
D03*
X596500D02*
D03*
X590000D02*
D03*
X583500D02*
D03*
Y166000D02*
D03*
X590000D02*
D03*
X596500D02*
D03*
X603000D02*
D03*
D56*
X292250Y190500D02*
D03*
D57*
X180750Y524250D02*
D03*
X140750D02*
D03*
X866750Y376250D02*
D03*
X834750D02*
D03*
X359000Y82000D02*
D03*
X327000D02*
D03*
X92250Y88750D02*
D03*
X60250D02*
D03*
D58*
X851750Y292000D02*
D03*
X867750D02*
D03*
X320250Y13500D02*
D03*
X304250D02*
D03*
D59*
X78000Y22000D02*
D03*
Y38000D02*
D03*
D60*
X16250Y123750D02*
D03*
Y102750D02*
D03*
D61*
X148500Y353750D02*
D03*
Y360250D02*
D03*
Y366750D02*
D03*
Y373250D02*
D03*
X107500Y353750D02*
D03*
Y360250D02*
D03*
Y366750D02*
D03*
Y373250D02*
D03*
D62*
X779500Y198250D02*
D03*
X789500D02*
D03*
D125*
X810573Y443872D02*
G03*
X812882Y446181I0J2309D01*
G01*
X810573Y443872D02*
G03*
X808264Y441563I0J-2309D01*
G01*
Y441563D02*
G03*
X810573Y439254I2309J0D01*
G01*
X812882Y436945D02*
G03*
X810573Y439254I-2309J0D01*
G01*
X796382Y256379D02*
G03*
X794073Y258688I-2309J0D01*
G01*
X791764Y260997D02*
G03*
X794073Y258688I2309J0D01*
G01*
Y263306D02*
G03*
X791764Y260997I0J-2309D01*
G01*
X794073Y263306D02*
G03*
X796382Y265615I0J2309D01*
G01*
X487559Y134948D02*
X488507Y134000D01*
X483941Y148142D02*
Y159611D01*
X476000Y134000D02*
X483493D01*
X487059Y149434D02*
X487559Y148934D01*
X483941Y148142D02*
X484441Y147642D01*
Y134948D02*
Y147642D01*
X488507Y134000D02*
X496000D01*
X487559Y134948D02*
Y148934D01*
X483493Y134000D02*
X484441Y134948D01*
X487059Y149434D02*
Y159611D01*
X427559Y134948D02*
Y146066D01*
X428507Y134000D02*
X436000D01*
X427559Y134948D02*
X428507Y134000D01*
X424441Y134948D02*
Y147358D01*
X416000Y134000D02*
X423493D01*
X424441Y134948D01*
X481921Y167020D02*
X483941Y165000D01*
Y162889D02*
Y165000D01*
X482993Y161941D02*
X483941Y162889D01*
X482000Y161250D02*
X482691Y161941D01*
X482993D01*
X482000Y161250D02*
X482691Y160559D01*
X482993D01*
X483941Y159611D01*
X481171Y177480D02*
X483882Y180191D01*
X481171Y172861D02*
X481921Y172111D01*
X481171Y172861D02*
Y177480D01*
X487059Y162889D02*
Y165000D01*
X489079Y167020D01*
X488007Y161941D02*
X488309D01*
X489000Y161250D01*
X487059Y162889D02*
X488007Y161941D01*
X488309Y160559D02*
X489000Y161250D01*
X487059Y159611D02*
X488007Y160559D01*
X488309D01*
X489829Y172861D02*
Y177480D01*
X489079Y172111D02*
X489829Y172861D01*
X487000Y180309D02*
X489829Y177480D01*
X481921Y167020D02*
Y172111D01*
X489079Y167020D02*
Y172111D01*
X400750Y389909D02*
X487000Y303659D01*
Y180309D02*
Y303659D01*
X483882Y180191D02*
Y302368D01*
X397632Y388618D02*
X483882Y302368D01*
X812882Y446181D02*
Y449635D01*
X810573Y443872D02*
X810573D01*
X808264Y441563D02*
Y441563D01*
X810573Y439254D02*
X810573D01*
X812882Y436136D02*
Y436945D01*
Y449635D02*
Y452246D01*
Y434208D02*
Y436136D01*
Y434208D02*
X818399Y428691D01*
X796382Y251191D02*
Y256379D01*
X794073Y258688D02*
X794073D01*
X791764Y260997D02*
Y260997D01*
X794073Y263306D02*
X794073D01*
X796382Y265615D02*
Y271042D01*
Y230018D02*
Y251191D01*
Y271042D02*
Y496868D01*
X816000Y435500D02*
Y452128D01*
X816059Y465956D02*
X818829Y463185D01*
Y454957D02*
Y463185D01*
X816000Y435500D02*
X819691Y431809D01*
X810171Y454957D02*
Y463185D01*
Y454957D02*
X812882Y452246D01*
X816000Y452128D02*
X818829Y454957D01*
X816059Y465956D02*
Y468611D01*
X819691Y431809D02*
X823809D01*
X825500Y433500D01*
X810171Y463185D02*
X812941Y465956D01*
X823809Y428691D02*
X825500Y427000D01*
X812941Y471889D02*
Y493309D01*
X811993Y470941D02*
X812941Y471889D01*
X811993Y469559D02*
X812941Y468611D01*
X811691Y470941D02*
X811993D01*
X811000Y470250D02*
X811691Y470941D01*
Y469559D02*
X811993D01*
X812941Y465956D02*
Y468611D01*
X480253Y522250D02*
X784000D01*
X473503Y515500D02*
X480253Y522250D01*
X473754Y497666D02*
X474445Y496975D01*
X473503Y505864D02*
X473754Y505614D01*
X473503Y505864D02*
Y515500D01*
X473754Y497666D02*
Y505614D01*
X784000Y522250D02*
X812941Y493309D01*
X811000Y470250D02*
X811691Y469559D01*
X817309Y470941D02*
X818000Y470250D01*
X817309Y469559D02*
X818000Y470250D01*
X817007Y469559D02*
X817309D01*
X817007Y470941D02*
X817309D01*
X816059Y468611D02*
X817007Y469559D01*
X478962Y525368D02*
X785292D01*
X470386Y516791D02*
X478962Y525368D01*
X470386Y505864D02*
Y516791D01*
X470135Y497666D02*
Y505614D01*
X470386Y505864D01*
X469445Y496975D02*
X470135Y497666D01*
X816059Y471889D02*
X817007Y470941D01*
X785292Y525368D02*
X816059Y494600D01*
Y471889D02*
Y494600D01*
X818399Y428691D02*
X823809D01*
X781041Y516618D02*
X799500Y498159D01*
X779750Y513500D02*
X796382Y496868D01*
X507458Y516618D02*
X781041D01*
X500386Y509545D02*
X507458Y516618D01*
X500386Y505864D02*
Y509545D01*
X500135Y497666D02*
Y505614D01*
X500386Y505864D01*
X499445Y496975D02*
X500135Y497666D01*
X805889Y233250D02*
X814015D01*
X805580Y232941D02*
X805889Y233250D01*
X825000Y231999D02*
X829750D01*
X804941Y232941D02*
X805580D01*
X804250Y232250D02*
X804941Y232941D01*
X823309Y230308D02*
X825000Y231999D01*
X816956Y230308D02*
X823309D01*
X814015Y233250D02*
X816956Y230308D01*
X802309Y230309D02*
X804250Y232250D01*
X800500Y230309D02*
X802309D01*
X799500Y231309D02*
X800500Y230309D01*
X799500Y231309D02*
Y498159D01*
X508750Y513500D02*
X779750D01*
X503503Y508253D02*
X508750Y513500D01*
X503754Y497666D02*
X504445Y496975D01*
X503503Y505864D02*
X503754Y505614D01*
X503503Y505864D02*
Y508253D01*
X503754Y497666D02*
Y505614D01*
X823309Y227190D02*
X825000Y225499D01*
X816955Y227190D02*
X823309D01*
X825000Y225499D02*
X829750D01*
X802309Y227191D02*
X804250Y225250D01*
X799209Y227191D02*
X802309D01*
X804250Y225250D02*
X804941Y224559D01*
X814015Y224250D02*
X816955Y227190D01*
X805889Y224250D02*
X814015D01*
X804941Y224559D02*
X805580D01*
X805889Y224250D01*
X796382Y230018D02*
X799209Y227191D01*
X400750Y389909D02*
Y435500D01*
X353503Y482747D02*
X400750Y435500D01*
X350386Y481455D02*
X397632Y434209D01*
Y388618D02*
Y434209D01*
X408750Y402500D02*
Y438659D01*
Y402500D02*
X457520Y353730D01*
X408750Y438659D02*
X422709Y452618D01*
X411868Y437368D02*
X424000Y449500D01*
X411868Y403792D02*
X460638Y355022D01*
X411868Y403792D02*
Y437368D01*
X424441Y211108D02*
X424441Y211108D01*
X337886Y400364D02*
X424441Y313809D01*
X429309Y204441D02*
Y204441D01*
X424441Y211108D02*
Y313809D01*
X427559Y206191D02*
Y315100D01*
X421000Y203750D02*
X422000D01*
X430000D02*
X431000D01*
X341003Y401656D02*
X427559Y315100D01*
X429309Y204441D02*
X430000Y203750D01*
X424441Y206191D02*
Y211108D01*
X422000Y203750D02*
X424441Y206191D01*
X427559Y206191D02*
X429309Y204441D01*
X341003Y401656D02*
Y406086D01*
X337886Y400364D02*
Y406086D01*
X427559Y191309D02*
X430000Y193750D01*
X427559Y179313D02*
Y191309D01*
X430000Y193750D02*
X430750D01*
X421000Y194250D02*
X421500D01*
X424441Y179313D02*
Y191309D01*
X421500Y194250D02*
X424441Y191309D01*
X452421Y169671D02*
X452500Y169750D01*
X452421Y157000D02*
Y169671D01*
X454441Y119948D02*
Y123381D01*
X453493Y119000D02*
X454441Y119948D01*
X452421Y157000D02*
X453171Y156250D01*
Y143750D02*
Y156250D01*
X447921Y129901D02*
X454441Y123381D01*
X447921Y138500D02*
X453171Y143750D01*
X447921Y129901D02*
Y138500D01*
X446000Y119000D02*
X453493D01*
X459500Y169750D02*
X459579Y169671D01*
Y157000D02*
Y169671D01*
X458829Y143750D02*
Y156250D01*
X464079Y129901D02*
Y138500D01*
X458829Y143750D02*
X464079Y138500D01*
X458829Y156250D02*
X459579Y157000D01*
X457559Y123381D02*
X464079Y129901D01*
X458507Y119000D02*
X466000D01*
X457559Y119948D02*
Y123381D01*
Y119948D02*
X458507Y119000D01*
X488503Y468753D02*
Y488086D01*
X488754Y488336D01*
X469250Y449500D02*
X488503Y468753D01*
X484445Y496975D02*
X485135Y496284D01*
X488754D02*
X489445Y496975D01*
X488754Y488336D02*
Y496284D01*
X485135Y488336D02*
Y496284D01*
Y488336D02*
X485386Y488086D01*
Y470045D02*
Y488086D01*
X467959Y452618D02*
X485386Y470045D01*
X422709Y452618D02*
X467959D01*
X424000Y449500D02*
X469250D01*
X456174Y347750D02*
Y348530D01*
X457520Y349876D01*
Y353730D01*
X461984Y347750D02*
Y348530D01*
X460638Y349876D02*
X461984Y348530D01*
X460638Y349876D02*
Y355022D01*
X447530Y321710D02*
X448876Y323056D01*
X451526D01*
X454441Y242566D02*
Y320141D01*
X457559Y243857D02*
Y321433D01*
X446750Y321710D02*
X447530D01*
X446750Y327520D02*
X447530D01*
X451526Y323056D02*
X454441Y320141D01*
X447530Y327520D02*
X448876Y326174D01*
X452818D01*
X457559Y321433D01*
Y243857D02*
X457559Y243857D01*
X458809Y170441D02*
X459500Y169750D01*
X458507Y170441D02*
X458809D01*
X457559Y171389D02*
X458507Y170441D01*
X457559Y171389D02*
Y243857D01*
X452500Y169750D02*
X453191Y170441D01*
X454441Y171389D02*
Y242566D01*
X454441Y242566D02*
X454441Y242566D01*
X453493Y170441D02*
X454441Y171389D01*
X453191Y170441D02*
X453493D01*
X337635Y406336D02*
X337886Y406086D01*
X341254Y406336D02*
Y414284D01*
X341003Y406086D02*
X341254Y406336D01*
X336945Y414975D02*
X337635Y414284D01*
Y406336D02*
Y414284D01*
X341254D02*
X341945Y414975D01*
X421671Y176543D02*
X424441Y179313D01*
X421671Y172957D02*
Y176543D01*
X422421Y167389D02*
X424441Y165369D01*
X422421Y167389D02*
Y172207D01*
X427559Y179313D02*
X430329Y176543D01*
X427559Y165369D02*
X429579Y167389D01*
X430329Y172957D02*
Y176543D01*
X421671Y172957D02*
X422421Y172207D01*
X429579Y167389D02*
Y172207D01*
X430329Y172957D01*
X423493Y160559D02*
X424441Y159611D01*
Y147358D02*
Y159611D01*
X423191Y160559D02*
X423493D01*
X424441Y147358D02*
X424441Y147358D01*
X422500Y161250D02*
X423191Y160559D01*
X428809D02*
X429500Y161250D01*
X428507Y160559D02*
X428809D01*
X427559Y159611D02*
X428507Y160559D01*
X427559Y146066D02*
Y159611D01*
X427559Y146066D02*
X427559Y146066D01*
X424441Y162889D02*
Y165369D01*
X427559Y162889D02*
Y165369D01*
X422500Y161250D02*
X423191Y161941D01*
X423493D01*
X424441Y162889D01*
X428809Y161941D02*
X429500Y161250D01*
X428507Y161941D02*
X428809D01*
X427559Y162889D02*
X428507Y161941D01*
X353754Y496284D02*
X354445Y496975D01*
X353754Y488336D02*
Y496284D01*
X353503Y488086D02*
X353754Y488336D01*
X353503Y482747D02*
Y488086D01*
X350135Y488336D02*
X350386Y488086D01*
X350135Y488336D02*
Y496284D01*
X349445Y496975D02*
X350135Y496284D01*
X350386Y481455D02*
Y488086D01*
D126*
X741126Y439608D02*
G03*
X738911Y437392I0J-2215D01*
G01*
X734480Y435030D02*
G03*
X738911Y435030I2215J0D01*
G01*
X734480Y437392D02*
G03*
X732264Y439607I-2215J0D01*
G01*
X732980Y379992D02*
G03*
X730264Y382707I-2715J0D01*
G01*
X728508Y388138D02*
G03*
X728508Y382707I0J-2715D01*
G01*
X730264Y388138D02*
G03*
X732980Y390854I0J2715D01*
G01*
X683727Y349819D02*
X725642D01*
X684940Y352750D02*
X724428D01*
X676270Y361421D02*
X684940Y352750D01*
X735910Y360088D02*
Y406102D01*
X673339Y360206D02*
X683727Y349819D01*
X724428Y352750D02*
X732980Y361302D01*
X725642Y349819D02*
X735910Y360088D01*
X673339Y360206D02*
Y384480D01*
X676270Y361421D02*
Y384480D01*
X660107Y439607D02*
X727118Y439607D01*
X744785Y439608D02*
X745500Y439608D01*
X741126Y439608D02*
X744785Y439608D01*
X741126Y439607D02*
Y439608D01*
X738911Y435030D02*
Y437392D01*
X734480Y435030D02*
Y437392D01*
X727833Y439607D02*
X732264D01*
X727118D02*
X727833D01*
X745500Y439608D02*
X773893D01*
X775107Y442538D02*
X780931Y436714D01*
X744207Y442538D02*
X744207Y442538D01*
X775107D01*
X773893Y439608D02*
X778000Y435500D01*
X659933Y442538D02*
X744207D01*
X658406Y444065D02*
X659933Y442538D01*
X657575Y444065D02*
X658406D01*
X658580Y438080D02*
X660107Y439607D01*
X657750Y438080D02*
X658580D01*
X780931Y398036D02*
Y436714D01*
X765910Y401090D02*
Y406102D01*
X766160Y406352D01*
X770500Y396500D02*
X775250D01*
X778000Y399250D01*
X765910Y401090D02*
X770500Y396500D01*
X778000Y399250D02*
Y435500D01*
X766160Y414190D02*
X766945Y414975D01*
X766160Y406352D02*
Y414190D01*
X762979Y399876D02*
Y406102D01*
X762729Y406352D02*
X762979Y406102D01*
X769286Y393569D02*
X776464D01*
X780931Y398036D01*
X762979Y399876D02*
X769286Y393569D01*
X761945Y414975D02*
X762729Y414190D01*
Y406352D02*
Y414190D01*
X732980Y367647D02*
Y379992D01*
X728508Y382707D02*
X730264D01*
X728508Y388138D02*
X730264D01*
X732980Y390854D02*
Y397000D01*
Y361302D02*
Y367647D01*
Y397000D02*
Y406102D01*
X750910Y373000D02*
Y406102D01*
X746560Y368545D02*
X747999Y369984D01*
X751160Y414190D02*
X751945Y414975D01*
X751160Y406352D02*
Y414190D01*
X750910Y406102D02*
X751160Y406352D01*
X747729Y406352D02*
Y414190D01*
Y406352D02*
X747979Y406102D01*
X746945Y414975D02*
X747729Y414190D01*
X747979Y371786D02*
X747999Y371766D01*
X750910Y373000D02*
X750930Y372980D01*
X752370Y367714D02*
Y368545D01*
X746560Y367714D02*
Y368545D01*
X750930Y369984D02*
X752370Y368545D01*
X750930Y369984D02*
Y372980D01*
X747979Y371786D02*
Y406102D01*
X747999Y369984D02*
Y371766D01*
X671900Y385919D02*
X673339Y384480D01*
X677710Y385919D02*
Y386750D01*
X671900Y385919D02*
Y386750D01*
X676270Y384480D02*
X677710Y385919D01*
X735910Y406102D02*
X736160Y406352D01*
Y414190D01*
X736945Y414975D01*
X732729Y406352D02*
Y414190D01*
Y406352D02*
X732980Y406102D01*
X731945Y414975D02*
X732729Y414190D01*
D127*
X158500Y65000D02*
D03*
D128*
X148000D02*
D03*
D129*
X794250Y167750D02*
D03*
D130*
Y157250D02*
D03*
D131*
X666750Y91825D02*
D03*
Y100170D02*
D03*
X693250Y100170D02*
D03*
Y91825D02*
D03*
D132*
X856500Y244000D02*
D03*
Y220000D02*
D03*
X857000Y421500D02*
D03*
Y445500D02*
D03*
D133*
X14904Y147576D02*
Y153750D01*
X14500D02*
X14904D01*
Y147576D02*
X15000Y147480D01*
Y139750D02*
Y147480D01*
X606250Y188500D02*
X607304D01*
X614750Y190402D02*
Y218615D01*
X607745Y188059D02*
X612407D01*
X614750Y190402D01*
X607304Y188500D02*
X607745Y188059D01*
X614500Y218865D02*
X614750Y218615D01*
X614500Y218865D02*
Y219000D01*
X605500Y188500D02*
X607304D01*
X605500Y180250D02*
Y187250D01*
X621750Y172500D02*
Y177000D01*
X623250Y178500D01*
X789250Y223250D02*
Y228750D01*
X774343Y198250D02*
X779500D01*
X772000Y186000D02*
Y195907D01*
X774343Y198250D01*
X809750Y196250D02*
X828251D01*
X832000Y200000D01*
X160500Y271750D02*
X167250Y278500D01*
Y281000D01*
X147250Y271750D02*
X160500D01*
X123945Y338250D02*
X129615D01*
X818445Y335975D02*
Y357695D01*
X818500Y357750D01*
X829750Y245000D02*
X840750D01*
X840750Y245000D01*
X832000Y200000D02*
X833000Y199000D01*
X856500D01*
Y244000D02*
Y265000D01*
Y220000D02*
Y244000D01*
Y199000D02*
Y220000D01*
X833000Y265000D02*
X856500D01*
X832000Y264000D02*
X833000Y265000D01*
X866750Y376250D02*
Y392586D01*
X858835Y400500D02*
X866750Y392586D01*
X857000Y400500D02*
X858835D01*
X867250Y356500D02*
X867750Y356000D01*
X867250Y356500D02*
Y375750D01*
X866750Y376250D02*
X867250Y375750D01*
X832500Y401500D02*
X833500Y400500D01*
X857000D01*
Y421500D01*
Y445500D02*
Y466500D01*
X832500Y465500D02*
X833500Y466500D01*
X857000D01*
X830250Y440000D02*
X838115D01*
X841865Y443750D01*
X842000D01*
X830250Y446501D02*
X839249D01*
X842000Y443750D01*
X819250Y415750D02*
X819500Y416000D01*
X821843Y420500D02*
X830250D01*
X819500Y418157D02*
X821843Y420500D01*
X819500Y416000D02*
Y418157D01*
X792000Y126250D02*
X792250Y126000D01*
X792000Y126250D02*
Y136250D01*
X794750Y139000D02*
X801250D01*
X792000Y136250D02*
X794750Y139000D01*
X783500Y157250D02*
X794250D01*
X783250Y157000D02*
X783500Y157250D01*
X797000Y43000D02*
X812750D01*
X799000Y64500D02*
X800750Y62750D01*
Y62500D02*
Y62750D01*
X799000Y64500D02*
Y69750D01*
Y90250D02*
Y98000D01*
X799250Y98250D01*
X603000Y164750D02*
Y177750D01*
X628250Y147250D02*
Y153500D01*
Y147250D02*
X641250Y134250D01*
X109250Y338250D02*
X114944D01*
X91000Y324000D02*
X95000D01*
X109250Y338250D01*
X114944D02*
Y338750D01*
X123945Y338250D02*
Y338750D01*
X129615Y338250D02*
X133365Y334500D01*
X133500D01*
X131445Y370441D02*
Y387750D01*
Y370441D02*
X136500Y365385D01*
Y365250D02*
Y365385D01*
X95750Y360250D02*
X107500D01*
X90000Y359000D02*
X94500D01*
X95750Y360250D01*
X90000Y359000D02*
Y366500D01*
X90000Y366500D01*
X167000Y368000D02*
X173000D01*
X173250Y368250D01*
X148500Y366750D02*
X165250D01*
X166500Y368000D01*
X167000D01*
X138000Y285000D02*
X148000D01*
X133500Y289500D02*
Y334500D01*
Y289500D02*
X138000Y285000D01*
X148000Y273000D02*
Y285000D01*
X147250Y272250D02*
X148000Y273000D01*
X147250Y271750D02*
Y272250D01*
X65750Y271249D02*
X91250D01*
X91000Y272250D02*
Y285000D01*
Y272250D02*
X91250Y272000D01*
Y271500D02*
Y272000D01*
Y271249D02*
Y271500D01*
Y265000D02*
Y271249D01*
X12000Y67750D02*
Y86207D01*
X5750Y92457D02*
X12000Y86207D01*
X16250Y123000D02*
Y123750D01*
X5750Y112500D02*
X16250Y123000D01*
X5750Y92457D02*
Y112500D01*
X173000Y215000D02*
X173125Y214875D01*
Y199875D02*
Y214875D01*
Y199875D02*
X173250Y199750D01*
X16000Y124000D02*
X16250Y123750D01*
X16000Y124000D02*
Y138750D01*
X15000Y139750D02*
X16000Y138750D01*
X94000Y146799D02*
X103799D01*
X104000Y147000D01*
X159250Y324000D02*
X159250Y324000D01*
X148000Y324000D02*
X159250D01*
X90750Y271500D02*
X90875Y271625D01*
D134*
X199445Y512337D02*
X211108Y524000D01*
X250250D02*
X257750Y516500D01*
X211108Y524000D02*
X250250D01*
X194445Y514408D02*
X208037Y528000D01*
X251750D01*
X207000Y532000D02*
X254000D01*
X191378Y516378D02*
X207000Y532000D01*
X236945Y426445D02*
X252000Y441500D01*
X339250D01*
X184445Y510444D02*
X188250Y514250D01*
Y521000D02*
X202750Y535500D01*
X188250Y514250D02*
Y521000D01*
X202750Y535500D02*
X269000D01*
X191378Y509878D02*
Y516378D01*
X189569Y497100D02*
Y508069D01*
X191378Y509878D01*
X184445Y496975D02*
Y510444D01*
X194445Y496975D02*
Y514408D01*
X254000Y532000D02*
X261000Y525000D01*
X269000Y535500D02*
X271500Y533000D01*
X270898Y525398D02*
X271500Y526000D01*
X270244Y525398D02*
X270898D01*
X269846Y525000D02*
X270244Y525398D01*
X261000Y525000D02*
X269846D01*
X271500Y526000D02*
X283250D01*
X290750Y533500D01*
X259250Y520500D02*
X285000D01*
X290500Y526000D01*
X251750Y528000D02*
X259250Y520500D01*
X299750Y516500D02*
X301000Y517750D01*
X257750Y516500D02*
X299750D01*
X301000Y517750D02*
X320500D01*
X320750Y517500D01*
X301000Y524750D02*
X306500D01*
X290500Y526000D02*
X299750D01*
X301000Y524750D01*
X189445Y496975D02*
X189569Y497100D01*
X239250Y518000D02*
X243500D01*
X244250Y518750D01*
X245500D01*
X271500Y533000D02*
X278500D01*
X196750Y470302D02*
Y480250D01*
X204445Y470302D02*
Y496975D01*
X203392Y469250D02*
X204445Y470302D01*
X197802Y469250D02*
X203392D01*
X196750Y470302D02*
X197802Y469250D01*
X247526Y511000D02*
X247852Y511326D01*
X239250Y511000D02*
X247526D01*
X238648Y518602D02*
X239250Y518000D01*
X237146Y518602D02*
X238648D01*
X236748Y519000D02*
X237146Y518602D01*
X223918Y514918D02*
X228000Y519000D01*
X236748D01*
X223250Y514918D02*
X223918D01*
X214750Y510500D02*
X232000D01*
X233000Y509500D01*
X236248D01*
X196750Y480250D02*
X199500Y483000D01*
X238648Y510398D02*
X239250Y511000D01*
X237146Y510398D02*
X238648D01*
X236248Y509500D02*
X237146Y510398D01*
X216000Y463750D02*
Y473500D01*
X214750Y474750D02*
X216000Y473500D01*
X209445Y460806D02*
X210506Y459744D01*
X211994D01*
X216000Y463750D01*
X209445Y460806D02*
Y496975D01*
X199445D02*
Y512337D01*
X236945Y414975D02*
Y426445D01*
X614216Y151534D02*
Y177966D01*
X631250Y117750D02*
Y134500D01*
X614216Y151534D02*
X631250Y134500D01*
X640500Y89750D02*
X646750D01*
X650750Y73250D02*
Y85750D01*
X646750Y89750D02*
X650750Y85750D01*
X797000Y52000D02*
Y58551D01*
X792500Y63051D02*
X797000Y58551D01*
X792500Y63051D02*
Y69250D01*
X839650Y78400D02*
X853750D01*
X813250Y52000D02*
X839650Y78400D01*
X812750Y52000D02*
X813250D01*
X614216Y177966D02*
X620750Y184500D01*
X589483Y165267D02*
X590000Y164750D01*
X620750Y184500D02*
Y218998D01*
X596500Y231250D02*
X604332Y223418D01*
X616330D02*
X620750Y218998D01*
X604332Y223418D02*
X616330D01*
X596500Y231250D02*
Y258250D01*
X644750Y98000D02*
Y104250D01*
X631250Y117750D02*
X644750Y104250D01*
X640500Y89750D02*
Y93750D01*
X644750Y98000D01*
D135*
X173750Y377000D02*
X173918Y376832D01*
X167000Y377000D02*
X167000Y377000D01*
X173750D01*
X810250Y95000D02*
Y98000D01*
X806750Y91500D02*
X810250Y95000D01*
X605750Y197500D02*
Y204563D01*
X605597Y204716D02*
X605750Y204563D01*
X852000Y302750D02*
Y315000D01*
Y302750D02*
X852250Y302500D01*
X818500Y289000D02*
Y289500D01*
Y289000D02*
X828500Y279000D01*
X831250D01*
X783500Y167750D02*
X794250D01*
X783250Y168000D02*
X783500Y167750D01*
X810000Y167750D02*
X810000Y167750D01*
X794250Y167750D02*
X810000D01*
X794250Y167750D02*
X794250Y167750D01*
X810000Y139250D02*
Y151750D01*
Y139250D02*
X810250Y139000D01*
Y127000D02*
Y139000D01*
Y126000D02*
Y127000D01*
X810750Y127500D01*
X809750Y125500D02*
X810250Y126000D01*
X852050Y127500D02*
X853750Y129199D01*
X810750Y127500D02*
X852050D01*
X576000Y165750D02*
X583250D01*
X630500Y193750D02*
Y199250D01*
X618250Y133000D02*
X618250Y133000D01*
Y139000D01*
X596000Y14750D02*
Y15250D01*
X597000Y16250D01*
X611000D01*
X612500Y17750D01*
X574250Y54750D02*
Y68250D01*
X564750Y54750D02*
Y67500D01*
X593000Y51750D02*
X600750D01*
X593000Y51750D02*
X593000Y51750D01*
X593000Y34250D02*
X603000D01*
X574250Y32750D02*
X591000D01*
X592500Y34250D01*
X593000D01*
X155750Y199750D02*
X155875Y199875D01*
Y218875D01*
X37750Y444000D02*
X49500D01*
X37750Y444000D02*
X37750Y444000D01*
X38250Y406500D02*
X38250Y406500D01*
X37750Y406500D02*
X38250D01*
X38250Y406500D02*
X49500D01*
X63444Y368475D02*
Y375975D01*
Y368475D02*
X87919Y344000D01*
X90000D01*
Y350000D01*
X148500Y360250D02*
X148750Y360000D01*
X159000D01*
X159000Y360000D01*
X147250Y244750D02*
Y271750D01*
Y244750D02*
X155500Y236500D01*
X156000D01*
X131750Y271750D02*
X138250D01*
X131750Y271750D02*
X131750Y271750D01*
X100250Y265250D02*
Y271500D01*
Y265250D02*
X100500Y265000D01*
X37499Y267749D02*
X49500D01*
X37250Y267500D02*
X37499Y267749D01*
X20750Y207000D02*
X31250D01*
X20500Y206750D02*
X20750Y207000D01*
X125500Y207500D02*
X131750D01*
X106000Y192000D02*
Y198500D01*
Y192000D02*
X106000Y192000D01*
X155875Y218875D02*
X156000Y219000D01*
X172750Y236750D02*
X173000Y237000D01*
X156250Y236750D02*
X172750D01*
X156000Y236500D02*
X156250Y236750D01*
X334500Y55750D02*
Y71250D01*
X329750Y76000D02*
X334500Y71250D01*
X329500Y76000D02*
X329750D01*
X327000Y78500D02*
X329500Y76000D01*
X327000Y78500D02*
Y82000D01*
X194250Y22500D02*
X204000D01*
X194250Y22500D02*
X194250Y22500D01*
X295750Y76000D02*
X301000Y70750D01*
X279500Y76000D02*
X295750D01*
X276250Y79250D02*
X279500Y76000D01*
X356750Y13750D02*
X366750D01*
X356500Y13500D02*
X356750Y13750D01*
D136*
X365250Y142500D02*
X381750D01*
X420617Y119383D02*
X421000Y119000D01*
X404867Y119383D02*
X420617D01*
X381750Y142500D02*
X404867Y119383D01*
D137*
X179500Y225000D02*
X179500Y225000D01*
X61750Y217000D02*
Y219500D01*
Y217000D02*
X64250D01*
X61750Y219500D02*
X61750Y219500D01*
X61750Y219500D02*
Y225250D01*
X64250Y217000D02*
X76750D01*
X79250Y214500D01*
X179500Y215000D02*
Y225000D01*
X301250Y223000D02*
X301500Y222750D01*
Y215789D02*
Y222750D01*
X294750Y209039D02*
X301500Y215789D01*
X294750Y205500D02*
Y209039D01*
X307250Y175750D02*
Y183000D01*
X307250Y175750D02*
X307250Y175750D01*
X299750Y175500D02*
Y181913D01*
D138*
X836875Y310125D02*
D03*
D139*
X837875Y356125D02*
D03*
D140*
X60125Y88875D02*
D03*
D141*
X144528Y493013D02*
D03*
D142*
X200875Y221250D02*
D03*
D143*
X186625Y199750D02*
D03*
D144*
X208125Y239875D02*
D03*
D145*
X222250Y218250D02*
D03*
D146*
X228500Y207750D02*
D03*
D147*
X254250Y233625D02*
D03*
D148*
X272000Y162000D02*
D03*
D149*
X272875Y190625D02*
D03*
D150*
X271625Y175000D02*
D03*
D151*
X270000Y181875D02*
D03*
D152*
Y199375D02*
D03*
D153*
X272250Y205375D02*
D03*
D154*
X83125Y521000D02*
D03*
D155*
X141972Y419362D02*
D03*
D156*
X346375Y174500D02*
D03*
D157*
X784695Y455975D02*
D03*
D158*
X96694D02*
D03*
X853750Y154600D02*
D03*
Y129199D02*
D03*
Y103799D02*
D03*
Y78400D02*
D03*
X388289Y525180D02*
D03*
X362889D02*
D03*
D159*
X612500Y62750D02*
D03*
X721000D02*
D03*
D160*
X612500Y17750D02*
D03*
X721000D02*
D03*
D161*
X413689Y525180D02*
D03*
D162*
X856500Y265000D02*
D03*
Y199000D02*
D03*
X857000Y400500D02*
D03*
Y466500D02*
D03*
D163*
X181750Y261500D02*
D03*
X416000Y134000D02*
D03*
X436000D02*
D03*
X496000D02*
D03*
X476000D02*
D03*
X491000Y119000D02*
D03*
X456000Y134000D02*
D03*
X466000Y119000D02*
D03*
X446000D02*
D03*
X421000D02*
D03*
X86250Y404250D02*
D03*
X315000Y242250D02*
D03*
X745750Y282750D02*
D03*
X462500Y381250D02*
D03*
X386500Y181500D02*
D03*
X12000Y67750D02*
D03*
X204750Y269000D02*
D03*
D164*
X130000Y156000D02*
D03*
Y106000D02*
D03*
D165*
X30000Y76000D02*
D03*
Y186000D02*
D03*
D166*
X534500Y109700D02*
D03*
X377500D02*
D03*
D167*
X534500Y41700D02*
D03*
X377500D02*
D03*
D168*
X122695Y35975D02*
D03*
X758695D02*
D03*
D169*
X850000Y30000D02*
D03*
Y510000D02*
D03*
X30000D02*
D03*
Y30000D02*
D03*
D170*
X15000Y147480D02*
D03*
X216500Y324480D02*
D03*
X209500D02*
D03*
X224000D02*
D03*
X179500Y484000D02*
D03*
X288750Y392250D02*
D03*
X259250D02*
D03*
X254500Y483750D02*
D03*
X350750Y401250D02*
D03*
X344500Y512250D02*
D03*
X231500Y324250D02*
D03*
X184000Y248500D02*
D03*
X251750Y463250D02*
D03*
X203500Y433500D02*
D03*
X216500Y519500D02*
D03*
X313750Y522500D02*
D03*
X251500Y516500D02*
D03*
X284500Y534000D02*
D03*
X187250Y465000D02*
D03*
X151750Y517500D02*
D03*
X170250Y518250D02*
D03*
X362000Y484750D02*
D03*
X339250Y441500D02*
D03*
X158000Y464000D02*
D03*
X266773Y529521D02*
D03*
X320750Y517500D02*
D03*
X306500Y524750D02*
D03*
X290750Y533500D02*
D03*
X296750Y521250D02*
D03*
X245500Y518750D02*
D03*
X296000Y473750D02*
D03*
X289500Y473119D02*
D03*
X278500Y533000D02*
D03*
X247852Y511326D02*
D03*
X235000Y514500D02*
D03*
X223250Y514918D02*
D03*
X214750Y510500D02*
D03*
X199500Y483000D02*
D03*
X214750Y474750D02*
D03*
X256945Y427648D02*
D03*
X155000Y380000D02*
D03*
X173918Y376832D02*
D03*
X195106Y432106D02*
D03*
X186356Y431856D02*
D03*
X243750Y459250D02*
D03*
X236750Y457750D02*
D03*
X229750Y457250D02*
D03*
X255750Y346000D02*
D03*
X256000Y354000D02*
D03*
X137000Y464750D02*
D03*
Y474250D02*
D03*
X138750Y444500D02*
D03*
X154750Y443750D02*
D03*
X216750Y445000D02*
D03*
X726250Y432250D02*
D03*
X715500Y432750D02*
D03*
X714500Y449750D02*
D03*
X696250Y450000D02*
D03*
X684500Y449500D02*
D03*
X747250Y342000D02*
D03*
X757750Y353750D02*
D03*
X737500Y354250D02*
D03*
X741750Y387500D02*
D03*
X757750Y388000D02*
D03*
X719250Y395500D02*
D03*
X719750Y363500D02*
D03*
X690000Y396250D02*
D03*
X691000Y363250D02*
D03*
X658000Y365500D02*
D03*
X667000Y354250D02*
D03*
X679500Y343500D02*
D03*
X625000Y392500D02*
D03*
X609500Y392000D02*
D03*
X594250Y392250D02*
D03*
X579250Y392000D02*
D03*
X565500D02*
D03*
X564750Y450000D02*
D03*
X609500Y462250D02*
D03*
X594500D02*
D03*
X579000Y462000D02*
D03*
X563000Y371250D02*
D03*
X634250Y342000D02*
D03*
X625000Y351250D02*
D03*
X614000Y361750D02*
D03*
X595750Y350500D02*
D03*
X604000Y340750D02*
D03*
X464500Y314250D02*
D03*
X435000Y325750D02*
D03*
X434750Y342500D02*
D03*
X443500Y356250D02*
D03*
X466500Y360500D02*
D03*
X479000Y345250D02*
D03*
Y325750D02*
D03*
X450250Y347750D02*
D03*
X468000D02*
D03*
X445750Y333500D02*
D03*
X446750Y315750D02*
D03*
X657750Y450000D02*
D03*
Y432250D02*
D03*
X666000Y386750D02*
D03*
X683500D02*
D03*
X758250Y367750D02*
D03*
X740750D02*
D03*
X565323Y402177D02*
D03*
X578750Y450500D02*
D03*
Y432750D02*
D03*
X593750D02*
D03*
Y450500D02*
D03*
X608750Y432750D02*
D03*
Y450500D02*
D03*
X623750Y449750D02*
D03*
Y432000D02*
D03*
X636750Y452000D02*
D03*
X548500Y457000D02*
D03*
X79500Y304250D02*
D03*
X340500Y462000D02*
D03*
X353000Y467000D02*
D03*
X413014Y224750D02*
D03*
X414500Y235000D02*
D03*
X90000Y420000D02*
D03*
X89500Y433000D02*
D03*
X78500Y425250D02*
D03*
X485500Y174750D02*
D03*
X693250Y85750D02*
D03*
X605500Y180250D02*
D03*
X594250Y181787D02*
D03*
X583500Y181906D02*
D03*
X654750Y63000D02*
D03*
X585500Y264750D02*
D03*
X555250Y241500D02*
D03*
X74750Y326500D02*
D03*
X568500Y91500D02*
D03*
X605597Y204716D02*
D03*
X690750Y63250D02*
D03*
X702750Y63000D02*
D03*
X678750Y63250D02*
D03*
X666750Y63000D02*
D03*
X629750Y63500D02*
D03*
X309500Y206000D02*
D03*
X623250Y178500D02*
D03*
X756000Y452250D02*
D03*
X630750Y377000D02*
D03*
X562000Y438750D02*
D03*
X789250Y228750D02*
D03*
X143000Y231000D02*
D03*
X167250Y281000D02*
D03*
X181250Y328250D02*
D03*
X173500Y345000D02*
D03*
X818500Y357750D02*
D03*
X840750Y245000D02*
D03*
X842000Y443750D02*
D03*
X870250Y315000D02*
D03*
X852250Y302500D02*
D03*
X831250Y279000D02*
D03*
X814500Y456750D02*
D03*
X808552Y228750D02*
D03*
X783250Y157000D02*
D03*
Y168000D02*
D03*
X800750Y62500D02*
D03*
X799250Y98250D02*
D03*
X810250Y98000D02*
D03*
X576000Y165750D02*
D03*
X614500Y219000D02*
D03*
X630500Y199250D02*
D03*
Y229750D02*
D03*
X622000Y159750D02*
D03*
X611000Y148250D02*
D03*
X618250Y139000D02*
D03*
Y118000D02*
D03*
X620250Y100250D02*
D03*
X591750Y87500D02*
D03*
X574250Y68250D02*
D03*
X564750Y67500D02*
D03*
X600750Y51750D02*
D03*
X603000Y34250D02*
D03*
X179500Y225000D02*
D03*
X147750Y54750D02*
D03*
X158250Y54500D02*
D03*
X37750Y444000D02*
D03*
Y406500D02*
D03*
X90000Y344000D02*
D03*
Y366500D02*
D03*
X159000Y360000D02*
D03*
X173250Y368250D02*
D03*
X133500Y334500D02*
D03*
X136500Y365250D02*
D03*
X131750Y271750D02*
D03*
X100500Y265000D02*
D03*
X91250D02*
D03*
X37250Y267500D02*
D03*
X61750Y225250D02*
D03*
X49550Y231050D02*
D03*
X66500Y235750D02*
D03*
X137250Y244000D02*
D03*
X14750Y169750D02*
D03*
X20500Y206750D02*
D03*
X87500Y235750D02*
D03*
X75500Y237750D02*
D03*
X97500Y231250D02*
D03*
X131750Y207500D02*
D03*
X106000Y192000D02*
D03*
X97000Y200000D02*
D03*
X291750Y215750D02*
D03*
X222500Y217000D02*
D03*
X307250Y175750D02*
D03*
X315500Y55750D02*
D03*
X244500Y17500D02*
D03*
X194250Y22500D02*
D03*
X78250Y10000D02*
D03*
X267000Y23250D02*
D03*
X104000Y147000D02*
D03*
X79000Y311500D02*
D03*
X65750Y288000D02*
D03*
X74500Y288750D02*
D03*
X107500Y386250D02*
D03*
X736250Y185750D02*
D03*
X414000Y214500D02*
D03*
X748500Y185500D02*
D03*
X408000Y456250D02*
D03*
X399250Y456500D02*
D03*
X712000Y402750D02*
D03*
X727000D02*
D03*
X742000D02*
D03*
X757000D02*
D03*
X772000D02*
D03*
X723731Y453231D02*
D03*
X623803Y443803D02*
D03*
X623750Y437940D02*
D03*
X657575Y444065D02*
D03*
X657750Y438080D02*
D03*
X736750Y452000D02*
D03*
X624500Y401750D02*
D03*
X579250Y402000D02*
D03*
X609250D02*
D03*
X594000Y402250D02*
D03*
X752370Y367714D02*
D03*
X746560D02*
D03*
X671900Y386750D02*
D03*
X677710D02*
D03*
X461984Y347750D02*
D03*
X456174D02*
D03*
X446750Y327520D02*
D03*
Y321710D02*
D03*
X426000Y174750D02*
D03*
X545500Y246885D02*
D03*
Y241115D02*
D03*
X520920Y245670D02*
D03*
X525000Y249750D02*
D03*
X641250Y134250D02*
D03*
X660000D02*
D03*
X680250D02*
D03*
X700500D02*
D03*
X718000D02*
D03*
X637000Y102750D02*
D03*
X586000Y80250D02*
D03*
X619790Y397195D02*
D03*
X613980D02*
D03*
X608750Y438690D02*
D03*
X608803Y444553D02*
D03*
X604790Y397147D02*
D03*
X598980D02*
D03*
X578750Y438690D02*
D03*
X578803Y444553D02*
D03*
X574790Y397250D02*
D03*
X568980D02*
D03*
X593681Y438714D02*
D03*
X593734Y444577D02*
D03*
X589790Y397250D02*
D03*
X583980D02*
D03*
X666750Y85750D02*
D03*
D171*
X314500Y482500D02*
D03*
X329500D02*
D03*
X214613D02*
D03*
X149500Y428750D02*
D03*
X392000Y400500D02*
D03*
X316889Y429450D02*
D03*
X268750Y190750D02*
D03*
X288250Y186500D02*
D03*
Y194500D02*
D03*
X296250D02*
D03*
Y186500D02*
D03*
X758843Y430750D02*
D03*
X772041Y195948D02*
D03*
X541889Y281889D02*
D03*
X735250Y281750D02*
D03*
X833000Y309750D02*
D03*
X837000Y301500D02*
D03*
X792750Y137250D02*
D03*
X804750Y43000D02*
D03*
X70750Y94250D02*
D03*
X70500Y84000D02*
D03*
X50250Y84250D02*
D03*
X50000Y93500D02*
D03*
X156000Y209750D02*
D03*
X201250Y63500D02*
D03*
X276250Y63750D02*
D03*
X230250Y63500D02*
D03*
X245250D02*
D03*
X260750Y63750D02*
D03*
X215000Y63500D02*
D03*
X152000Y483500D02*
D03*
X144250D02*
D03*
X137000Y483250D02*
D03*
X106000Y215000D02*
D03*
X200750Y243000D02*
D03*
Y235250D02*
D03*
X212750D02*
D03*
X262000Y226500D02*
D03*
Y234000D02*
D03*
Y241250D02*
D03*
X281500Y162250D02*
D03*
X264000D02*
D03*
X309750Y162750D02*
D03*
X302750D02*
D03*
X186750Y63500D02*
D03*
X172750Y64000D02*
D03*
X351750Y51750D02*
D03*
Y61500D02*
D03*
X89250Y507000D02*
D03*
X82750D02*
D03*
X89250Y534750D02*
D03*
X82750D02*
D03*
X106750Y516500D02*
D03*
Y525250D02*
D03*
X128750Y516500D02*
D03*
Y525500D02*
D03*
X416947Y429450D02*
D03*
X332020D02*
D03*
X637111Y429321D02*
D03*
X699250Y483250D02*
D03*
X715250Y484000D02*
D03*
X730000Y483500D02*
D03*
X744500Y483000D02*
D03*
X359500Y179750D02*
D03*
Y168750D02*
D03*
X332250D02*
D03*
X454500Y482500D02*
D03*
X174750Y432250D02*
D03*
X609500Y482500D02*
D03*
X564539D02*
D03*
X624500D02*
D03*
X579500D02*
D03*
X696889Y429450D02*
D03*
X479389Y511450D02*
D03*
X494389D02*
D03*
X509000Y481750D02*
D03*
X346889Y429450D02*
D03*
X361889D02*
D03*
X376889D02*
D03*
X431889D02*
D03*
X446889D02*
D03*
X521889D02*
D03*
X651889D02*
D03*
X666889D02*
D03*
X681889D02*
D03*
X96750Y525750D02*
D03*
X74250Y526250D02*
D03*
Y517000D02*
D03*
X96750Y517500D02*
D03*
X142250Y428500D02*
D03*
X134500D02*
D03*
X359389Y511450D02*
D03*
X374500Y482500D02*
D03*
X389500D02*
D03*
X424500D02*
D03*
X439500D02*
D03*
X464500D02*
D03*
X594500D02*
D03*
X639500D02*
D03*
X654500D02*
D03*
X669500D02*
D03*
X684500D02*
D03*
X774500D02*
D03*
X332750Y180250D02*
D03*
X159250Y324000D02*
D03*
X289250Y119500D02*
D03*
X275750Y119000D02*
D03*
X260750D02*
D03*
X245250D02*
D03*
X230250Y118750D02*
D03*
X215000Y119000D02*
D03*
X200500D02*
D03*
X186500Y118750D02*
D03*
X171500Y119000D02*
D03*
X366750Y13750D02*
D03*
M02*
