G04*
G04 #@! TF.GenerationSoftware,Altium Limited,Altium Designer,20.1.11 (218)*
G04*
G04 Layer_Color=32768*
%FSLAX44Y44*%
%MOMM*%
G71*
G04*
G04 #@! TF.SameCoordinates,4E8BECB8-10D7-4487-B94D-AC5258AA6689*
G04*
G04*
G04 #@! TF.FilePolarity,Positive*
G04*
G01*
G75*
%ADD12C,0.2540*%
%ADD209C,0.3810*%
%ADD210C,0.0254*%
D12*
X958912Y418405D02*
Y403170D01*
X969069D01*
X976686Y413327D02*
X981765D01*
X984304Y410788D01*
Y403170D01*
X976686D01*
X974147Y405709D01*
X976686Y408248D01*
X984304D01*
X989382Y413327D02*
Y405709D01*
X991921Y403170D01*
X999539D01*
Y400631D01*
X997000Y398092D01*
X994461D01*
X999539Y403170D02*
Y413327D01*
X1012235Y403170D02*
X1007157D01*
X1004617Y405709D01*
Y410788D01*
X1007157Y413327D01*
X1012235D01*
X1014774Y410788D01*
Y408248D01*
X1004617D01*
X1019853Y413327D02*
Y403170D01*
Y408248D01*
X1022392Y410788D01*
X1024931Y413327D01*
X1027470D01*
X966530Y128850D02*
Y144085D01*
X958912Y136468D01*
X969069D01*
X958912Y202506D02*
X961451Y205045D01*
X966530D01*
X969069Y202506D01*
Y199967D01*
X966530Y197428D01*
X963990D01*
X966530D01*
X969069Y194888D01*
Y192349D01*
X966530Y189810D01*
X961451D01*
X958912Y192349D01*
X969069Y250770D02*
X958912D01*
X969069Y260927D01*
Y263466D01*
X966530Y266005D01*
X961451D01*
X958912Y263466D01*
Y311730D02*
X963990D01*
X961451D01*
Y326965D01*
X958912Y324426D01*
X1063030Y403170D02*
Y418405D01*
X1073187Y403170D01*
Y418405D01*
X1080804Y413327D02*
X1085883D01*
X1088422Y410788D01*
Y403170D01*
X1080804D01*
X1078265Y405709D01*
X1080804Y408248D01*
X1088422D01*
X1093500Y403170D02*
Y413327D01*
X1096039D01*
X1098578Y410788D01*
Y403170D01*
Y410788D01*
X1101118Y413327D01*
X1103657Y410788D01*
Y403170D01*
X1116353D02*
X1111274D01*
X1108735Y405709D01*
Y410788D01*
X1111274Y413327D01*
X1116353D01*
X1118892Y410788D01*
Y408248D01*
X1108735D01*
X1063030Y83125D02*
Y67890D01*
X1070648D01*
X1073187Y70429D01*
Y72968D01*
X1070648Y75507D01*
X1063030D01*
X1070648D01*
X1073187Y78047D01*
Y80586D01*
X1070648Y83125D01*
X1063030D01*
X1080804Y67890D02*
X1085883D01*
X1088422Y70429D01*
Y75507D01*
X1085883Y78047D01*
X1080804D01*
X1078265Y75507D01*
Y70429D01*
X1080804Y67890D01*
X1096039Y80586D02*
Y78047D01*
X1093500D01*
X1098578D01*
X1096039D01*
Y70429D01*
X1098578Y67890D01*
X1108735Y80586D02*
Y78047D01*
X1106196D01*
X1111274D01*
X1108735D01*
Y70429D01*
X1111274Y67890D01*
X1121431D02*
X1126509D01*
X1129049Y70429D01*
Y75507D01*
X1126509Y78047D01*
X1121431D01*
X1118892Y75507D01*
Y70429D01*
X1121431Y67890D01*
X1134127D02*
Y78047D01*
X1136666D01*
X1139205Y75507D01*
Y67890D01*
Y75507D01*
X1141745Y78047D01*
X1144284Y75507D01*
Y67890D01*
X1172215Y83125D02*
X1167136D01*
X1164597Y80586D01*
Y70429D01*
X1167136Y67890D01*
X1172215D01*
X1174754Y70429D01*
Y80586D01*
X1172215Y83125D01*
X1179832Y78047D02*
X1184911Y67890D01*
X1189989Y78047D01*
X1202685Y67890D02*
X1197607D01*
X1195067Y70429D01*
Y75507D01*
X1197607Y78047D01*
X1202685D01*
X1205224Y75507D01*
Y72968D01*
X1195067D01*
X1210302Y78047D02*
Y67890D01*
Y72968D01*
X1212841Y75507D01*
X1215381Y78047D01*
X1217920D01*
X1225537Y67890D02*
X1230616D01*
X1228077D01*
Y83125D01*
X1225537D01*
X1240772Y78047D02*
X1245851D01*
X1248390Y75507D01*
Y67890D01*
X1240772D01*
X1238233Y70429D01*
X1240772Y72968D01*
X1248390D01*
X1253468Y78047D02*
Y70429D01*
X1256008Y67890D01*
X1263625D01*
Y65351D01*
X1261086Y62812D01*
X1258547D01*
X1263625Y67890D02*
Y78047D01*
X1063030Y113605D02*
Y98370D01*
X1070648D01*
X1073187Y100909D01*
Y103448D01*
X1070648Y105988D01*
X1063030D01*
X1070648D01*
X1073187Y108527D01*
Y111066D01*
X1070648Y113605D01*
X1063030D01*
X1080804Y98370D02*
X1085883D01*
X1088422Y100909D01*
Y105988D01*
X1085883Y108527D01*
X1080804D01*
X1078265Y105988D01*
Y100909D01*
X1080804Y98370D01*
X1096039Y111066D02*
Y108527D01*
X1093500D01*
X1098578D01*
X1096039D01*
Y100909D01*
X1098578Y98370D01*
X1108735Y111066D02*
Y108527D01*
X1106196D01*
X1111274D01*
X1108735D01*
Y100909D01*
X1111274Y98370D01*
X1121431D02*
X1126509D01*
X1129049Y100909D01*
Y105988D01*
X1126509Y108527D01*
X1121431D01*
X1118892Y105988D01*
Y100909D01*
X1121431Y98370D01*
X1134127D02*
Y108527D01*
X1136666D01*
X1139205Y105988D01*
Y98370D01*
Y105988D01*
X1141745Y108527D01*
X1144284Y105988D01*
Y98370D01*
X1174754Y111066D02*
X1172215Y113605D01*
X1167136D01*
X1164597Y111066D01*
Y108527D01*
X1167136Y105988D01*
X1172215D01*
X1174754Y103448D01*
Y100909D01*
X1172215Y98370D01*
X1167136D01*
X1164597Y100909D01*
X1182371Y98370D02*
X1187450D01*
X1189989Y100909D01*
Y105988D01*
X1187450Y108527D01*
X1182371D01*
X1179832Y105988D01*
Y100909D01*
X1182371Y98370D01*
X1195067D02*
X1200146D01*
X1197607D01*
Y113605D01*
X1195067D01*
X1217920D02*
Y98370D01*
X1210302D01*
X1207763Y100909D01*
Y105988D01*
X1210302Y108527D01*
X1217920D01*
X1230616Y98370D02*
X1225537D01*
X1222998Y100909D01*
Y105988D01*
X1225537Y108527D01*
X1230616D01*
X1233155Y105988D01*
Y103448D01*
X1222998D01*
X1238233Y108527D02*
Y98370D01*
Y103448D01*
X1240772Y105988D01*
X1243312Y108527D01*
X1245851D01*
X1063030Y144085D02*
Y128850D01*
X1070648D01*
X1073187Y131389D01*
Y133928D01*
X1070648Y136468D01*
X1063030D01*
X1070648D01*
X1073187Y139007D01*
Y141546D01*
X1070648Y144085D01*
X1063030D01*
X1080804Y128850D02*
X1085883D01*
X1088422Y131389D01*
Y136468D01*
X1085883Y139007D01*
X1080804D01*
X1078265Y136468D01*
Y131389D01*
X1080804Y128850D01*
X1096039Y141546D02*
Y139007D01*
X1093500D01*
X1098578D01*
X1096039D01*
Y131389D01*
X1098578Y128850D01*
X1108735Y141546D02*
Y139007D01*
X1106196D01*
X1111274D01*
X1108735D01*
Y131389D01*
X1111274Y128850D01*
X1121431D02*
X1126509D01*
X1129049Y131389D01*
Y136468D01*
X1126509Y139007D01*
X1121431D01*
X1118892Y136468D01*
Y131389D01*
X1121431Y128850D01*
X1134127D02*
Y139007D01*
X1136666D01*
X1139205Y136468D01*
Y128850D01*
Y136468D01*
X1141745Y139007D01*
X1144284Y136468D01*
Y128850D01*
X1164597Y144085D02*
Y128850D01*
X1174754D01*
X1182371Y139007D02*
X1187450D01*
X1189989Y136468D01*
Y128850D01*
X1182371D01*
X1179832Y131389D01*
X1182371Y133928D01*
X1189989D01*
X1195067Y139007D02*
Y131389D01*
X1197607Y128850D01*
X1205224D01*
Y126311D01*
X1202685Y123772D01*
X1200146D01*
X1205224Y128850D02*
Y139007D01*
X1217920Y128850D02*
X1212841D01*
X1210302Y131389D01*
Y136468D01*
X1212841Y139007D01*
X1217920D01*
X1220459Y136468D01*
Y133928D01*
X1210302D01*
X1225537Y139007D02*
Y128850D01*
Y133928D01*
X1228077Y136468D01*
X1230616Y139007D01*
X1233155D01*
X1063030Y174565D02*
Y159330D01*
X1070648D01*
X1073187Y161869D01*
Y172026D01*
X1070648Y174565D01*
X1063030D01*
X1078265Y159330D02*
X1083343D01*
X1080804D01*
Y169487D01*
X1078265D01*
X1098578Y159330D02*
X1093500D01*
X1090961Y161869D01*
Y166947D01*
X1093500Y169487D01*
X1098578D01*
X1101118Y166947D01*
Y164408D01*
X1090961D01*
X1106196Y159330D02*
X1111274D01*
X1108735D01*
Y174565D01*
X1106196D01*
X1126509Y159330D02*
X1121431D01*
X1118892Y161869D01*
Y166947D01*
X1121431Y169487D01*
X1126509D01*
X1129049Y166947D01*
Y164408D01*
X1118892D01*
X1144284Y169487D02*
X1136666D01*
X1134127Y166947D01*
Y161869D01*
X1136666Y159330D01*
X1144284D01*
X1151901Y172026D02*
Y169487D01*
X1149362D01*
X1154440D01*
X1151901D01*
Y161869D01*
X1154440Y159330D01*
X1162058Y169487D02*
Y159330D01*
Y164408D01*
X1164597Y166947D01*
X1167136Y169487D01*
X1169676D01*
X1177293Y159330D02*
X1182371D01*
X1179832D01*
Y169487D01*
X1177293D01*
X1200146D02*
X1192528D01*
X1189989Y166947D01*
Y161869D01*
X1192528Y159330D01*
X1200146D01*
X1230616D02*
X1220459D01*
X1230616Y169487D01*
Y172026D01*
X1228077Y174565D01*
X1222998D01*
X1220459Y172026D01*
X1063030Y189810D02*
Y205045D01*
X1070648D01*
X1073187Y202506D01*
Y197428D01*
X1070648Y194888D01*
X1063030D01*
X1078265Y205045D02*
Y189810D01*
X1083343Y194888D01*
X1088422Y189810D01*
Y205045D01*
X1093500Y189810D02*
Y205045D01*
X1101118D01*
X1103657Y202506D01*
Y197428D01*
X1101118Y194888D01*
X1093500D01*
X1098578D02*
X1103657Y189810D01*
X1063030Y235525D02*
Y220290D01*
X1070648D01*
X1073187Y222829D01*
Y232986D01*
X1070648Y235525D01*
X1063030D01*
X1078265Y220290D02*
X1083343D01*
X1080804D01*
Y230447D01*
X1078265D01*
X1098578Y220290D02*
X1093500D01*
X1090961Y222829D01*
Y227908D01*
X1093500Y230447D01*
X1098578D01*
X1101118Y227908D01*
Y225368D01*
X1090961D01*
X1106196Y220290D02*
X1111274D01*
X1108735D01*
Y235525D01*
X1106196D01*
X1126509Y220290D02*
X1121431D01*
X1118892Y222829D01*
Y227908D01*
X1121431Y230447D01*
X1126509D01*
X1129049Y227908D01*
Y225368D01*
X1118892D01*
X1144284Y230447D02*
X1136666D01*
X1134127Y227908D01*
Y222829D01*
X1136666Y220290D01*
X1144284D01*
X1151901Y232986D02*
Y230447D01*
X1149362D01*
X1154440D01*
X1151901D01*
Y222829D01*
X1154440Y220290D01*
X1162058Y230447D02*
Y220290D01*
Y225368D01*
X1164597Y227908D01*
X1167136Y230447D01*
X1169676D01*
X1177293Y220290D02*
X1182371D01*
X1179832D01*
Y230447D01*
X1177293D01*
X1200146D02*
X1192528D01*
X1189989Y227908D01*
Y222829D01*
X1192528Y220290D01*
X1200146D01*
X1205224D02*
X1210302D01*
X1207763D01*
Y235525D01*
X1205224Y232986D01*
X1073187Y263466D02*
X1070648Y266005D01*
X1065569D01*
X1063030Y263466D01*
Y253309D01*
X1065569Y250770D01*
X1070648D01*
X1073187Y253309D01*
Y258388D01*
X1068108D01*
X1078265Y250770D02*
Y266005D01*
X1088422Y250770D01*
Y266005D01*
X1093500D02*
Y250770D01*
X1101118D01*
X1103657Y253309D01*
Y263466D01*
X1101118Y266005D01*
X1093500D01*
X1063030Y296485D02*
Y281250D01*
X1070648D01*
X1073187Y283789D01*
Y293946D01*
X1070648Y296485D01*
X1063030D01*
X1078265Y281250D02*
X1083343D01*
X1080804D01*
Y291407D01*
X1078265D01*
X1098578Y281250D02*
X1093500D01*
X1090961Y283789D01*
Y288867D01*
X1093500Y291407D01*
X1098578D01*
X1101118Y288867D01*
Y286328D01*
X1090961D01*
X1106196Y281250D02*
X1111274D01*
X1108735D01*
Y296485D01*
X1106196D01*
X1126509Y281250D02*
X1121431D01*
X1118892Y283789D01*
Y288867D01*
X1121431Y291407D01*
X1126509D01*
X1129049Y288867D01*
Y286328D01*
X1118892D01*
X1144284Y291407D02*
X1136666D01*
X1134127Y288867D01*
Y283789D01*
X1136666Y281250D01*
X1144284D01*
X1151901Y293946D02*
Y291407D01*
X1149362D01*
X1154440D01*
X1151901D01*
Y283789D01*
X1154440Y281250D01*
X1162058Y291407D02*
Y281250D01*
Y286328D01*
X1164597Y288867D01*
X1167136Y291407D01*
X1169676D01*
X1177293Y281250D02*
X1182371D01*
X1179832D01*
Y291407D01*
X1177293D01*
X1200146D02*
X1192528D01*
X1189989Y288867D01*
Y283789D01*
X1192528Y281250D01*
X1200146D01*
X1220459D02*
X1225537D01*
X1222998D01*
Y296485D01*
X1220459Y293946D01*
X1063030Y326965D02*
X1073187D01*
X1068108D01*
Y311730D01*
X1080804D02*
X1085883D01*
X1088422Y314269D01*
Y319347D01*
X1085883Y321887D01*
X1080804D01*
X1078265Y319347D01*
Y314269D01*
X1080804Y311730D01*
X1093500Y306652D02*
Y321887D01*
X1101118D01*
X1103657Y319347D01*
Y314269D01*
X1101118Y311730D01*
X1093500D01*
X1123970Y326965D02*
Y311730D01*
X1134127D01*
X1141745Y321887D02*
X1146823D01*
X1149362Y319347D01*
Y311730D01*
X1141745D01*
X1139205Y314269D01*
X1141745Y316808D01*
X1149362D01*
X1154440Y321887D02*
Y314269D01*
X1156980Y311730D01*
X1164597D01*
Y309191D01*
X1162058Y306652D01*
X1159519D01*
X1164597Y311730D02*
Y321887D01*
X1177293Y311730D02*
X1172215D01*
X1169676Y314269D01*
Y319347D01*
X1172215Y321887D01*
X1177293D01*
X1179832Y319347D01*
Y316808D01*
X1169676D01*
X1184911Y321887D02*
Y311730D01*
Y316808D01*
X1187450Y319347D01*
X1189989Y321887D01*
X1192528D01*
X1063030Y357445D02*
X1073187D01*
X1068108D01*
Y342210D01*
X1080804D02*
X1085883D01*
X1088422Y344749D01*
Y349827D01*
X1085883Y352367D01*
X1080804D01*
X1078265Y349827D01*
Y344749D01*
X1080804Y342210D01*
X1093500Y337132D02*
Y352367D01*
X1101118D01*
X1103657Y349827D01*
Y344749D01*
X1101118Y342210D01*
X1093500D01*
X1134127Y354906D02*
X1131588Y357445D01*
X1126509D01*
X1123970Y354906D01*
Y352367D01*
X1126509Y349827D01*
X1131588D01*
X1134127Y347288D01*
Y344749D01*
X1131588Y342210D01*
X1126509D01*
X1123970Y344749D01*
X1141745Y342210D02*
X1146823D01*
X1149362Y344749D01*
Y349827D01*
X1146823Y352367D01*
X1141745D01*
X1139205Y349827D01*
Y344749D01*
X1141745Y342210D01*
X1154440D02*
X1159519D01*
X1156980D01*
Y357445D01*
X1154440D01*
X1177293D02*
Y342210D01*
X1169676D01*
X1167136Y344749D01*
Y349827D01*
X1169676Y352367D01*
X1177293D01*
X1189989Y342210D02*
X1184911D01*
X1182371Y344749D01*
Y349827D01*
X1184911Y352367D01*
X1189989D01*
X1192528Y349827D01*
Y347288D01*
X1182371D01*
X1197607Y352367D02*
Y342210D01*
Y347288D01*
X1200146Y349827D01*
X1202685Y352367D01*
X1205224D01*
X1063030Y387925D02*
X1073187D01*
X1068108D01*
Y372690D01*
X1080804D02*
X1085883D01*
X1088422Y375229D01*
Y380308D01*
X1085883Y382847D01*
X1080804D01*
X1078265Y380308D01*
Y375229D01*
X1080804Y372690D01*
X1093500Y367612D02*
Y382847D01*
X1101118D01*
X1103657Y380308D01*
Y375229D01*
X1101118Y372690D01*
X1093500D01*
X1131588Y387925D02*
X1126509D01*
X1123970Y385386D01*
Y375229D01*
X1126509Y372690D01*
X1131588D01*
X1134127Y375229D01*
Y385386D01*
X1131588Y387925D01*
X1139205Y382847D02*
X1144284Y372690D01*
X1149362Y382847D01*
X1162058Y372690D02*
X1156980D01*
X1154440Y375229D01*
Y380308D01*
X1156980Y382847D01*
X1162058D01*
X1164597Y380308D01*
Y377768D01*
X1154440D01*
X1169676Y382847D02*
Y372690D01*
Y377768D01*
X1172215Y380308D01*
X1174754Y382847D01*
X1177293D01*
X1184911Y372690D02*
X1189989D01*
X1187450D01*
Y387925D01*
X1184911D01*
X1200146Y382847D02*
X1205224D01*
X1207763Y380308D01*
Y372690D01*
X1200146D01*
X1197607Y375229D01*
X1200146Y377768D01*
X1207763D01*
X1212841Y382847D02*
Y375229D01*
X1215381Y372690D01*
X1222998D01*
Y370151D01*
X1220459Y367612D01*
X1217920D01*
X1222998Y372690D02*
Y382847D01*
X1299185Y403170D02*
Y418405D01*
X1304263Y413327D01*
X1309342Y418405D01*
Y403170D01*
X1316959Y413327D02*
X1322038D01*
X1324577Y410788D01*
Y403170D01*
X1316959D01*
X1314420Y405709D01*
X1316959Y408248D01*
X1324577D01*
X1332194Y415866D02*
Y413327D01*
X1329655D01*
X1334734D01*
X1332194D01*
Y405709D01*
X1334734Y403170D01*
X1349969D02*
X1344890D01*
X1342351Y405709D01*
Y410788D01*
X1344890Y413327D01*
X1349969D01*
X1352508Y410788D01*
Y408248D01*
X1342351D01*
X1357586Y413327D02*
Y403170D01*
Y408248D01*
X1360125Y410788D01*
X1362665Y413327D01*
X1365204D01*
X1372821Y403170D02*
X1377900D01*
X1375361D01*
Y413327D01*
X1372821D01*
X1388056D02*
X1393135D01*
X1395674Y410788D01*
Y403170D01*
X1388056D01*
X1385517Y405709D01*
X1388056Y408248D01*
X1395674D01*
X1400752Y403170D02*
X1405831D01*
X1403291D01*
Y418405D01*
X1400752D01*
X1309342Y111066D02*
X1306803Y113605D01*
X1301724D01*
X1299185Y111066D01*
Y108527D01*
X1301724Y105988D01*
X1306803D01*
X1309342Y103448D01*
Y100909D01*
X1306803Y98370D01*
X1301724D01*
X1299185Y100909D01*
X1316959Y98370D02*
X1322038D01*
X1324577Y100909D01*
Y105988D01*
X1322038Y108527D01*
X1316959D01*
X1314420Y105988D01*
Y100909D01*
X1316959Y98370D01*
X1329655D02*
X1334734D01*
X1332194D01*
Y113605D01*
X1329655D01*
X1352508D02*
Y98370D01*
X1344890D01*
X1342351Y100909D01*
Y105988D01*
X1344890Y108527D01*
X1352508D01*
X1365204Y98370D02*
X1360125D01*
X1357586Y100909D01*
Y105988D01*
X1360125Y108527D01*
X1365204D01*
X1367743Y105988D01*
Y103448D01*
X1357586D01*
X1372821Y108527D02*
Y98370D01*
Y103448D01*
X1375361Y105988D01*
X1377900Y108527D01*
X1380439D01*
X1403291Y98370D02*
Y113605D01*
X1410909D01*
X1413448Y111066D01*
Y105988D01*
X1410909Y103448D01*
X1403291D01*
X1408370D02*
X1413448Y98370D01*
X1426144D02*
X1421066D01*
X1418526Y100909D01*
Y105988D01*
X1421066Y108527D01*
X1426144D01*
X1428683Y105988D01*
Y103448D01*
X1418526D01*
X1433762Y98370D02*
X1441379D01*
X1443918Y100909D01*
X1441379Y103448D01*
X1436301D01*
X1433762Y105988D01*
X1436301Y108527D01*
X1443918D01*
X1448997Y98370D02*
X1454075D01*
X1451536D01*
Y108527D01*
X1448997D01*
X1461693Y98370D02*
X1469310D01*
X1471849Y100909D01*
X1469310Y103448D01*
X1464232D01*
X1461693Y105988D01*
X1464232Y108527D01*
X1471849D01*
X1479467Y111066D02*
Y108527D01*
X1476928D01*
X1482006D01*
X1479467D01*
Y100909D01*
X1482006Y98370D01*
X1309342Y141546D02*
X1306803Y144085D01*
X1301724D01*
X1299185Y141546D01*
Y131389D01*
X1301724Y128850D01*
X1306803D01*
X1309342Y131389D01*
X1316959Y128850D02*
X1322038D01*
X1324577Y131389D01*
Y136468D01*
X1322038Y139007D01*
X1316959D01*
X1314420Y136468D01*
Y131389D01*
X1316959Y128850D01*
X1329655Y123772D02*
Y139007D01*
X1337273D01*
X1339812Y136468D01*
Y131389D01*
X1337273Y128850D01*
X1329655D01*
X1344890Y123772D02*
Y139007D01*
X1352508D01*
X1355047Y136468D01*
Y131389D01*
X1352508Y128850D01*
X1344890D01*
X1367743D02*
X1362665D01*
X1360125Y131389D01*
Y136468D01*
X1362665Y139007D01*
X1367743D01*
X1370282Y136468D01*
Y133928D01*
X1360125D01*
X1375361Y139007D02*
Y128850D01*
Y133928D01*
X1377900Y136468D01*
X1380439Y139007D01*
X1382978D01*
X1299185Y159330D02*
Y174565D01*
X1306803D01*
X1309342Y172026D01*
Y166947D01*
X1306803Y164408D01*
X1299185D01*
X1314420Y159330D02*
Y174565D01*
X1322038D01*
X1324577Y172026D01*
Y166947D01*
X1322038Y164408D01*
X1314420D01*
X1329655Y166947D02*
X1339812D01*
X1344890Y172026D02*
X1347430Y174565D01*
X1352508D01*
X1355047Y172026D01*
Y161869D01*
X1352508Y159330D01*
X1347430D01*
X1344890Y161869D01*
Y172026D01*
X1360125D02*
X1362665Y174565D01*
X1367743D01*
X1370282Y172026D01*
Y161869D01*
X1367743Y159330D01*
X1362665D01*
X1360125Y161869D01*
Y172026D01*
X1385517Y174565D02*
X1380439Y172026D01*
X1375361Y166947D01*
Y161869D01*
X1377900Y159330D01*
X1382978D01*
X1385517Y161869D01*
Y164408D01*
X1382978Y166947D01*
X1375361D01*
X1309342Y202506D02*
X1306803Y205045D01*
X1301724D01*
X1299185Y202506D01*
Y192349D01*
X1301724Y189810D01*
X1306803D01*
X1309342Y192349D01*
X1316959Y189810D02*
X1322038D01*
X1324577Y192349D01*
Y197428D01*
X1322038Y199967D01*
X1316959D01*
X1314420Y197428D01*
Y192349D01*
X1316959Y189810D01*
X1329655Y184732D02*
Y199967D01*
X1337273D01*
X1339812Y197428D01*
Y192349D01*
X1337273Y189810D01*
X1329655D01*
X1344890Y184732D02*
Y199967D01*
X1352508D01*
X1355047Y197428D01*
Y192349D01*
X1352508Y189810D01*
X1344890D01*
X1367743D02*
X1362665D01*
X1360125Y192349D01*
Y197428D01*
X1362665Y199967D01*
X1367743D01*
X1370282Y197428D01*
Y194888D01*
X1360125D01*
X1375361Y199967D02*
Y189810D01*
Y194888D01*
X1377900Y197428D01*
X1380439Y199967D01*
X1382978D01*
X1309342Y235525D02*
X1299185D01*
Y227908D01*
X1304263D01*
X1299185D01*
Y220290D01*
X1314420D02*
Y235525D01*
X1322038D01*
X1324577Y232986D01*
Y227908D01*
X1322038Y225368D01*
X1314420D01*
X1319498D02*
X1324577Y220290D01*
X1329655Y227908D02*
X1339812D01*
X1352508Y220290D02*
Y235525D01*
X1344890Y227908D01*
X1355047D01*
X1309342Y263466D02*
X1306803Y266005D01*
X1301724D01*
X1299185Y263466D01*
Y253309D01*
X1301724Y250770D01*
X1306803D01*
X1309342Y253309D01*
X1316959Y250770D02*
X1322038D01*
X1324577Y253309D01*
Y258388D01*
X1322038Y260927D01*
X1316959D01*
X1314420Y258388D01*
Y253309D01*
X1316959Y250770D01*
X1329655Y245692D02*
Y260927D01*
X1337273D01*
X1339812Y258388D01*
Y253309D01*
X1337273Y250770D01*
X1329655D01*
X1344890Y245692D02*
Y260927D01*
X1352508D01*
X1355047Y258388D01*
Y253309D01*
X1352508Y250770D01*
X1344890D01*
X1367743D02*
X1362665D01*
X1360125Y253309D01*
Y258388D01*
X1362665Y260927D01*
X1367743D01*
X1370282Y258388D01*
Y255848D01*
X1360125D01*
X1375361Y260927D02*
Y250770D01*
Y255848D01*
X1377900Y258388D01*
X1380439Y260927D01*
X1382978D01*
X1299185Y281250D02*
Y296485D01*
X1306803D01*
X1309342Y293946D01*
Y288867D01*
X1306803Y286328D01*
X1299185D01*
X1314420Y281250D02*
Y296485D01*
X1322038D01*
X1324577Y293946D01*
Y288867D01*
X1322038Y286328D01*
X1314420D01*
X1329655Y288867D02*
X1339812D01*
X1344890Y293946D02*
X1347430Y296485D01*
X1352508D01*
X1355047Y293946D01*
Y283789D01*
X1352508Y281250D01*
X1347430D01*
X1344890Y283789D01*
Y293946D01*
X1360125D02*
X1362665Y296485D01*
X1367743D01*
X1370282Y293946D01*
Y283789D01*
X1367743Y281250D01*
X1362665D01*
X1360125Y283789D01*
Y293946D01*
X1385517Y296485D02*
X1380439Y293946D01*
X1375361Y288867D01*
Y283789D01*
X1377900Y281250D01*
X1382978D01*
X1385517Y283789D01*
Y286328D01*
X1382978Y288867D01*
X1375361D01*
X1309342Y324426D02*
X1306803Y326965D01*
X1301724D01*
X1299185Y324426D01*
Y314269D01*
X1301724Y311730D01*
X1306803D01*
X1309342Y314269D01*
X1316959Y311730D02*
X1322038D01*
X1324577Y314269D01*
Y319347D01*
X1322038Y321887D01*
X1316959D01*
X1314420Y319347D01*
Y314269D01*
X1316959Y311730D01*
X1329655Y306652D02*
Y321887D01*
X1337273D01*
X1339812Y319347D01*
Y314269D01*
X1337273Y311730D01*
X1329655D01*
X1344890Y306652D02*
Y321887D01*
X1352508D01*
X1355047Y319347D01*
Y314269D01*
X1352508Y311730D01*
X1344890D01*
X1367743D02*
X1362665D01*
X1360125Y314269D01*
Y319347D01*
X1362665Y321887D01*
X1367743D01*
X1370282Y319347D01*
Y316808D01*
X1360125D01*
X1375361Y321887D02*
Y311730D01*
Y316808D01*
X1377900Y319347D01*
X1380439Y321887D01*
X1382978D01*
X1309342Y354906D02*
X1306803Y357445D01*
X1301724D01*
X1299185Y354906D01*
Y352367D01*
X1301724Y349827D01*
X1306803D01*
X1309342Y347288D01*
Y344749D01*
X1306803Y342210D01*
X1301724D01*
X1299185Y344749D01*
X1316959Y342210D02*
X1322038D01*
X1324577Y344749D01*
Y349827D01*
X1322038Y352367D01*
X1316959D01*
X1314420Y349827D01*
Y344749D01*
X1316959Y342210D01*
X1329655D02*
X1334734D01*
X1332194D01*
Y357445D01*
X1329655D01*
X1352508D02*
Y342210D01*
X1344890D01*
X1342351Y344749D01*
Y349827D01*
X1344890Y352367D01*
X1352508D01*
X1365204Y342210D02*
X1360125D01*
X1357586Y344749D01*
Y349827D01*
X1360125Y352367D01*
X1365204D01*
X1367743Y349827D01*
Y347288D01*
X1357586D01*
X1372821Y352367D02*
Y342210D01*
Y347288D01*
X1375361Y349827D01*
X1377900Y352367D01*
X1380439D01*
X1403291Y342210D02*
Y357445D01*
X1410909D01*
X1413448Y354906D01*
Y349827D01*
X1410909Y347288D01*
X1403291D01*
X1408370D02*
X1413448Y342210D01*
X1426144D02*
X1421066D01*
X1418526Y344749D01*
Y349827D01*
X1421066Y352367D01*
X1426144D01*
X1428683Y349827D01*
Y347288D01*
X1418526D01*
X1433762Y342210D02*
X1441379D01*
X1443918Y344749D01*
X1441379Y347288D01*
X1436301D01*
X1433762Y349827D01*
X1436301Y352367D01*
X1443918D01*
X1448997Y342210D02*
X1454075D01*
X1451536D01*
Y352367D01*
X1448997D01*
X1461693Y342210D02*
X1469310D01*
X1471849Y344749D01*
X1469310Y347288D01*
X1464232D01*
X1461693Y349827D01*
X1464232Y352367D01*
X1471849D01*
X1479467Y354906D02*
Y352367D01*
X1476928D01*
X1482006D01*
X1479467D01*
Y344749D01*
X1482006Y342210D01*
X1517566Y418405D02*
X1527723D01*
X1522644D01*
Y403170D01*
X1532801Y418405D02*
Y403170D01*
Y410788D01*
X1535340Y413327D01*
X1540419D01*
X1542958Y410788D01*
Y403170D01*
X1548036D02*
X1553114D01*
X1550575D01*
Y413327D01*
X1548036D01*
X1570889D02*
X1563271D01*
X1560732Y410788D01*
Y405709D01*
X1563271Y403170D01*
X1570889D01*
X1575967D02*
Y418405D01*
Y408248D02*
X1583585Y413327D01*
X1575967Y408248D02*
X1583585Y403170D01*
X1591202D02*
Y413327D01*
X1598820D01*
X1601359Y410788D01*
Y403170D01*
X1614055D02*
X1608976D01*
X1606437Y405709D01*
Y410788D01*
X1608976Y413327D01*
X1614055D01*
X1616594Y410788D01*
Y408248D01*
X1606437D01*
X1621672Y403170D02*
X1629290D01*
X1631829Y405709D01*
X1629290Y408248D01*
X1624211D01*
X1621672Y410788D01*
X1624211Y413327D01*
X1631829D01*
X1636907Y403170D02*
X1644525D01*
X1647064Y405709D01*
X1644525Y408248D01*
X1639447D01*
X1636907Y410788D01*
X1639447Y413327D01*
X1647064D01*
X1517566Y111066D02*
X1520105Y113605D01*
X1525184D01*
X1527723Y111066D01*
Y100909D01*
X1525184Y98370D01*
X1520105D01*
X1517566Y100909D01*
Y111066D01*
X1535340Y95831D02*
X1537879Y98370D01*
Y100909D01*
X1535340D01*
Y98370D01*
X1537879D01*
X1535340Y95831D01*
X1532801Y93292D01*
X1548036Y111066D02*
X1550575Y113605D01*
X1555654D01*
X1558193Y111066D01*
Y100909D01*
X1555654Y98370D01*
X1550575D01*
X1548036Y100909D01*
Y111066D01*
X1563271Y98370D02*
X1568349D01*
X1565810D01*
Y113605D01*
X1563271Y111066D01*
X1575967D02*
X1578506Y113605D01*
X1583585D01*
X1586124Y111066D01*
Y100909D01*
X1583585Y98370D01*
X1578506D01*
X1575967Y100909D01*
Y111066D01*
X1591202Y98370D02*
Y108527D01*
X1593741D01*
X1596281Y105988D01*
Y98370D01*
Y105988D01*
X1598820Y108527D01*
X1601359Y105988D01*
Y98370D01*
X1606437D02*
Y108527D01*
X1608976D01*
X1611516Y105988D01*
Y98370D01*
Y105988D01*
X1614055Y108527D01*
X1616594Y105988D01*
Y98370D01*
X1517566Y141546D02*
X1520105Y144085D01*
X1525184D01*
X1527723Y141546D01*
Y131389D01*
X1525184Y128850D01*
X1520105D01*
X1517566Y131389D01*
Y141546D01*
X1535340Y126311D02*
X1537879Y128850D01*
Y131389D01*
X1535340D01*
Y128850D01*
X1537879D01*
X1535340Y126311D01*
X1532801Y123772D01*
X1548036Y141546D02*
X1550575Y144085D01*
X1555654D01*
X1558193Y141546D01*
Y131389D01*
X1555654Y128850D01*
X1550575D01*
X1548036Y131389D01*
Y141546D01*
X1563271D02*
X1565810Y144085D01*
X1570889D01*
X1573428Y141546D01*
Y139007D01*
X1570889Y136468D01*
X1568349D01*
X1570889D01*
X1573428Y133928D01*
Y131389D01*
X1570889Y128850D01*
X1565810D01*
X1563271Y131389D01*
X1588663Y144085D02*
X1583585Y141546D01*
X1578506Y136468D01*
Y131389D01*
X1581045Y128850D01*
X1586124D01*
X1588663Y131389D01*
Y133928D01*
X1586124Y136468D01*
X1578506D01*
X1593741Y128850D02*
Y139007D01*
X1596281D01*
X1598820Y136468D01*
Y128850D01*
Y136468D01*
X1601359Y139007D01*
X1603898Y136468D01*
Y128850D01*
X1608976D02*
Y139007D01*
X1611516D01*
X1614055Y136468D01*
Y128850D01*
Y136468D01*
X1616594Y139007D01*
X1619133Y136468D01*
Y128850D01*
X1517566Y172026D02*
X1520105Y174565D01*
X1525184D01*
X1527723Y172026D01*
Y161869D01*
X1525184Y159330D01*
X1520105D01*
X1517566Y161869D01*
Y172026D01*
X1535340Y156791D02*
X1537879Y159330D01*
Y161869D01*
X1535340D01*
Y159330D01*
X1537879D01*
X1535340Y156791D01*
X1532801Y154252D01*
X1548036Y159330D02*
X1553114D01*
X1550575D01*
Y174565D01*
X1548036Y172026D01*
X1560732Y159330D02*
X1565810D01*
X1563271D01*
Y174565D01*
X1560732Y172026D01*
X1573428D02*
X1575967Y174565D01*
X1581045D01*
X1583585Y172026D01*
Y161869D01*
X1581045Y159330D01*
X1575967D01*
X1573428Y161869D01*
Y172026D01*
X1588663Y159330D02*
Y169487D01*
X1591202D01*
X1593741Y166947D01*
Y159330D01*
Y166947D01*
X1596281Y169487D01*
X1598820Y166947D01*
Y159330D01*
X1603898D02*
Y169487D01*
X1606437D01*
X1608976Y166947D01*
Y159330D01*
Y166947D01*
X1611516Y169487D01*
X1614055Y166947D01*
Y159330D01*
X1517566Y202506D02*
X1520105Y205045D01*
X1525184D01*
X1527723Y202506D01*
Y192349D01*
X1525184Y189810D01*
X1520105D01*
X1517566Y192349D01*
Y202506D01*
X1535340Y187271D02*
X1537879Y189810D01*
Y192349D01*
X1535340D01*
Y189810D01*
X1537879D01*
X1535340Y187271D01*
X1532801Y184732D01*
X1548036Y202506D02*
X1550575Y205045D01*
X1555654D01*
X1558193Y202506D01*
Y192349D01*
X1555654Y189810D01*
X1550575D01*
X1548036Y192349D01*
Y202506D01*
X1563271D02*
X1565810Y205045D01*
X1570889D01*
X1573428Y202506D01*
Y199967D01*
X1570889Y197428D01*
X1568349D01*
X1570889D01*
X1573428Y194888D01*
Y192349D01*
X1570889Y189810D01*
X1565810D01*
X1563271Y192349D01*
X1588663Y205045D02*
X1578506D01*
Y197428D01*
X1583585Y199967D01*
X1586124D01*
X1588663Y197428D01*
Y192349D01*
X1586124Y189810D01*
X1581045D01*
X1578506Y192349D01*
X1593741Y189810D02*
Y199967D01*
X1596281D01*
X1598820Y197428D01*
Y189810D01*
Y197428D01*
X1601359Y199967D01*
X1603898Y197428D01*
Y189810D01*
X1608976D02*
Y199967D01*
X1611516D01*
X1614055Y197428D01*
Y189810D01*
Y197428D01*
X1616594Y199967D01*
X1619133Y197428D01*
Y189810D01*
X1517566Y232986D02*
X1520105Y235525D01*
X1525184D01*
X1527723Y232986D01*
Y222829D01*
X1525184Y220290D01*
X1520105D01*
X1517566Y222829D01*
Y232986D01*
X1535340Y217751D02*
X1537879Y220290D01*
Y222829D01*
X1535340D01*
Y220290D01*
X1537879D01*
X1535340Y217751D01*
X1532801Y215212D01*
X1548036Y235525D02*
X1558193D01*
Y232986D01*
X1548036Y222829D01*
Y220290D01*
X1563271Y232986D02*
X1565810Y235525D01*
X1570889D01*
X1573428Y232986D01*
Y230447D01*
X1570889Y227908D01*
X1568349D01*
X1570889D01*
X1573428Y225368D01*
Y222829D01*
X1570889Y220290D01*
X1565810D01*
X1563271Y222829D01*
X1578506Y232986D02*
X1581045Y235525D01*
X1586124D01*
X1588663Y232986D01*
Y222829D01*
X1586124Y220290D01*
X1581045D01*
X1578506Y222829D01*
Y232986D01*
X1593741Y220290D02*
Y230447D01*
X1596281D01*
X1598820Y227908D01*
Y220290D01*
Y227908D01*
X1601359Y230447D01*
X1603898Y227908D01*
Y220290D01*
X1608976D02*
Y230447D01*
X1611516D01*
X1614055Y227908D01*
Y220290D01*
Y227908D01*
X1616594Y230447D01*
X1619133Y227908D01*
Y220290D01*
X1517566Y263466D02*
X1520105Y266005D01*
X1525184D01*
X1527723Y263466D01*
Y253309D01*
X1525184Y250770D01*
X1520105D01*
X1517566Y253309D01*
Y263466D01*
X1535340Y248231D02*
X1537879Y250770D01*
Y253309D01*
X1535340D01*
Y250770D01*
X1537879D01*
X1535340Y248231D01*
X1532801Y245692D01*
X1548036Y263466D02*
X1550575Y266005D01*
X1555654D01*
X1558193Y263466D01*
Y253309D01*
X1555654Y250770D01*
X1550575D01*
X1548036Y253309D01*
Y263466D01*
X1563271D02*
X1565810Y266005D01*
X1570889D01*
X1573428Y263466D01*
Y260927D01*
X1570889Y258388D01*
X1568349D01*
X1570889D01*
X1573428Y255848D01*
Y253309D01*
X1570889Y250770D01*
X1565810D01*
X1563271Y253309D01*
X1588663Y266005D02*
X1578506D01*
Y258388D01*
X1583585Y260927D01*
X1586124D01*
X1588663Y258388D01*
Y253309D01*
X1586124Y250770D01*
X1581045D01*
X1578506Y253309D01*
X1593741Y250770D02*
Y260927D01*
X1596281D01*
X1598820Y258388D01*
Y250770D01*
Y258388D01*
X1601359Y260927D01*
X1603898Y258388D01*
Y250770D01*
X1608976D02*
Y260927D01*
X1611516D01*
X1614055Y258388D01*
Y250770D01*
Y258388D01*
X1616594Y260927D01*
X1619133Y258388D01*
Y250770D01*
X1517566Y293946D02*
X1520105Y296485D01*
X1525184D01*
X1527723Y293946D01*
Y283789D01*
X1525184Y281250D01*
X1520105D01*
X1517566Y283789D01*
Y293946D01*
X1535340Y278711D02*
X1537879Y281250D01*
Y283789D01*
X1535340D01*
Y281250D01*
X1537879D01*
X1535340Y278711D01*
X1532801Y276172D01*
X1548036Y281250D02*
X1553114D01*
X1550575D01*
Y296485D01*
X1548036Y293946D01*
X1560732Y281250D02*
X1565810D01*
X1563271D01*
Y296485D01*
X1560732Y293946D01*
X1573428D02*
X1575967Y296485D01*
X1581045D01*
X1583585Y293946D01*
Y283789D01*
X1581045Y281250D01*
X1575967D01*
X1573428Y283789D01*
Y293946D01*
X1588663Y281250D02*
Y291407D01*
X1591202D01*
X1593741Y288867D01*
Y281250D01*
Y288867D01*
X1596281Y291407D01*
X1598820Y288867D01*
Y281250D01*
X1603898D02*
Y291407D01*
X1606437D01*
X1608976Y288867D01*
Y281250D01*
Y288867D01*
X1611516Y291407D01*
X1614055Y288867D01*
Y281250D01*
X1517566Y324426D02*
X1520105Y326965D01*
X1525184D01*
X1527723Y324426D01*
Y314269D01*
X1525184Y311730D01*
X1520105D01*
X1517566Y314269D01*
Y324426D01*
X1535340Y309191D02*
X1537879Y311730D01*
Y314269D01*
X1535340D01*
Y311730D01*
X1537879D01*
X1535340Y309191D01*
X1532801Y306652D01*
X1548036Y324426D02*
X1550575Y326965D01*
X1555654D01*
X1558193Y324426D01*
Y314269D01*
X1555654Y311730D01*
X1550575D01*
X1548036Y314269D01*
Y324426D01*
X1563271D02*
X1565810Y326965D01*
X1570889D01*
X1573428Y324426D01*
Y321887D01*
X1570889Y319347D01*
X1568349D01*
X1570889D01*
X1573428Y316808D01*
Y314269D01*
X1570889Y311730D01*
X1565810D01*
X1563271Y314269D01*
X1588663Y326965D02*
X1583585Y324426D01*
X1578506Y319347D01*
Y314269D01*
X1581045Y311730D01*
X1586124D01*
X1588663Y314269D01*
Y316808D01*
X1586124Y319347D01*
X1578506D01*
X1593741Y311730D02*
Y321887D01*
X1596281D01*
X1598820Y319347D01*
Y311730D01*
Y319347D01*
X1601359Y321887D01*
X1603898Y319347D01*
Y311730D01*
X1608976D02*
Y321887D01*
X1611516D01*
X1614055Y319347D01*
Y311730D01*
Y319347D01*
X1616594Y321887D01*
X1619133Y319347D01*
Y311730D01*
X1517566Y354906D02*
X1520105Y357445D01*
X1525184D01*
X1527723Y354906D01*
Y344749D01*
X1525184Y342210D01*
X1520105D01*
X1517566Y344749D01*
Y354906D01*
X1535340Y339671D02*
X1537879Y342210D01*
Y344749D01*
X1535340D01*
Y342210D01*
X1537879D01*
X1535340Y339671D01*
X1532801Y337132D01*
X1548036Y354906D02*
X1550575Y357445D01*
X1555654D01*
X1558193Y354906D01*
Y344749D01*
X1555654Y342210D01*
X1550575D01*
X1548036Y344749D01*
Y354906D01*
X1563271Y342210D02*
X1568349D01*
X1565810D01*
Y357445D01*
X1563271Y354906D01*
X1575967D02*
X1578506Y357445D01*
X1583585D01*
X1586124Y354906D01*
Y344749D01*
X1583585Y342210D01*
X1578506D01*
X1575967Y344749D01*
Y354906D01*
X1591202Y342210D02*
Y352367D01*
X1593741D01*
X1596281Y349827D01*
Y342210D01*
Y349827D01*
X1598820Y352367D01*
X1601359Y349827D01*
Y342210D01*
X1606437D02*
Y352367D01*
X1608976D01*
X1611516Y349827D01*
Y342210D01*
Y349827D01*
X1614055Y352367D01*
X1616594Y349827D01*
Y342210D01*
X1692781Y415866D02*
X1690242Y418405D01*
X1685163D01*
X1682624Y415866D01*
Y405709D01*
X1685163Y403170D01*
X1690242D01*
X1692781Y405709D01*
X1700398Y403170D02*
X1705477D01*
X1708016Y405709D01*
Y410788D01*
X1705477Y413327D01*
X1700398D01*
X1697859Y410788D01*
Y405709D01*
X1700398Y403170D01*
X1713094D02*
Y413327D01*
X1720712D01*
X1723251Y410788D01*
Y403170D01*
X1728329D02*
X1735947D01*
X1738486Y405709D01*
X1735947Y408248D01*
X1730869D01*
X1728329Y410788D01*
X1730869Y413327D01*
X1738486D01*
X1746104Y415866D02*
Y413327D01*
X1743564D01*
X1748643D01*
X1746104D01*
Y405709D01*
X1748643Y403170D01*
X1758799Y413327D02*
X1763878D01*
X1766417Y410788D01*
Y403170D01*
X1758799D01*
X1756260Y405709D01*
X1758799Y408248D01*
X1766417D01*
X1771495Y403170D02*
Y413327D01*
X1779113D01*
X1781652Y410788D01*
Y403170D01*
X1789270Y415866D02*
Y413327D01*
X1786730D01*
X1791809D01*
X1789270D01*
Y405709D01*
X1791809Y403170D01*
X1682624Y111066D02*
X1685163Y113605D01*
X1690242D01*
X1692781Y111066D01*
Y108527D01*
X1690242Y105988D01*
X1687702D01*
X1690242D01*
X1692781Y103448D01*
Y100909D01*
X1690242Y98370D01*
X1685163D01*
X1682624Y100909D01*
X1700398Y95831D02*
X1702937Y98370D01*
Y100909D01*
X1700398D01*
Y98370D01*
X1702937D01*
X1700398Y95831D01*
X1697859Y93292D01*
X1723251Y113605D02*
X1713094D01*
Y105988D01*
X1718173Y108527D01*
X1720712D01*
X1723251Y105988D01*
Y100909D01*
X1720712Y98370D01*
X1715633D01*
X1713094Y100909D01*
X1690242Y159330D02*
Y174565D01*
X1682624Y166947D01*
X1692781D01*
X1700398Y156791D02*
X1702937Y159330D01*
Y161869D01*
X1700398D01*
Y159330D01*
X1702937D01*
X1700398Y156791D01*
X1697859Y154252D01*
X1723251Y159330D02*
X1713094D01*
X1723251Y169487D01*
Y172026D01*
X1720712Y174565D01*
X1715633D01*
X1713094Y172026D01*
X1728329Y161869D02*
X1730869Y159330D01*
X1735947D01*
X1738486Y161869D01*
Y172026D01*
X1735947Y174565D01*
X1730869D01*
X1728329Y172026D01*
Y169487D01*
X1730869Y166947D01*
X1738486D01*
X1682624Y232986D02*
X1685163Y235525D01*
X1690242D01*
X1692781Y232986D01*
Y230447D01*
X1690242Y227908D01*
X1687702D01*
X1690242D01*
X1692781Y225368D01*
Y222829D01*
X1690242Y220290D01*
X1685163D01*
X1682624Y222829D01*
X1700398Y217751D02*
X1702937Y220290D01*
Y222829D01*
X1700398D01*
Y220290D01*
X1702937D01*
X1700398Y217751D01*
X1697859Y215212D01*
X1713094Y222829D02*
X1715633Y220290D01*
X1720712D01*
X1723251Y222829D01*
Y232986D01*
X1720712Y235525D01*
X1715633D01*
X1713094Y232986D01*
Y230447D01*
X1715633Y227908D01*
X1723251D01*
X1738486Y235525D02*
X1733408Y232986D01*
X1728329Y227908D01*
Y222829D01*
X1730869Y220290D01*
X1735947D01*
X1738486Y222829D01*
Y225368D01*
X1735947Y227908D01*
X1728329D01*
X1690242Y281250D02*
Y296485D01*
X1682624Y288867D01*
X1692781D01*
X1700398Y278711D02*
X1702937Y281250D01*
Y283789D01*
X1700398D01*
Y281250D01*
X1702937D01*
X1700398Y278711D01*
X1697859Y276172D01*
X1723251Y281250D02*
X1713094D01*
X1723251Y291407D01*
Y293946D01*
X1720712Y296485D01*
X1715633D01*
X1713094Y293946D01*
X1728329Y283789D02*
X1730869Y281250D01*
X1735947D01*
X1738486Y283789D01*
Y293946D01*
X1735947Y296485D01*
X1730869D01*
X1728329Y293946D01*
Y291407D01*
X1730869Y288867D01*
X1738486D01*
X1682624Y354906D02*
X1685163Y357445D01*
X1690242D01*
X1692781Y354906D01*
Y352367D01*
X1690242Y349827D01*
X1687702D01*
X1690242D01*
X1692781Y347288D01*
Y344749D01*
X1690242Y342210D01*
X1685163D01*
X1682624Y344749D01*
X1700398Y339671D02*
X1702937Y342210D01*
Y344749D01*
X1700398D01*
Y342210D01*
X1702937D01*
X1700398Y339671D01*
X1697859Y337132D01*
X1723251Y357445D02*
X1713094D01*
Y349827D01*
X1718173Y352367D01*
X1720712D01*
X1723251Y349827D01*
Y344749D01*
X1720712Y342210D01*
X1715633D01*
X1713094Y344749D01*
X1827369Y418405D02*
Y403170D01*
X1834986D01*
X1837525Y405709D01*
Y408248D01*
X1834986Y410788D01*
X1827369D01*
X1834986D01*
X1837525Y413327D01*
Y415866D01*
X1834986Y418405D01*
X1827369D01*
X1845143Y403170D02*
X1850221D01*
X1852760Y405709D01*
Y410788D01*
X1850221Y413327D01*
X1845143D01*
X1842604Y410788D01*
Y405709D01*
X1845143Y403170D01*
X1860378Y413327D02*
X1865456D01*
X1867996Y410788D01*
Y403170D01*
X1860378D01*
X1857839Y405709D01*
X1860378Y408248D01*
X1867996D01*
X1873074Y413327D02*
Y403170D01*
Y408248D01*
X1875613Y410788D01*
X1878152Y413327D01*
X1880692D01*
X1898466Y418405D02*
Y403170D01*
X1890848D01*
X1888309Y405709D01*
Y410788D01*
X1890848Y413327D01*
X1898466D01*
X1918779Y418405D02*
Y403170D01*
X1928936D01*
X1936553Y413327D02*
X1941632D01*
X1944171Y410788D01*
Y403170D01*
X1936553D01*
X1934014Y405709D01*
X1936553Y408248D01*
X1944171D01*
X1949249Y413327D02*
Y405709D01*
X1951788Y403170D01*
X1959406D01*
Y400631D01*
X1956867Y398092D01*
X1954328D01*
X1959406Y403170D02*
Y413327D01*
X1972102Y403170D02*
X1967024D01*
X1964484Y405709D01*
Y410788D01*
X1967024Y413327D01*
X1972102D01*
X1974641Y410788D01*
Y408248D01*
X1964484D01*
X1979720Y413327D02*
Y403170D01*
Y408248D01*
X1982259Y410788D01*
X1984798Y413327D01*
X1987337D01*
X2020346Y415866D02*
X2017807Y418405D01*
X2012729D01*
X2010190Y415866D01*
Y413327D01*
X2012729Y410788D01*
X2017807D01*
X2020346Y408248D01*
Y405709D01*
X2017807Y403170D01*
X2012729D01*
X2010190Y405709D01*
X2027964Y415866D02*
Y413327D01*
X2025425D01*
X2030503D01*
X2027964D01*
Y405709D01*
X2030503Y403170D01*
X2040660Y413327D02*
X2045738D01*
X2048277Y410788D01*
Y403170D01*
X2040660D01*
X2038121Y405709D01*
X2040660Y408248D01*
X2048277D01*
X2063512Y413327D02*
X2055895D01*
X2053356Y410788D01*
Y405709D01*
X2055895Y403170D01*
X2063512D01*
X2068591D02*
Y418405D01*
Y408248D02*
X2076208Y413327D01*
X2068591Y408248D02*
X2076208Y403170D01*
D209*
X941132Y395550D02*
X2093988D01*
X941132Y426030D02*
X2093988D01*
X941132Y60270D02*
Y426030D01*
Y60270D02*
X1045250D01*
X941132Y90750D02*
X1045250D01*
X941132Y121230D02*
X1045250D01*
X941132Y151710D02*
X1045250D01*
X941132Y182190D02*
X1045250D01*
X941132Y212670D02*
X1045250D01*
X941132Y243150D02*
X1045250D01*
X941132Y273630D02*
X1045250D01*
X941132Y304110D02*
X1045250D01*
X941132Y334590D02*
X1045250D01*
X941132Y365070D02*
X1045250D01*
Y60270D02*
Y426030D01*
Y60270D02*
X1281405D01*
X1045250Y90750D02*
X1281405D01*
X1045250Y121230D02*
X1281405D01*
X1045250Y151710D02*
X1281405D01*
X1045250Y182190D02*
X1281405D01*
X1045250Y212670D02*
X1281405D01*
X1045250Y243150D02*
X1281405D01*
X1045250Y273630D02*
X1281405D01*
X1045250Y304110D02*
X1281405D01*
X1045250Y334590D02*
X1281405D01*
X1045250Y365070D02*
X1281405D01*
Y60270D02*
Y426030D01*
Y60270D02*
X1499786D01*
X1281405Y90750D02*
X1499786D01*
X1281405Y121230D02*
X1499786D01*
X1281405Y151710D02*
X1499786D01*
X1281405Y182190D02*
X1499786D01*
X1281405Y212670D02*
X1499786D01*
X1281405Y243150D02*
X1499786D01*
X1281405Y273630D02*
X1499786D01*
X1281405Y304110D02*
X1499786D01*
X1281405Y334590D02*
X1499786D01*
X1281405Y365070D02*
X1499786D01*
Y60270D02*
Y426030D01*
Y60270D02*
X1664844D01*
X1499786Y90750D02*
X1664844D01*
X1499786Y121230D02*
X1664844D01*
X1499786Y151710D02*
X1664844D01*
X1499786Y182190D02*
X1664844D01*
X1499786Y212670D02*
X1664844D01*
X1499786Y243150D02*
X1664844D01*
X1499786Y273630D02*
X1664844D01*
X1499786Y304110D02*
X1664844D01*
X1499786Y334590D02*
X1664844D01*
X1499786Y365070D02*
X1664844D01*
Y60270D02*
Y426030D01*
Y60270D02*
X1809589D01*
X1664844Y90750D02*
X1809589D01*
X1664844Y121230D02*
X1809589D01*
X1664844Y151710D02*
X1809589D01*
X1664844Y182190D02*
X1809589D01*
X1664844Y212670D02*
X1809589D01*
X1664844Y243150D02*
X1809589D01*
X1664844Y273630D02*
X1809589D01*
X1664844Y304110D02*
X1809589D01*
X1664844Y334590D02*
X1809589D01*
X1664844Y365070D02*
X1809589D01*
Y60270D02*
Y426030D01*
Y60270D02*
X2093988D01*
X1809589Y90750D02*
X2093988D01*
X1809589Y121230D02*
X2093988D01*
X1809589Y151710D02*
X2093988D01*
X1809589Y182190D02*
X2093988D01*
X1809589Y212670D02*
X2093988D01*
X1809589Y243150D02*
X2093988D01*
X1809589Y273630D02*
X2093988D01*
X1809589Y304110D02*
X2093988D01*
X1809589Y334590D02*
X2093988D01*
X1809589Y365070D02*
X2093988D01*
Y60270D02*
Y426030D01*
D210*
X2078748Y60270D02*
X2093988Y75510D01*
X2063508Y60270D02*
X2093988Y90750D01*
X2048268Y60270D02*
X2078748Y90750D01*
X2033028Y60270D02*
X2063508Y90750D01*
X2017788Y60270D02*
X2048268Y90750D01*
X2002548Y60270D02*
X2033028Y90750D01*
X1987308Y60270D02*
X2017788Y90750D01*
X1972068Y60270D02*
X2002548Y90750D01*
X1956828Y60270D02*
X1987308Y90750D01*
X1941588Y60270D02*
X1972068Y90750D01*
X1926348Y60270D02*
X1956828Y90750D01*
X1911108Y60270D02*
X1941588Y90750D01*
X1895868Y60270D02*
X1926348Y90750D01*
X1880628Y60270D02*
X1911108Y90750D01*
X1865388Y60270D02*
X1895868Y90750D01*
X1850148Y60270D02*
X1880628Y90750D01*
X1834908Y60270D02*
X1865388Y90750D01*
X1819668Y60270D02*
X1850148Y90750D01*
X1809589Y65430D02*
X1834908Y90750D01*
X1809589Y80670D02*
X1819668Y90750D01*
X2078748D02*
X2093988Y105990D01*
X2063508Y90750D02*
X2093988Y121230D01*
X2048268Y90750D02*
X2078748Y121230D01*
X2033028Y90750D02*
X2063508Y121230D01*
X2017788Y90750D02*
X2048268Y121230D01*
X2002548Y90750D02*
X2033028Y121230D01*
X1987308Y90750D02*
X2017788Y121230D01*
X1972068Y90750D02*
X2002548Y121230D01*
X1956828Y90750D02*
X1987308Y121230D01*
X1941588Y90750D02*
X1972068Y121230D01*
X1926348Y90750D02*
X1956828Y121230D01*
X1911108Y90750D02*
X1941588Y121230D01*
X1895868Y90750D02*
X1926348Y121230D01*
X1880628Y90750D02*
X1911108Y121230D01*
X1865388Y90750D02*
X1895868Y121230D01*
X1850148Y90750D02*
X1880628Y121230D01*
X1834908Y90750D02*
X1865388Y121230D01*
X1819668Y90750D02*
X1850148Y121230D01*
X1809589Y95911D02*
X1834908Y121230D01*
X1809589Y111151D02*
X1819668Y121230D01*
X2078748D02*
X2093988Y136470D01*
X2063508Y121230D02*
X2093988Y151710D01*
X2048268Y121230D02*
X2078748Y151710D01*
X2033028Y121230D02*
X2063508Y151710D01*
X2017788Y121230D02*
X2048268Y151710D01*
X2002548Y121230D02*
X2033028Y151710D01*
X1987308Y121230D02*
X2017788Y151710D01*
X1972068Y121230D02*
X2002548Y151710D01*
X1956828Y121230D02*
X1987308Y151710D01*
X1941588Y121230D02*
X1972068Y151710D01*
X1926348Y121230D02*
X1956828Y151710D01*
X1911108Y121230D02*
X1941588Y151710D01*
X1895868Y121230D02*
X1926348Y151710D01*
X1880628Y121230D02*
X1911108Y151710D01*
X1865388Y121230D02*
X1895868Y151710D01*
X1850148Y121230D02*
X1880628Y151710D01*
X1834908Y121230D02*
X1865388Y151710D01*
X1819668Y121230D02*
X1850148Y151710D01*
X1809589Y126390D02*
X1834908Y151710D01*
X1809589Y141630D02*
X1819668Y151710D01*
X2078748D02*
X2093988Y166950D01*
X2063508Y151710D02*
X2093988Y182190D01*
X2048268Y151710D02*
X2078748Y182190D01*
X2033028Y151710D02*
X2063508Y182190D01*
X2017788Y151710D02*
X2048268Y182190D01*
X2002548Y151710D02*
X2033028Y182190D01*
X1987308Y151710D02*
X2017788Y182190D01*
X1972068Y151710D02*
X2002548Y182190D01*
X1956828Y151710D02*
X1987308Y182190D01*
X1941588Y151710D02*
X1972068Y182190D01*
X1926348Y151710D02*
X1956828Y182190D01*
X1911108Y151710D02*
X1941588Y182190D01*
X1895868Y151710D02*
X1926348Y182190D01*
X1880628Y151710D02*
X1911108Y182190D01*
X1865388Y151710D02*
X1895868Y182190D01*
X1850148Y151710D02*
X1880628Y182190D01*
X1834908Y151710D02*
X1865388Y182190D01*
X1819668Y151710D02*
X1850148Y182190D01*
X1809589Y156870D02*
X1834908Y182190D01*
X1809589Y172111D02*
X1819668Y182190D01*
X2078748D02*
X2093988Y197430D01*
X2063508Y182190D02*
X2093988Y212670D01*
X2048268Y182190D02*
X2078748Y212670D01*
X2033028Y182190D02*
X2063508Y212670D01*
X2017788Y182190D02*
X2048268Y212670D01*
X2002548Y182190D02*
X2033028Y212670D01*
X1987308Y182190D02*
X2017788Y212670D01*
X1972068Y182190D02*
X2002548Y212670D01*
X1956828Y182190D02*
X1987308Y212670D01*
X1941588Y182190D02*
X1972068Y212670D01*
X1926348Y182190D02*
X1956828Y212670D01*
X1911108Y182190D02*
X1941588Y212670D01*
X1895868Y182190D02*
X1926348Y212670D01*
X1880628Y182190D02*
X1911108Y212670D01*
X1865388Y182190D02*
X1895868Y212670D01*
X1850148Y182190D02*
X1880628Y212670D01*
X1834908Y182190D02*
X1865388Y212670D01*
X1819668Y182190D02*
X1850148Y212670D01*
X1809589Y187351D02*
X1834908Y212670D01*
X1809589Y202591D02*
X1819668Y212670D01*
X2078748D02*
X2093988Y227910D01*
X2063508Y212670D02*
X2093988Y243150D01*
X2048268Y212670D02*
X2078748Y243150D01*
X2033028Y212670D02*
X2063508Y243150D01*
X2017788Y212670D02*
X2048268Y243150D01*
X2002548Y212670D02*
X2033028Y243150D01*
X1987308Y212670D02*
X2017788Y243150D01*
X1972068Y212670D02*
X2002548Y243150D01*
X1956828Y212670D02*
X1987308Y243150D01*
X1941588Y212670D02*
X1972068Y243150D01*
X1926348Y212670D02*
X1956828Y243150D01*
X1911108Y212670D02*
X1941588Y243150D01*
X1895868Y212670D02*
X1926348Y243150D01*
X1880628Y212670D02*
X1911108Y243150D01*
X1865388Y212670D02*
X1895868Y243150D01*
X1850148Y212670D02*
X1880628Y243150D01*
X1834908Y212670D02*
X1865388Y243150D01*
X1819668Y212670D02*
X1850148Y243150D01*
X1809589Y217831D02*
X1834908Y243150D01*
X1809589Y233071D02*
X1819668Y243150D01*
X2078748D02*
X2093988Y258390D01*
X2063508Y243150D02*
X2093988Y273630D01*
X2048268Y243150D02*
X2078748Y273630D01*
X2033028Y243150D02*
X2063508Y273630D01*
X2017788Y243150D02*
X2048268Y273630D01*
X2002548Y243150D02*
X2033028Y273630D01*
X1987308Y243150D02*
X2017788Y273630D01*
X1972068Y243150D02*
X2002548Y273630D01*
X1956828Y243150D02*
X1987308Y273630D01*
X1941588Y243150D02*
X1972068Y273630D01*
X1926348Y243150D02*
X1956828Y273630D01*
X1911108Y243150D02*
X1941588Y273630D01*
X1895868Y243150D02*
X1926348Y273630D01*
X1880628Y243150D02*
X1911108Y273630D01*
X1865388Y243150D02*
X1895868Y273630D01*
X1850148Y243150D02*
X1880628Y273630D01*
X1834908Y243150D02*
X1865388Y273630D01*
X1819668Y243150D02*
X1850148Y273630D01*
X1809589Y248311D02*
X1834908Y273630D01*
X1809589Y263550D02*
X1819668Y273630D01*
X2078748D02*
X2093988Y288870D01*
X2063508Y273630D02*
X2093988Y304110D01*
X2048268Y273630D02*
X2078748Y304110D01*
X2033028Y273630D02*
X2063508Y304110D01*
X2017788Y273630D02*
X2048268Y304110D01*
X2002548Y273630D02*
X2033028Y304110D01*
X1987308Y273630D02*
X2017788Y304110D01*
X1972068Y273630D02*
X2002548Y304110D01*
X1956828Y273630D02*
X1987308Y304110D01*
X1941588Y273630D02*
X1972068Y304110D01*
X1926348Y273630D02*
X1956828Y304110D01*
X1911108Y273630D02*
X1941588Y304110D01*
X1895868Y273630D02*
X1926348Y304110D01*
X1880628Y273630D02*
X1911108Y304110D01*
X1865388Y273630D02*
X1895868Y304110D01*
X1850148Y273630D02*
X1880628Y304110D01*
X1834908Y273630D02*
X1865388Y304110D01*
X1819668Y273630D02*
X1850148Y304110D01*
X1809589Y278790D02*
X1834908Y304110D01*
X1809589Y294030D02*
X1819668Y304110D01*
X2078748D02*
X2093988Y319350D01*
X2063508Y304110D02*
X2093988Y334590D01*
X2048268Y304110D02*
X2078748Y334590D01*
X2033028Y304110D02*
X2063508Y334590D01*
X2017788Y304110D02*
X2048268Y334590D01*
X2002548Y304110D02*
X2033028Y334590D01*
X1987308Y304110D02*
X2017788Y334590D01*
X1972068Y304110D02*
X2002548Y334590D01*
X1956828Y304110D02*
X1987308Y334590D01*
X1941588Y304110D02*
X1972068Y334590D01*
X1926348Y304110D02*
X1956828Y334590D01*
X1911108Y304110D02*
X1941588Y334590D01*
X1895868Y304110D02*
X1926348Y334590D01*
X1880628Y304110D02*
X1911108Y334590D01*
X1865388Y304110D02*
X1895868Y334590D01*
X1850148Y304110D02*
X1880628Y334590D01*
X1834908Y304110D02*
X1865388Y334590D01*
X1819668Y304110D02*
X1850148Y334590D01*
X1809589Y309270D02*
X1834908Y334590D01*
X1809589Y324510D02*
X1819668Y334590D01*
X2078748D02*
X2093988Y349830D01*
X2063508Y334590D02*
X2093988Y365070D01*
X2048268Y334590D02*
X2078748Y365070D01*
X2033028Y334590D02*
X2063508Y365070D01*
X2017788Y334590D02*
X2048268Y365070D01*
X2002548Y334590D02*
X2033028Y365070D01*
X1987308Y334590D02*
X2017788Y365070D01*
X1972068Y334590D02*
X2002548Y365070D01*
X1956828Y334590D02*
X1987308Y365070D01*
X1941588Y334590D02*
X1972068Y365070D01*
X1926348Y334590D02*
X1956828Y365070D01*
X1911108Y334590D02*
X1941588Y365070D01*
X1895868Y334590D02*
X1926348Y365070D01*
X1880628Y334590D02*
X1911108Y365070D01*
X1865388Y334590D02*
X1895868Y365070D01*
X1850148Y334590D02*
X1880628Y365070D01*
X1834908Y334590D02*
X1865388Y365070D01*
X1819668Y334590D02*
X1850148Y365070D01*
X1809589Y339751D02*
X1834908Y365070D01*
X1809589Y354991D02*
X1819668Y365070D01*
X2078748D02*
X2093988Y380310D01*
X2063508Y365070D02*
X2093988Y395550D01*
X2048268Y365070D02*
X2078748Y395550D01*
X2033028Y365070D02*
X2063508Y395550D01*
X2017788Y365070D02*
X2048268Y395550D01*
X2002548Y365070D02*
X2033028Y395550D01*
X1987308Y365070D02*
X2017788Y395550D01*
X1972068Y365070D02*
X2002548Y395550D01*
X1956828Y365070D02*
X1987308Y395550D01*
X1941588Y365070D02*
X1972068Y395550D01*
X1926348Y365070D02*
X1956828Y395550D01*
X1911108Y365070D02*
X1941588Y395550D01*
X1895868Y365070D02*
X1926348Y395550D01*
X1880628Y365070D02*
X1911108Y395550D01*
X1865388Y365070D02*
X1895868Y395550D01*
X1850148Y365070D02*
X1880628Y395550D01*
X1834908Y365070D02*
X1865388Y395550D01*
X1819668Y365070D02*
X1850148Y395550D01*
X1809589Y370230D02*
X1834908Y395550D01*
X1809589Y385471D02*
X1819668Y395550D01*
M02*
