G04*
G04 #@! TF.GenerationSoftware,Altium Limited,Altium Designer,20.1.11 (218)*
G04*
G04 Layer_Color=65535*
%FSLAX44Y44*%
%MOMM*%
G71*
G04*
G04 #@! TF.SameCoordinates,4E8BECB8-10D7-4487-B94D-AC5258AA6689*
G04*
G04*
G04 #@! TF.FilePolarity,Positive*
G04*
G01*
G75*
%ADD10C,0.1000*%
%ADD11C,0.2000*%
%ADD12C,0.2540*%
%ADD13C,0.2500*%
%ADD14C,0.6000*%
%ADD15C,0.1500*%
%ADD16C,0.1700*%
%ADD17C,0.1270*%
%ADD18C,0.0800*%
D10*
X806476Y282104D02*
G03*
X808476Y284104I0J2000D01*
G01*
X805976Y312642D02*
G03*
X807476Y311142I1500J0D01*
G01*
Y321975D02*
G03*
X805976Y320475I0J-1500D01*
G01*
X813695Y404105D02*
G03*
X812996Y406654I-5000J-0D01*
G01*
X813695Y404105D02*
G03*
X812996Y406654I-5000J-0D01*
G01*
X805695Y420345D02*
G03*
X806393Y417796I5000J0D01*
G01*
X805695Y420345D02*
G03*
X806393Y417796I5000J0D01*
G01*
X74996D02*
G03*
X75694Y420345I-4302J2549D01*
G01*
X68393Y406654D02*
G03*
X67694Y404105I4302J-2549D01*
G01*
X74996Y417796D02*
G03*
X75694Y420345I-4302J2549D01*
G01*
X68393Y406654D02*
G03*
X67694Y404105I4302J-2549D01*
G01*
X82793Y281921D02*
G03*
X82395Y281975I-398J-1446D01*
G01*
X75694Y318975D02*
G03*
X73694Y320975I-2000J0D01*
G01*
Y310975D02*
G03*
X75694Y312975I-0J2000D01*
G01*
X73194Y283975D02*
G03*
X75194Y281975I2000J0D01*
G01*
X775195Y407475D02*
X780195D01*
X783695Y396475D01*
Y347635D02*
Y396475D01*
Y347635D02*
X792409Y317256D01*
Y282072D02*
Y317256D01*
X797409Y282072D02*
Y282104D01*
X792409Y282072D02*
X797409D01*
X778195Y505975D02*
X805695D01*
X778195D02*
X805695D01*
Y420345D02*
Y505975D01*
Y420345D02*
Y505975D01*
X805976Y312642D02*
Y320475D01*
X797409Y282104D02*
X806476D01*
X808234Y321975D02*
Y395975D01*
X808476Y284104D02*
Y296254D01*
X807476Y311142D02*
X809965D01*
Y296254D02*
Y311142D01*
X808476Y296254D02*
X809965D01*
X806393Y417796D02*
X812996Y406654D01*
X806393Y417796D02*
X812996Y406654D01*
X813695Y396475D02*
Y404105D01*
Y396475D02*
Y404105D01*
X808234Y395975D02*
X813695Y396475D01*
X75694Y505975D02*
X105695D01*
X75694Y420345D02*
Y505975D01*
X68393Y406654D02*
X74996Y417796D01*
X67694Y396475D02*
Y404105D01*
X97694Y339157D02*
Y396475D01*
X75694Y505975D02*
X105695D01*
X75694Y420345D02*
Y505975D01*
X68393Y406654D02*
X74996Y417796D01*
X67694Y396475D02*
Y404105D01*
X75194Y281975D02*
X82395D01*
X82793Y281921D02*
X88894D01*
Y309157D01*
X97694Y339157D01*
Y396475D01*
X73242Y320975D02*
Y395975D01*
Y320975D02*
X73694D01*
X75694Y312975D02*
Y318975D01*
X71335Y310975D02*
X73694D01*
X71335Y295975D02*
Y310975D01*
Y295975D02*
X73194D01*
Y283975D02*
Y295975D01*
X67694Y396475D02*
X73242Y395975D01*
X97694Y396475D02*
X100195Y407475D01*
X145500Y58250D02*
X147250Y60000D01*
X145500Y58250D02*
X149000D01*
X147250Y60000D02*
X149000Y58250D01*
X787500Y166750D02*
X789250Y168500D01*
X787500Y166750D02*
Y170250D01*
X789250Y168500D01*
X169500Y229732D02*
X189500D01*
X169500Y222112D02*
X189500D01*
Y229732D01*
X169500Y222112D02*
Y229732D01*
X369714Y126516D02*
Y142516D01*
X358286Y126516D02*
Y142532D01*
X811536Y372766D02*
Y388782D01*
X822964Y372766D02*
Y388766D01*
X804536Y151734D02*
Y167734D01*
X815964Y151718D02*
Y167734D01*
X81399Y532160D02*
X123309D01*
Y511840D02*
Y532160D01*
X81399Y511840D02*
X123309D01*
X81399D02*
Y532160D01*
X296000Y116500D02*
Y138500D01*
X312000Y116500D02*
Y138500D01*
X331750Y116500D02*
Y138500D01*
X315750Y116500D02*
Y138500D01*
X335750Y116500D02*
Y138500D01*
X351750Y116500D02*
Y138500D01*
X773500Y206750D02*
Y226750D01*
X786000Y206750D02*
Y226750D01*
X773500D02*
X786000D01*
X773500Y206750D02*
X786000D01*
X188250Y6000D02*
X200750D01*
X188250Y26000D02*
X200750D01*
Y6000D02*
Y26000D01*
X188250Y6000D02*
Y26000D01*
X618250Y156750D02*
X638250D01*
X618250Y169250D02*
X638250D01*
X618250Y156750D02*
Y169250D01*
X638250Y156750D02*
Y169250D01*
X553250Y119750D02*
Y132250D01*
X573250Y119750D02*
Y132250D01*
X553250Y119750D02*
X573250D01*
X553250Y132250D02*
X573250D01*
X593500Y248500D02*
Y268500D01*
X581000Y248500D02*
Y268500D01*
Y248500D02*
X593500D01*
X581000Y268500D02*
X593500D01*
X763750Y92500D02*
Y105000D01*
X743750Y92500D02*
Y105000D01*
X763750D01*
X743750Y92500D02*
X763750D01*
X340000Y150500D02*
Y178500D01*
Y150500D02*
X352000D01*
Y178500D01*
X340000D02*
X352000D01*
X766750Y180000D02*
Y192000D01*
X794750D01*
Y180000D02*
Y192000D01*
X766750Y180000D02*
X794750D01*
X261750Y7500D02*
X289750D01*
Y19500D01*
X261750D02*
X289750D01*
X261750Y7500D02*
Y19500D01*
X361000Y7250D02*
Y19250D01*
X333000Y7250D02*
X361000D01*
X333000D02*
Y19250D01*
X361000D01*
X206750Y221000D02*
Y249000D01*
Y221000D02*
X218750D01*
Y249000D01*
X206750D02*
X218750D01*
X89750Y49750D02*
Y61750D01*
X61750Y49750D02*
X89750D01*
X61750D02*
Y61750D01*
X89750D01*
X813250Y283500D02*
X841250D01*
Y295500D01*
X813250D02*
X841250D01*
X813250Y283500D02*
Y295500D01*
X873000Y350000D02*
Y362000D01*
X845000Y350000D02*
X873000D01*
X845000D02*
Y362000D01*
X873000D01*
X573250Y20750D02*
X601250D01*
X573250Y8750D02*
Y20750D01*
Y8750D02*
X601250D01*
Y20750D01*
X833250Y366000D02*
X868250D01*
X833250Y386500D02*
X868250D01*
X325500Y71750D02*
X360500D01*
X325500Y92250D02*
X360500D01*
X58750Y78500D02*
X93750D01*
X58750Y99000D02*
X93750D01*
X787000Y120000D02*
X809000D01*
X787000D02*
Y132000D01*
X815000D01*
Y120000D02*
Y132000D01*
X809000Y120000D02*
X815000D01*
X846750Y287000D02*
X872750D01*
Y297000D01*
X846750D02*
X872750D01*
X846750Y287000D02*
Y297000D01*
X83000Y17000D02*
Y43000D01*
X73000D02*
X83000D01*
X73000Y17000D02*
Y43000D01*
Y17000D02*
X83000D01*
X299250Y8500D02*
Y18500D01*
X325250D01*
Y8500D02*
Y18500D01*
X299250Y8500D02*
X325250D01*
X247250Y220250D02*
X253250D01*
Y232250D01*
X225250D02*
X253250D01*
X225250Y220250D02*
Y232250D01*
Y220250D02*
X247250D01*
Y234750D02*
X253250D01*
Y246750D01*
X225250D02*
X253250D01*
X225250Y234750D02*
Y246750D01*
Y234750D02*
X247250D01*
X599000Y51000D02*
Y57000D01*
X587000D02*
X599000D01*
X587000Y29000D02*
Y57000D01*
Y29000D02*
X599000D01*
Y51000D01*
X9250Y105250D02*
X11250D01*
X9250D02*
Y121250D01*
X11250D01*
X21250Y105250D02*
X23250D01*
Y121250D01*
X21250D02*
X23250D01*
X32000Y213000D02*
X54000D01*
Y201000D02*
Y213000D01*
X26000Y201000D02*
X54000D01*
X26000D02*
Y213000D01*
X32000D01*
X300500Y217000D02*
X306500D01*
Y229000D01*
X278500D02*
X306500D01*
X278500Y217000D02*
Y229000D01*
Y217000D02*
X300500D01*
X150000Y219750D02*
Y241750D01*
X162000D01*
Y213750D02*
Y241750D01*
X150000Y213750D02*
X162000D01*
X150000D02*
Y219750D01*
X150500Y205750D02*
X156500D01*
X150500Y193750D02*
Y205750D01*
Y193750D02*
X178500D01*
Y205750D01*
X156500D02*
X178500D01*
X275000Y168000D02*
X297000D01*
Y156000D02*
Y168000D01*
X269000Y156000D02*
X297000D01*
X269000D02*
Y168000D01*
X275000D01*
D11*
X53914Y465250D02*
G03*
X53914Y465250I-1414J0D01*
G01*
X54914Y351999D02*
G03*
X54914Y351999I-1414J0D01*
G01*
X106303Y104500D02*
G03*
X106303Y104500I-1803J0D01*
G01*
X873164Y161500D02*
G03*
X873164Y161500I-1414J0D01*
G01*
X680059Y107750D02*
G03*
X680059Y107750I-559J0D01*
G01*
X706559Y107750D02*
G03*
X706559Y107750I-559J0D01*
G01*
X138000Y279000D02*
Y330000D01*
X101000Y279000D02*
Y330000D01*
Y279000D02*
X138000D01*
X101000Y330000D02*
X138000D01*
X94750Y229000D02*
X96250D01*
Y222500D02*
Y229000D01*
Y200000D02*
Y206500D01*
X94750Y200000D02*
X96250D01*
X62250D02*
X63750D01*
X62250D02*
Y206500D01*
Y229000D02*
X63750D01*
X62250Y222500D02*
Y229000D01*
X788000Y77000D02*
X810000D01*
X788000Y83000D02*
X810000D01*
X788000Y77000D02*
Y83000D01*
X810000Y77000D02*
Y83000D01*
X352729Y515180D02*
X423849D01*
X352729D02*
Y535340D01*
X423849D01*
Y515180D02*
Y535340D01*
X892500Y286000D02*
X904500D01*
X892500Y177999D02*
Y286000D01*
Y177999D02*
X904500D01*
X827000Y250000D02*
Y252999D01*
X842500Y192999D02*
X844500D01*
X884000Y191999D02*
Y271999D01*
X868500Y191999D02*
X884000D01*
X868500Y271999D02*
X884000D01*
X873500Y191999D02*
Y271999D01*
X878000Y191999D02*
Y271999D01*
X842500Y271000D02*
X844500D01*
X827000Y211000D02*
Y214000D01*
X887500Y266999D02*
X892500D01*
X887500Y196999D02*
X892500D01*
Y231999D02*
X904500D01*
X892500D02*
X896500Y236000D01*
X892500Y231999D02*
X896500Y227999D01*
X893000Y433501D02*
X897000Y429501D01*
X893000Y433501D02*
X897000Y437500D01*
X893000Y433501D02*
X905000D01*
X888000Y398500D02*
X893000D01*
X888000Y468500D02*
X893000D01*
X827500Y412500D02*
Y415500D01*
X843000Y472500D02*
X845000D01*
X878500Y393500D02*
Y473500D01*
X874000Y393500D02*
Y473500D01*
X869000D02*
X884500D01*
X869000Y393500D02*
X884500D01*
Y473500D01*
X843000Y394500D02*
X845000D01*
X827500Y451500D02*
Y454500D01*
X893000Y379501D02*
X905000D01*
X893000D02*
Y487500D01*
X905000D01*
X593000Y218750D02*
Y224250D01*
X583000Y218750D02*
X593000D01*
Y238250D02*
Y243750D01*
X583000D02*
X593000D01*
X350000Y43750D02*
Y45750D01*
X319000Y43750D02*
Y45750D01*
X867500Y325000D02*
Y327000D01*
X836500Y325000D02*
Y327000D01*
X580250Y42750D02*
Y44750D01*
X549250Y42750D02*
Y44750D01*
X577750Y133000D02*
Y155000D01*
X608750Y133000D02*
Y155000D01*
X521500Y114400D02*
Y146900D01*
X390500D02*
X521500D01*
X390500Y114400D02*
Y146900D01*
X137500Y348000D02*
Y379000D01*
X118500Y348000D02*
Y379000D01*
Y348000D02*
X137500D01*
X118500Y379000D02*
X137500D01*
D12*
X49270Y235500D02*
G03*
X49270Y235500I-1270J0D01*
G01*
X178250Y16750D02*
G03*
X178250Y16750I-4000J0D01*
G01*
X820750Y65500D02*
X878750D01*
Y167500D01*
X820750D02*
X878750D01*
X820750Y65500D02*
Y167500D01*
X11250Y117250D02*
X21250D01*
D13*
X166750Y215000D02*
G03*
X166750Y215000I-1250J0D01*
G01*
X149250Y277500D02*
G03*
X149250Y277500I-1250J0D01*
G01*
X96000Y235500D02*
G03*
X96000Y235500I-1250J0D01*
G01*
X814250Y90250D02*
G03*
X814250Y90250I-1250J0D01*
G01*
X574750Y246250D02*
G03*
X574750Y246250I-1250J0D01*
G01*
X353250Y55750D02*
G03*
X353250Y55750I-1250J0D01*
G01*
X835750Y315000D02*
G03*
X835750Y315000I-1250J0D01*
G01*
X583500Y54750D02*
G03*
X583500Y54750I-1250J0D01*
G01*
X604250Y179000D02*
G03*
X604250Y179000I-1250J0D01*
G01*
X149750Y346000D02*
G03*
X149750Y346000I-1250J0D01*
G01*
D14*
X132500Y287500D02*
G03*
X132500Y287500I-3000J0D01*
G01*
D15*
X280550Y172800D02*
G03*
X280550Y172800I-1000J0D01*
G01*
X151694Y35975D02*
G03*
X151694Y35975I-29000J0D01*
G01*
X787695D02*
G03*
X787695Y35975I-29000J0D01*
G01*
X880000Y30000D02*
G03*
X880000Y30000I-30000J0D01*
G01*
Y510000D02*
G03*
X880000Y510000I-30000J0D01*
G01*
X60000D02*
G03*
X60000Y510000I-30000J0D01*
G01*
Y30000D02*
G03*
X60000Y30000I-30000J0D01*
G01*
X652750Y104750D02*
X680500D01*
X652750Y87250D02*
Y104750D01*
Y87250D02*
X680500D01*
Y104750D01*
X707000Y87250D02*
Y104750D01*
X679250Y87250D02*
X707000D01*
X679250D02*
Y104750D01*
X707000D01*
X166250Y28750D02*
Y152750D01*
X290250D01*
Y28750D02*
Y152750D01*
X166250Y28750D02*
X290250D01*
X166250D02*
X290250D01*
Y152750D01*
X166250D02*
X290250D01*
X166250Y28750D02*
Y152750D01*
X207000Y164000D02*
Y216000D01*
X261000D01*
Y164000D02*
Y216000D01*
X207000Y164000D02*
X261000D01*
X277250Y175500D02*
Y180000D01*
Y175500D02*
X281750D01*
X307250D02*
Y180000D01*
X277250Y200900D02*
Y205400D01*
X302650Y175500D02*
X307150D01*
X307250Y201000D02*
Y205500D01*
X277250D02*
X281750D01*
X302750D02*
X307250D01*
X46754Y482998D02*
X50086D01*
X48420D01*
Y473002D01*
X46754D01*
X50086D01*
X61749D02*
X55085D01*
X61749Y479666D01*
Y481332D01*
X60083Y482998D01*
X56751D01*
X55085Y481332D01*
X71746D02*
X70080Y482998D01*
X66748D01*
X65082Y481332D01*
Y474668D01*
X66748Y473002D01*
X70080D01*
X71746Y474668D01*
X556169Y174248D02*
Y165918D01*
X557836Y164252D01*
X561168D01*
X562834Y165918D01*
Y174248D01*
X572831D02*
X569498Y172582D01*
X566166Y169250D01*
Y165918D01*
X567832Y164252D01*
X571165D01*
X572831Y165918D01*
Y167584D01*
X571165Y169250D01*
X566166D01*
X264752Y253832D02*
X263085Y255498D01*
X259753D01*
X258087Y253832D01*
Y247168D01*
X259753Y245502D01*
X263085D01*
X264752Y247168D01*
X273082Y245502D02*
Y255498D01*
X268084Y250500D01*
X274748D01*
X278081Y245502D02*
X281413D01*
X279747D01*
Y255498D01*
X278081Y253832D01*
X263335Y238832D02*
X261669Y240498D01*
X258337D01*
X256671Y238832D01*
Y232168D01*
X258337Y230502D01*
X261669D01*
X263335Y232168D01*
X271666Y230502D02*
Y240498D01*
X266668Y235500D01*
X273332D01*
X276665Y238832D02*
X278331Y240498D01*
X281663D01*
X283329Y238832D01*
Y232168D01*
X281663Y230502D01*
X278331D01*
X276665Y232168D01*
Y238832D01*
X543671Y10252D02*
Y20248D01*
X548669D01*
X550336Y18582D01*
Y15250D01*
X548669Y13584D01*
X543671D01*
X547003D02*
X550336Y10252D01*
X560332Y20248D02*
X553668D01*
Y15250D01*
X557000Y16916D01*
X558666D01*
X560332Y15250D01*
Y11918D01*
X558666Y10252D01*
X555334D01*
X553668Y11918D01*
X570329Y20248D02*
X566997Y18582D01*
X563665Y15250D01*
Y11918D01*
X565331Y10252D01*
X568663D01*
X570329Y11918D01*
Y13584D01*
X568663Y15250D01*
X563665D01*
X543504Y75498D02*
X546836D01*
X545170D01*
Y65502D01*
X543504D01*
X546836D01*
X558499Y73832D02*
X556833Y75498D01*
X553501D01*
X551835Y73832D01*
Y67168D01*
X553501Y65502D01*
X556833D01*
X558499Y67168D01*
X566830Y65502D02*
Y75498D01*
X561832Y70500D01*
X568496D01*
X584836Y70082D02*
X583169Y71748D01*
X579837D01*
X578171Y70082D01*
Y63418D01*
X579837Y61752D01*
X583169D01*
X584836Y63418D01*
X588168Y70082D02*
X589834Y71748D01*
X593166D01*
X594832Y70082D01*
Y68416D01*
X593166Y66750D01*
X591500D01*
X593166D01*
X594832Y65084D01*
Y63418D01*
X593166Y61752D01*
X589834D01*
X588168Y63418D01*
X598164D02*
X599831Y61752D01*
X603163D01*
X604829Y63418D01*
Y70082D01*
X603163Y71748D01*
X599831D01*
X598164Y70082D01*
Y68416D01*
X599831Y66750D01*
X604829D01*
X764669Y83248D02*
Y74918D01*
X766336Y73252D01*
X769668D01*
X771334Y74918D01*
Y83248D01*
X774666Y81582D02*
X776332Y83248D01*
X779665D01*
X781331Y81582D01*
Y79916D01*
X779665Y78250D01*
X781331Y76584D01*
Y74918D01*
X779665Y73252D01*
X776332D01*
X774666Y74918D01*
Y76584D01*
X776332Y78250D01*
X774666Y79916D01*
Y81582D01*
X776332Y78250D02*
X779665D01*
X729834Y95668D02*
Y102332D01*
X728168Y103998D01*
X724836D01*
X723169Y102332D01*
Y95668D01*
X724836Y94002D01*
X728168D01*
X726502Y97334D02*
X729834Y94002D01*
X728168D02*
X729834Y95668D01*
X739831Y103998D02*
X733166D01*
Y99000D01*
X736498Y100666D01*
X738165D01*
X739831Y99000D01*
Y95668D01*
X738165Y94002D01*
X734832D01*
X733166Y95668D01*
X732671Y124752D02*
Y134748D01*
X737669D01*
X739335Y133082D01*
Y129750D01*
X737669Y128084D01*
X732671D01*
X736003D02*
X739335Y124752D01*
X749332Y134748D02*
X742668D01*
Y129750D01*
X746000Y131416D01*
X747666D01*
X749332Y129750D01*
Y126418D01*
X747666Y124752D01*
X744334D01*
X742668Y126418D01*
X759329Y134748D02*
X752664D01*
Y129750D01*
X755997Y131416D01*
X757663D01*
X759329Y129750D01*
Y126418D01*
X757663Y124752D01*
X754331D01*
X752664Y126418D01*
X817748Y8921D02*
X807752D01*
Y13919D01*
X809418Y15586D01*
X812750D01*
X814416Y13919D01*
Y8921D01*
Y12253D02*
X817748Y15586D01*
X807752Y25582D02*
Y18918D01*
X812750D01*
X811084Y22250D01*
Y23916D01*
X812750Y25582D01*
X816082D01*
X817748Y23916D01*
Y20584D01*
X816082Y18918D01*
X817748Y33913D02*
X807752D01*
X812750Y28914D01*
Y35579D01*
X777998Y105421D02*
X768002D01*
Y110419D01*
X769668Y112086D01*
X773000D01*
X774666Y110419D01*
Y105421D01*
Y108753D02*
X777998Y112086D01*
X768002Y122082D02*
Y115418D01*
X773000D01*
X771334Y118750D01*
Y120416D01*
X773000Y122082D01*
X776332D01*
X777998Y120416D01*
Y117084D01*
X776332Y115418D01*
X769668Y125414D02*
X768002Y127081D01*
Y130413D01*
X769668Y132079D01*
X771334D01*
X773000Y130413D01*
Y128747D01*
Y130413D01*
X774666Y132079D01*
X776332D01*
X777998Y130413D01*
Y127081D01*
X776332Y125414D01*
X801748Y8921D02*
X791752D01*
Y13919D01*
X793418Y15586D01*
X796750D01*
X798416Y13919D01*
Y8921D01*
Y12253D02*
X801748Y15586D01*
X791752Y25582D02*
Y18918D01*
X796750D01*
X795084Y22250D01*
Y23916D01*
X796750Y25582D01*
X800082D01*
X801748Y23916D01*
Y20584D01*
X800082Y18918D01*
X801748Y35579D02*
Y28914D01*
X795084Y35579D01*
X793418D01*
X791752Y33913D01*
Y30581D01*
X793418Y28914D01*
X801669Y184248D02*
Y174252D01*
X808334D01*
X816665D02*
Y184248D01*
X811666Y179250D01*
X818331D01*
X758004Y167748D02*
Y157752D01*
X763002D01*
X764669Y159418D01*
Y166082D01*
X763002Y167748D01*
X758004D01*
X768001Y157752D02*
X771333D01*
X769667D01*
Y167748D01*
X768001Y166082D01*
X776331D02*
X777998Y167748D01*
X781330D01*
X782996Y166082D01*
Y164416D01*
X781330Y162750D01*
X782996Y161084D01*
Y159418D01*
X781330Y157752D01*
X777998D01*
X776331Y159418D01*
Y161084D01*
X777998Y162750D01*
X776331Y164416D01*
Y166082D01*
X777998Y162750D02*
X781330D01*
X793335Y115082D02*
X791669Y116748D01*
X788337D01*
X786671Y115082D01*
Y108418D01*
X788337Y106752D01*
X791669D01*
X793335Y108418D01*
X796668Y115082D02*
X798334Y116748D01*
X801666D01*
X803332Y115082D01*
Y113416D01*
X801666Y111750D01*
X800000D01*
X801666D01*
X803332Y110084D01*
Y108418D01*
X801666Y106752D01*
X798334D01*
X796668Y108418D01*
X813329Y116748D02*
X809997Y115082D01*
X806665Y111750D01*
Y108418D01*
X808331Y106752D01*
X811663D01*
X813329Y108418D01*
Y110084D01*
X811663Y111750D01*
X806665D01*
X775335Y144582D02*
X773669Y146248D01*
X770337D01*
X768671Y144582D01*
Y137918D01*
X770337Y136252D01*
X773669D01*
X775335Y137918D01*
X778668Y144582D02*
X780334Y146248D01*
X783666D01*
X785332Y144582D01*
Y142916D01*
X783666Y141250D01*
X782000D01*
X783666D01*
X785332Y139584D01*
Y137918D01*
X783666Y136252D01*
X780334D01*
X778668Y137918D01*
X795329Y146248D02*
X788664D01*
Y141250D01*
X791997Y142916D01*
X793663D01*
X795329Y141250D01*
Y137918D01*
X793663Y136252D01*
X790331D01*
X788664Y137918D01*
X841336Y181998D02*
X834671D01*
Y177000D01*
X838003D01*
X834671D01*
Y172002D01*
X844668D02*
Y178666D01*
X848000Y181998D01*
X851332Y178666D01*
Y172002D01*
Y177000D01*
X844668D01*
X854665Y172002D02*
Y181998D01*
X861329Y172002D01*
Y181998D01*
X61752Y436254D02*
X71748D01*
Y441252D01*
X70082Y442919D01*
X63418D01*
X61752Y441252D01*
Y436254D01*
X71748Y446251D02*
Y449583D01*
Y447917D01*
X61752D01*
X63418Y446251D01*
X61752Y454581D02*
Y461246D01*
X63418D01*
X70082Y454581D01*
X71748D01*
X854335Y284998D02*
X851003D01*
X849337Y283332D01*
Y276668D01*
X851003Y275002D01*
X854335D01*
X856002Y276668D01*
Y283332D01*
X854335Y284998D01*
X865998Y283332D02*
X864332Y284998D01*
X861000D01*
X859334Y283332D01*
Y276668D01*
X861000Y275002D01*
X864332D01*
X865998Y276668D01*
X869331Y275002D02*
X872663D01*
X870997D01*
Y284998D01*
X869331Y283332D01*
X295419Y34748D02*
X292087D01*
X290421Y33082D01*
Y26418D01*
X292087Y24752D01*
X295419D01*
X297085Y26418D01*
Y33082D01*
X295419Y34748D01*
X307082Y33082D02*
X305416Y34748D01*
X302084D01*
X300418Y33082D01*
Y26418D01*
X302084Y24752D01*
X305416D01*
X307082Y26418D01*
X317079Y24752D02*
X310415D01*
X317079Y31416D01*
Y33082D01*
X315413Y34748D01*
X312081D01*
X310415Y33082D01*
X756837Y349502D02*
Y359498D01*
X761835D01*
X763502Y357832D01*
Y354500D01*
X761835Y352834D01*
X756837D01*
X760169D02*
X763502Y349502D01*
X773498Y359498D02*
X766834D01*
Y354500D01*
X770166Y356166D01*
X771832D01*
X773498Y354500D01*
Y351168D01*
X771832Y349502D01*
X768500D01*
X766834Y351168D01*
X776831Y349502D02*
X780163D01*
X778497D01*
Y359498D01*
X776831Y357832D01*
X761171Y285502D02*
Y295498D01*
X766169D01*
X767835Y293832D01*
Y290500D01*
X766169Y288834D01*
X761171D01*
X764503D02*
X767835Y285502D01*
X777832Y295498D02*
X771168D01*
Y290500D01*
X774500Y292166D01*
X776166D01*
X777832Y290500D01*
Y287168D01*
X776166Y285502D01*
X772834D01*
X771168Y287168D01*
X781164Y293832D02*
X782831Y295498D01*
X786163D01*
X787829Y293832D01*
Y287168D01*
X786163Y285502D01*
X782831D01*
X781164Y287168D01*
Y293832D01*
X738502Y371919D02*
X748498D01*
Y378584D01*
X740168Y381916D02*
X738502Y383582D01*
Y386914D01*
X740168Y388581D01*
X741834D01*
X743500Y386914D01*
Y385248D01*
Y386914D01*
X745166Y388581D01*
X746832D01*
X748498Y386914D01*
Y383582D01*
X746832Y381916D01*
X761254Y325748D02*
X764586D01*
X762920D01*
Y315752D01*
X761254D01*
X764586D01*
X776249Y324082D02*
X774583Y325748D01*
X771251D01*
X769585Y324082D01*
Y317418D01*
X771251Y315752D01*
X774583D01*
X776249Y317418D01*
X779581Y324082D02*
X781248Y325748D01*
X784580D01*
X786246Y324082D01*
Y322416D01*
X784580Y320750D01*
X782914D01*
X784580D01*
X786246Y319084D01*
Y317418D01*
X784580Y315752D01*
X781248D01*
X779581Y317418D01*
X762835Y379582D02*
X761169Y381248D01*
X757837D01*
X756171Y379582D01*
Y372918D01*
X757837Y371252D01*
X761169D01*
X762835Y372918D01*
X766168Y379582D02*
X767834Y381248D01*
X771166D01*
X772832Y379582D01*
Y377916D01*
X771166Y376250D01*
X769500D01*
X771166D01*
X772832Y374584D01*
Y372918D01*
X771166Y371252D01*
X767834D01*
X766168Y372918D01*
X781163Y371252D02*
Y381248D01*
X776164Y376250D01*
X782829D01*
X227250Y535747D02*
Y525750D01*
X232248D01*
X233915Y527416D01*
Y534081D01*
X232248Y535747D01*
X227250D01*
X237247Y525750D02*
X240579D01*
X238913D01*
Y535747D01*
X237247Y534081D01*
X252242Y535747D02*
X245577D01*
Y530748D01*
X248910Y532415D01*
X250576D01*
X252242Y530748D01*
Y527416D01*
X250576Y525750D01*
X247243D01*
X245577Y527416D01*
X256000Y520997D02*
Y511000D01*
X260998D01*
X262665Y512666D01*
Y519331D01*
X260998Y520997D01*
X256000D01*
X265997Y511000D02*
X269329D01*
X267663D01*
Y520997D01*
X265997Y519331D01*
X279326Y511000D02*
Y520997D01*
X274327Y515998D01*
X280992D01*
X284750Y537997D02*
Y528000D01*
X289748D01*
X291415Y529666D01*
Y536331D01*
X289748Y537997D01*
X284750D01*
X294747Y528000D02*
X298079D01*
X296413D01*
Y537997D01*
X294747Y536331D01*
X303077D02*
X304744Y537997D01*
X308076D01*
X309742Y536331D01*
Y534664D01*
X308076Y532998D01*
X306410D01*
X308076D01*
X309742Y531332D01*
Y529666D01*
X308076Y528000D01*
X304744D01*
X303077Y529666D01*
X810503Y423164D02*
Y419832D01*
Y421498D01*
X818834D01*
X820500Y419832D01*
Y418166D01*
X818834Y416500D01*
X820500Y431495D02*
X810503D01*
X815502Y426497D01*
Y433161D01*
X807250Y486247D02*
Y476250D01*
X812248D01*
X813914Y477916D01*
Y484581D01*
X812248Y486247D01*
X807250D01*
X817247Y476250D02*
X820579D01*
X818913D01*
Y486247D01*
X817247Y484581D01*
X832242Y476250D02*
X825577D01*
X832242Y482915D01*
Y484581D01*
X830576Y486247D01*
X827244D01*
X825577Y484581D01*
X586665Y272916D02*
Y279581D01*
X584998Y281247D01*
X581666D01*
X580000Y279581D01*
Y272916D01*
X581666Y271250D01*
X584998D01*
X583332Y274582D02*
X586665Y271250D01*
X584998D02*
X586665Y272916D01*
X589997Y281247D02*
X596661D01*
Y279581D01*
X589997Y272916D01*
Y271250D01*
X561414Y144166D02*
Y150831D01*
X559748Y152497D01*
X556416D01*
X554750Y150831D01*
Y144166D01*
X556416Y142500D01*
X559748D01*
X558082Y145832D02*
X561414Y142500D01*
X559748D02*
X561414Y144166D01*
X571411Y152497D02*
X568079Y150831D01*
X564747Y147498D01*
Y144166D01*
X566413Y142500D01*
X569745D01*
X571411Y144166D01*
Y145832D01*
X569745Y147498D01*
X564747D01*
X554000Y216750D02*
X544003D01*
Y221748D01*
X545669Y223414D01*
X549002D01*
X550668Y221748D01*
Y216750D01*
Y220082D02*
X554000Y223414D01*
Y231745D02*
X544003D01*
X549002Y226747D01*
Y233411D01*
X552334Y236744D02*
X554000Y238410D01*
Y241742D01*
X552334Y243408D01*
X545669D01*
X544003Y241742D01*
Y238410D01*
X545669Y236744D01*
X547336D01*
X549002Y238410D01*
Y243408D01*
X551750Y103000D02*
Y112997D01*
X556748D01*
X558414Y111331D01*
Y107998D01*
X556748Y106332D01*
X551750D01*
X555082D02*
X558414Y103000D01*
X566745D02*
Y112997D01*
X561747Y107998D01*
X568411D01*
X571744Y111331D02*
X573410Y112997D01*
X576742D01*
X578408Y111331D01*
Y109664D01*
X576742Y107998D01*
X578408Y106332D01*
Y104666D01*
X576742Y103000D01*
X573410D01*
X571744Y104666D01*
Y106332D01*
X573410Y107998D01*
X571744Y109664D01*
Y111331D01*
X573410Y107998D02*
X576742D01*
X551500Y84750D02*
Y94747D01*
X556498D01*
X558164Y93081D01*
Y89748D01*
X556498Y88082D01*
X551500D01*
X554832D02*
X558164Y84750D01*
X566495D02*
Y94747D01*
X561497Y89748D01*
X568161D01*
X571493Y94747D02*
X578158D01*
Y93081D01*
X571493Y86416D01*
Y84750D01*
X558250Y254250D02*
X548253D01*
Y259248D01*
X549919Y260914D01*
X553252D01*
X554918Y259248D01*
Y254250D01*
Y257582D02*
X558250Y260914D01*
Y269245D02*
X548253D01*
X553252Y264247D01*
Y270911D01*
X548253Y280908D02*
X549919Y277576D01*
X553252Y274244D01*
X556584D01*
X558250Y275910D01*
Y279242D01*
X556584Y280908D01*
X554918D01*
X553252Y279242D01*
Y274244D01*
X550000Y153750D02*
X540003D01*
Y158748D01*
X541669Y160415D01*
X545002D01*
X546668Y158748D01*
Y153750D01*
Y157082D02*
X550000Y160415D01*
Y168745D02*
X540003D01*
X545002Y163747D01*
Y170411D01*
X540003Y180408D02*
Y173744D01*
X545002D01*
X543335Y177076D01*
Y178742D01*
X545002Y180408D01*
X548334D01*
X550000Y178742D01*
Y175410D01*
X548334Y173744D01*
X611750Y100000D02*
Y109997D01*
X616748D01*
X618414Y108331D01*
Y104998D01*
X616748Y103332D01*
X611750D01*
X615082D02*
X618414Y100000D01*
X626745D02*
Y109997D01*
X621747Y104998D01*
X628411D01*
X636742Y100000D02*
Y109997D01*
X631744Y104998D01*
X638408D01*
X582000Y100000D02*
Y109997D01*
X586998D01*
X588665Y108331D01*
Y104998D01*
X586998Y103332D01*
X582000D01*
X585332D02*
X588665Y100000D01*
X596995D02*
Y109997D01*
X591997Y104998D01*
X598661D01*
X601994Y108331D02*
X603660Y109997D01*
X606992D01*
X608658Y108331D01*
Y106664D01*
X606992Y104998D01*
X605326D01*
X606992D01*
X608658Y103332D01*
Y101666D01*
X606992Y100000D01*
X603660D01*
X601994Y101666D01*
X582500Y204000D02*
Y213997D01*
X587498D01*
X589165Y212331D01*
Y208999D01*
X587498Y207332D01*
X582500D01*
X585832D02*
X589165Y204000D01*
X597495D02*
Y213997D01*
X592497Y208999D01*
X599161D01*
X609158Y204000D02*
X602494D01*
X609158Y210665D01*
Y212331D01*
X607492Y213997D01*
X604160D01*
X602494Y212331D01*
X554250Y190750D02*
Y200747D01*
X559248D01*
X560914Y199081D01*
Y195748D01*
X559248Y194082D01*
X554250D01*
X557582D02*
X560914Y190750D01*
X569245D02*
Y200747D01*
X564247Y195748D01*
X570911D01*
X574244Y190750D02*
X577576D01*
X575910D01*
Y200747D01*
X574244Y199081D01*
X606500Y248497D02*
Y238500D01*
X611498D01*
X613164Y240166D01*
Y246831D01*
X611498Y248497D01*
X606500D01*
X616497Y238500D02*
X619829D01*
X618163D01*
Y248497D01*
X616497Y246831D01*
X624827Y238500D02*
X628160D01*
X626494D01*
Y248497D01*
X624827Y246831D01*
X604000Y88997D02*
Y79000D01*
X608998D01*
X610664Y80666D01*
Y87331D01*
X608998Y88997D01*
X604000D01*
X613997Y79000D02*
X617329D01*
X615663D01*
Y88997D01*
X613997Y87331D01*
X622327D02*
X623994Y88997D01*
X627326D01*
X628992Y87331D01*
Y80666D01*
X627326Y79000D01*
X623994D01*
X622327Y80666D01*
Y87331D01*
X635000Y90247D02*
Y80250D01*
X639998D01*
X641665Y81916D01*
Y88581D01*
X639998Y90247D01*
X635000D01*
X644997Y81916D02*
X646663Y80250D01*
X649995D01*
X651661Y81916D01*
Y88581D01*
X649995Y90247D01*
X646663D01*
X644997Y88581D01*
Y86915D01*
X646663Y85248D01*
X651661D01*
X626669Y126165D02*
X625003Y124498D01*
Y121166D01*
X626669Y119500D01*
X633334D01*
X635000Y121166D01*
Y124498D01*
X633334Y126165D01*
X626669Y129497D02*
X625003Y131163D01*
Y134495D01*
X626669Y136161D01*
X628335D01*
X630002Y134495D01*
Y132829D01*
Y134495D01*
X631668Y136161D01*
X633334D01*
X635000Y134495D01*
Y131163D01*
X633334Y129497D01*
X635000Y146158D02*
Y139494D01*
X628335Y146158D01*
X626669D01*
X625003Y144492D01*
Y141160D01*
X626669Y139494D01*
X613419Y191665D02*
X611753Y189998D01*
Y186666D01*
X613419Y185000D01*
X620084D01*
X621750Y186666D01*
Y189998D01*
X620084Y191665D01*
X613419Y194997D02*
X611753Y196663D01*
Y199995D01*
X613419Y201661D01*
X615085D01*
X616752Y199995D01*
Y198329D01*
Y199995D01*
X618418Y201661D01*
X620084D01*
X621750Y199995D01*
Y196663D01*
X620084Y194997D01*
X621750Y204993D02*
Y208326D01*
Y206660D01*
X611753D01*
X613419Y204993D01*
X637000Y190750D02*
Y200747D01*
X641998D01*
X643664Y199081D01*
Y195748D01*
X641998Y194082D01*
X637000D01*
X640332D02*
X643664Y190750D01*
X651995D02*
Y200747D01*
X646997Y195748D01*
X653661D01*
X656994Y199081D02*
X658660Y200747D01*
X661992D01*
X663658Y199081D01*
Y192416D01*
X661992Y190750D01*
X658660D01*
X656994Y192416D01*
Y199081D01*
X614334Y164165D02*
X607669D01*
X606003Y162498D01*
Y159166D01*
X607669Y157500D01*
X614334D01*
X616000Y159166D01*
Y162498D01*
X612668Y160832D02*
X616000Y164165D01*
Y162498D02*
X614334Y164165D01*
X607669Y167497D02*
X606003Y169163D01*
Y172495D01*
X607669Y174161D01*
X609336D01*
X611002Y172495D01*
Y170829D01*
Y172495D01*
X612668Y174161D01*
X614334D01*
X616000Y172495D01*
Y169163D01*
X614334Y167497D01*
X654665Y26247D02*
X651332D01*
X652998D01*
Y17916D01*
X651332Y16250D01*
X649666D01*
X648000Y17916D01*
X664661Y26247D02*
X657997D01*
Y21248D01*
X661329Y22915D01*
X662995D01*
X664661Y21248D01*
Y17916D01*
X662995Y16250D01*
X659663D01*
X657997Y17916D01*
X157164D02*
Y24581D01*
X155498Y26247D01*
X152166D01*
X150500Y24581D01*
Y17916D01*
X152166Y16250D01*
X155498D01*
X153832Y19582D02*
X157164Y16250D01*
X155498D02*
X157164Y17916D01*
X165495Y16250D02*
Y26247D01*
X160497Y21248D01*
X167161D01*
X63250Y64750D02*
Y74747D01*
X68248D01*
X69914Y73081D01*
Y69748D01*
X68248Y68082D01*
X63250D01*
X66582D02*
X69914Y64750D01*
X73247D02*
X76579D01*
X74913D01*
Y74747D01*
X73247Y73081D01*
X88242Y64750D02*
X81577D01*
X88242Y71414D01*
Y73081D01*
X86576Y74747D01*
X83244D01*
X81577Y73081D01*
X65000Y4000D02*
Y13997D01*
X69998D01*
X71665Y12331D01*
Y8998D01*
X69998Y7332D01*
X65000D01*
X74997Y13997D02*
Y4000D01*
X78329Y7332D01*
X81661Y4000D01*
Y13997D01*
X84994Y4000D02*
Y13997D01*
X89992D01*
X91658Y12331D01*
Y8998D01*
X89992Y7332D01*
X84994D01*
X88326D02*
X91658Y4000D01*
X402000Y175497D02*
Y165500D01*
X406998D01*
X408665Y167166D01*
Y173831D01*
X406998Y175497D01*
X402000D01*
X411997Y173831D02*
X413663Y175497D01*
X416995D01*
X418661Y173831D01*
Y172164D01*
X416995Y170498D01*
X415329D01*
X416995D01*
X418661Y168832D01*
Y167166D01*
X416995Y165500D01*
X413663D01*
X411997Y167166D01*
X404915Y161497D02*
X401582D01*
X403248D01*
Y153166D01*
X401582Y151500D01*
X399916D01*
X398250Y153166D01*
X408247Y151500D02*
X411579D01*
X409913D01*
Y161497D01*
X408247Y159831D01*
X105581Y186336D02*
X107247Y188002D01*
Y191334D01*
X105581Y193000D01*
X98916D01*
X97250Y191334D01*
Y188002D01*
X98916Y186336D01*
X97250Y176339D02*
Y183003D01*
X103914Y176339D01*
X105581D01*
X107247Y178005D01*
Y181337D01*
X105581Y183003D01*
X97250Y166342D02*
Y173006D01*
X103914Y166342D01*
X105581D01*
X107247Y168008D01*
Y171340D01*
X105581Y173006D01*
X215500Y253500D02*
X205503D01*
Y258498D01*
X207169Y260165D01*
X210502D01*
X212168Y258498D01*
Y253500D01*
Y256832D02*
X215500Y260165D01*
Y263497D02*
Y266829D01*
Y265163D01*
X205503D01*
X207169Y263497D01*
X215500Y271827D02*
Y275160D01*
Y273494D01*
X205503D01*
X207169Y271827D01*
X39415Y95581D02*
X37748Y97247D01*
X34416D01*
X32750Y95581D01*
Y88916D01*
X34416Y87250D01*
X37748D01*
X39415Y88916D01*
X49411Y97247D02*
X46079Y95581D01*
X42747Y92248D01*
Y88916D01*
X44413Y87250D01*
X47745D01*
X49411Y88916D01*
Y90582D01*
X47745Y92248D01*
X42747D01*
X70415Y530247D02*
X63750D01*
Y525248D01*
X67082D01*
X63750D01*
Y520250D01*
X73747D02*
X77079D01*
X75413D01*
Y530247D01*
X73747Y528581D01*
X185250Y173747D02*
Y163750D01*
X191915D01*
X201911D02*
X195247D01*
X201911Y170415D01*
Y172081D01*
X200245Y173747D01*
X196913D01*
X195247Y172081D01*
X177750Y264747D02*
Y256416D01*
X179416Y254750D01*
X182748D01*
X184415Y256416D01*
Y264747D01*
X194411D02*
X187747D01*
Y259748D01*
X191079Y261415D01*
X192745D01*
X194411Y259748D01*
Y256416D01*
X192745Y254750D01*
X189413D01*
X187747Y256416D01*
X315000Y204247D02*
Y195916D01*
X316666Y194250D01*
X319998D01*
X321665Y195916D01*
Y204247D01*
X329995Y194250D02*
Y204247D01*
X324997Y199248D01*
X331661D01*
X161500Y334750D02*
X171497D01*
Y329752D01*
X169831Y328086D01*
X166498D01*
X164832Y329752D01*
Y334750D01*
Y331418D02*
X161500Y328086D01*
Y319755D02*
X171497D01*
X166498Y324753D01*
Y318089D01*
X307665Y166581D02*
X305998Y168247D01*
X302666D01*
X301000Y166581D01*
Y159916D01*
X302666Y158250D01*
X305998D01*
X307665Y159916D01*
X317661Y158250D02*
X310997D01*
X317661Y164914D01*
Y166581D01*
X315995Y168247D01*
X312663D01*
X310997Y166581D01*
X320994Y158250D02*
X324326D01*
X322660D01*
Y168247D01*
X320994Y166581D01*
X157415Y189331D02*
X155748Y190997D01*
X152416D01*
X150750Y189331D01*
Y182666D01*
X152416Y181000D01*
X155748D01*
X157415Y182666D01*
X167411Y181000D02*
X160747D01*
X167411Y187665D01*
Y189331D01*
X165745Y190997D01*
X162413D01*
X160747Y189331D01*
X170744D02*
X172410Y190997D01*
X175742D01*
X177408Y189331D01*
Y182666D01*
X175742Y181000D01*
X172410D01*
X170744Y182666D01*
Y189331D01*
X147164Y252831D02*
X145498Y254497D01*
X142166D01*
X140500Y252831D01*
Y246166D01*
X142166Y244500D01*
X145498D01*
X147164Y246166D01*
X150497Y244500D02*
X153829D01*
X152163D01*
Y254497D01*
X150497Y252831D01*
X158827Y246166D02*
X160494Y244500D01*
X163826D01*
X165492Y246166D01*
Y252831D01*
X163826Y254497D01*
X160494D01*
X158827Y252831D01*
Y251164D01*
X160494Y249498D01*
X165492D01*
X315665Y226081D02*
X313998Y227747D01*
X310666D01*
X309000Y226081D01*
Y219416D01*
X310666Y217750D01*
X313998D01*
X315665Y219416D01*
X318997Y217750D02*
X322329D01*
X320663D01*
Y227747D01*
X318997Y226081D01*
X327327D02*
X328994Y227747D01*
X332326D01*
X333992Y226081D01*
Y224415D01*
X332326Y222748D01*
X333992Y221082D01*
Y219416D01*
X332326Y217750D01*
X328994D01*
X327327Y219416D01*
Y221082D01*
X328994Y222748D01*
X327327Y224415D01*
Y226081D01*
X328994Y222748D02*
X332326D01*
X82669Y372664D02*
X81003Y370998D01*
Y367666D01*
X82669Y366000D01*
X89334D01*
X91000Y367666D01*
Y370998D01*
X89334Y372664D01*
X91000Y375997D02*
Y379329D01*
Y377663D01*
X81003D01*
X82669Y375997D01*
X81003Y384327D02*
Y390992D01*
X82669D01*
X89334Y384327D01*
X91000D01*
X176669Y380164D02*
X175003Y378498D01*
Y375166D01*
X176669Y373500D01*
X183334D01*
X185000Y375166D01*
Y378498D01*
X183334Y380164D01*
X185000Y383497D02*
Y386829D01*
Y385163D01*
X175003D01*
X176669Y383497D01*
X175003Y398492D02*
X176669Y395160D01*
X180002Y391827D01*
X183334D01*
X185000Y393493D01*
Y396826D01*
X183334Y398492D01*
X181668D01*
X180002Y396826D01*
Y391827D01*
X164664Y276331D02*
X162998Y277997D01*
X159666D01*
X158000Y276331D01*
Y269666D01*
X159666Y268000D01*
X162998D01*
X164664Y269666D01*
X167997Y268000D02*
X171329D01*
X169663D01*
Y277997D01*
X167997Y276331D01*
X182992Y277997D02*
X176327D01*
Y272998D01*
X179660Y274664D01*
X181326D01*
X182992Y272998D01*
Y269666D01*
X181326Y268000D01*
X177994D01*
X176327Y269666D01*
X114164Y274331D02*
X112498Y275997D01*
X109166D01*
X107500Y274331D01*
Y267666D01*
X109166Y266000D01*
X112498D01*
X114164Y267666D01*
X117497Y266000D02*
X120829D01*
X119163D01*
Y275997D01*
X117497Y274331D01*
X130826Y266000D02*
Y275997D01*
X125827Y270998D01*
X132492D01*
X494750Y174247D02*
Y164250D01*
X499748D01*
X501414Y165916D01*
Y172581D01*
X499748Y174247D01*
X494750D01*
X504747Y172581D02*
X506413Y174247D01*
X509745D01*
X511411Y172581D01*
Y170914D01*
X509745Y169248D01*
X511411Y167582D01*
Y165916D01*
X509745Y164250D01*
X506413D01*
X504747Y165916D01*
Y167582D01*
X506413Y169248D01*
X504747Y170914D01*
Y172581D01*
X506413Y169248D02*
X509745D01*
X143768Y86043D02*
Y76046D01*
X148766D01*
X150433Y77712D01*
Y84377D01*
X148766Y86043D01*
X143768D01*
X153765D02*
X160429D01*
Y84377D01*
X153765Y77712D01*
Y76046D01*
X160250Y311497D02*
Y303166D01*
X161916Y301500D01*
X165248D01*
X166915Y303166D01*
Y311497D01*
X170247Y309831D02*
X171913Y311497D01*
X175245D01*
X176911Y309831D01*
Y308165D01*
X175245Y306498D01*
X173579D01*
X175245D01*
X176911Y304832D01*
Y303166D01*
X175245Y301500D01*
X171913D01*
X170247Y303166D01*
X131500Y333250D02*
Y343247D01*
X136498D01*
X138165Y341581D01*
Y338248D01*
X136498Y336582D01*
X131500D01*
X134832D02*
X138165Y333250D01*
X148161D02*
X141497D01*
X148161Y339915D01*
Y341581D01*
X146495Y343247D01*
X143163D01*
X141497Y341581D01*
X158158Y333250D02*
X151494D01*
X158158Y339915D01*
Y341581D01*
X156492Y343247D01*
X153160D01*
X151494Y341581D01*
X188750Y524750D02*
Y534747D01*
X193748D01*
X195415Y533081D01*
Y529748D01*
X193748Y528082D01*
X188750D01*
X192082D02*
X195415Y524750D01*
X205411Y534747D02*
X198747D01*
Y524750D01*
X205411D01*
X198747Y529748D02*
X202079D01*
X215408Y533081D02*
X213742Y534747D01*
X210410D01*
X208743Y533081D01*
Y531414D01*
X210410Y529748D01*
X213742D01*
X215408Y528082D01*
Y526416D01*
X213742Y524750D01*
X210410D01*
X208743Y526416D01*
X363250Y8500D02*
Y18497D01*
X368248D01*
X369915Y16831D01*
Y13498D01*
X368248Y11832D01*
X363250D01*
X366582D02*
X369915Y8500D01*
X379911D02*
X373247D01*
X379911Y15165D01*
Y16831D01*
X378245Y18497D01*
X374913D01*
X373247Y16831D01*
X383244Y8500D02*
X386576D01*
X384910D01*
Y18497D01*
X383244Y16831D01*
X232500Y11250D02*
Y21247D01*
X237498D01*
X239165Y19581D01*
Y16248D01*
X237498Y14582D01*
X232500D01*
X235832D02*
X239165Y11250D01*
X249161D02*
X242497D01*
X249161Y17915D01*
Y19581D01*
X247495Y21247D01*
X244163D01*
X242497Y19581D01*
X252494D02*
X254160Y21247D01*
X257492D01*
X259158Y19581D01*
Y12916D01*
X257492Y11250D01*
X254160D01*
X252494Y12916D01*
Y19581D01*
X736000Y181077D02*
Y191074D01*
X740998D01*
X742664Y189408D01*
Y186075D01*
X740998Y184409D01*
X736000D01*
X739332D02*
X742664Y181077D01*
X745997D02*
X749329D01*
X747663D01*
Y191074D01*
X745997Y189408D01*
X754327Y182743D02*
X755994Y181077D01*
X759326D01*
X760992Y182743D01*
Y189408D01*
X759326Y191074D01*
X755994D01*
X754327Y189408D01*
Y187741D01*
X755994Y186075D01*
X760992D01*
X772165Y232166D02*
Y238831D01*
X770498Y240497D01*
X767166D01*
X765500Y238831D01*
Y232166D01*
X767166Y230500D01*
X770498D01*
X768832Y233832D02*
X772165Y230500D01*
X770498D02*
X772165Y232166D01*
X782161Y230500D02*
X775497D01*
X782161Y237164D01*
Y238831D01*
X780495Y240497D01*
X777163D01*
X775497Y238831D01*
X374000Y140997D02*
Y131000D01*
X380664D01*
X383997D02*
X387329D01*
X385663D01*
Y140997D01*
X383997Y139331D01*
X798500Y219747D02*
Y209750D01*
X803498D01*
X805164Y211416D01*
Y218081D01*
X803498Y219747D01*
X798500D01*
X815161D02*
X811829Y218081D01*
X808497Y214748D01*
Y211416D01*
X810163Y209750D01*
X813495D01*
X815161Y211416D01*
Y213082D01*
X813495Y214748D01*
X808497D01*
X301665Y85831D02*
X299998Y87497D01*
X296666D01*
X295000Y85831D01*
Y79166D01*
X296666Y77500D01*
X299998D01*
X301665Y79166D01*
X304997Y77500D02*
X308329D01*
X306663D01*
Y87497D01*
X304997Y85831D01*
X313327Y77500D02*
X316660D01*
X314994D01*
Y87497D01*
X313327Y85831D01*
X753165Y202581D02*
X751498Y204247D01*
X748166D01*
X746500Y202581D01*
Y195916D01*
X748166Y194250D01*
X751498D01*
X753165Y195916D01*
X756497Y194250D02*
X759829D01*
X758163D01*
Y204247D01*
X756497Y202581D01*
X764827D02*
X766494Y204247D01*
X769826D01*
X771492Y202581D01*
Y195916D01*
X769826Y194250D01*
X766494D01*
X764827Y195916D01*
Y202581D01*
X99750Y393247D02*
Y384916D01*
X101416Y383250D01*
X104748D01*
X106414Y384916D01*
Y393247D01*
X116411Y383250D02*
X109747D01*
X116411Y389915D01*
Y391581D01*
X114745Y393247D01*
X111413D01*
X109747Y391581D01*
X123750Y262500D02*
X133747D01*
Y257502D01*
X132081Y255835D01*
X128748D01*
X127082Y257502D01*
Y262500D01*
Y259168D02*
X123750Y255835D01*
Y252503D02*
Y249171D01*
Y250837D01*
X133747D01*
X132081Y252503D01*
X133747Y237508D02*
X132081Y240840D01*
X128748Y244173D01*
X125416D01*
X123750Y242506D01*
Y239174D01*
X125416Y237508D01*
X127082D01*
X128748Y239174D01*
Y244173D01*
X97750Y262250D02*
X107747D01*
Y257252D01*
X106081Y255585D01*
X102748D01*
X101082Y257252D01*
Y262250D01*
Y258918D02*
X97750Y255585D01*
Y252253D02*
Y248921D01*
Y250587D01*
X107747D01*
X106081Y252253D01*
Y243923D02*
X107747Y242256D01*
Y238924D01*
X106081Y237258D01*
X104415D01*
X102748Y238924D01*
Y240590D01*
Y238924D01*
X101082Y237258D01*
X99416D01*
X97750Y238924D01*
Y242256D01*
X99416Y243923D01*
X110500Y262250D02*
X120497D01*
Y257252D01*
X118831Y255585D01*
X115498D01*
X113832Y257252D01*
Y262250D01*
Y258918D02*
X110500Y255585D01*
Y252253D02*
Y248921D01*
Y250587D01*
X120497D01*
X118831Y252253D01*
X110500Y238924D02*
X120497D01*
X115498Y243923D01*
Y237258D01*
X343500Y188000D02*
Y197997D01*
X348498D01*
X350164Y196331D01*
Y192998D01*
X348498Y191332D01*
X343500D01*
X346832D02*
X350164Y188000D01*
X353497D02*
X356829D01*
X355163D01*
Y197997D01*
X353497Y196331D01*
X368492Y197997D02*
X361827D01*
Y192998D01*
X365160Y194664D01*
X366826D01*
X368492Y192998D01*
Y189666D01*
X366826Y188000D01*
X363494D01*
X361827Y189666D01*
X17000Y182000D02*
X7003D01*
Y186998D01*
X8669Y188664D01*
X12002D01*
X13668Y186998D01*
Y182000D01*
Y185332D02*
X17000Y188664D01*
Y191997D02*
Y195329D01*
Y193663D01*
X7003D01*
X8669Y191997D01*
Y200327D02*
X7003Y201994D01*
Y205326D01*
X8669Y206992D01*
X10336D01*
X12002Y205326D01*
X13668Y206992D01*
X15334D01*
X17000Y205326D01*
Y201994D01*
X15334Y200327D01*
X13668D01*
X12002Y201994D01*
X10336Y200327D01*
X8669D01*
X12002Y201994D02*
Y205326D01*
X111500Y192750D02*
X121497D01*
Y187752D01*
X119831Y186085D01*
X116498D01*
X114832Y187752D01*
Y192750D01*
Y189418D02*
X111500Y186085D01*
Y182753D02*
Y179421D01*
Y181087D01*
X121497D01*
X119831Y182753D01*
X121497Y174423D02*
Y167758D01*
X119831D01*
X113166Y174423D01*
X111500D01*
X139194Y385250D02*
Y395247D01*
X144193D01*
X145859Y393581D01*
Y390249D01*
X144193Y388583D01*
X139194D01*
X142527D02*
X145859Y385250D01*
X149191D02*
X152523D01*
X150857D01*
Y395247D01*
X149191Y393581D01*
X157522D02*
X159188Y395247D01*
X162520D01*
X164186Y393581D01*
Y386916D01*
X162520Y385250D01*
X159188D01*
X157522Y386916D01*
Y393581D01*
X438164Y528331D02*
X436498Y529997D01*
X433166D01*
X431500Y528331D01*
Y521666D01*
X433166Y520000D01*
X436498D01*
X438164Y521666D01*
X446495Y529997D02*
X443163D01*
X441497Y528331D01*
Y521666D01*
X443163Y520000D01*
X446495D01*
X448161Y521666D01*
Y528331D01*
X446495Y529997D01*
X451494Y520000D02*
Y529997D01*
X458158Y520000D01*
Y529997D01*
X468155Y528331D02*
X466489Y529997D01*
X463157D01*
X461490Y528331D01*
Y526665D01*
X463157Y524998D01*
X466489D01*
X468155Y523332D01*
Y521666D01*
X466489Y520000D01*
X463157D01*
X461490Y521666D01*
X476485Y529997D02*
X473153D01*
X471487Y528331D01*
Y521666D01*
X473153Y520000D01*
X476485D01*
X478152Y521666D01*
Y528331D01*
X476485Y529997D01*
X481484D02*
Y520000D01*
X488148D01*
X498145Y529997D02*
X491481D01*
Y520000D01*
X498145D01*
X491481Y524998D02*
X494813D01*
X62500Y245247D02*
X65832D01*
X64166D01*
Y235250D01*
X62500D01*
X65832D01*
X77495Y243581D02*
X75829Y245247D01*
X72497D01*
X70831Y243581D01*
Y236916D01*
X72497Y235250D01*
X75829D01*
X77495Y236916D01*
X87492Y235250D02*
X80827D01*
X87492Y241915D01*
Y243581D01*
X85826Y245247D01*
X82494D01*
X80827Y243581D01*
X5250Y239247D02*
Y229250D01*
X10248D01*
X11914Y230916D01*
Y237581D01*
X10248Y239247D01*
X5250D01*
X21911D02*
X15247D01*
Y234248D01*
X18579Y235914D01*
X20245D01*
X21911Y234248D01*
Y230916D01*
X20245Y229250D01*
X16913D01*
X15247Y230916D01*
X134081Y185585D02*
X135747Y187252D01*
Y190584D01*
X134081Y192250D01*
X127416D01*
X125750Y190584D01*
Y187252D01*
X127416Y185585D01*
X134081Y182253D02*
X135747Y180587D01*
Y177255D01*
X134081Y175589D01*
X132415D01*
X130748Y177255D01*
X129082Y175589D01*
X127416D01*
X125750Y177255D01*
Y180587D01*
X127416Y182253D01*
X129082D01*
X130748Y180587D01*
X132415Y182253D01*
X134081D01*
X130748Y180587D02*
Y177255D01*
X47664Y196081D02*
X45998Y197747D01*
X42666D01*
X41000Y196081D01*
Y189416D01*
X42666Y187750D01*
X45998D01*
X47664Y189416D01*
X50997D02*
X52663Y187750D01*
X55995D01*
X57661Y189416D01*
Y196081D01*
X55995Y197747D01*
X52663D01*
X50997Y196081D01*
Y194415D01*
X52663Y192748D01*
X57661D01*
X356750Y65247D02*
X360082D01*
X358416D01*
Y55250D01*
X356750D01*
X360082D01*
X371745Y63581D02*
X370079Y65247D01*
X366747D01*
X365081Y63581D01*
Y56916D01*
X366747Y55250D01*
X370079D01*
X371745Y56916D01*
X375077Y55250D02*
X378410D01*
X376744D01*
Y65247D01*
X375077Y63581D01*
X796382Y247295D02*
Y237298D01*
X801380D01*
X803047Y238964D01*
Y245629D01*
X801380Y247295D01*
X796382D01*
X811377Y237298D02*
Y247295D01*
X806379Y242297D01*
X813043D01*
X446750Y186497D02*
Y176500D01*
X451748D01*
X453414Y178166D01*
Y184831D01*
X451748Y186497D01*
X446750D01*
X463411Y176500D02*
X456747D01*
X463411Y183165D01*
Y184831D01*
X461745Y186497D01*
X458413D01*
X456747Y184831D01*
X404414Y202331D02*
X402748Y203997D01*
X399416D01*
X397750Y202331D01*
Y195666D01*
X399416Y194000D01*
X402748D01*
X404414Y195666D01*
X414411Y203997D02*
X407747D01*
Y198998D01*
X411079Y200665D01*
X412745D01*
X414411Y198998D01*
Y195666D01*
X412745Y194000D01*
X409413D01*
X407747Y195666D01*
X444915Y202581D02*
X443248Y204247D01*
X439916D01*
X438250Y202581D01*
Y195916D01*
X439916Y194250D01*
X443248D01*
X444915Y195916D01*
X453245Y194250D02*
Y204247D01*
X448247Y199248D01*
X454911D01*
X751414Y19331D02*
X749748Y20997D01*
X746416D01*
X744750Y19331D01*
Y17665D01*
X746416Y15998D01*
X749748D01*
X751414Y14332D01*
Y12666D01*
X749748Y11000D01*
X746416D01*
X744750Y12666D01*
X754747Y11000D02*
Y20997D01*
X759745D01*
X761411Y19331D01*
Y15998D01*
X759745Y14332D01*
X754747D01*
X771408Y11000D02*
X764744D01*
X771408Y17665D01*
Y19331D01*
X769742Y20997D01*
X766410D01*
X764744Y19331D01*
X116382Y18371D02*
X114715Y20037D01*
X111383D01*
X109717Y18371D01*
Y16705D01*
X111383Y15039D01*
X114715D01*
X116382Y13373D01*
Y11707D01*
X114715Y10041D01*
X111383D01*
X109717Y11707D01*
X119714Y10041D02*
Y20037D01*
X124712D01*
X126378Y18371D01*
Y15039D01*
X124712Y13373D01*
X119714D01*
X129711Y10041D02*
X133043D01*
X131377D01*
Y20037D01*
X129711Y18371D01*
X810003Y256665D02*
Y253332D01*
Y254998D01*
X818334D01*
X820000Y253332D01*
Y251666D01*
X818334Y250000D01*
X820000Y266661D02*
Y259997D01*
X813335Y266661D01*
X811669D01*
X810003Y264995D01*
Y261663D01*
X811669Y259997D01*
X60000Y310000D02*
X69997D01*
Y305002D01*
X68331Y303335D01*
X64998D01*
X63332Y305002D01*
Y310000D01*
Y306668D02*
X60000Y303335D01*
X68331Y300003D02*
X69997Y298337D01*
Y295005D01*
X68331Y293339D01*
X66665D01*
X64998Y295005D01*
X63332Y293339D01*
X61666D01*
X60000Y295005D01*
Y298337D01*
X61666Y300003D01*
X63332D01*
X64998Y298337D01*
X66665Y300003D01*
X68331D01*
X64998Y298337D02*
Y295005D01*
X60250Y350500D02*
X70247D01*
Y345502D01*
X68581Y343835D01*
X65248D01*
X63582Y345502D01*
Y350500D01*
Y347168D02*
X60250Y343835D01*
X70247Y340503D02*
Y333839D01*
X68581D01*
X61916Y340503D01*
X60250D01*
X6000Y370747D02*
Y362416D01*
X7666Y360750D01*
X10998D01*
X12665Y362416D01*
Y370747D01*
X15997Y360750D02*
Y367415D01*
X19329Y370747D01*
X22661Y367415D01*
Y360750D01*
Y365748D01*
X15997D01*
X25993Y360750D02*
Y370747D01*
X30992D01*
X32658Y369081D01*
Y365748D01*
X30992Y364082D01*
X25993D01*
X29326D02*
X32658Y360750D01*
X35990Y370747D02*
X42655D01*
X39323D01*
Y360750D01*
X6750Y132000D02*
Y141997D01*
X11748D01*
X13414Y140331D01*
Y136998D01*
X11748Y135332D01*
X6750D01*
X10082D02*
X13414Y132000D01*
X16747Y140331D02*
X18413Y141997D01*
X21745D01*
X23411Y140331D01*
Y138665D01*
X21745Y136998D01*
X20079D01*
X21745D01*
X23411Y135332D01*
Y133666D01*
X21745Y132000D01*
X18413D01*
X16747Y133666D01*
X308500Y43750D02*
Y53747D01*
X313498D01*
X315165Y52081D01*
Y48748D01*
X313498Y47082D01*
X308500D01*
X311832D02*
X315165Y43750D01*
X318497D02*
X321829D01*
X320163D01*
Y53747D01*
X318497Y52081D01*
X152253Y107000D02*
X162250D01*
Y111998D01*
X160584Y113665D01*
X153919D01*
X152253Y111998D01*
Y107000D01*
X153919Y123661D02*
X152253Y121995D01*
Y118663D01*
X153919Y116997D01*
X160584D01*
X162250Y118663D01*
Y121995D01*
X160584Y123661D01*
X152253Y126994D02*
X162250D01*
Y131992D01*
X160584Y133658D01*
X153919D01*
X152253Y131992D01*
Y126994D01*
X153919Y143655D02*
X152253Y141989D01*
Y138657D01*
X153919Y136990D01*
X160584D01*
X162250Y138657D01*
Y141989D01*
X160584Y143655D01*
X162250Y146987D02*
Y150319D01*
Y148653D01*
X152253D01*
X153919Y146987D01*
X209000Y2500D02*
Y12497D01*
X213998D01*
X215665Y10831D01*
Y7498D01*
X213998Y5832D01*
X209000D01*
X212332D02*
X215665Y2500D01*
X225661D02*
X218997D01*
X225661Y9165D01*
Y10831D01*
X223995Y12497D01*
X220663D01*
X218997Y10831D01*
X114664Y128416D02*
Y135081D01*
X112998Y136747D01*
X109666D01*
X108000Y135081D01*
Y128416D01*
X109666Y126750D01*
X112998D01*
X111332Y130082D02*
X114664Y126750D01*
X112998D02*
X114664Y128416D01*
X117997Y126750D02*
X121329D01*
X119663D01*
Y136747D01*
X117997Y135081D01*
X270750Y389500D02*
Y399497D01*
X274082Y396165D01*
X277414Y399497D01*
Y389500D01*
X280747D02*
X284079D01*
X282413D01*
Y399497D01*
X280747Y397831D01*
X10500Y96247D02*
Y86250D01*
X15498D01*
X17164Y87916D01*
Y94581D01*
X15498Y96247D01*
X10500D01*
X20497Y86250D02*
X23829D01*
X22163D01*
Y96247D01*
X20497Y94581D01*
X343164Y105580D02*
X341498Y107246D01*
X338166D01*
X336500Y105580D01*
Y98916D01*
X338166Y97249D01*
X341498D01*
X343164Y98916D01*
X353161Y97249D02*
X346497D01*
X353161Y103914D01*
Y105580D01*
X351495Y107246D01*
X348163D01*
X346497Y105580D01*
X324414Y105830D02*
X322748Y107496D01*
X319416D01*
X317750Y105830D01*
Y99165D01*
X319416Y97499D01*
X322748D01*
X324414Y99165D01*
X327747Y97499D02*
X331079D01*
X329413D01*
Y107496D01*
X327747Y105830D01*
X300914Y105580D02*
X299248Y107246D01*
X295916D01*
X294250Y105580D01*
Y98916D01*
X295916Y97249D01*
X299248D01*
X300914Y98916D01*
X304247Y105580D02*
X305913Y107246D01*
X309245D01*
X310911Y105580D01*
Y103914D01*
X309245Y102248D01*
X307579D01*
X309245D01*
X310911Y100582D01*
Y98916D01*
X309245Y97249D01*
X305913D01*
X304247Y98916D01*
D16*
X1500Y380250D02*
Y470250D01*
X57500Y380250D02*
Y470250D01*
X1500D02*
X57500D01*
X1500Y380250D02*
X57500D01*
X1500Y241499D02*
Y356499D01*
X57500Y241499D02*
Y356499D01*
X1500Y241499D02*
X57500D01*
X1500Y356499D02*
X57500D01*
D17*
X50040Y215880D02*
Y218420D01*
X28450Y215880D02*
X50040D01*
X28450D02*
Y218420D01*
Y228580D02*
Y231120D01*
X50040D01*
Y228580D02*
Y231120D01*
D18*
X852000Y231999D02*
X854000D01*
X852500Y433500D02*
X854500D01*
M02*
