G04*
G04 #@! TF.GenerationSoftware,Altium Limited,Altium Designer,20.1.11 (218)*
G04*
G04 Layer_Physical_Order=2*
G04 Layer_Color=32768*
%FSLAX44Y44*%
%MOMM*%
G71*
G04*
G04 #@! TF.SameCoordinates,4E8BECB8-10D7-4487-B94D-AC5258AA6689*
G04*
G04*
G04 #@! TF.FilePolarity,Negative*
G04*
G01*
G75*
%ADD133C,0.4000*%
%ADD172R,0.7000X1.5000*%
%ADD173C,2.1080*%
%ADD174C,1.6080*%
%ADD175C,1.5580*%
%ADD176C,1.4080*%
%ADD177C,2.3080*%
%ADD178C,1.2080*%
%ADD179C,3.2080*%
%ADD180C,3.7080*%
%ADD181C,0.7080*%
%ADD182C,0.8080*%
G36*
X718000Y166750D02*
X703250D01*
Y181750D01*
X718000D01*
Y166750D01*
D02*
G37*
G36*
X697750Y166750D02*
X683000D01*
Y181750D01*
X697750D01*
Y166750D01*
D02*
G37*
G36*
X677500D02*
X662750D01*
Y181750D01*
X677500D01*
Y166750D01*
D02*
G37*
G36*
X657250D02*
X642500D01*
Y181750D01*
X657250D01*
Y166750D01*
D02*
G37*
G36*
X720750Y138500D02*
X712500D01*
Y154000D01*
X720750D01*
Y138500D01*
D02*
G37*
G36*
X708750D02*
X692251D01*
Y154000D01*
X708750D01*
Y138500D01*
D02*
G37*
G36*
X688500D02*
X672001D01*
Y154000D01*
X688500D01*
Y138500D01*
D02*
G37*
G36*
X668250D02*
X651751D01*
Y154000D01*
X668250D01*
Y138500D01*
D02*
G37*
G36*
X648000D02*
X639750D01*
Y154000D01*
X648000D01*
Y138500D01*
D02*
G37*
G36*
X678000Y111750D02*
X661750D01*
Y127250D01*
X678000D01*
Y111750D01*
D02*
G37*
G36*
X698500Y111750D02*
X682250D01*
Y127250D01*
X698500D01*
Y111750D01*
D02*
G37*
G36*
X718750Y111500D02*
X702500D01*
Y127000D01*
X718750D01*
Y111500D01*
D02*
G37*
G36*
X658250D02*
X642000D01*
Y127000D01*
X658250D01*
Y111500D01*
D02*
G37*
G36*
X522332Y111939D02*
X523739Y110533D01*
X524500Y108695D01*
Y107701D01*
Y1D01*
X387500D01*
Y107701D01*
X387500D01*
Y108695D01*
X388261Y110533D01*
X389668Y111939D01*
X391505Y112701D01*
X393494D01*
X395332Y111939D01*
X396739Y110533D01*
X397500Y108695D01*
Y107701D01*
X514500D01*
Y108695D01*
X515261Y110533D01*
X516668Y111939D01*
X518505Y112701D01*
X520494D01*
X522332Y111939D01*
D02*
G37*
G36*
X677750Y89000D02*
X675750D01*
Y103000D01*
X677750D01*
Y89000D01*
D02*
G37*
G36*
X672750D02*
X670750D01*
Y103000D01*
X672750D01*
Y89000D01*
D02*
G37*
G36*
X662750D02*
X660750D01*
Y103000D01*
X662750D01*
Y89000D01*
D02*
G37*
G36*
X657750D02*
X655750D01*
Y103000D01*
X657750D01*
Y89000D01*
D02*
G37*
G36*
X704250Y89000D02*
X702250D01*
Y103000D01*
X704250D01*
Y89000D01*
D02*
G37*
G36*
X699250D02*
X697250D01*
Y103000D01*
X699250D01*
Y89000D01*
D02*
G37*
G36*
X689250D02*
X687250D01*
Y103000D01*
X689250D01*
Y89000D01*
D02*
G37*
G36*
X684250D02*
X682250D01*
Y103000D01*
X684250D01*
Y89000D01*
D02*
G37*
G36*
X676500Y67750D02*
X669000D01*
Y78750D01*
X676500D01*
Y67750D01*
D02*
G37*
G36*
X664500D02*
X657000D01*
Y78750D01*
X664500D01*
Y67750D01*
D02*
G37*
G36*
X688500Y67750D02*
X681000D01*
Y78750D01*
X688500D01*
Y67750D01*
D02*
G37*
G36*
X700500Y67750D02*
X693000Y67750D01*
Y78750D01*
X700500Y78750D01*
Y67750D01*
D02*
G37*
D133*
X850000Y540000D02*
X851966Y540000D01*
X30000Y540000D02*
X850000D01*
X28034Y540000D02*
X30000Y540000D01*
X24135Y539487D02*
X28034Y540000D01*
X20336Y538469D02*
X24135Y539487D01*
X16703Y536964D02*
X20336Y538469D01*
X13297Y534998D02*
X16703Y536964D01*
X10177Y532604D02*
X13297Y534998D01*
X7396Y529823D02*
X10177Y532604D01*
X5002Y526703D02*
X7396Y529823D01*
X3036Y523297D02*
X5002Y526703D01*
X1531Y519664D02*
X3036Y523297D01*
X513Y515865D02*
X1531Y519664D01*
X0Y511966D02*
X513Y515865D01*
X-0Y510000D02*
X0Y511966D01*
X-0Y510000D02*
X0Y30000D01*
Y28034D02*
Y30000D01*
Y28034D02*
X513Y24135D01*
X1531Y20336D01*
X3036Y16703D01*
X5002Y13297D01*
X7396Y10177D01*
X10177Y7396D01*
X13297Y5002D01*
X16703Y3036D01*
X20336Y1531D01*
X24135Y513D01*
X28034Y0D01*
X30000D01*
X524500Y-0D01*
X850000Y0D01*
X851966D01*
X855865Y513D01*
X859664Y1531D01*
X863297Y3036D01*
X866703Y5002D01*
X869823Y7396D01*
X872604Y10177D01*
X874998Y13297D01*
X876964Y16703D01*
X878469Y20336D01*
X879487Y24135D01*
X880000Y28034D01*
X880000Y30000D02*
X880000Y28034D01*
X880000Y30000D02*
X880000Y510000D01*
Y511966D01*
X879487Y515865D02*
X880000Y511966D01*
X878469Y519664D02*
X879487Y515865D01*
X876964Y523297D02*
X878469Y519664D01*
X874998Y526703D02*
X876964Y523297D01*
X872604Y529823D02*
X874998Y526703D01*
X869823Y532604D02*
X872604Y529823D01*
X866703Y534998D02*
X869823Y532604D01*
X863297Y536964D02*
X866703Y534998D01*
X859664Y538469D02*
X863297Y536964D01*
X855865Y539487D02*
X859664Y538469D01*
X851966Y540000D02*
X855865Y539487D01*
X520494Y112701D02*
X522332Y111939D01*
X523739Y110533D01*
X524500Y108695D01*
Y107701D02*
Y108695D01*
Y1D02*
Y107701D01*
X387500Y1D02*
X524500D01*
X387500D02*
Y107701D01*
X387500D02*
X387500D01*
X387500D02*
Y108695D01*
X388261Y110533D01*
X389668Y111939D01*
X391505Y112701D01*
X393494D01*
X395332Y111939D01*
X396739Y110533D01*
X397500Y108695D01*
Y107701D02*
Y108695D01*
Y107701D02*
X514500D01*
Y108695D01*
X515261Y110533D01*
X516668Y111939D01*
X518505Y112701D01*
X520494D01*
D172*
X704500Y146250D02*
D03*
X716500Y146250D02*
D03*
D173*
X784695Y455975D02*
D03*
D174*
X96694D02*
D03*
X30000Y76000D02*
D03*
Y186000D02*
D03*
D175*
X853750Y129199D02*
D03*
Y103799D02*
D03*
Y78400D02*
D03*
D176*
X413689Y525180D02*
D03*
X388289D02*
D03*
X181750Y261500D02*
D03*
X86250Y404250D02*
D03*
X315000Y242250D02*
D03*
X745750Y282750D02*
D03*
X462500Y381250D02*
D03*
X386500Y181500D02*
D03*
X12000Y67750D02*
D03*
X204750Y269000D02*
D03*
D177*
X130000Y156000D02*
D03*
D178*
X416000Y134000D02*
D03*
X436000D02*
D03*
X496000D02*
D03*
X476000D02*
D03*
X466000Y119000D02*
D03*
X446000D02*
D03*
X421000D02*
D03*
D179*
X122695Y35975D02*
D03*
X758695D02*
D03*
D180*
X850000Y30000D02*
D03*
Y510000D02*
D03*
X30000D02*
D03*
Y30000D02*
D03*
D181*
X15000Y147480D02*
D03*
X216500Y324480D02*
D03*
X209500D02*
D03*
X224000D02*
D03*
X231500Y324250D02*
D03*
X184000Y248500D02*
D03*
X251750Y463250D02*
D03*
X203500Y433500D02*
D03*
X187250Y465000D02*
D03*
X151750Y517500D02*
D03*
X362000Y484750D02*
D03*
X339250Y441500D02*
D03*
X158000Y464000D02*
D03*
X320750Y517500D02*
D03*
X306500Y524750D02*
D03*
X290750Y533500D02*
D03*
X245500Y518750D02*
D03*
X296000Y473750D02*
D03*
X289500Y473119D02*
D03*
X278500Y533000D02*
D03*
X247852Y511326D02*
D03*
X223250Y514918D02*
D03*
X214750Y510500D02*
D03*
X199500Y483000D02*
D03*
X214750Y474750D02*
D03*
X155000Y380000D02*
D03*
X195106Y432106D02*
D03*
X186356Y431856D02*
D03*
X243750Y459250D02*
D03*
X236750Y457750D02*
D03*
X229750Y457250D02*
D03*
X255750Y346000D02*
D03*
X256000Y354000D02*
D03*
X636750Y452000D02*
D03*
X548500Y457000D02*
D03*
X79500Y304250D02*
D03*
X340500Y462000D02*
D03*
X353000Y467000D02*
D03*
X413014Y224750D02*
D03*
X414500Y235000D02*
D03*
X90000Y420000D02*
D03*
X89500Y433000D02*
D03*
X605500Y180250D02*
D03*
X594250Y181787D02*
D03*
X583500Y181906D02*
D03*
X585500Y264750D02*
D03*
X555250Y241500D02*
D03*
X74750Y326500D02*
D03*
X629750Y63500D02*
D03*
X309500Y206000D02*
D03*
X756000Y452250D02*
D03*
X630750Y377000D02*
D03*
X562000Y438750D02*
D03*
X143000Y231000D02*
D03*
X167250Y281000D02*
D03*
X181250Y328250D02*
D03*
X173500Y345000D02*
D03*
X870250Y315000D02*
D03*
X831250Y279000D02*
D03*
X783250Y168000D02*
D03*
X810250Y98000D02*
D03*
X614500Y219000D02*
D03*
X630500Y229750D02*
D03*
X622000Y159750D02*
D03*
X611000Y148250D02*
D03*
X618250Y118000D02*
D03*
X620250Y100250D02*
D03*
X591750Y87500D02*
D03*
X574250Y68250D02*
D03*
X603000Y34250D02*
D03*
X147750Y54750D02*
D03*
X158250Y54500D02*
D03*
X37750Y444000D02*
D03*
X90000Y366500D02*
D03*
X173250Y368250D02*
D03*
X133500Y334500D02*
D03*
X136500Y365250D02*
D03*
X91250Y265000D02*
D03*
X49550Y231050D02*
D03*
X66500Y235750D02*
D03*
X137250Y244000D02*
D03*
X87500Y235750D02*
D03*
X75500Y237750D02*
D03*
X97500Y231250D02*
D03*
X97000Y200000D02*
D03*
X291750Y215750D02*
D03*
X222500Y217000D02*
D03*
X307250Y175750D02*
D03*
X315500Y55750D02*
D03*
X78250Y10000D02*
D03*
X267000Y23250D02*
D03*
X104000Y147000D02*
D03*
X79000Y311500D02*
D03*
X65750Y288000D02*
D03*
X74500Y288750D02*
D03*
X107500Y386250D02*
D03*
X736250Y185750D02*
D03*
X414000Y214500D02*
D03*
X748500Y185500D02*
D03*
X408000Y456250D02*
D03*
X399250Y456500D02*
D03*
X723731Y453231D02*
D03*
X623803Y443803D02*
D03*
X623750Y437940D02*
D03*
X657575Y444065D02*
D03*
X657750Y438080D02*
D03*
X736750Y452000D02*
D03*
X752370Y367714D02*
D03*
X746560D02*
D03*
X671900Y386750D02*
D03*
X677710D02*
D03*
X461984Y347750D02*
D03*
X456174D02*
D03*
X446750Y327520D02*
D03*
Y321710D02*
D03*
X545500Y246885D02*
D03*
Y241115D02*
D03*
X520920Y245670D02*
D03*
X525000Y249750D02*
D03*
X641250Y134250D02*
D03*
X660000D02*
D03*
X680250D02*
D03*
X700500D02*
D03*
X718000D02*
D03*
X619790Y397195D02*
D03*
X613980D02*
D03*
X608750Y438690D02*
D03*
X608803Y444553D02*
D03*
X604790Y397147D02*
D03*
X598980D02*
D03*
X578750Y438690D02*
D03*
X578803Y444553D02*
D03*
X574790Y397250D02*
D03*
X568980D02*
D03*
X593681Y438714D02*
D03*
X593734Y444577D02*
D03*
X589790Y397250D02*
D03*
X583980D02*
D03*
D182*
X541889Y281889D02*
D03*
X735250Y281750D02*
D03*
X833000Y309750D02*
D03*
X837000Y301500D02*
D03*
X106000Y215000D02*
D03*
X200750Y243000D02*
D03*
Y235250D02*
D03*
X212750D02*
D03*
X309750Y162750D02*
D03*
X302750D02*
D03*
X351750Y51750D02*
D03*
Y61500D02*
D03*
X106750Y516500D02*
D03*
Y525250D02*
D03*
X128750Y516500D02*
D03*
Y525500D02*
D03*
X359500Y179750D02*
D03*
Y168750D02*
D03*
X332250D02*
D03*
X174750Y432250D02*
D03*
X96750Y525750D02*
D03*
X74250Y526250D02*
D03*
Y517000D02*
D03*
X96750Y517500D02*
D03*
X332750Y180250D02*
D03*
M02*
