G04*
G04 #@! TF.GenerationSoftware,Altium Limited,Altium Designer,20.1.11 (218)*
G04*
G04 Layer_Color=32896*
%FSLAX44Y44*%
%MOMM*%
G71*
G04*
G04 #@! TF.SameCoordinates,4E8BECB8-10D7-4487-B94D-AC5258AA6689*
G04*
G04*
G04 #@! TF.FilePolarity,Positive*
G04*
G01*
G75*
%ADD10C,0.1000*%
%ADD15C,0.1500*%
%ADD208C,0.1540*%
G36*
X834455Y233509D02*
Y233422D01*
Y233335D01*
Y233248D01*
Y233161D01*
Y233074D01*
Y232987D01*
Y232901D01*
Y232814D01*
Y232727D01*
Y232640D01*
Y232553D01*
Y232466D01*
Y232379D01*
Y232292D01*
Y232205D01*
Y232118D01*
Y232031D01*
Y231944D01*
Y231857D01*
Y231770D01*
Y231683D01*
Y231596D01*
Y231509D01*
Y231422D01*
Y231335D01*
Y231248D01*
Y231161D01*
Y231075D01*
Y230988D01*
Y230901D01*
Y230814D01*
Y230727D01*
Y230640D01*
Y230553D01*
Y230466D01*
Y230379D01*
Y230292D01*
Y230205D01*
Y230118D01*
Y230031D01*
Y229944D01*
Y229857D01*
Y229770D01*
Y229683D01*
Y229596D01*
Y229509D01*
Y229422D01*
Y229335D01*
Y229249D01*
Y229162D01*
Y229075D01*
Y228988D01*
Y228901D01*
Y228814D01*
Y228727D01*
Y228640D01*
Y228553D01*
Y228466D01*
Y228379D01*
Y228292D01*
Y228205D01*
Y228118D01*
Y228031D01*
Y227944D01*
Y227857D01*
Y227770D01*
Y227683D01*
Y227596D01*
Y227509D01*
Y227423D01*
Y227336D01*
Y227249D01*
Y227162D01*
Y227075D01*
Y226988D01*
Y226901D01*
Y226814D01*
Y226727D01*
Y226640D01*
Y226553D01*
Y226466D01*
Y226379D01*
Y226292D01*
Y226205D01*
Y226118D01*
Y226031D01*
Y225944D01*
Y225857D01*
Y225770D01*
Y225683D01*
Y225597D01*
Y225510D01*
Y225423D01*
Y225336D01*
Y225249D01*
Y225162D01*
Y225075D01*
Y224988D01*
Y224901D01*
Y224814D01*
Y224727D01*
Y224640D01*
Y224553D01*
Y224466D01*
Y224379D01*
Y224292D01*
Y224205D01*
Y224118D01*
Y224032D01*
Y223944D01*
Y223858D01*
Y223771D01*
Y223684D01*
Y223597D01*
Y223510D01*
Y223423D01*
Y223336D01*
Y223249D01*
Y223162D01*
Y223075D01*
Y222988D01*
Y222901D01*
Y222814D01*
Y222727D01*
Y222640D01*
Y222553D01*
Y222466D01*
Y222379D01*
Y222292D01*
Y222205D01*
Y222118D01*
Y222032D01*
Y221945D01*
Y221858D01*
Y221771D01*
Y221684D01*
Y221597D01*
Y221510D01*
Y221423D01*
Y221336D01*
Y221249D01*
Y221162D01*
Y221075D01*
Y220988D01*
Y220901D01*
Y220814D01*
Y220727D01*
Y220640D01*
Y220553D01*
Y220466D01*
Y220380D01*
Y220292D01*
Y220206D01*
Y220119D01*
Y220032D01*
Y219945D01*
Y219858D01*
Y219771D01*
Y219684D01*
Y219597D01*
Y219510D01*
Y219423D01*
Y219336D01*
Y219249D01*
Y219162D01*
Y219075D01*
Y218988D01*
Y218901D01*
Y218814D01*
Y218727D01*
Y218640D01*
Y218554D01*
Y218466D01*
Y218380D01*
Y218293D01*
Y218206D01*
Y218119D01*
Y218032D01*
Y217945D01*
Y217858D01*
Y217771D01*
Y217684D01*
Y217597D01*
Y217510D01*
Y217423D01*
Y217336D01*
Y217249D01*
Y217162D01*
Y217075D01*
Y216988D01*
Y216901D01*
Y216814D01*
Y216728D01*
Y216641D01*
Y216554D01*
Y216467D01*
Y216380D01*
Y216293D01*
Y216206D01*
Y216119D01*
Y216032D01*
Y215945D01*
Y215858D01*
Y215771D01*
Y215684D01*
Y215597D01*
Y215510D01*
Y215423D01*
Y215336D01*
Y215249D01*
Y215162D01*
Y215075D01*
Y214988D01*
Y214902D01*
Y214815D01*
Y214728D01*
Y214641D01*
Y214554D01*
Y214467D01*
Y214380D01*
Y214293D01*
Y214206D01*
Y214119D01*
Y214032D01*
Y213945D01*
Y213858D01*
Y213771D01*
Y213684D01*
Y213597D01*
Y213510D01*
Y213423D01*
Y213336D01*
Y213249D01*
Y213162D01*
Y213076D01*
Y212989D01*
Y212902D01*
Y212815D01*
Y212728D01*
X823412D01*
Y212815D01*
Y212902D01*
Y212989D01*
Y213076D01*
Y213162D01*
Y213249D01*
Y213336D01*
Y213423D01*
Y213510D01*
Y213597D01*
Y213684D01*
Y213771D01*
Y213858D01*
Y213945D01*
Y214032D01*
Y214119D01*
Y214206D01*
Y214293D01*
Y214380D01*
Y214467D01*
Y214554D01*
Y214641D01*
Y214728D01*
Y214815D01*
Y214902D01*
Y214988D01*
Y215075D01*
Y215162D01*
Y215249D01*
Y215336D01*
Y215423D01*
Y215510D01*
Y215597D01*
Y215684D01*
Y215771D01*
Y215858D01*
Y215945D01*
Y216032D01*
Y216119D01*
Y216206D01*
Y216293D01*
Y216380D01*
Y216467D01*
Y216554D01*
Y216641D01*
Y216728D01*
Y216814D01*
Y216901D01*
Y216988D01*
Y217075D01*
Y217162D01*
Y217249D01*
Y217336D01*
Y217423D01*
Y217510D01*
Y217597D01*
Y217684D01*
Y217771D01*
Y217858D01*
Y217945D01*
Y218032D01*
Y218119D01*
Y218206D01*
Y218293D01*
Y218380D01*
Y218466D01*
Y218554D01*
Y218640D01*
Y218727D01*
Y218814D01*
Y218901D01*
Y218988D01*
Y219075D01*
Y219162D01*
Y219249D01*
Y219336D01*
Y219423D01*
Y219510D01*
Y219597D01*
Y219684D01*
Y219771D01*
Y219858D01*
Y219945D01*
Y220032D01*
Y220119D01*
Y220206D01*
Y220292D01*
Y220380D01*
Y220466D01*
Y220553D01*
Y220640D01*
Y220727D01*
Y220814D01*
Y220901D01*
Y220988D01*
Y221075D01*
Y221162D01*
Y221249D01*
Y221336D01*
Y221423D01*
Y221510D01*
Y221597D01*
Y221684D01*
Y221771D01*
Y221858D01*
Y221945D01*
Y222032D01*
Y222118D01*
Y222205D01*
Y222292D01*
Y222379D01*
Y222466D01*
Y222553D01*
Y222640D01*
Y222727D01*
Y222814D01*
Y222901D01*
Y222988D01*
Y223075D01*
Y223162D01*
Y223249D01*
Y223336D01*
Y223423D01*
Y223510D01*
Y223597D01*
Y223684D01*
Y223771D01*
Y223858D01*
Y223944D01*
Y224032D01*
Y224118D01*
X797327D01*
Y224205D01*
Y224292D01*
Y224379D01*
Y224466D01*
Y224553D01*
Y224640D01*
Y224727D01*
Y224814D01*
Y224901D01*
Y224988D01*
Y225075D01*
Y225162D01*
Y225249D01*
Y225336D01*
Y225423D01*
Y225510D01*
Y225597D01*
Y225683D01*
Y225770D01*
Y225857D01*
Y225944D01*
Y226031D01*
Y226118D01*
Y226205D01*
Y226292D01*
Y226379D01*
Y226466D01*
Y226553D01*
Y226640D01*
Y226727D01*
Y226814D01*
Y226901D01*
Y226988D01*
Y227075D01*
Y227162D01*
Y227249D01*
Y227336D01*
Y227423D01*
Y227509D01*
Y227596D01*
Y227683D01*
Y227770D01*
Y227857D01*
Y227944D01*
Y228031D01*
Y228118D01*
Y228205D01*
Y228292D01*
Y228379D01*
Y228466D01*
Y228553D01*
Y228640D01*
Y228727D01*
Y228814D01*
Y228901D01*
Y228988D01*
Y229075D01*
Y229162D01*
Y229249D01*
Y229335D01*
Y229422D01*
Y229509D01*
Y229596D01*
Y229683D01*
Y229770D01*
Y229857D01*
Y229944D01*
Y230031D01*
Y230118D01*
Y230205D01*
Y230292D01*
Y230379D01*
Y230466D01*
Y230553D01*
Y230640D01*
Y230727D01*
Y230814D01*
Y230901D01*
Y230988D01*
Y231075D01*
Y231161D01*
Y231248D01*
Y231335D01*
Y231422D01*
Y231509D01*
Y231596D01*
Y231683D01*
Y231770D01*
Y231857D01*
Y231944D01*
Y232031D01*
Y232118D01*
Y232205D01*
Y232292D01*
Y232379D01*
Y232466D01*
Y232553D01*
Y232640D01*
Y232727D01*
Y232814D01*
Y232901D01*
Y232987D01*
Y233074D01*
Y233161D01*
Y233248D01*
Y233335D01*
Y233422D01*
Y233509D01*
Y233596D01*
X834455D01*
Y233509D01*
D02*
G37*
G36*
X740113D02*
Y233422D01*
Y233335D01*
Y233248D01*
Y233161D01*
Y233074D01*
Y232987D01*
Y232901D01*
Y232814D01*
Y232727D01*
Y232640D01*
Y232553D01*
Y232466D01*
Y232379D01*
Y232292D01*
Y232205D01*
Y232118D01*
Y232031D01*
Y231944D01*
Y231857D01*
Y231770D01*
Y231683D01*
Y231596D01*
Y231509D01*
Y231422D01*
Y231335D01*
Y231248D01*
Y231161D01*
Y231075D01*
Y230988D01*
Y230901D01*
Y230814D01*
Y230727D01*
Y230640D01*
Y230553D01*
Y230466D01*
Y230379D01*
Y230292D01*
Y230205D01*
Y230118D01*
Y230031D01*
Y229944D01*
Y229857D01*
Y229770D01*
Y229683D01*
Y229596D01*
Y229509D01*
Y229422D01*
Y229335D01*
Y229249D01*
Y229162D01*
Y229075D01*
Y228988D01*
Y228901D01*
Y228814D01*
Y228727D01*
Y228640D01*
Y228553D01*
Y228466D01*
Y228379D01*
Y228292D01*
Y228205D01*
Y228118D01*
Y228031D01*
Y227944D01*
Y227857D01*
Y227770D01*
Y227683D01*
Y227596D01*
Y227509D01*
Y227423D01*
Y227336D01*
Y227249D01*
Y227162D01*
Y227075D01*
Y226988D01*
Y226901D01*
Y226814D01*
Y226727D01*
Y226640D01*
Y226553D01*
Y226466D01*
Y226379D01*
Y226292D01*
Y226205D01*
Y226118D01*
Y226031D01*
Y225944D01*
Y225857D01*
Y225770D01*
Y225683D01*
Y225597D01*
Y225510D01*
Y225423D01*
Y225336D01*
Y225249D01*
Y225162D01*
Y225075D01*
Y224988D01*
Y224901D01*
Y224814D01*
Y224727D01*
Y224640D01*
Y224553D01*
Y224466D01*
Y224379D01*
Y224292D01*
Y224205D01*
Y224118D01*
Y224032D01*
Y223944D01*
Y223858D01*
Y223771D01*
Y223684D01*
Y223597D01*
Y223510D01*
Y223423D01*
Y223336D01*
Y223249D01*
Y223162D01*
Y223075D01*
Y222988D01*
Y222901D01*
Y222814D01*
Y222727D01*
Y222640D01*
Y222553D01*
Y222466D01*
Y222379D01*
Y222292D01*
Y222205D01*
Y222118D01*
Y222032D01*
Y221945D01*
Y221858D01*
Y221771D01*
Y221684D01*
Y221597D01*
Y221510D01*
Y221423D01*
Y221336D01*
Y221249D01*
Y221162D01*
Y221075D01*
Y220988D01*
Y220901D01*
Y220814D01*
Y220727D01*
Y220640D01*
Y220553D01*
Y220466D01*
Y220380D01*
Y220292D01*
Y220206D01*
Y220119D01*
Y220032D01*
Y219945D01*
Y219858D01*
Y219771D01*
Y219684D01*
Y219597D01*
Y219510D01*
Y219423D01*
Y219336D01*
Y219249D01*
Y219162D01*
Y219075D01*
Y218988D01*
Y218901D01*
Y218814D01*
Y218727D01*
Y218640D01*
Y218554D01*
Y218466D01*
Y218380D01*
Y218293D01*
Y218206D01*
Y218119D01*
Y218032D01*
Y217945D01*
Y217858D01*
Y217771D01*
Y217684D01*
Y217597D01*
Y217510D01*
Y217423D01*
Y217336D01*
Y217249D01*
Y217162D01*
Y217075D01*
Y216988D01*
Y216901D01*
Y216814D01*
Y216728D01*
Y216641D01*
Y216554D01*
Y216467D01*
Y216380D01*
Y216293D01*
Y216206D01*
Y216119D01*
Y216032D01*
Y215945D01*
Y215858D01*
Y215771D01*
Y215684D01*
Y215597D01*
Y215510D01*
Y215423D01*
Y215336D01*
Y215249D01*
Y215162D01*
Y215075D01*
Y214988D01*
Y214902D01*
Y214815D01*
Y214728D01*
Y214641D01*
Y214554D01*
Y214467D01*
Y214380D01*
Y214293D01*
Y214206D01*
Y214119D01*
Y214032D01*
Y213945D01*
Y213858D01*
Y213771D01*
Y213684D01*
Y213597D01*
Y213510D01*
Y213423D01*
Y213336D01*
Y213249D01*
Y213162D01*
Y213076D01*
Y212989D01*
Y212902D01*
Y212815D01*
Y212728D01*
X729070D01*
Y212815D01*
Y212902D01*
Y212989D01*
Y213076D01*
Y213162D01*
Y213249D01*
Y213336D01*
Y213423D01*
Y213510D01*
Y213597D01*
Y213684D01*
Y213771D01*
Y213858D01*
Y213945D01*
Y214032D01*
Y214119D01*
Y214206D01*
Y214293D01*
Y214380D01*
Y214467D01*
Y214554D01*
Y214641D01*
Y214728D01*
Y214815D01*
Y214902D01*
Y214988D01*
Y215075D01*
Y215162D01*
Y215249D01*
Y215336D01*
Y215423D01*
Y215510D01*
Y215597D01*
Y215684D01*
Y215771D01*
Y215858D01*
Y215945D01*
Y216032D01*
Y216119D01*
Y216206D01*
Y216293D01*
Y216380D01*
Y216467D01*
Y216554D01*
Y216641D01*
Y216728D01*
Y216814D01*
Y216901D01*
Y216988D01*
Y217075D01*
Y217162D01*
Y217249D01*
Y217336D01*
Y217423D01*
Y217510D01*
Y217597D01*
Y217684D01*
Y217771D01*
Y217858D01*
Y217945D01*
Y218032D01*
Y218119D01*
Y218206D01*
Y218293D01*
Y218380D01*
Y218466D01*
Y218554D01*
Y218640D01*
Y218727D01*
Y218814D01*
Y218901D01*
Y218988D01*
Y219075D01*
Y219162D01*
Y219249D01*
Y219336D01*
Y219423D01*
Y219510D01*
Y219597D01*
Y219684D01*
Y219771D01*
Y219858D01*
Y219945D01*
Y220032D01*
Y220119D01*
Y220206D01*
Y220292D01*
Y220380D01*
Y220466D01*
Y220553D01*
Y220640D01*
Y220727D01*
Y220814D01*
Y220901D01*
Y220988D01*
Y221075D01*
Y221162D01*
Y221249D01*
Y221336D01*
Y221423D01*
Y221510D01*
Y221597D01*
Y221684D01*
Y221771D01*
Y221858D01*
Y221945D01*
Y222032D01*
Y222118D01*
Y222205D01*
Y222292D01*
Y222379D01*
Y222466D01*
Y222553D01*
Y222640D01*
Y222727D01*
Y222814D01*
Y222901D01*
Y222988D01*
Y223075D01*
Y223162D01*
Y223249D01*
Y223336D01*
Y223423D01*
Y223510D01*
Y223597D01*
Y223684D01*
Y223771D01*
Y223858D01*
Y223944D01*
Y224032D01*
Y224118D01*
X702984D01*
Y224205D01*
Y224292D01*
Y224379D01*
Y224466D01*
Y224553D01*
Y224640D01*
Y224727D01*
Y224814D01*
Y224901D01*
Y224988D01*
Y225075D01*
Y225162D01*
Y225249D01*
Y225336D01*
Y225423D01*
Y225510D01*
Y225597D01*
Y225683D01*
Y225770D01*
Y225857D01*
Y225944D01*
Y226031D01*
Y226118D01*
Y226205D01*
Y226292D01*
Y226379D01*
Y226466D01*
Y226553D01*
Y226640D01*
Y226727D01*
Y226814D01*
Y226901D01*
Y226988D01*
Y227075D01*
Y227162D01*
Y227249D01*
Y227336D01*
Y227423D01*
Y227509D01*
Y227596D01*
Y227683D01*
Y227770D01*
Y227857D01*
Y227944D01*
Y228031D01*
Y228118D01*
Y228205D01*
Y228292D01*
Y228379D01*
Y228466D01*
Y228553D01*
Y228640D01*
Y228727D01*
Y228814D01*
Y228901D01*
Y228988D01*
Y229075D01*
Y229162D01*
Y229249D01*
Y229335D01*
Y229422D01*
Y229509D01*
Y229596D01*
Y229683D01*
Y229770D01*
Y229857D01*
Y229944D01*
Y230031D01*
Y230118D01*
Y230205D01*
Y230292D01*
Y230379D01*
Y230466D01*
Y230553D01*
Y230640D01*
Y230727D01*
Y230814D01*
Y230901D01*
Y230988D01*
Y231075D01*
Y231161D01*
Y231248D01*
Y231335D01*
Y231422D01*
Y231509D01*
Y231596D01*
Y231683D01*
Y231770D01*
Y231857D01*
Y231944D01*
Y232031D01*
Y232118D01*
Y232205D01*
Y232292D01*
Y232379D01*
Y232466D01*
Y232553D01*
Y232640D01*
Y232727D01*
Y232814D01*
Y232901D01*
Y232987D01*
Y233074D01*
Y233161D01*
Y233248D01*
Y233335D01*
Y233422D01*
Y233509D01*
Y233596D01*
X740113D01*
Y233509D01*
D02*
G37*
G36*
X823412Y212554D02*
Y212467D01*
Y212380D01*
Y212293D01*
Y212206D01*
Y212119D01*
Y212032D01*
Y211945D01*
Y211858D01*
Y211771D01*
Y211684D01*
Y211597D01*
Y211510D01*
Y211423D01*
Y211336D01*
Y211250D01*
Y211163D01*
Y211076D01*
Y210989D01*
Y210902D01*
Y210815D01*
Y210728D01*
Y210641D01*
Y210554D01*
Y210467D01*
Y210380D01*
Y210293D01*
Y210206D01*
Y210119D01*
Y210032D01*
Y209945D01*
Y209858D01*
Y209771D01*
Y209684D01*
Y209597D01*
Y209510D01*
Y209424D01*
Y209337D01*
Y209250D01*
Y209163D01*
Y209076D01*
Y208989D01*
Y208902D01*
Y208815D01*
Y208728D01*
Y208641D01*
Y208554D01*
Y208467D01*
Y208380D01*
Y208293D01*
Y208206D01*
Y208119D01*
Y208032D01*
Y207945D01*
Y207858D01*
Y207771D01*
Y207684D01*
Y207598D01*
Y207511D01*
Y207424D01*
Y207337D01*
Y207250D01*
Y207163D01*
Y207076D01*
Y206989D01*
Y206902D01*
Y206815D01*
Y206728D01*
Y206641D01*
Y206554D01*
Y206467D01*
Y206380D01*
Y206293D01*
Y206206D01*
Y206119D01*
Y206033D01*
Y205945D01*
Y205858D01*
Y205772D01*
Y205685D01*
Y205598D01*
Y205511D01*
Y205424D01*
Y205337D01*
Y205250D01*
Y205163D01*
Y205076D01*
Y204989D01*
Y204902D01*
Y204815D01*
Y204728D01*
Y204641D01*
Y204554D01*
Y204467D01*
Y204380D01*
Y204293D01*
Y204207D01*
Y204119D01*
Y204033D01*
Y203946D01*
Y203859D01*
Y203772D01*
Y203685D01*
Y203598D01*
Y203511D01*
Y203424D01*
Y203337D01*
Y203250D01*
X799588D01*
Y203337D01*
Y203424D01*
Y203511D01*
Y203598D01*
Y203685D01*
Y203772D01*
Y203859D01*
Y203946D01*
Y204033D01*
Y204119D01*
Y204207D01*
Y204293D01*
Y204380D01*
Y204467D01*
Y204554D01*
Y204641D01*
Y204728D01*
Y204815D01*
Y204902D01*
Y204989D01*
Y205076D01*
Y205163D01*
Y205250D01*
Y205337D01*
Y205424D01*
Y205511D01*
Y205598D01*
Y205685D01*
Y205772D01*
Y205858D01*
Y205945D01*
Y206033D01*
Y206119D01*
Y206206D01*
Y206293D01*
Y206380D01*
Y206467D01*
Y206554D01*
Y206641D01*
Y206728D01*
Y206815D01*
Y206902D01*
Y206989D01*
Y207076D01*
Y207163D01*
Y207250D01*
Y207337D01*
Y207424D01*
Y207511D01*
Y207598D01*
Y207684D01*
Y207771D01*
Y207858D01*
Y207945D01*
Y208032D01*
Y208119D01*
Y208206D01*
Y208293D01*
Y208380D01*
Y208467D01*
Y208554D01*
Y208641D01*
Y208728D01*
Y208815D01*
Y208902D01*
Y208989D01*
Y209076D01*
Y209163D01*
Y209250D01*
Y209337D01*
Y209424D01*
Y209510D01*
Y209597D01*
Y209684D01*
Y209771D01*
Y209858D01*
Y209945D01*
Y210032D01*
Y210119D01*
Y210206D01*
Y210293D01*
Y210380D01*
Y210467D01*
Y210554D01*
Y210641D01*
Y210728D01*
Y210815D01*
Y210902D01*
Y210989D01*
Y211076D01*
Y211163D01*
Y211250D01*
Y211336D01*
Y211423D01*
Y211510D01*
Y211597D01*
Y211684D01*
Y211771D01*
Y211858D01*
Y211945D01*
Y212032D01*
Y212119D01*
Y212206D01*
Y212293D01*
Y212380D01*
Y212467D01*
Y212554D01*
Y212641D01*
X823412D01*
Y212554D01*
D02*
G37*
G36*
X728983D02*
Y212467D01*
Y212380D01*
Y212293D01*
Y212206D01*
Y212119D01*
Y212032D01*
Y211945D01*
Y211858D01*
Y211771D01*
Y211684D01*
Y211597D01*
Y211510D01*
Y211423D01*
Y211336D01*
Y211250D01*
Y211163D01*
Y211076D01*
Y210989D01*
Y210902D01*
Y210815D01*
Y210728D01*
Y210641D01*
Y210554D01*
Y210467D01*
Y210380D01*
Y210293D01*
Y210206D01*
Y210119D01*
Y210032D01*
Y209945D01*
Y209858D01*
Y209771D01*
Y209684D01*
Y209597D01*
Y209510D01*
Y209424D01*
Y209337D01*
Y209250D01*
Y209163D01*
Y209076D01*
Y208989D01*
Y208902D01*
Y208815D01*
Y208728D01*
Y208641D01*
Y208554D01*
Y208467D01*
Y208380D01*
Y208293D01*
Y208206D01*
Y208119D01*
Y208032D01*
Y207945D01*
Y207858D01*
Y207771D01*
Y207684D01*
Y207598D01*
Y207511D01*
Y207424D01*
Y207337D01*
Y207250D01*
Y207163D01*
Y207076D01*
Y206989D01*
Y206902D01*
Y206815D01*
Y206728D01*
Y206641D01*
Y206554D01*
Y206467D01*
Y206380D01*
Y206293D01*
Y206206D01*
Y206119D01*
Y206033D01*
Y205945D01*
Y205858D01*
Y205772D01*
Y205685D01*
Y205598D01*
Y205511D01*
Y205424D01*
Y205337D01*
Y205250D01*
Y205163D01*
Y205076D01*
Y204989D01*
Y204902D01*
Y204815D01*
Y204728D01*
Y204641D01*
Y204554D01*
Y204467D01*
Y204380D01*
Y204293D01*
Y204207D01*
Y204119D01*
Y204033D01*
Y203946D01*
Y203859D01*
Y203772D01*
Y203685D01*
Y203598D01*
Y203511D01*
Y203424D01*
Y203337D01*
Y203250D01*
X705245D01*
Y203337D01*
Y203424D01*
Y203511D01*
Y203598D01*
Y203685D01*
Y203772D01*
Y203859D01*
Y203946D01*
Y204033D01*
Y204119D01*
Y204207D01*
Y204293D01*
Y204380D01*
Y204467D01*
Y204554D01*
Y204641D01*
Y204728D01*
Y204815D01*
Y204902D01*
Y204989D01*
Y205076D01*
Y205163D01*
Y205250D01*
Y205337D01*
Y205424D01*
Y205511D01*
Y205598D01*
Y205685D01*
Y205772D01*
Y205858D01*
Y205945D01*
Y206033D01*
Y206119D01*
Y206206D01*
Y206293D01*
Y206380D01*
Y206467D01*
Y206554D01*
Y206641D01*
Y206728D01*
Y206815D01*
Y206902D01*
Y206989D01*
Y207076D01*
Y207163D01*
Y207250D01*
Y207337D01*
Y207424D01*
Y207511D01*
Y207598D01*
Y207684D01*
Y207771D01*
Y207858D01*
Y207945D01*
Y208032D01*
Y208119D01*
Y208206D01*
Y208293D01*
Y208380D01*
Y208467D01*
Y208554D01*
Y208641D01*
Y208728D01*
Y208815D01*
Y208902D01*
Y208989D01*
Y209076D01*
Y209163D01*
Y209250D01*
Y209337D01*
Y209424D01*
Y209510D01*
Y209597D01*
Y209684D01*
Y209771D01*
Y209858D01*
Y209945D01*
Y210032D01*
Y210119D01*
Y210206D01*
Y210293D01*
Y210380D01*
Y210467D01*
Y210554D01*
Y210641D01*
Y210728D01*
Y210815D01*
Y210902D01*
Y210989D01*
Y211076D01*
Y211163D01*
Y211250D01*
Y211336D01*
Y211423D01*
Y211510D01*
Y211597D01*
Y211684D01*
Y211771D01*
Y211858D01*
Y211945D01*
Y212032D01*
Y212119D01*
Y212206D01*
Y212293D01*
Y212380D01*
Y212467D01*
Y212554D01*
Y212641D01*
X728983D01*
Y212554D01*
D02*
G37*
G36*
X834455Y203076D02*
Y202989D01*
Y202902D01*
Y202815D01*
Y202728D01*
Y202641D01*
Y202554D01*
Y202467D01*
Y202381D01*
Y202293D01*
Y202207D01*
Y202120D01*
Y202033D01*
Y201946D01*
Y201859D01*
Y201772D01*
Y201685D01*
Y201598D01*
Y201511D01*
Y201424D01*
Y201337D01*
Y201250D01*
Y201163D01*
Y201076D01*
Y200989D01*
Y200902D01*
Y200815D01*
Y200728D01*
Y200641D01*
Y200555D01*
Y200467D01*
Y200381D01*
Y200294D01*
Y200207D01*
Y200120D01*
Y200033D01*
Y199946D01*
Y199859D01*
Y199772D01*
Y199685D01*
Y199598D01*
Y199511D01*
Y199424D01*
Y199337D01*
Y199250D01*
Y199163D01*
Y199076D01*
Y198989D01*
Y198902D01*
Y198815D01*
Y198729D01*
Y198642D01*
Y198555D01*
Y198468D01*
Y198381D01*
Y198294D01*
Y198207D01*
Y198120D01*
Y198033D01*
Y197946D01*
Y197859D01*
Y197772D01*
Y197685D01*
Y197598D01*
Y197511D01*
Y197424D01*
Y197337D01*
Y197250D01*
Y197163D01*
Y197076D01*
Y196989D01*
Y196903D01*
Y196816D01*
Y196729D01*
Y196642D01*
Y196555D01*
Y196468D01*
Y196381D01*
Y196294D01*
Y196207D01*
Y196120D01*
Y196033D01*
Y195946D01*
Y195859D01*
Y195772D01*
Y195685D01*
Y195598D01*
Y195511D01*
Y195424D01*
Y195337D01*
Y195250D01*
Y195163D01*
Y195077D01*
Y194990D01*
Y194903D01*
Y194816D01*
Y194729D01*
Y194642D01*
Y194555D01*
Y194468D01*
Y194381D01*
Y194294D01*
Y194207D01*
Y194120D01*
Y194033D01*
Y193946D01*
Y193859D01*
Y193772D01*
Y193685D01*
Y193598D01*
Y193511D01*
Y193424D01*
Y193337D01*
Y193251D01*
Y193164D01*
Y193077D01*
Y192990D01*
Y192903D01*
Y192816D01*
Y192729D01*
Y192642D01*
Y192555D01*
Y192468D01*
Y192381D01*
Y192294D01*
Y192207D01*
Y192120D01*
Y192033D01*
Y191946D01*
Y191859D01*
Y191772D01*
Y191685D01*
Y191598D01*
Y191511D01*
Y191425D01*
Y191338D01*
Y191251D01*
Y191164D01*
Y191077D01*
Y190990D01*
Y190903D01*
Y190816D01*
Y190729D01*
Y190642D01*
Y190555D01*
Y190468D01*
Y190381D01*
Y190294D01*
Y190207D01*
Y190120D01*
Y190033D01*
Y189946D01*
Y189859D01*
Y189772D01*
Y189685D01*
Y189599D01*
Y189512D01*
Y189425D01*
Y189338D01*
Y189251D01*
Y189164D01*
Y189077D01*
Y188990D01*
Y188903D01*
Y188816D01*
Y188729D01*
Y188642D01*
Y188555D01*
Y188468D01*
Y188381D01*
Y188294D01*
Y188207D01*
Y188120D01*
Y188034D01*
Y187946D01*
Y187859D01*
Y187773D01*
Y187686D01*
Y187599D01*
Y187512D01*
Y187425D01*
Y187338D01*
Y187251D01*
Y187164D01*
Y187077D01*
Y186990D01*
Y186903D01*
Y186816D01*
Y186729D01*
Y186642D01*
Y186555D01*
Y186468D01*
Y186381D01*
Y186294D01*
Y186208D01*
Y186120D01*
Y186034D01*
Y185947D01*
Y185860D01*
Y185773D01*
Y185686D01*
Y185599D01*
Y185512D01*
Y185425D01*
Y185338D01*
Y185251D01*
Y185164D01*
Y185077D01*
Y184990D01*
Y184903D01*
Y184816D01*
Y184729D01*
Y184642D01*
Y184555D01*
Y184468D01*
Y184382D01*
Y184294D01*
Y184208D01*
Y184121D01*
Y184034D01*
Y183947D01*
Y183860D01*
Y183773D01*
Y183686D01*
Y183599D01*
Y183512D01*
Y183425D01*
Y183338D01*
Y183251D01*
Y183164D01*
Y183077D01*
Y182990D01*
Y182903D01*
Y182816D01*
Y182729D01*
Y182642D01*
Y182556D01*
Y182468D01*
Y182382D01*
Y182295D01*
X797327D01*
Y182382D01*
Y182468D01*
Y182556D01*
Y182642D01*
Y182729D01*
Y182816D01*
Y182903D01*
Y182990D01*
Y183077D01*
Y183164D01*
Y183251D01*
Y183338D01*
Y183425D01*
Y183512D01*
Y183599D01*
Y183686D01*
Y183773D01*
Y183860D01*
Y183947D01*
Y184034D01*
Y184121D01*
Y184208D01*
Y184294D01*
Y184382D01*
Y184468D01*
Y184555D01*
Y184642D01*
Y184729D01*
Y184816D01*
Y184903D01*
Y184990D01*
Y185077D01*
Y185164D01*
Y185251D01*
Y185338D01*
Y185425D01*
Y185512D01*
Y185599D01*
Y185686D01*
Y185773D01*
Y185860D01*
Y185947D01*
Y186034D01*
Y186120D01*
Y186208D01*
Y186294D01*
Y186381D01*
Y186468D01*
Y186555D01*
Y186642D01*
Y186729D01*
Y186816D01*
Y186903D01*
Y186990D01*
Y187077D01*
Y187164D01*
Y187251D01*
Y187338D01*
Y187425D01*
Y187512D01*
Y187599D01*
Y187686D01*
Y187773D01*
Y187859D01*
Y187946D01*
Y188034D01*
Y188120D01*
Y188207D01*
Y188294D01*
Y188381D01*
Y188468D01*
Y188555D01*
Y188642D01*
Y188729D01*
Y188816D01*
Y188903D01*
Y188990D01*
Y189077D01*
Y189164D01*
Y189251D01*
Y189338D01*
Y189425D01*
Y189512D01*
Y189599D01*
Y189685D01*
Y189772D01*
Y189859D01*
Y189946D01*
Y190033D01*
Y190120D01*
Y190207D01*
Y190294D01*
Y190381D01*
Y190468D01*
Y190555D01*
Y190642D01*
Y190729D01*
Y190816D01*
Y190903D01*
Y190990D01*
Y191077D01*
Y191164D01*
Y191251D01*
Y191338D01*
Y191425D01*
Y191511D01*
Y191598D01*
Y191685D01*
X823412D01*
Y191772D01*
Y191859D01*
Y191946D01*
Y192033D01*
Y192120D01*
Y192207D01*
Y192294D01*
Y192381D01*
Y192468D01*
Y192555D01*
Y192642D01*
Y192729D01*
Y192816D01*
Y192903D01*
Y192990D01*
Y193077D01*
Y193164D01*
Y193251D01*
Y193337D01*
Y193424D01*
Y193511D01*
Y193598D01*
Y193685D01*
Y193772D01*
Y193859D01*
Y193946D01*
Y194033D01*
Y194120D01*
Y194207D01*
Y194294D01*
Y194381D01*
Y194468D01*
Y194555D01*
Y194642D01*
Y194729D01*
Y194816D01*
Y194903D01*
Y194990D01*
Y195077D01*
Y195163D01*
Y195250D01*
Y195337D01*
Y195424D01*
Y195511D01*
Y195598D01*
Y195685D01*
Y195772D01*
Y195859D01*
Y195946D01*
Y196033D01*
Y196120D01*
Y196207D01*
Y196294D01*
Y196381D01*
Y196468D01*
Y196555D01*
Y196642D01*
Y196729D01*
Y196816D01*
Y196903D01*
Y196989D01*
Y197076D01*
Y197163D01*
Y197250D01*
Y197337D01*
Y197424D01*
Y197511D01*
Y197598D01*
Y197685D01*
Y197772D01*
Y197859D01*
Y197946D01*
Y198033D01*
Y198120D01*
Y198207D01*
Y198294D01*
Y198381D01*
Y198468D01*
Y198555D01*
Y198642D01*
Y198729D01*
Y198815D01*
Y198902D01*
Y198989D01*
Y199076D01*
Y199163D01*
Y199250D01*
Y199337D01*
Y199424D01*
Y199511D01*
Y199598D01*
Y199685D01*
Y199772D01*
Y199859D01*
Y199946D01*
Y200033D01*
Y200120D01*
Y200207D01*
Y200294D01*
Y200381D01*
Y200467D01*
Y200555D01*
Y200641D01*
Y200728D01*
Y200815D01*
Y200902D01*
Y200989D01*
Y201076D01*
Y201163D01*
Y201250D01*
Y201337D01*
Y201424D01*
Y201511D01*
Y201598D01*
Y201685D01*
Y201772D01*
Y201859D01*
Y201946D01*
Y202033D01*
Y202120D01*
Y202207D01*
Y202293D01*
Y202381D01*
Y202467D01*
Y202554D01*
Y202641D01*
Y202728D01*
Y202815D01*
Y202902D01*
Y202989D01*
Y203076D01*
Y203163D01*
X834455D01*
Y203076D01*
D02*
G37*
G36*
X787849Y233509D02*
Y233422D01*
Y233335D01*
Y233248D01*
Y233161D01*
Y233074D01*
Y232987D01*
Y232901D01*
Y232814D01*
Y232727D01*
Y232640D01*
Y232553D01*
Y232466D01*
Y232379D01*
Y232292D01*
Y232205D01*
Y232118D01*
Y232031D01*
Y231944D01*
Y231857D01*
Y231770D01*
Y231683D01*
Y231596D01*
Y231509D01*
Y231422D01*
Y231335D01*
Y231248D01*
Y231161D01*
Y231075D01*
Y230988D01*
Y230901D01*
Y230814D01*
Y230727D01*
Y230640D01*
Y230553D01*
Y230466D01*
Y230379D01*
Y230292D01*
Y230205D01*
Y230118D01*
Y230031D01*
Y229944D01*
Y229857D01*
Y229770D01*
Y229683D01*
Y229596D01*
Y229509D01*
Y229422D01*
Y229335D01*
Y229249D01*
Y229162D01*
Y229075D01*
Y228988D01*
Y228901D01*
Y228814D01*
Y228727D01*
Y228640D01*
Y228553D01*
Y228466D01*
Y228379D01*
Y228292D01*
Y228205D01*
Y228118D01*
Y228031D01*
Y227944D01*
Y227857D01*
Y227770D01*
Y227683D01*
Y227596D01*
Y227509D01*
Y227423D01*
Y227336D01*
Y227249D01*
Y227162D01*
Y227075D01*
Y226988D01*
Y226901D01*
Y226814D01*
Y226727D01*
Y226640D01*
Y226553D01*
Y226466D01*
Y226379D01*
Y226292D01*
Y226205D01*
Y226118D01*
Y226031D01*
Y225944D01*
Y225857D01*
Y225770D01*
Y225683D01*
Y225597D01*
Y225510D01*
Y225423D01*
Y225336D01*
Y225249D01*
Y225162D01*
Y225075D01*
Y224988D01*
Y224901D01*
Y224814D01*
Y224727D01*
Y224640D01*
Y224553D01*
Y224466D01*
Y224379D01*
Y224292D01*
Y224205D01*
Y224118D01*
Y224032D01*
Y223944D01*
Y223858D01*
Y223771D01*
Y223684D01*
Y223597D01*
Y223510D01*
Y223423D01*
Y223336D01*
Y223249D01*
Y223162D01*
Y223075D01*
Y222988D01*
Y222901D01*
Y222814D01*
Y222727D01*
Y222640D01*
Y222553D01*
Y222466D01*
Y222379D01*
Y222292D01*
Y222205D01*
Y222118D01*
Y222032D01*
Y221945D01*
Y221858D01*
Y221771D01*
Y221684D01*
Y221597D01*
Y221510D01*
Y221423D01*
Y221336D01*
Y221249D01*
Y221162D01*
Y221075D01*
Y220988D01*
Y220901D01*
Y220814D01*
Y220727D01*
Y220640D01*
Y220553D01*
Y220466D01*
Y220380D01*
Y220292D01*
Y220206D01*
Y220119D01*
Y220032D01*
Y219945D01*
Y219858D01*
Y219771D01*
Y219684D01*
Y219597D01*
Y219510D01*
Y219423D01*
Y219336D01*
Y219249D01*
Y219162D01*
Y219075D01*
Y218988D01*
Y218901D01*
Y218814D01*
Y218727D01*
Y218640D01*
Y218554D01*
Y218466D01*
Y218380D01*
Y218293D01*
Y218206D01*
Y218119D01*
Y218032D01*
Y217945D01*
Y217858D01*
Y217771D01*
Y217684D01*
Y217597D01*
Y217510D01*
Y217423D01*
Y217336D01*
Y217249D01*
Y217162D01*
Y217075D01*
Y216988D01*
Y216901D01*
Y216814D01*
Y216728D01*
Y216641D01*
Y216554D01*
Y216467D01*
Y216380D01*
Y216293D01*
Y216206D01*
Y216119D01*
Y216032D01*
Y215945D01*
Y215858D01*
Y215771D01*
Y215684D01*
Y215597D01*
Y215510D01*
Y215423D01*
Y215336D01*
Y215249D01*
Y215162D01*
Y215075D01*
Y214988D01*
Y214902D01*
Y214815D01*
Y214728D01*
Y214641D01*
Y214554D01*
Y214467D01*
Y214380D01*
Y214293D01*
Y214206D01*
Y214119D01*
Y214032D01*
Y213945D01*
Y213858D01*
Y213771D01*
Y213684D01*
Y213597D01*
Y213510D01*
Y213423D01*
Y213336D01*
Y213249D01*
Y213162D01*
Y213076D01*
Y212989D01*
Y212902D01*
Y212815D01*
Y212728D01*
Y212641D01*
Y212554D01*
Y212467D01*
Y212380D01*
Y212293D01*
Y212206D01*
Y212119D01*
Y212032D01*
Y211945D01*
Y211858D01*
Y211771D01*
Y211684D01*
Y211597D01*
Y211510D01*
Y211423D01*
Y211336D01*
Y211250D01*
Y211163D01*
Y211076D01*
Y210989D01*
Y210902D01*
Y210815D01*
Y210728D01*
Y210641D01*
Y210554D01*
Y210467D01*
Y210380D01*
Y210293D01*
Y210206D01*
Y210119D01*
Y210032D01*
Y209945D01*
Y209858D01*
Y209771D01*
Y209684D01*
Y209597D01*
Y209510D01*
Y209424D01*
Y209337D01*
Y209250D01*
Y209163D01*
Y209076D01*
Y208989D01*
Y208902D01*
Y208815D01*
Y208728D01*
Y208641D01*
Y208554D01*
Y208467D01*
Y208380D01*
Y208293D01*
Y208206D01*
Y208119D01*
Y208032D01*
Y207945D01*
Y207858D01*
Y207771D01*
Y207684D01*
Y207598D01*
Y207511D01*
Y207424D01*
Y207337D01*
Y207250D01*
Y207163D01*
Y207076D01*
Y206989D01*
Y206902D01*
Y206815D01*
Y206728D01*
Y206641D01*
Y206554D01*
Y206467D01*
Y206380D01*
Y206293D01*
Y206206D01*
Y206119D01*
Y206033D01*
Y205945D01*
Y205858D01*
Y205772D01*
Y205685D01*
Y205598D01*
Y205511D01*
Y205424D01*
Y205337D01*
Y205250D01*
Y205163D01*
Y205076D01*
Y204989D01*
Y204902D01*
Y204815D01*
Y204728D01*
Y204641D01*
Y204554D01*
Y204467D01*
Y204380D01*
Y204293D01*
Y204207D01*
Y204119D01*
Y204033D01*
Y203946D01*
Y203859D01*
Y203772D01*
Y203685D01*
Y203598D01*
Y203511D01*
Y203424D01*
Y203337D01*
Y203250D01*
Y203163D01*
Y203076D01*
Y202989D01*
Y202902D01*
Y202815D01*
Y202728D01*
Y202641D01*
Y202554D01*
Y202467D01*
Y202381D01*
Y202293D01*
Y202207D01*
Y202120D01*
Y202033D01*
Y201946D01*
Y201859D01*
Y201772D01*
Y201685D01*
Y201598D01*
Y201511D01*
Y201424D01*
Y201337D01*
Y201250D01*
Y201163D01*
Y201076D01*
Y200989D01*
Y200902D01*
Y200815D01*
Y200728D01*
Y200641D01*
Y200555D01*
Y200467D01*
Y200381D01*
Y200294D01*
Y200207D01*
Y200120D01*
Y200033D01*
Y199946D01*
Y199859D01*
Y199772D01*
Y199685D01*
Y199598D01*
Y199511D01*
Y199424D01*
Y199337D01*
Y199250D01*
Y199163D01*
Y199076D01*
Y198989D01*
Y198902D01*
Y198815D01*
Y198729D01*
Y198642D01*
Y198555D01*
Y198468D01*
Y198381D01*
Y198294D01*
Y198207D01*
Y198120D01*
Y198033D01*
Y197946D01*
Y197859D01*
Y197772D01*
Y197685D01*
Y197598D01*
Y197511D01*
Y197424D01*
Y197337D01*
Y197250D01*
Y197163D01*
Y197076D01*
Y196989D01*
Y196903D01*
Y196816D01*
Y196729D01*
Y196642D01*
Y196555D01*
Y196468D01*
Y196381D01*
Y196294D01*
Y196207D01*
Y196120D01*
Y196033D01*
Y195946D01*
Y195859D01*
Y195772D01*
Y195685D01*
Y195598D01*
Y195511D01*
Y195424D01*
Y195337D01*
Y195250D01*
Y195163D01*
Y195077D01*
Y194990D01*
Y194903D01*
Y194816D01*
Y194729D01*
Y194642D01*
Y194555D01*
Y194468D01*
Y194381D01*
Y194294D01*
Y194207D01*
Y194120D01*
Y194033D01*
Y193946D01*
Y193859D01*
Y193772D01*
Y193685D01*
Y193598D01*
Y193511D01*
Y193424D01*
Y193337D01*
Y193251D01*
Y193164D01*
Y193077D01*
Y192990D01*
Y192903D01*
Y192816D01*
Y192729D01*
Y192642D01*
Y192555D01*
Y192468D01*
Y192381D01*
Y192294D01*
Y192207D01*
Y192120D01*
Y192033D01*
Y191946D01*
Y191859D01*
Y191772D01*
Y191685D01*
Y191598D01*
Y191511D01*
Y191425D01*
Y191338D01*
Y191251D01*
Y191164D01*
Y191077D01*
Y190990D01*
Y190903D01*
Y190816D01*
Y190729D01*
Y190642D01*
Y190555D01*
Y190468D01*
Y190381D01*
Y190294D01*
Y190207D01*
Y190120D01*
Y190033D01*
Y189946D01*
Y189859D01*
Y189772D01*
Y189685D01*
Y189599D01*
Y189512D01*
Y189425D01*
Y189338D01*
Y189251D01*
Y189164D01*
Y189077D01*
Y188990D01*
Y188903D01*
Y188816D01*
Y188729D01*
Y188642D01*
Y188555D01*
Y188468D01*
Y188381D01*
Y188294D01*
Y188207D01*
Y188120D01*
Y188034D01*
Y187946D01*
Y187859D01*
Y187773D01*
Y187686D01*
Y187599D01*
Y187512D01*
Y187425D01*
Y187338D01*
Y187251D01*
Y187164D01*
Y187077D01*
Y186990D01*
Y186903D01*
Y186816D01*
Y186729D01*
Y186642D01*
Y186555D01*
Y186468D01*
Y186381D01*
Y186294D01*
Y186208D01*
Y186120D01*
Y186034D01*
Y185947D01*
Y185860D01*
Y185773D01*
Y185686D01*
Y185599D01*
Y185512D01*
Y185425D01*
Y185338D01*
Y185251D01*
Y185164D01*
Y185077D01*
Y184990D01*
Y184903D01*
Y184816D01*
Y184729D01*
Y184642D01*
Y184555D01*
Y184468D01*
Y184382D01*
Y184294D01*
Y184208D01*
Y184121D01*
Y184034D01*
Y183947D01*
Y183860D01*
Y183773D01*
Y183686D01*
Y183599D01*
Y183512D01*
Y183425D01*
Y183338D01*
Y183251D01*
Y183164D01*
Y183077D01*
Y182990D01*
Y182903D01*
Y182816D01*
Y182729D01*
Y182642D01*
Y182556D01*
Y182468D01*
Y182382D01*
Y182295D01*
X776806D01*
Y182382D01*
Y182468D01*
Y182556D01*
Y182642D01*
Y182729D01*
Y182816D01*
Y182903D01*
Y182990D01*
Y183077D01*
Y183164D01*
Y183251D01*
Y183338D01*
Y183425D01*
Y183512D01*
Y183599D01*
Y183686D01*
Y183773D01*
Y183860D01*
Y183947D01*
Y184034D01*
Y184121D01*
Y184208D01*
Y184294D01*
Y184382D01*
Y184468D01*
Y184555D01*
Y184642D01*
Y184729D01*
Y184816D01*
Y184903D01*
Y184990D01*
Y185077D01*
Y185164D01*
Y185251D01*
Y185338D01*
Y185425D01*
Y185512D01*
Y185599D01*
Y185686D01*
Y185773D01*
Y185860D01*
Y185947D01*
Y186034D01*
Y186120D01*
Y186208D01*
Y186294D01*
Y186381D01*
Y186468D01*
Y186555D01*
Y186642D01*
Y186729D01*
Y186816D01*
Y186903D01*
Y186990D01*
Y187077D01*
Y187164D01*
Y187251D01*
Y187338D01*
Y187425D01*
Y187512D01*
Y187599D01*
Y187686D01*
Y187773D01*
Y187859D01*
Y187946D01*
Y188034D01*
Y188120D01*
Y188207D01*
Y188294D01*
Y188381D01*
Y188468D01*
Y188555D01*
Y188642D01*
Y188729D01*
Y188816D01*
Y188903D01*
Y188990D01*
Y189077D01*
Y189164D01*
Y189251D01*
Y189338D01*
Y189425D01*
Y189512D01*
Y189599D01*
Y189685D01*
Y189772D01*
Y189859D01*
Y189946D01*
Y190033D01*
Y190120D01*
Y190207D01*
Y190294D01*
Y190381D01*
Y190468D01*
Y190555D01*
Y190642D01*
Y190729D01*
Y190816D01*
Y190903D01*
Y190990D01*
Y191077D01*
Y191164D01*
Y191251D01*
Y191338D01*
Y191425D01*
Y191511D01*
Y191598D01*
Y191685D01*
Y191772D01*
Y191859D01*
Y191946D01*
Y192033D01*
Y192120D01*
Y192207D01*
Y192294D01*
Y192381D01*
Y192468D01*
Y192555D01*
Y192642D01*
Y192729D01*
Y192816D01*
Y192903D01*
Y192990D01*
Y193077D01*
Y193164D01*
Y193251D01*
Y193337D01*
Y193424D01*
Y193511D01*
Y193598D01*
Y193685D01*
Y193772D01*
Y193859D01*
Y193946D01*
Y194033D01*
Y194120D01*
Y194207D01*
Y194294D01*
Y194381D01*
Y194468D01*
Y194555D01*
Y194642D01*
Y194729D01*
Y194816D01*
Y194903D01*
Y194990D01*
Y195077D01*
Y195163D01*
Y195250D01*
Y195337D01*
Y195424D01*
Y195511D01*
Y195598D01*
Y195685D01*
Y195772D01*
Y195859D01*
Y195946D01*
Y196033D01*
Y196120D01*
Y196207D01*
Y196294D01*
Y196381D01*
Y196468D01*
Y196555D01*
Y196642D01*
Y196729D01*
Y196816D01*
Y196903D01*
Y196989D01*
Y197076D01*
Y197163D01*
Y197250D01*
Y197337D01*
Y197424D01*
Y197511D01*
Y197598D01*
Y197685D01*
Y197772D01*
Y197859D01*
Y197946D01*
Y198033D01*
Y198120D01*
Y198207D01*
Y198294D01*
Y198381D01*
Y198468D01*
Y198555D01*
Y198642D01*
Y198729D01*
Y198815D01*
Y198902D01*
Y198989D01*
Y199076D01*
Y199163D01*
Y199250D01*
Y199337D01*
Y199424D01*
Y199511D01*
Y199598D01*
Y199685D01*
Y199772D01*
Y199859D01*
Y199946D01*
Y200033D01*
Y200120D01*
Y200207D01*
Y200294D01*
Y200381D01*
Y200467D01*
Y200555D01*
Y200641D01*
Y200728D01*
Y200815D01*
Y200902D01*
Y200989D01*
Y201076D01*
Y201163D01*
Y201250D01*
Y201337D01*
Y201424D01*
Y201511D01*
Y201598D01*
Y201685D01*
Y201772D01*
Y201859D01*
Y201946D01*
Y202033D01*
Y202120D01*
Y202207D01*
Y202293D01*
Y202381D01*
Y202467D01*
Y202554D01*
Y202641D01*
Y202728D01*
Y202815D01*
Y202902D01*
Y202989D01*
Y203076D01*
Y203163D01*
Y203250D01*
X762546D01*
Y203337D01*
X761590D01*
Y203424D01*
X760894D01*
Y203511D01*
X760372D01*
Y203598D01*
X759851D01*
Y203685D01*
X759416D01*
Y203772D01*
X758981D01*
Y203859D01*
X758633D01*
Y203946D01*
X758286D01*
Y204033D01*
X758025D01*
Y204119D01*
X757764D01*
Y204207D01*
X757416D01*
Y204293D01*
X757155D01*
Y204380D01*
X756981D01*
Y204467D01*
X756720D01*
Y204554D01*
X756460D01*
Y204641D01*
X756286D01*
Y204728D01*
X756112D01*
Y204815D01*
X755851D01*
Y204902D01*
X755677D01*
Y204989D01*
X755503D01*
Y205076D01*
X755329D01*
Y205163D01*
X755155D01*
Y205250D01*
X754981D01*
Y205337D01*
X754808D01*
Y205424D01*
X754634D01*
Y205511D01*
X754460D01*
Y205598D01*
X754286D01*
Y205685D01*
X754112D01*
Y205772D01*
X754025D01*
Y205858D01*
X753851D01*
Y205945D01*
X753677D01*
Y206033D01*
X753590D01*
Y206119D01*
X753416D01*
Y206206D01*
X753329D01*
Y206293D01*
X753155D01*
Y206380D01*
X753068D01*
Y206467D01*
X752895D01*
Y206554D01*
X752808D01*
Y206641D01*
X752634D01*
Y206728D01*
X752547D01*
Y206815D01*
X752460D01*
Y206902D01*
X752373D01*
Y206989D01*
X752199D01*
Y207076D01*
X752112D01*
Y207163D01*
X752025D01*
Y207250D01*
X751938D01*
Y207337D01*
X751851D01*
Y207424D01*
X751677D01*
Y207511D01*
X751590D01*
Y207598D01*
X751503D01*
Y207684D01*
X751416D01*
Y207771D01*
X751329D01*
Y207858D01*
X751243D01*
Y207945D01*
X751155D01*
Y208032D01*
X751069D01*
Y208119D01*
X750982D01*
Y208206D01*
X750895D01*
Y208293D01*
X750808D01*
Y208380D01*
X750721D01*
Y208467D01*
Y208554D01*
X750634D01*
Y208641D01*
X750547D01*
Y208728D01*
X750460D01*
Y208815D01*
X750373D01*
Y208902D01*
X750286D01*
Y208989D01*
X750199D01*
Y209076D01*
Y209163D01*
X750112D01*
Y209250D01*
X750025D01*
Y209337D01*
X749938D01*
Y209424D01*
Y209510D01*
X749851D01*
Y209597D01*
X749764D01*
Y209684D01*
Y209771D01*
X749677D01*
Y209858D01*
X749590D01*
Y209945D01*
X749503D01*
Y210032D01*
Y210119D01*
X749417D01*
Y210206D01*
Y210293D01*
X749330D01*
Y210380D01*
X749243D01*
Y210467D01*
Y210554D01*
X749156D01*
Y210641D01*
Y210728D01*
X749069D01*
Y210815D01*
X748982D01*
Y210902D01*
Y210989D01*
X748895D01*
Y211076D01*
Y211163D01*
X748808D01*
Y211250D01*
Y211336D01*
X748721D01*
Y211423D01*
Y211510D01*
X748634D01*
Y211597D01*
Y211684D01*
X748547D01*
Y211771D01*
Y211858D01*
X748460D01*
Y211945D01*
Y212032D01*
Y212119D01*
X748373D01*
Y212206D01*
Y212293D01*
X748286D01*
Y212380D01*
Y212467D01*
Y212554D01*
X748199D01*
Y212641D01*
Y212728D01*
Y212815D01*
X748112D01*
Y212902D01*
Y212989D01*
X748025D01*
Y213076D01*
Y213162D01*
Y213249D01*
X747938D01*
Y213336D01*
Y213423D01*
Y213510D01*
Y213597D01*
X747851D01*
Y213684D01*
Y213771D01*
Y213858D01*
X747764D01*
Y213945D01*
Y214032D01*
Y214119D01*
Y214206D01*
X747677D01*
Y214293D01*
Y214380D01*
Y214467D01*
Y214554D01*
X747590D01*
Y214641D01*
Y214728D01*
Y214815D01*
Y214902D01*
X747504D01*
Y214988D01*
Y215075D01*
Y215162D01*
Y215249D01*
Y215336D01*
X747417D01*
Y215423D01*
Y215510D01*
Y215597D01*
Y215684D01*
Y215771D01*
Y215858D01*
X747330D01*
Y215945D01*
Y216032D01*
Y216119D01*
Y216206D01*
Y216293D01*
Y216380D01*
Y216467D01*
X747243D01*
Y216554D01*
Y216641D01*
Y216728D01*
Y216814D01*
Y216901D01*
Y216988D01*
Y217075D01*
Y217162D01*
Y217249D01*
Y217336D01*
Y217423D01*
Y217510D01*
X747156D01*
Y217597D01*
Y217684D01*
Y217771D01*
Y217858D01*
Y217945D01*
Y218032D01*
Y218119D01*
Y218206D01*
Y218293D01*
Y218380D01*
Y218466D01*
Y218554D01*
Y218640D01*
Y218727D01*
Y218814D01*
Y218901D01*
Y218988D01*
Y219075D01*
Y219162D01*
Y219249D01*
Y219336D01*
X747243D01*
Y219423D01*
Y219510D01*
Y219597D01*
Y219684D01*
Y219771D01*
Y219858D01*
Y219945D01*
Y220032D01*
Y220119D01*
Y220206D01*
Y220292D01*
Y220380D01*
X747330D01*
Y220466D01*
Y220553D01*
Y220640D01*
Y220727D01*
Y220814D01*
Y220901D01*
Y220988D01*
X747417D01*
Y221075D01*
Y221162D01*
Y221249D01*
Y221336D01*
Y221423D01*
Y221510D01*
X747504D01*
Y221597D01*
Y221684D01*
Y221771D01*
Y221858D01*
Y221945D01*
X747590D01*
Y222032D01*
Y222118D01*
Y222205D01*
Y222292D01*
X747677D01*
Y222379D01*
Y222466D01*
Y222553D01*
Y222640D01*
X747764D01*
Y222727D01*
Y222814D01*
Y222901D01*
Y222988D01*
X747851D01*
Y223075D01*
Y223162D01*
Y223249D01*
X747938D01*
Y223336D01*
Y223423D01*
Y223510D01*
X748025D01*
Y223597D01*
Y223684D01*
Y223771D01*
X748112D01*
Y223858D01*
Y223944D01*
Y224032D01*
X748199D01*
Y224118D01*
Y224205D01*
Y224292D01*
X748286D01*
Y224379D01*
Y224466D01*
Y224553D01*
X748373D01*
Y224640D01*
Y224727D01*
X748460D01*
Y224814D01*
Y224901D01*
X748547D01*
Y224988D01*
Y225075D01*
X748634D01*
Y225162D01*
Y225249D01*
Y225336D01*
X748721D01*
Y225423D01*
Y225510D01*
X748808D01*
Y225597D01*
Y225683D01*
X748895D01*
Y225770D01*
X748982D01*
Y225857D01*
Y225944D01*
X749069D01*
Y226031D01*
Y226118D01*
X749156D01*
Y226205D01*
Y226292D01*
X749243D01*
Y226379D01*
X749330D01*
Y226466D01*
Y226553D01*
X749417D01*
Y226640D01*
X749503D01*
Y226727D01*
Y226814D01*
X749590D01*
Y226901D01*
X749677D01*
Y226988D01*
Y227075D01*
X749764D01*
Y227162D01*
X749851D01*
Y227249D01*
Y227336D01*
X749938D01*
Y227423D01*
X750025D01*
Y227509D01*
X750112D01*
Y227596D01*
Y227683D01*
X750199D01*
Y227770D01*
X750286D01*
Y227857D01*
X750373D01*
Y227944D01*
X750460D01*
Y228031D01*
Y228118D01*
X750547D01*
Y228205D01*
X750634D01*
Y228292D01*
X750721D01*
Y228379D01*
X750808D01*
Y228466D01*
X750895D01*
Y228553D01*
X750982D01*
Y228640D01*
X751069D01*
Y228727D01*
X751155D01*
Y228814D01*
X751243D01*
Y228901D01*
X751329D01*
Y228988D01*
X751416D01*
Y229075D01*
X751503D01*
Y229162D01*
X751590D01*
Y229249D01*
X751677D01*
Y229335D01*
X751764D01*
Y229422D01*
X751851D01*
Y229509D01*
X751938D01*
Y229596D01*
X752112D01*
Y229683D01*
X752199D01*
Y229770D01*
X752286D01*
Y229857D01*
X752373D01*
Y229944D01*
X752547D01*
Y230031D01*
X752634D01*
Y230118D01*
X752721D01*
Y230205D01*
X752895D01*
Y230292D01*
X752981D01*
Y230379D01*
X753155D01*
Y230466D01*
X753242D01*
Y230553D01*
X753416D01*
Y230640D01*
X753503D01*
Y230727D01*
X753677D01*
Y230814D01*
X753764D01*
Y230901D01*
X753938D01*
Y230988D01*
X754112D01*
Y231075D01*
X754199D01*
Y231161D01*
X754373D01*
Y231248D01*
X754547D01*
Y231335D01*
X754721D01*
Y231422D01*
X754894D01*
Y231509D01*
X755068D01*
Y231596D01*
X755242D01*
Y231683D01*
X755416D01*
Y231770D01*
X755590D01*
Y231857D01*
X755764D01*
Y231944D01*
X756025D01*
Y232031D01*
X756199D01*
Y232118D01*
X756373D01*
Y232205D01*
X756634D01*
Y232292D01*
X756894D01*
Y232379D01*
X757068D01*
Y232466D01*
X757329D01*
Y232553D01*
X757590D01*
Y232640D01*
X757938D01*
Y232727D01*
X758199D01*
Y232814D01*
X758546D01*
Y232901D01*
X758894D01*
Y232987D01*
X759242D01*
Y233074D01*
X759677D01*
Y233161D01*
X760111D01*
Y233248D01*
X760720D01*
Y233335D01*
X761329D01*
Y233422D01*
X762111D01*
Y233509D01*
X763416D01*
Y233596D01*
X787849D01*
Y233509D01*
D02*
G37*
G36*
X740113Y203076D02*
Y202989D01*
Y202902D01*
Y202815D01*
Y202728D01*
Y202641D01*
Y202554D01*
Y202467D01*
Y202381D01*
Y202293D01*
Y202207D01*
Y202120D01*
Y202033D01*
Y201946D01*
Y201859D01*
Y201772D01*
Y201685D01*
Y201598D01*
Y201511D01*
Y201424D01*
Y201337D01*
Y201250D01*
Y201163D01*
Y201076D01*
Y200989D01*
Y200902D01*
Y200815D01*
Y200728D01*
Y200641D01*
Y200555D01*
Y200467D01*
Y200381D01*
Y200294D01*
Y200207D01*
Y200120D01*
Y200033D01*
Y199946D01*
Y199859D01*
Y199772D01*
Y199685D01*
Y199598D01*
Y199511D01*
Y199424D01*
Y199337D01*
Y199250D01*
Y199163D01*
Y199076D01*
Y198989D01*
Y198902D01*
Y198815D01*
Y198729D01*
Y198642D01*
Y198555D01*
Y198468D01*
Y198381D01*
Y198294D01*
Y198207D01*
Y198120D01*
Y198033D01*
Y197946D01*
Y197859D01*
Y197772D01*
Y197685D01*
Y197598D01*
Y197511D01*
Y197424D01*
Y197337D01*
Y197250D01*
Y197163D01*
Y197076D01*
Y196989D01*
Y196903D01*
Y196816D01*
Y196729D01*
Y196642D01*
Y196555D01*
Y196468D01*
Y196381D01*
Y196294D01*
Y196207D01*
Y196120D01*
Y196033D01*
Y195946D01*
Y195859D01*
Y195772D01*
Y195685D01*
Y195598D01*
Y195511D01*
Y195424D01*
Y195337D01*
Y195250D01*
Y195163D01*
Y195077D01*
Y194990D01*
Y194903D01*
Y194816D01*
Y194729D01*
Y194642D01*
Y194555D01*
Y194468D01*
Y194381D01*
Y194294D01*
Y194207D01*
Y194120D01*
Y194033D01*
Y193946D01*
Y193859D01*
Y193772D01*
Y193685D01*
Y193598D01*
Y193511D01*
Y193424D01*
Y193337D01*
Y193251D01*
Y193164D01*
Y193077D01*
Y192990D01*
Y192903D01*
Y192816D01*
Y192729D01*
Y192642D01*
Y192555D01*
Y192468D01*
Y192381D01*
Y192294D01*
Y192207D01*
Y192120D01*
Y192033D01*
Y191946D01*
Y191859D01*
Y191772D01*
Y191685D01*
Y191598D01*
Y191511D01*
Y191425D01*
Y191338D01*
Y191251D01*
Y191164D01*
Y191077D01*
Y190990D01*
Y190903D01*
Y190816D01*
Y190729D01*
Y190642D01*
Y190555D01*
Y190468D01*
Y190381D01*
Y190294D01*
Y190207D01*
Y190120D01*
Y190033D01*
Y189946D01*
Y189859D01*
Y189772D01*
Y189685D01*
Y189599D01*
Y189512D01*
Y189425D01*
Y189338D01*
Y189251D01*
Y189164D01*
Y189077D01*
Y188990D01*
Y188903D01*
Y188816D01*
Y188729D01*
Y188642D01*
Y188555D01*
Y188468D01*
Y188381D01*
Y188294D01*
Y188207D01*
Y188120D01*
Y188034D01*
Y187946D01*
Y187859D01*
Y187773D01*
Y187686D01*
Y187599D01*
Y187512D01*
Y187425D01*
Y187338D01*
Y187251D01*
Y187164D01*
Y187077D01*
Y186990D01*
Y186903D01*
Y186816D01*
Y186729D01*
Y186642D01*
Y186555D01*
Y186468D01*
Y186381D01*
Y186294D01*
Y186208D01*
Y186120D01*
Y186034D01*
Y185947D01*
Y185860D01*
Y185773D01*
Y185686D01*
Y185599D01*
Y185512D01*
Y185425D01*
Y185338D01*
Y185251D01*
Y185164D01*
Y185077D01*
Y184990D01*
Y184903D01*
Y184816D01*
Y184729D01*
Y184642D01*
Y184555D01*
Y184468D01*
Y184382D01*
Y184294D01*
Y184208D01*
Y184121D01*
Y184034D01*
Y183947D01*
Y183860D01*
Y183773D01*
Y183686D01*
Y183599D01*
Y183512D01*
Y183425D01*
Y183338D01*
Y183251D01*
Y183164D01*
Y183077D01*
Y182990D01*
Y182903D01*
Y182816D01*
Y182729D01*
Y182642D01*
Y182556D01*
Y182468D01*
Y182382D01*
Y182295D01*
X729070D01*
Y182382D01*
Y182468D01*
Y182556D01*
Y182642D01*
Y182729D01*
Y182816D01*
Y182903D01*
Y182990D01*
Y183077D01*
Y183164D01*
Y183251D01*
Y183338D01*
Y183425D01*
Y183512D01*
Y183599D01*
Y183686D01*
Y183773D01*
Y183860D01*
Y183947D01*
Y184034D01*
Y184121D01*
Y184208D01*
Y184294D01*
Y184382D01*
Y184468D01*
Y184555D01*
Y184642D01*
Y184729D01*
Y184816D01*
Y184903D01*
Y184990D01*
Y185077D01*
Y185164D01*
Y185251D01*
Y185338D01*
Y185425D01*
Y185512D01*
Y185599D01*
Y185686D01*
Y185773D01*
Y185860D01*
Y185947D01*
Y186034D01*
Y186120D01*
Y186208D01*
Y186294D01*
Y186381D01*
Y186468D01*
Y186555D01*
Y186642D01*
Y186729D01*
Y186816D01*
Y186903D01*
Y186990D01*
Y187077D01*
Y187164D01*
Y187251D01*
Y187338D01*
Y187425D01*
Y187512D01*
Y187599D01*
Y187686D01*
Y187773D01*
Y187859D01*
Y187946D01*
Y188034D01*
Y188120D01*
Y188207D01*
Y188294D01*
Y188381D01*
Y188468D01*
Y188555D01*
Y188642D01*
Y188729D01*
Y188816D01*
Y188903D01*
Y188990D01*
Y189077D01*
Y189164D01*
Y189251D01*
Y189338D01*
Y189425D01*
Y189512D01*
Y189599D01*
Y189685D01*
Y189772D01*
Y189859D01*
Y189946D01*
Y190033D01*
Y190120D01*
Y190207D01*
Y190294D01*
Y190381D01*
Y190468D01*
Y190555D01*
Y190642D01*
Y190729D01*
Y190816D01*
Y190903D01*
Y190990D01*
Y191077D01*
Y191164D01*
Y191251D01*
Y191338D01*
Y191425D01*
Y191511D01*
Y191598D01*
Y191685D01*
Y191772D01*
Y191859D01*
Y191946D01*
Y192033D01*
Y192120D01*
Y192207D01*
Y192294D01*
Y192381D01*
Y192468D01*
Y192555D01*
Y192642D01*
Y192729D01*
Y192816D01*
Y192903D01*
Y192990D01*
Y193077D01*
Y193164D01*
Y193251D01*
Y193337D01*
Y193424D01*
Y193511D01*
Y193598D01*
Y193685D01*
Y193772D01*
Y193859D01*
Y193946D01*
Y194033D01*
Y194120D01*
Y194207D01*
Y194294D01*
Y194381D01*
Y194468D01*
Y194555D01*
Y194642D01*
Y194729D01*
Y194816D01*
Y194903D01*
Y194990D01*
Y195077D01*
Y195163D01*
Y195250D01*
Y195337D01*
Y195424D01*
Y195511D01*
Y195598D01*
Y195685D01*
Y195772D01*
Y195859D01*
Y195946D01*
Y196033D01*
Y196120D01*
Y196207D01*
Y196294D01*
Y196381D01*
Y196468D01*
Y196555D01*
Y196642D01*
Y196729D01*
Y196816D01*
Y196903D01*
Y196989D01*
Y197076D01*
Y197163D01*
Y197250D01*
Y197337D01*
Y197424D01*
Y197511D01*
Y197598D01*
Y197685D01*
Y197772D01*
Y197859D01*
Y197946D01*
Y198033D01*
Y198120D01*
Y198207D01*
Y198294D01*
Y198381D01*
Y198468D01*
Y198555D01*
Y198642D01*
Y198729D01*
Y198815D01*
Y198902D01*
Y198989D01*
Y199076D01*
Y199163D01*
Y199250D01*
Y199337D01*
Y199424D01*
Y199511D01*
Y199598D01*
Y199685D01*
Y199772D01*
Y199859D01*
Y199946D01*
Y200033D01*
Y200120D01*
Y200207D01*
Y200294D01*
Y200381D01*
Y200467D01*
Y200555D01*
Y200641D01*
Y200728D01*
Y200815D01*
Y200902D01*
Y200989D01*
Y201076D01*
Y201163D01*
Y201250D01*
Y201337D01*
Y201424D01*
Y201511D01*
Y201598D01*
Y201685D01*
Y201772D01*
Y201859D01*
Y201946D01*
Y202033D01*
Y202120D01*
Y202207D01*
Y202293D01*
Y202381D01*
Y202467D01*
Y202554D01*
Y202641D01*
Y202728D01*
Y202815D01*
Y202902D01*
Y202989D01*
Y203076D01*
Y203163D01*
X740113D01*
Y203076D01*
D02*
G37*
G36*
X694898Y233509D02*
Y233422D01*
Y233335D01*
Y233248D01*
Y233161D01*
Y233074D01*
Y232987D01*
Y232901D01*
Y232814D01*
Y232727D01*
Y232640D01*
Y232553D01*
Y232466D01*
Y232379D01*
Y232292D01*
Y232205D01*
Y232118D01*
Y232031D01*
Y231944D01*
Y231857D01*
Y231770D01*
Y231683D01*
Y231596D01*
Y231509D01*
Y231422D01*
Y231335D01*
Y231248D01*
Y231161D01*
Y231075D01*
Y230988D01*
Y230901D01*
Y230814D01*
Y230727D01*
Y230640D01*
Y230553D01*
Y230466D01*
Y230379D01*
Y230292D01*
Y230205D01*
Y230118D01*
Y230031D01*
Y229944D01*
Y229857D01*
Y229770D01*
Y229683D01*
Y229596D01*
Y229509D01*
Y229422D01*
Y229335D01*
Y229249D01*
Y229162D01*
Y229075D01*
Y228988D01*
Y228901D01*
Y228814D01*
Y228727D01*
Y228640D01*
Y228553D01*
Y228466D01*
Y228379D01*
Y228292D01*
Y228205D01*
Y228118D01*
Y228031D01*
Y227944D01*
Y227857D01*
Y227770D01*
Y227683D01*
Y227596D01*
Y227509D01*
Y227423D01*
Y227336D01*
Y227249D01*
Y227162D01*
Y227075D01*
Y226988D01*
Y226901D01*
Y226814D01*
Y226727D01*
Y226640D01*
Y226553D01*
Y226466D01*
Y226379D01*
Y226292D01*
Y226205D01*
Y226118D01*
Y226031D01*
Y225944D01*
Y225857D01*
Y225770D01*
Y225683D01*
Y225597D01*
Y225510D01*
Y225423D01*
Y225336D01*
Y225249D01*
Y225162D01*
Y225075D01*
Y224988D01*
Y224901D01*
Y224814D01*
Y224727D01*
Y224640D01*
Y224553D01*
Y224466D01*
Y224379D01*
Y224292D01*
Y224205D01*
Y224118D01*
Y224032D01*
Y223944D01*
Y223858D01*
Y223771D01*
Y223684D01*
Y223597D01*
Y223510D01*
Y223423D01*
Y223336D01*
Y223249D01*
Y223162D01*
Y223075D01*
Y222988D01*
Y222901D01*
Y222814D01*
Y222727D01*
Y222640D01*
Y222553D01*
Y222466D01*
Y222379D01*
Y222292D01*
Y222205D01*
Y222118D01*
Y222032D01*
Y221945D01*
Y221858D01*
Y221771D01*
Y221684D01*
Y221597D01*
Y221510D01*
Y221423D01*
Y221336D01*
Y221249D01*
Y221162D01*
Y221075D01*
Y220988D01*
Y220901D01*
Y220814D01*
Y220727D01*
Y220640D01*
Y220553D01*
Y220466D01*
Y220380D01*
Y220292D01*
Y220206D01*
Y220119D01*
Y220032D01*
Y219945D01*
Y219858D01*
Y219771D01*
Y219684D01*
Y219597D01*
Y219510D01*
Y219423D01*
Y219336D01*
Y219249D01*
Y219162D01*
Y219075D01*
Y218988D01*
Y218901D01*
Y218814D01*
Y218727D01*
Y218640D01*
Y218554D01*
Y218466D01*
Y218380D01*
Y218293D01*
Y218206D01*
Y218119D01*
Y218032D01*
Y217945D01*
Y217858D01*
Y217771D01*
Y217684D01*
Y217597D01*
Y217510D01*
Y217423D01*
Y217336D01*
Y217249D01*
Y217162D01*
Y217075D01*
Y216988D01*
Y216901D01*
Y216814D01*
Y216728D01*
Y216641D01*
Y216554D01*
Y216467D01*
Y216380D01*
Y216293D01*
Y216206D01*
Y216119D01*
Y216032D01*
Y215945D01*
Y215858D01*
Y215771D01*
Y215684D01*
Y215597D01*
Y215510D01*
Y215423D01*
Y215336D01*
Y215249D01*
Y215162D01*
Y215075D01*
Y214988D01*
Y214902D01*
Y214815D01*
Y214728D01*
Y214641D01*
Y214554D01*
Y214467D01*
Y214380D01*
Y214293D01*
Y214206D01*
Y214119D01*
Y214032D01*
Y213945D01*
Y213858D01*
Y213771D01*
Y213684D01*
Y213597D01*
Y213510D01*
Y213423D01*
Y213336D01*
Y213249D01*
Y213162D01*
Y213076D01*
Y212989D01*
Y212902D01*
Y212815D01*
Y212728D01*
Y212641D01*
Y212554D01*
Y212467D01*
Y212380D01*
Y212293D01*
Y212206D01*
Y212119D01*
Y212032D01*
Y211945D01*
Y211858D01*
Y211771D01*
Y211684D01*
Y211597D01*
Y211510D01*
Y211423D01*
Y211336D01*
Y211250D01*
Y211163D01*
Y211076D01*
Y210989D01*
Y210902D01*
Y210815D01*
Y210728D01*
Y210641D01*
Y210554D01*
Y210467D01*
Y210380D01*
Y210293D01*
Y210206D01*
Y210119D01*
Y210032D01*
Y209945D01*
Y209858D01*
Y209771D01*
Y209684D01*
Y209597D01*
Y209510D01*
Y209424D01*
Y209337D01*
Y209250D01*
Y209163D01*
Y209076D01*
Y208989D01*
Y208902D01*
Y208815D01*
Y208728D01*
Y208641D01*
Y208554D01*
Y208467D01*
Y208380D01*
Y208293D01*
Y208206D01*
Y208119D01*
Y208032D01*
Y207945D01*
Y207858D01*
Y207771D01*
Y207684D01*
Y207598D01*
Y207511D01*
Y207424D01*
Y207337D01*
Y207250D01*
Y207163D01*
Y207076D01*
Y206989D01*
Y206902D01*
Y206815D01*
Y206728D01*
Y206641D01*
Y206554D01*
Y206467D01*
Y206380D01*
Y206293D01*
Y206206D01*
Y206119D01*
Y206033D01*
Y205945D01*
Y205858D01*
Y205772D01*
Y205685D01*
Y205598D01*
Y205511D01*
Y205424D01*
Y205337D01*
Y205250D01*
Y205163D01*
Y205076D01*
Y204989D01*
Y204902D01*
Y204815D01*
Y204728D01*
Y204641D01*
Y204554D01*
Y204467D01*
Y204380D01*
Y204293D01*
Y204207D01*
Y204119D01*
Y204033D01*
Y203946D01*
Y203859D01*
Y203772D01*
Y203685D01*
Y203598D01*
Y203511D01*
Y203424D01*
Y203337D01*
Y203250D01*
Y203163D01*
Y203076D01*
Y202989D01*
Y202902D01*
Y202815D01*
Y202728D01*
Y202641D01*
Y202554D01*
Y202467D01*
Y202381D01*
Y202293D01*
Y202207D01*
Y202120D01*
Y202033D01*
Y201946D01*
Y201859D01*
Y201772D01*
Y201685D01*
Y201598D01*
Y201511D01*
Y201424D01*
Y201337D01*
Y201250D01*
Y201163D01*
Y201076D01*
Y200989D01*
Y200902D01*
Y200815D01*
Y200728D01*
Y200641D01*
Y200555D01*
Y200467D01*
Y200381D01*
Y200294D01*
Y200207D01*
Y200120D01*
Y200033D01*
Y199946D01*
Y199859D01*
Y199772D01*
Y199685D01*
Y199598D01*
Y199511D01*
Y199424D01*
Y199337D01*
Y199250D01*
Y199163D01*
Y199076D01*
Y198989D01*
Y198902D01*
Y198815D01*
Y198729D01*
Y198642D01*
Y198555D01*
Y198468D01*
Y198381D01*
Y198294D01*
Y198207D01*
Y198120D01*
Y198033D01*
Y197946D01*
Y197859D01*
Y197772D01*
Y197685D01*
Y197598D01*
Y197511D01*
Y197424D01*
Y197337D01*
Y197250D01*
Y197163D01*
Y197076D01*
Y196989D01*
Y196903D01*
Y196816D01*
Y196729D01*
Y196642D01*
Y196555D01*
Y196468D01*
Y196381D01*
Y196294D01*
Y196207D01*
Y196120D01*
Y196033D01*
Y195946D01*
Y195859D01*
Y195772D01*
Y195685D01*
Y195598D01*
Y195511D01*
Y195424D01*
Y195337D01*
Y195250D01*
Y195163D01*
Y195077D01*
Y194990D01*
Y194903D01*
Y194816D01*
Y194729D01*
Y194642D01*
Y194555D01*
Y194468D01*
Y194381D01*
Y194294D01*
Y194207D01*
Y194120D01*
Y194033D01*
Y193946D01*
Y193859D01*
Y193772D01*
Y193685D01*
Y193598D01*
Y193511D01*
Y193424D01*
Y193337D01*
Y193251D01*
Y193164D01*
Y193077D01*
Y192990D01*
Y192903D01*
Y192816D01*
Y192729D01*
Y192642D01*
Y192555D01*
Y192468D01*
Y192381D01*
Y192294D01*
Y192207D01*
Y192120D01*
Y192033D01*
Y191946D01*
Y191859D01*
Y191772D01*
Y191685D01*
Y191598D01*
Y191511D01*
Y191425D01*
Y191338D01*
Y191251D01*
Y191164D01*
Y191077D01*
Y190990D01*
Y190903D01*
Y190816D01*
Y190729D01*
Y190642D01*
Y190555D01*
Y190468D01*
Y190381D01*
Y190294D01*
Y190207D01*
Y190120D01*
Y190033D01*
Y189946D01*
Y189859D01*
Y189772D01*
Y189685D01*
Y189599D01*
Y189512D01*
Y189425D01*
Y189338D01*
Y189251D01*
Y189164D01*
Y189077D01*
Y188990D01*
Y188903D01*
Y188816D01*
Y188729D01*
Y188642D01*
Y188555D01*
Y188468D01*
Y188381D01*
Y188294D01*
Y188207D01*
Y188120D01*
Y188034D01*
Y187946D01*
Y187859D01*
Y187773D01*
Y187686D01*
Y187599D01*
Y187512D01*
Y187425D01*
Y187338D01*
Y187251D01*
Y187164D01*
Y187077D01*
Y186990D01*
Y186903D01*
Y186816D01*
Y186729D01*
Y186642D01*
Y186555D01*
Y186468D01*
Y186381D01*
Y186294D01*
Y186208D01*
Y186120D01*
Y186034D01*
Y185947D01*
Y185860D01*
Y185773D01*
Y185686D01*
Y185599D01*
Y185512D01*
Y185425D01*
Y185338D01*
Y185251D01*
Y185164D01*
Y185077D01*
Y184990D01*
Y184903D01*
Y184816D01*
Y184729D01*
Y184642D01*
Y184555D01*
Y184468D01*
Y184382D01*
Y184294D01*
Y184208D01*
Y184121D01*
Y184034D01*
Y183947D01*
Y183860D01*
Y183773D01*
Y183686D01*
Y183599D01*
Y183512D01*
Y183425D01*
Y183338D01*
Y183251D01*
Y183164D01*
Y183077D01*
Y182990D01*
Y182903D01*
Y182816D01*
Y182729D01*
Y182642D01*
Y182556D01*
Y182468D01*
Y182382D01*
Y182295D01*
X657856D01*
Y182382D01*
Y182468D01*
Y182556D01*
Y182642D01*
Y182729D01*
Y182816D01*
Y182903D01*
Y182990D01*
Y183077D01*
Y183164D01*
Y183251D01*
Y183338D01*
Y183425D01*
Y183512D01*
Y183599D01*
Y183686D01*
Y183773D01*
Y183860D01*
Y183947D01*
Y184034D01*
Y184121D01*
Y184208D01*
Y184294D01*
Y184382D01*
Y184468D01*
Y184555D01*
Y184642D01*
Y184729D01*
Y184816D01*
Y184903D01*
Y184990D01*
Y185077D01*
Y185164D01*
Y185251D01*
Y185338D01*
Y185425D01*
Y185512D01*
Y185599D01*
Y185686D01*
Y185773D01*
Y185860D01*
Y185947D01*
Y186034D01*
Y186120D01*
Y186208D01*
Y186294D01*
Y186381D01*
Y186468D01*
Y186555D01*
Y186642D01*
Y186729D01*
Y186816D01*
Y186903D01*
Y186990D01*
Y187077D01*
Y187164D01*
Y187251D01*
Y187338D01*
Y187425D01*
Y187512D01*
Y187599D01*
Y187686D01*
Y187773D01*
Y187859D01*
Y187946D01*
Y188034D01*
Y188120D01*
Y188207D01*
Y188294D01*
Y188381D01*
Y188468D01*
Y188555D01*
Y188642D01*
Y188729D01*
Y188816D01*
Y188903D01*
Y188990D01*
Y189077D01*
Y189164D01*
Y189251D01*
Y189338D01*
Y189425D01*
Y189512D01*
Y189599D01*
Y189685D01*
Y189772D01*
Y189859D01*
Y189946D01*
Y190033D01*
Y190120D01*
Y190207D01*
Y190294D01*
Y190381D01*
Y190468D01*
Y190555D01*
Y190642D01*
Y190729D01*
Y190816D01*
Y190903D01*
Y190990D01*
Y191077D01*
Y191164D01*
Y191251D01*
Y191338D01*
Y191425D01*
Y191511D01*
Y191598D01*
Y191685D01*
X683855D01*
Y191772D01*
Y191859D01*
Y191946D01*
Y192033D01*
Y192120D01*
Y192207D01*
Y192294D01*
Y192381D01*
Y192468D01*
Y192555D01*
Y192642D01*
Y192729D01*
Y192816D01*
Y192903D01*
Y192990D01*
Y193077D01*
Y193164D01*
Y193251D01*
Y193337D01*
Y193424D01*
Y193511D01*
Y193598D01*
Y193685D01*
Y193772D01*
Y193859D01*
Y193946D01*
Y194033D01*
Y194120D01*
Y194207D01*
Y194294D01*
Y194381D01*
Y194468D01*
Y194555D01*
Y194642D01*
Y194729D01*
Y194816D01*
Y194903D01*
Y194990D01*
Y195077D01*
Y195163D01*
Y195250D01*
Y195337D01*
Y195424D01*
Y195511D01*
Y195598D01*
Y195685D01*
Y195772D01*
Y195859D01*
Y195946D01*
Y196033D01*
Y196120D01*
Y196207D01*
Y196294D01*
Y196381D01*
Y196468D01*
Y196555D01*
Y196642D01*
Y196729D01*
Y196816D01*
Y196903D01*
Y196989D01*
Y197076D01*
Y197163D01*
Y197250D01*
Y197337D01*
Y197424D01*
Y197511D01*
Y197598D01*
Y197685D01*
Y197772D01*
Y197859D01*
Y197946D01*
Y198033D01*
Y198120D01*
Y198207D01*
Y198294D01*
Y198381D01*
Y198468D01*
Y198555D01*
Y198642D01*
Y198729D01*
Y198815D01*
Y198902D01*
Y198989D01*
Y199076D01*
Y199163D01*
Y199250D01*
Y199337D01*
Y199424D01*
Y199511D01*
Y199598D01*
Y199685D01*
Y199772D01*
Y199859D01*
Y199946D01*
Y200033D01*
Y200120D01*
Y200207D01*
Y200294D01*
Y200381D01*
Y200467D01*
Y200555D01*
Y200641D01*
Y200728D01*
Y200815D01*
Y200902D01*
Y200989D01*
Y201076D01*
Y201163D01*
Y201250D01*
Y201337D01*
Y201424D01*
Y201511D01*
Y201598D01*
Y201685D01*
Y201772D01*
Y201859D01*
Y201946D01*
Y202033D01*
Y202120D01*
Y202207D01*
Y202293D01*
Y202381D01*
Y202467D01*
Y202554D01*
Y202641D01*
Y202728D01*
Y202815D01*
Y202902D01*
Y202989D01*
Y203076D01*
Y203163D01*
Y203250D01*
Y203337D01*
Y203424D01*
Y203511D01*
Y203598D01*
Y203685D01*
Y203772D01*
Y203859D01*
Y203946D01*
Y204033D01*
Y204119D01*
Y204207D01*
Y204293D01*
Y204380D01*
Y204467D01*
Y204554D01*
Y204641D01*
Y204728D01*
Y204815D01*
Y204902D01*
Y204989D01*
Y205076D01*
Y205163D01*
Y205250D01*
Y205337D01*
Y205424D01*
Y205511D01*
Y205598D01*
Y205685D01*
Y205772D01*
Y205858D01*
Y205945D01*
Y206033D01*
Y206119D01*
Y206206D01*
Y206293D01*
Y206380D01*
Y206467D01*
Y206554D01*
Y206641D01*
Y206728D01*
Y206815D01*
Y206902D01*
Y206989D01*
Y207076D01*
Y207163D01*
Y207250D01*
Y207337D01*
Y207424D01*
Y207511D01*
Y207598D01*
Y207684D01*
Y207771D01*
Y207858D01*
Y207945D01*
Y208032D01*
Y208119D01*
Y208206D01*
Y208293D01*
Y208380D01*
Y208467D01*
Y208554D01*
Y208641D01*
Y208728D01*
Y208815D01*
Y208902D01*
Y208989D01*
Y209076D01*
Y209163D01*
Y209250D01*
Y209337D01*
Y209424D01*
Y209510D01*
Y209597D01*
Y209684D01*
Y209771D01*
Y209858D01*
Y209945D01*
Y210032D01*
Y210119D01*
Y210206D01*
Y210293D01*
Y210380D01*
Y210467D01*
Y210554D01*
Y210641D01*
Y210728D01*
Y210815D01*
Y210902D01*
Y210989D01*
Y211076D01*
Y211163D01*
Y211250D01*
Y211336D01*
Y211423D01*
Y211510D01*
Y211597D01*
Y211684D01*
Y211771D01*
Y211858D01*
Y211945D01*
Y212032D01*
Y212119D01*
Y212206D01*
Y212293D01*
Y212380D01*
Y212467D01*
Y212554D01*
Y212641D01*
Y212728D01*
Y212815D01*
Y212902D01*
Y212989D01*
Y213076D01*
Y213162D01*
Y213249D01*
Y213336D01*
Y213423D01*
Y213510D01*
Y213597D01*
Y213684D01*
Y213771D01*
Y213858D01*
Y213945D01*
Y214032D01*
Y214119D01*
Y214206D01*
Y214293D01*
Y214380D01*
Y214467D01*
Y214554D01*
Y214641D01*
Y214728D01*
Y214815D01*
Y214902D01*
Y214988D01*
Y215075D01*
Y215162D01*
Y215249D01*
Y215336D01*
Y215423D01*
Y215510D01*
Y215597D01*
Y215684D01*
Y215771D01*
Y215858D01*
Y215945D01*
Y216032D01*
Y216119D01*
Y216206D01*
Y216293D01*
Y216380D01*
Y216467D01*
Y216554D01*
Y216641D01*
Y216728D01*
Y216814D01*
Y216901D01*
Y216988D01*
Y217075D01*
Y217162D01*
Y217249D01*
Y217336D01*
Y217423D01*
Y217510D01*
Y217597D01*
Y217684D01*
Y217771D01*
Y217858D01*
Y217945D01*
Y218032D01*
Y218119D01*
Y218206D01*
Y218293D01*
Y218380D01*
Y218466D01*
Y218554D01*
Y218640D01*
Y218727D01*
Y218814D01*
Y218901D01*
Y218988D01*
Y219075D01*
Y219162D01*
Y219249D01*
Y219336D01*
Y219423D01*
Y219510D01*
Y219597D01*
Y219684D01*
Y219771D01*
Y219858D01*
Y219945D01*
Y220032D01*
Y220119D01*
Y220206D01*
Y220292D01*
Y220380D01*
Y220466D01*
Y220553D01*
Y220640D01*
Y220727D01*
Y220814D01*
Y220901D01*
Y220988D01*
Y221075D01*
Y221162D01*
Y221249D01*
Y221336D01*
Y221423D01*
Y221510D01*
Y221597D01*
Y221684D01*
Y221771D01*
Y221858D01*
Y221945D01*
Y222032D01*
Y222118D01*
Y222205D01*
Y222292D01*
Y222379D01*
Y222466D01*
Y222553D01*
Y222640D01*
Y222727D01*
Y222814D01*
Y222901D01*
Y222988D01*
Y223075D01*
Y223162D01*
Y223249D01*
Y223336D01*
Y223423D01*
Y223510D01*
Y223597D01*
Y223684D01*
Y223771D01*
Y223858D01*
Y223944D01*
Y224032D01*
Y224118D01*
Y224205D01*
Y224292D01*
Y224379D01*
Y224466D01*
Y224553D01*
Y224640D01*
Y224727D01*
Y224814D01*
Y224901D01*
Y224988D01*
Y225075D01*
Y225162D01*
Y225249D01*
Y225336D01*
Y225423D01*
Y225510D01*
Y225597D01*
Y225683D01*
Y225770D01*
Y225857D01*
Y225944D01*
Y226031D01*
Y226118D01*
Y226205D01*
Y226292D01*
Y226379D01*
Y226466D01*
Y226553D01*
Y226640D01*
Y226727D01*
Y226814D01*
Y226901D01*
Y226988D01*
Y227075D01*
Y227162D01*
Y227249D01*
Y227336D01*
Y227423D01*
Y227509D01*
Y227596D01*
Y227683D01*
Y227770D01*
Y227857D01*
Y227944D01*
Y228031D01*
Y228118D01*
Y228205D01*
Y228292D01*
Y228379D01*
Y228466D01*
Y228553D01*
Y228640D01*
Y228727D01*
Y228814D01*
Y228901D01*
Y228988D01*
Y229075D01*
Y229162D01*
Y229249D01*
Y229335D01*
Y229422D01*
Y229509D01*
Y229596D01*
Y229683D01*
Y229770D01*
Y229857D01*
Y229944D01*
Y230031D01*
Y230118D01*
Y230205D01*
Y230292D01*
Y230379D01*
Y230466D01*
Y230553D01*
Y230640D01*
Y230727D01*
Y230814D01*
Y230901D01*
Y230988D01*
Y231075D01*
Y231161D01*
Y231248D01*
Y231335D01*
Y231422D01*
Y231509D01*
Y231596D01*
Y231683D01*
Y231770D01*
Y231857D01*
Y231944D01*
Y232031D01*
Y232118D01*
Y232205D01*
Y232292D01*
Y232379D01*
Y232466D01*
Y232553D01*
Y232640D01*
Y232727D01*
Y232814D01*
Y232901D01*
Y232987D01*
Y233074D01*
Y233161D01*
Y233248D01*
Y233335D01*
Y233422D01*
Y233509D01*
Y233596D01*
X694898D01*
Y233509D01*
D02*
G37*
G36*
X752908Y169176D02*
X754362D01*
Y168812D01*
X755452D01*
Y168449D01*
X756906D01*
Y168085D01*
X757996D01*
Y167722D01*
X759450D01*
Y167359D01*
X760903D01*
Y166995D01*
X761994D01*
Y166632D01*
X763447D01*
Y166268D01*
X764538D01*
Y165905D01*
X765991D01*
Y165541D01*
X767082D01*
Y165178D01*
X768535D01*
Y164815D01*
X769989D01*
Y164451D01*
X771079D01*
Y164088D01*
X772533D01*
Y163724D01*
X773623D01*
Y163361D01*
X775077D01*
Y162998D01*
X776167D01*
Y162634D01*
X777621D01*
Y162271D01*
X778711D01*
Y161907D01*
X780165D01*
Y161544D01*
X781618D01*
Y161180D01*
X782709D01*
Y160817D01*
X784162D01*
Y160454D01*
X785252D01*
Y160090D01*
X786706D01*
Y159727D01*
X787796D01*
Y159363D01*
X789250D01*
Y159000D01*
X790704D01*
Y158637D01*
X791794D01*
Y158273D01*
X793248D01*
Y157910D01*
X794338D01*
Y157546D01*
X795791D01*
Y157183D01*
X796882D01*
Y156819D01*
X798335D01*
Y156456D01*
X799789D01*
Y156093D01*
X800879D01*
Y155729D01*
X802333D01*
Y155366D01*
X803423D01*
Y155002D01*
X804877D01*
Y154639D01*
X805967D01*
Y154276D01*
X807421D01*
Y153912D01*
X808874D01*
Y153549D01*
X809965D01*
Y153185D01*
X811418D01*
Y152822D01*
X812509D01*
Y152458D01*
X813962D01*
Y152095D01*
X815052D01*
Y151732D01*
X816506D01*
Y151368D01*
X817960D01*
Y151005D01*
X819050D01*
Y150641D01*
X820504D01*
Y150278D01*
X821594D01*
Y149915D01*
X823048D01*
Y149551D01*
X824138D01*
Y149188D01*
X825592D01*
Y148824D01*
X826682D01*
Y148461D01*
X828136D01*
Y148097D01*
X829589D01*
Y147734D01*
X830679D01*
Y147371D01*
X832133D01*
Y147007D01*
X833223D01*
Y146644D01*
X834677D01*
Y146280D01*
X835404D01*
Y145917D01*
Y145554D01*
X835040D01*
Y145190D01*
Y144827D01*
Y144463D01*
Y144100D01*
Y143737D01*
Y143373D01*
X834677D01*
Y143010D01*
Y142646D01*
Y142283D01*
Y141919D01*
X834314D01*
Y141556D01*
Y141193D01*
Y140829D01*
X833950D01*
Y140466D01*
Y140102D01*
Y139739D01*
Y139376D01*
X833587D01*
Y139012D01*
Y138649D01*
Y138285D01*
X833223D01*
Y137922D01*
Y137558D01*
Y137195D01*
Y136832D01*
X832860D01*
Y136468D01*
Y136105D01*
Y135741D01*
X832496D01*
Y135378D01*
Y135015D01*
Y134651D01*
Y134288D01*
X832133D01*
Y133924D01*
Y133561D01*
Y133197D01*
X831770D01*
Y132834D01*
Y132471D01*
Y132107D01*
Y131744D01*
X831406D01*
Y131380D01*
Y131017D01*
Y130654D01*
Y130290D01*
X831043D01*
Y129927D01*
Y129563D01*
Y129200D01*
X830679D01*
Y128836D01*
Y128473D01*
Y128110D01*
Y127746D01*
X830316D01*
Y127383D01*
Y127019D01*
Y126656D01*
X829952D01*
Y126293D01*
Y125929D01*
Y125566D01*
Y125202D01*
X829589D01*
Y124839D01*
Y124475D01*
Y124112D01*
X829226D01*
Y123749D01*
Y123385D01*
Y123022D01*
Y122659D01*
X828862D01*
Y122295D01*
Y121932D01*
Y121568D01*
X828499D01*
Y121205D01*
Y120841D01*
Y120478D01*
Y120114D01*
X828136D01*
Y119751D01*
Y119388D01*
Y119024D01*
Y118661D01*
X827772D01*
Y118298D01*
Y117934D01*
Y117571D01*
X827409D01*
Y117207D01*
Y116844D01*
Y116480D01*
Y116117D01*
X827045D01*
Y115753D01*
Y115390D01*
Y115027D01*
X826682D01*
Y114663D01*
Y114300D01*
Y113937D01*
Y113573D01*
X826318D01*
Y113210D01*
Y112846D01*
Y112483D01*
Y112119D01*
X825955D01*
Y111756D01*
Y111392D01*
Y111029D01*
X825592D01*
Y110666D01*
Y110302D01*
Y109939D01*
Y109576D01*
X825228D01*
Y109212D01*
Y108849D01*
Y108485D01*
X824865D01*
Y108122D01*
Y107758D01*
Y107395D01*
Y107032D01*
X824501D01*
Y106668D01*
Y106305D01*
Y105941D01*
X824138D01*
Y105578D01*
Y105215D01*
Y104851D01*
Y104488D01*
X823774D01*
Y104124D01*
Y103761D01*
Y103397D01*
X823411D01*
Y103034D01*
Y102671D01*
Y102307D01*
Y101944D01*
X823048D01*
Y101580D01*
Y101217D01*
Y100854D01*
Y100490D01*
X822684D01*
Y100127D01*
Y99763D01*
Y99400D01*
X822321D01*
Y99036D01*
Y98673D01*
Y98310D01*
Y97946D01*
X821957D01*
Y97583D01*
Y97219D01*
Y96856D01*
X821594D01*
Y96493D01*
Y96129D01*
Y95766D01*
Y95402D01*
X821231D01*
Y95039D01*
Y94676D01*
Y94312D01*
X820867D01*
Y93949D01*
Y93585D01*
Y93222D01*
Y92858D01*
X820504D01*
Y92495D01*
Y92132D01*
Y91768D01*
Y91405D01*
X820140D01*
Y91041D01*
Y90678D01*
Y90314D01*
X819777D01*
Y89951D01*
Y89588D01*
Y89224D01*
Y88861D01*
X819414D01*
Y88497D01*
Y88134D01*
Y87771D01*
X819050D01*
Y87407D01*
Y87044D01*
Y86680D01*
Y86317D01*
X818687D01*
Y85954D01*
Y85590D01*
Y85227D01*
X818323D01*
Y84863D01*
Y84500D01*
Y84136D01*
Y83773D01*
X817960D01*
Y83410D01*
Y83046D01*
Y82683D01*
Y82319D01*
X817596D01*
Y81956D01*
Y81593D01*
Y81229D01*
X817233D01*
Y80866D01*
Y80502D01*
Y80139D01*
Y79775D01*
X816870D01*
Y79412D01*
Y79049D01*
Y78685D01*
X816506D01*
Y78322D01*
Y77958D01*
Y77595D01*
Y77231D01*
X816143D01*
Y76868D01*
Y76505D01*
Y76141D01*
X815779D01*
Y75778D01*
Y75414D01*
Y75051D01*
Y74688D01*
X815416D01*
Y74324D01*
Y73961D01*
Y73597D01*
Y73234D01*
X815052D01*
Y72870D01*
Y72507D01*
Y72144D01*
X814689D01*
Y71780D01*
Y71417D01*
Y71053D01*
Y70690D01*
X814326D01*
Y70327D01*
Y69963D01*
Y69600D01*
X813962D01*
Y69236D01*
Y68873D01*
Y68509D01*
Y68146D01*
X813599D01*
Y67783D01*
Y67419D01*
Y67056D01*
X813235D01*
Y66692D01*
Y66329D01*
Y65966D01*
Y65602D01*
X812872D01*
Y65239D01*
Y64875D01*
Y64512D01*
Y64149D01*
X812509D01*
Y63785D01*
Y63422D01*
Y63058D01*
X812145D01*
Y62695D01*
Y62331D01*
Y61968D01*
X811782D01*
Y61605D01*
Y61241D01*
X811418D01*
Y60878D01*
X810692D01*
Y60514D01*
X809238D01*
Y60878D01*
X807784D01*
Y61241D01*
X806694D01*
Y61605D01*
X805240D01*
Y61968D01*
X804150D01*
Y62331D01*
X802696D01*
Y62695D01*
X801606D01*
Y63058D01*
X800153D01*
Y63422D01*
X798699D01*
Y63785D01*
X797608D01*
Y64149D01*
X796155D01*
Y64512D01*
X795065D01*
Y64875D01*
X793611D01*
Y65239D01*
X792521D01*
Y65602D01*
X791067D01*
Y65966D01*
X789613D01*
Y66329D01*
X788523D01*
Y66692D01*
X787069D01*
Y67056D01*
X785979D01*
Y67419D01*
X784526D01*
Y67783D01*
X783435D01*
Y68146D01*
X781982D01*
Y68509D01*
X780891D01*
Y68873D01*
X779438D01*
Y69236D01*
X777984D01*
Y69600D01*
X776894D01*
Y69963D01*
X775440D01*
Y70327D01*
X774350D01*
Y70690D01*
X772896D01*
Y71053D01*
X771806D01*
Y71417D01*
X770352D01*
Y71780D01*
X768899D01*
Y72144D01*
X767808D01*
Y72507D01*
X766355D01*
Y72870D01*
X765265D01*
Y73234D01*
X763811D01*
Y73597D01*
X762721D01*
Y73961D01*
X761267D01*
Y74324D01*
X759813D01*
Y74688D01*
X758723D01*
Y75051D01*
X757269D01*
Y75414D01*
X756179D01*
Y75778D01*
X754725D01*
Y76141D01*
X753635D01*
Y76505D01*
X752182D01*
Y76868D01*
X750728D01*
Y77231D01*
X749638D01*
Y77595D01*
X748184D01*
Y77958D01*
X747094D01*
Y78322D01*
X745640D01*
Y78685D01*
X744550D01*
Y79049D01*
X743096D01*
Y79412D01*
X741643D01*
Y79775D01*
X740552D01*
Y80139D01*
X739099D01*
Y80502D01*
X738008D01*
Y80866D01*
X736555D01*
Y81229D01*
X735464D01*
Y81593D01*
X734011D01*
Y81956D01*
X732921D01*
Y82319D01*
X731467D01*
Y82683D01*
X730013D01*
Y83046D01*
X728923D01*
Y83410D01*
X727833D01*
Y83773D01*
X727106D01*
Y84136D01*
X726742D01*
Y84500D01*
Y84863D01*
X726379D01*
Y85227D01*
Y85590D01*
Y85954D01*
Y86317D01*
X726742D01*
Y86680D01*
Y87044D01*
Y87407D01*
Y87771D01*
X727106D01*
Y88134D01*
Y88497D01*
Y88861D01*
X727469D01*
Y89224D01*
Y89588D01*
Y89951D01*
Y90314D01*
X727833D01*
Y90678D01*
Y91041D01*
Y91405D01*
X728196D01*
Y91768D01*
Y92132D01*
Y92495D01*
Y92858D01*
X728560D01*
Y93222D01*
Y93585D01*
Y93949D01*
Y94312D01*
X728923D01*
Y94676D01*
Y95039D01*
Y95402D01*
X729286D01*
Y95766D01*
Y96129D01*
Y96493D01*
Y96856D01*
X729650D01*
Y97219D01*
Y97583D01*
Y97946D01*
X730013D01*
Y98310D01*
Y98673D01*
Y99036D01*
Y99400D01*
X730377D01*
Y99763D01*
Y100127D01*
Y100490D01*
X730740D01*
Y100854D01*
Y101217D01*
Y101580D01*
Y101944D01*
X731104D01*
Y102307D01*
Y102671D01*
Y103034D01*
Y103397D01*
X731467D01*
Y103761D01*
Y104124D01*
Y104488D01*
X731830D01*
Y104851D01*
Y105215D01*
Y105578D01*
Y105941D01*
X732194D01*
Y106305D01*
Y106668D01*
Y107032D01*
X732557D01*
Y107395D01*
Y107758D01*
Y108122D01*
Y108485D01*
X732921D01*
Y108849D01*
Y109212D01*
Y109576D01*
X733284D01*
Y109939D01*
Y110302D01*
Y110666D01*
Y111029D01*
X733647D01*
Y111392D01*
Y111756D01*
Y112119D01*
Y112483D01*
X734011D01*
Y112846D01*
Y113210D01*
Y113573D01*
X734374D01*
Y113937D01*
Y114300D01*
Y114663D01*
Y115027D01*
X734738D01*
Y115390D01*
Y115753D01*
Y116117D01*
X735101D01*
Y116480D01*
Y116844D01*
Y117207D01*
Y117571D01*
X735464D01*
Y117934D01*
Y118298D01*
Y118661D01*
X735828D01*
Y119024D01*
Y119388D01*
Y119751D01*
Y120114D01*
X736191D01*
Y120478D01*
Y120841D01*
Y121205D01*
X736555D01*
Y121568D01*
Y121932D01*
Y122295D01*
Y122659D01*
X736918D01*
Y123022D01*
Y123385D01*
Y123749D01*
Y124112D01*
X737281D01*
Y124475D01*
Y124839D01*
Y125202D01*
X737645D01*
Y125566D01*
Y125929D01*
Y126293D01*
Y126656D01*
X738008D01*
Y127019D01*
Y127383D01*
Y127746D01*
X738372D01*
Y128110D01*
Y128473D01*
Y128836D01*
Y129200D01*
X738735D01*
Y129563D01*
Y129927D01*
Y130290D01*
X739099D01*
Y130654D01*
Y131017D01*
Y131380D01*
Y131744D01*
X739462D01*
Y132107D01*
Y132471D01*
Y132834D01*
Y133197D01*
X739825D01*
Y133561D01*
Y133924D01*
Y134288D01*
X740189D01*
Y134651D01*
Y135015D01*
Y135378D01*
Y135741D01*
X740552D01*
Y136105D01*
Y136468D01*
Y136832D01*
X740916D01*
Y137195D01*
Y137558D01*
Y137922D01*
Y138285D01*
X741279D01*
Y138649D01*
Y139012D01*
Y139376D01*
X741643D01*
Y139739D01*
Y140102D01*
Y140466D01*
Y140829D01*
X742006D01*
Y141193D01*
Y141556D01*
Y141919D01*
Y142283D01*
X742369D01*
Y142646D01*
Y143010D01*
Y143373D01*
X742733D01*
Y143737D01*
Y144100D01*
Y144463D01*
Y144827D01*
X743096D01*
Y145190D01*
Y145554D01*
Y145917D01*
X743460D01*
Y146280D01*
Y146644D01*
Y147007D01*
Y147371D01*
X743823D01*
Y147734D01*
Y148097D01*
Y148461D01*
X744186D01*
Y148824D01*
Y149188D01*
Y149551D01*
Y149915D01*
X744550D01*
Y150278D01*
Y150641D01*
Y151005D01*
Y151368D01*
X744913D01*
Y151732D01*
Y152095D01*
Y152458D01*
X745277D01*
Y152822D01*
Y153185D01*
Y153549D01*
Y153912D01*
X745640D01*
Y154276D01*
Y154639D01*
Y155002D01*
X746003D01*
Y155366D01*
Y155729D01*
Y156093D01*
Y156456D01*
X746367D01*
Y156819D01*
Y157183D01*
Y157546D01*
X746730D01*
Y157910D01*
Y158273D01*
Y158637D01*
Y159000D01*
X747094D01*
Y159363D01*
Y159727D01*
Y160090D01*
X747457D01*
Y160454D01*
Y160817D01*
Y161180D01*
Y161544D01*
X747821D01*
Y161907D01*
Y162271D01*
Y162634D01*
Y162998D01*
X748184D01*
Y163361D01*
Y163724D01*
Y164088D01*
X748547D01*
Y164451D01*
Y164815D01*
Y165178D01*
Y165541D01*
X748911D01*
Y165905D01*
Y166268D01*
Y166632D01*
X749274D01*
Y166995D01*
Y167359D01*
Y167722D01*
X749638D01*
Y168085D01*
Y168449D01*
X750001D01*
Y168812D01*
X750728D01*
Y169176D01*
X752182D01*
Y169539D01*
X752908D01*
Y169176D01*
D02*
G37*
G36*
X660294Y268182D02*
X657941D01*
Y270869D01*
X660294D01*
Y268182D01*
D02*
G37*
G36*
X833500Y251644D02*
X831313D01*
Y253373D01*
X831042Y253019D01*
X830751Y252707D01*
X830438Y252436D01*
X830126Y252186D01*
X829793Y251999D01*
X829480Y251832D01*
X829168Y251686D01*
X828855Y251582D01*
X828585Y251499D01*
X828314Y251436D01*
X828064Y251394D01*
X827856Y251374D01*
X827689Y251353D01*
X827564Y251332D01*
X827460D01*
X827002Y251353D01*
X826564Y251415D01*
X826148Y251519D01*
X825752Y251644D01*
X825377Y251790D01*
X825023Y251936D01*
X824711Y252123D01*
X824398Y252311D01*
X824148Y252477D01*
X823898Y252665D01*
X823690Y252811D01*
X823523Y252977D01*
X823398Y253081D01*
X823294Y253186D01*
X823232Y253248D01*
X823211Y253269D01*
X822899Y253665D01*
X822628Y254060D01*
X822378Y254498D01*
X822170Y254956D01*
X822003Y255414D01*
X821857Y255893D01*
X821732Y256331D01*
X821649Y256768D01*
X821566Y257185D01*
X821524Y257580D01*
X821482Y257914D01*
X821441Y258226D01*
Y258476D01*
X821420Y258643D01*
Y258768D01*
Y258809D01*
X821441Y259372D01*
X821482Y259892D01*
X821566Y260371D01*
X821628Y260788D01*
X821670Y260975D01*
X821711Y261142D01*
X821753Y261288D01*
X821795Y261413D01*
X821815Y261517D01*
X821836Y261579D01*
X821857Y261621D01*
Y261642D01*
X822024Y262121D01*
X822211Y262558D01*
X822399Y262954D01*
X822586Y263287D01*
X822774Y263537D01*
X822899Y263745D01*
X822982Y263870D01*
X823024Y263912D01*
X823315Y264245D01*
X823627Y264537D01*
X823940Y264787D01*
X824231Y264995D01*
X824502Y265162D01*
X824711Y265266D01*
X824794Y265308D01*
X824856Y265349D01*
X824877Y265370D01*
X824898D01*
X825335Y265537D01*
X825752Y265662D01*
X826169Y265766D01*
X826544Y265828D01*
X826856Y265870D01*
X827002D01*
X827106Y265891D01*
X827335D01*
X827751Y265870D01*
X828168Y265807D01*
X828543Y265724D01*
X828918Y265599D01*
X829251Y265453D01*
X829564Y265308D01*
X829855Y265120D01*
X830105Y264953D01*
X830355Y264787D01*
X830563Y264620D01*
X830730Y264454D01*
X830876Y264308D01*
X831001Y264183D01*
X831084Y264100D01*
X831126Y264037D01*
X831146Y264016D01*
Y270869D01*
X833500D01*
Y251644D01*
D02*
G37*
G36*
X690182D02*
X687829D01*
Y259247D01*
X687808Y259830D01*
X687766Y260350D01*
X687704Y260788D01*
X687642Y261142D01*
X687579Y261434D01*
X687517Y261642D01*
X687496Y261704D01*
X687475Y261767D01*
X687454Y261808D01*
X687287Y262142D01*
X687079Y262433D01*
X686871Y262683D01*
X686642Y262892D01*
X686454Y263058D01*
X686288Y263183D01*
X686184Y263266D01*
X686142Y263287D01*
X685788Y263475D01*
X685434Y263620D01*
X685100Y263704D01*
X684809Y263787D01*
X684538Y263829D01*
X684330Y263850D01*
X684163D01*
X683663Y263808D01*
X683226Y263725D01*
X682872Y263600D01*
X682560Y263454D01*
X682310Y263287D01*
X682143Y263162D01*
X682039Y263079D01*
X681997Y263037D01*
X681851Y262871D01*
X681747Y262704D01*
X681560Y262288D01*
X681414Y261871D01*
X681331Y261434D01*
X681268Y261059D01*
X681247Y260892D01*
Y260746D01*
X681227Y260621D01*
Y260538D01*
Y260476D01*
Y260455D01*
Y251644D01*
X678873D01*
Y260455D01*
Y260830D01*
X678894Y261184D01*
X678915Y261517D01*
X678956Y261808D01*
X678998Y262100D01*
X679040Y262350D01*
X679081Y262579D01*
X679123Y262787D01*
X679165Y262975D01*
X679206Y263141D01*
X679248Y263266D01*
X679289Y263391D01*
X679331Y263475D01*
X679352Y263537D01*
X679373Y263558D01*
Y263579D01*
X679581Y263954D01*
X679831Y264308D01*
X680123Y264599D01*
X680373Y264828D01*
X680622Y265016D01*
X680831Y265162D01*
X680914Y265203D01*
X680977Y265245D01*
X680997Y265266D01*
X681018D01*
X681456Y265474D01*
X681914Y265620D01*
X682351Y265745D01*
X682768Y265807D01*
X683143Y265849D01*
X683288Y265870D01*
X683434Y265891D01*
X683684D01*
X684142Y265870D01*
X684580Y265807D01*
X684996Y265703D01*
X685392Y265599D01*
X685746Y265432D01*
X686100Y265287D01*
X686413Y265099D01*
X686683Y264933D01*
X686954Y264745D01*
X687183Y264558D01*
X687371Y264412D01*
X687537Y264266D01*
X687662Y264141D01*
X687746Y264037D01*
X687808Y263975D01*
X687829Y263954D01*
Y270869D01*
X690182D01*
Y251644D01*
D02*
G37*
G36*
X704346Y263641D02*
X698243D01*
X697785Y263662D01*
X697347D01*
X696931Y263683D01*
X696577Y263704D01*
X696285D01*
X696181Y263725D01*
X696035D01*
X704866Y253561D01*
Y251644D01*
X692536D01*
Y253685D01*
X699513D01*
X700055Y253665D01*
X700555Y253644D01*
X701013Y253623D01*
X701221Y253602D01*
X701409Y253581D01*
X701575D01*
X701721Y253561D01*
X701825D01*
X701929Y253540D01*
X701992D01*
X700513Y255164D01*
X692953Y263995D01*
Y265578D01*
X704346D01*
Y263641D01*
D02*
G37*
G36*
X654358Y251644D02*
X652005D01*
Y257143D01*
X650339Y258768D01*
X645715Y251644D01*
X642799D01*
X648672Y260392D01*
X643340Y265578D01*
X646402D01*
X652005Y259892D01*
Y270869D01*
X654358D01*
Y251644D01*
D02*
G37*
G36*
X814609Y251624D02*
X814713Y251374D01*
X814776Y251186D01*
X814817Y251082D01*
X814838Y251040D01*
X814921Y250790D01*
X815005Y250561D01*
X815088Y250353D01*
X815151Y250166D01*
X815275Y249853D01*
X815380Y249624D01*
X815442Y249457D01*
X815505Y249353D01*
X815525Y249291D01*
X815546Y249270D01*
X815796Y248958D01*
X815942Y248833D01*
X816067Y248729D01*
X816171Y248645D01*
X816254Y248583D01*
X816317Y248562D01*
X816338Y248541D01*
X816525Y248458D01*
X816733Y248395D01*
X816942Y248333D01*
X817129Y248312D01*
X817317Y248291D01*
X817462Y248270D01*
X817587D01*
X817796Y248291D01*
X818025Y248312D01*
X818254Y248354D01*
X818462Y248395D01*
X818650Y248437D01*
X818795Y248458D01*
X818879Y248499D01*
X818920D01*
X818650Y246292D01*
X818337Y246187D01*
X818066Y246125D01*
X817796Y246063D01*
X817567Y246042D01*
X817400Y246021D01*
X817254Y246000D01*
X817129D01*
X816713Y246021D01*
X816359Y246083D01*
X816025Y246187D01*
X815734Y246292D01*
X815505Y246375D01*
X815338Y246479D01*
X815234Y246542D01*
X815192Y246562D01*
X814901Y246791D01*
X814630Y247062D01*
X814380Y247333D01*
X814172Y247625D01*
X814005Y247875D01*
X813859Y248083D01*
X813818Y248166D01*
X813776Y248229D01*
X813755Y248249D01*
Y248270D01*
X813651Y248437D01*
X813568Y248645D01*
X813464Y248874D01*
X813338Y249124D01*
X813130Y249645D01*
X812901Y250166D01*
X812818Y250415D01*
X812714Y250645D01*
X812630Y250853D01*
X812568Y251040D01*
X812505Y251207D01*
X812464Y251311D01*
X812422Y251394D01*
Y251415D01*
X807132Y265578D01*
X809485D01*
X812485Y257435D01*
X812693Y256851D01*
X812880Y256289D01*
X813047Y255748D01*
X813193Y255268D01*
X813255Y255060D01*
X813297Y254873D01*
X813359Y254685D01*
X813380Y254540D01*
X813422Y254435D01*
X813443Y254352D01*
X813464Y254289D01*
Y254269D01*
X813630Y254893D01*
X813797Y255477D01*
X813984Y256039D01*
X814130Y256518D01*
X814213Y256726D01*
X814276Y256914D01*
X814338Y257080D01*
X814380Y257226D01*
X814422Y257351D01*
X814463Y257435D01*
X814484Y257476D01*
Y257497D01*
X817379Y265578D01*
X819878D01*
X814609Y251624D01*
D02*
G37*
G36*
X760560Y271181D02*
X761081Y271160D01*
X761581Y271098D01*
X762039Y271014D01*
X762497Y270931D01*
X762914Y270827D01*
X763310Y270723D01*
X763664Y270619D01*
X763976Y270494D01*
X764268Y270390D01*
X764518Y270285D01*
X764726Y270202D01*
X764893Y270119D01*
X765017Y270056D01*
X765101Y270035D01*
X765122Y270015D01*
X765517Y269786D01*
X765892Y269515D01*
X766246Y269244D01*
X766559Y268952D01*
X766871Y268640D01*
X767142Y268348D01*
X767392Y268057D01*
X767621Y267765D01*
X767809Y267474D01*
X767996Y267224D01*
X768142Y266995D01*
X768267Y266786D01*
X768350Y266620D01*
X768412Y266495D01*
X768454Y266411D01*
X768475Y266391D01*
X768683Y265932D01*
X768850Y265474D01*
X769016Y265016D01*
X769141Y264558D01*
X769350Y263683D01*
X769433Y263266D01*
X769496Y262871D01*
X769537Y262517D01*
X769579Y262183D01*
X769600Y261892D01*
X769621Y261642D01*
X769641Y261434D01*
Y261288D01*
Y261204D01*
Y261163D01*
X769621Y260642D01*
X769600Y260121D01*
X769537Y259642D01*
X769454Y259163D01*
X769371Y258726D01*
X769267Y258288D01*
X769162Y257893D01*
X769058Y257539D01*
X768954Y257206D01*
X768850Y256914D01*
X768746Y256664D01*
X768662Y256435D01*
X768579Y256268D01*
X768517Y256143D01*
X768496Y256060D01*
X768475Y256039D01*
X768246Y255623D01*
X767975Y255227D01*
X767704Y254873D01*
X767434Y254519D01*
X767142Y254206D01*
X766850Y253936D01*
X766559Y253665D01*
X766288Y253436D01*
X766017Y253227D01*
X765767Y253040D01*
X765538Y252894D01*
X765351Y252769D01*
X765205Y252665D01*
X765080Y252603D01*
X764997Y252561D01*
X764976Y252540D01*
X764538Y252332D01*
X764080Y252144D01*
X763643Y251978D01*
X763205Y251853D01*
X762747Y251728D01*
X762331Y251624D01*
X761914Y251540D01*
X761539Y251478D01*
X761185Y251436D01*
X760852Y251394D01*
X760560Y251374D01*
X760310Y251353D01*
X760102Y251332D01*
X759831D01*
X759061Y251374D01*
X758311Y251457D01*
X757624Y251561D01*
X757311Y251644D01*
X756999Y251707D01*
X756728Y251769D01*
X756499Y251853D01*
X756270Y251915D01*
X756103Y251957D01*
X755937Y252019D01*
X755832Y252040D01*
X755770Y252082D01*
X755749D01*
X754999Y252394D01*
X754291Y252748D01*
X753645Y253123D01*
X753333Y253311D01*
X753062Y253477D01*
X752812Y253644D01*
X752583Y253811D01*
X752375Y253936D01*
X752208Y254060D01*
X752063Y254165D01*
X751958Y254248D01*
X751896Y254289D01*
X751875Y254310D01*
Y261454D01*
X760019D01*
Y259184D01*
X754374D01*
Y255581D01*
X754708Y255310D01*
X755083Y255081D01*
X755478Y254852D01*
X755874Y254644D01*
X756228Y254477D01*
X756374Y254394D01*
X756499Y254331D01*
X756624Y254289D01*
X756707Y254248D01*
X756749Y254227D01*
X756770D01*
X757353Y254019D01*
X757936Y253873D01*
X758478Y253748D01*
X758957Y253685D01*
X759186Y253665D01*
X759373Y253644D01*
X759540Y253623D01*
X759686D01*
X759810Y253602D01*
X759977D01*
X760685Y253644D01*
X761352Y253727D01*
X761956Y253873D01*
X762247Y253936D01*
X762497Y254019D01*
X762727Y254102D01*
X762935Y254165D01*
X763122Y254248D01*
X763289Y254310D01*
X763414Y254352D01*
X763497Y254394D01*
X763560Y254435D01*
X763580D01*
X763893Y254602D01*
X764184Y254789D01*
X764684Y255185D01*
X765122Y255623D01*
X765497Y256039D01*
X765767Y256414D01*
X765892Y256581D01*
X765976Y256706D01*
X766059Y256831D01*
X766101Y256914D01*
X766121Y256976D01*
X766142Y256997D01*
X766434Y257684D01*
X766642Y258414D01*
X766809Y259122D01*
X766913Y259809D01*
X766934Y260121D01*
X766975Y260413D01*
X766996Y260663D01*
Y260892D01*
X767017Y261059D01*
Y261204D01*
Y261288D01*
Y261309D01*
X766975Y262079D01*
X766892Y262808D01*
X766788Y263454D01*
X766725Y263766D01*
X766642Y264037D01*
X766580Y264287D01*
X766517Y264516D01*
X766455Y264704D01*
X766392Y264870D01*
X766350Y265016D01*
X766309Y265099D01*
X766288Y265162D01*
Y265183D01*
X766121Y265557D01*
X765934Y265912D01*
X765726Y266245D01*
X765538Y266516D01*
X765372Y266745D01*
X765226Y266932D01*
X765143Y267036D01*
X765101Y267078D01*
X764788Y267390D01*
X764434Y267661D01*
X764101Y267911D01*
X763768Y268119D01*
X763476Y268286D01*
X763247Y268390D01*
X763164Y268432D01*
X763101Y268473D01*
X763060Y268494D01*
X763039D01*
X762539Y268682D01*
X762039Y268807D01*
X761518Y268911D01*
X761060Y268973D01*
X760831Y268994D01*
X760644Y269015D01*
X760456D01*
X760310Y269036D01*
X760019D01*
X759498Y269015D01*
X758998Y268952D01*
X758561Y268869D01*
X758165Y268786D01*
X757853Y268682D01*
X757707Y268640D01*
X757603Y268598D01*
X757520Y268557D01*
X757457Y268536D01*
X757415Y268515D01*
X757394D01*
X756978Y268307D01*
X756603Y268099D01*
X756291Y267869D01*
X756020Y267661D01*
X755832Y267453D01*
X755687Y267307D01*
X755583Y267203D01*
X755562Y267161D01*
X755332Y266828D01*
X755124Y266453D01*
X754937Y266078D01*
X754770Y265703D01*
X754645Y265370D01*
X754604Y265224D01*
X754562Y265120D01*
X754520Y265016D01*
X754499Y264933D01*
X754479Y264891D01*
Y264870D01*
X752167Y265495D01*
X752375Y266182D01*
X752604Y266807D01*
X752729Y267078D01*
X752854Y267349D01*
X752958Y267578D01*
X753083Y267786D01*
X753187Y267994D01*
X753291Y268161D01*
X753395Y268307D01*
X753458Y268432D01*
X753541Y268515D01*
X753583Y268577D01*
X753604Y268619D01*
X753625Y268640D01*
X754020Y269077D01*
X754437Y269452D01*
X754874Y269765D01*
X755312Y270035D01*
X755687Y270244D01*
X755853Y270327D01*
X755999Y270390D01*
X756103Y270452D01*
X756187Y270494D01*
X756249Y270515D01*
X756270D01*
X756916Y270744D01*
X757561Y270910D01*
X758207Y271035D01*
X758790Y271119D01*
X759061Y271139D01*
X759290Y271160D01*
X759498Y271181D01*
X759686Y271202D01*
X760040D01*
X760560Y271181D01*
D02*
G37*
G36*
X748480Y256935D02*
Y256414D01*
X748459Y255956D01*
X748438Y255581D01*
X748418Y255268D01*
X748397Y255039D01*
X748376Y254852D01*
X748355Y254769D01*
Y254727D01*
X748251Y254352D01*
X748147Y254019D01*
X748022Y253727D01*
X747897Y253477D01*
X747793Y253269D01*
X747710Y253102D01*
X747647Y253019D01*
X747626Y252977D01*
X747418Y252727D01*
X747168Y252498D01*
X746897Y252290D01*
X746647Y252123D01*
X746397Y251978D01*
X746210Y251873D01*
X746085Y251811D01*
X746064Y251790D01*
X746043D01*
X745627Y251644D01*
X745231Y251519D01*
X744835Y251436D01*
X744481Y251394D01*
X744169Y251353D01*
X743940Y251332D01*
X743731D01*
X743211Y251353D01*
X742732Y251436D01*
X742294Y251540D01*
X741857Y251707D01*
X741461Y251873D01*
X741107Y252082D01*
X740774Y252290D01*
X740461Y252519D01*
X740191Y252727D01*
X739961Y252936D01*
X739753Y253144D01*
X739587Y253311D01*
X739462Y253477D01*
X739378Y253581D01*
X739316Y253665D01*
X739295Y253685D01*
Y251644D01*
X737191D01*
Y265578D01*
X739545D01*
Y258101D01*
X739566Y257476D01*
X739607Y256935D01*
X739670Y256476D01*
X739732Y256081D01*
X739774Y255914D01*
X739816Y255789D01*
X739857Y255664D01*
X739878Y255560D01*
X739899Y255498D01*
X739920Y255435D01*
X739941Y255414D01*
Y255393D01*
X740107Y255060D01*
X740315Y254769D01*
X740545Y254519D01*
X740753Y254310D01*
X740961Y254144D01*
X741128Y254019D01*
X741232Y253936D01*
X741253Y253915D01*
X741274D01*
X741628Y253727D01*
X741961Y253602D01*
X742294Y253498D01*
X742607Y253436D01*
X742877Y253394D01*
X743065Y253373D01*
X743252D01*
X743627Y253394D01*
X743981Y253456D01*
X744294Y253540D01*
X744544Y253644D01*
X744752Y253727D01*
X744919Y253811D01*
X745002Y253873D01*
X745043Y253894D01*
X745293Y254102D01*
X745502Y254352D01*
X745668Y254581D01*
X745793Y254810D01*
X745897Y255019D01*
X745960Y255206D01*
X745981Y255310D01*
X746002Y255352D01*
X746022Y255477D01*
X746043Y255643D01*
X746064Y256018D01*
X746106Y256435D01*
Y256851D01*
X746126Y257226D01*
Y257393D01*
Y257560D01*
Y257684D01*
Y257768D01*
Y257830D01*
Y257851D01*
Y265578D01*
X748480D01*
Y256935D01*
D02*
G37*
G36*
X776098Y251644D02*
X773411D01*
Y254331D01*
X776098D01*
Y251644D01*
D02*
G37*
G36*
X669230Y265870D02*
X669729Y265787D01*
X670188Y265683D01*
X670625Y265537D01*
X671021Y265349D01*
X671375Y265162D01*
X671708Y264953D01*
X672000Y264745D01*
X672271Y264516D01*
X672500Y264308D01*
X672687Y264120D01*
X672833Y263933D01*
X672958Y263787D01*
X673062Y263683D01*
X673104Y263600D01*
X673124Y263579D01*
Y265578D01*
X675249D01*
Y251644D01*
X672895D01*
Y259247D01*
X672875Y259726D01*
X672854Y260184D01*
X672791Y260580D01*
X672729Y260954D01*
X672645Y261288D01*
X672562Y261579D01*
X672458Y261850D01*
X672354Y262079D01*
X672250Y262288D01*
X672145Y262454D01*
X672062Y262579D01*
X671979Y262704D01*
X671916Y262787D01*
X671854Y262850D01*
X671833Y262871D01*
X671812Y262892D01*
X671604Y263058D01*
X671375Y263204D01*
X670938Y263454D01*
X670500Y263620D01*
X670104Y263725D01*
X669750Y263808D01*
X669584Y263829D01*
X669459D01*
X669354Y263850D01*
X669209D01*
X668855Y263829D01*
X668542Y263787D01*
X668271Y263704D01*
X668021Y263641D01*
X667834Y263558D01*
X667688Y263475D01*
X667584Y263433D01*
X667563Y263412D01*
X667313Y263246D01*
X667105Y263058D01*
X666938Y262871D01*
X666814Y262683D01*
X666709Y262517D01*
X666647Y262392D01*
X666605Y262308D01*
X666584Y262267D01*
X666480Y261975D01*
X666418Y261642D01*
X666355Y261288D01*
X666335Y260934D01*
X666314Y260621D01*
X666293Y260476D01*
Y260350D01*
Y260267D01*
Y260184D01*
Y260142D01*
Y260121D01*
Y251644D01*
X663939D01*
Y260205D01*
Y260496D01*
Y260767D01*
X663960Y261038D01*
Y261267D01*
X663981Y261475D01*
Y261663D01*
X664002Y261975D01*
X664043Y262204D01*
X664064Y262371D01*
X664085Y262475D01*
Y262496D01*
X664168Y262871D01*
X664293Y263204D01*
X664398Y263496D01*
X664522Y263745D01*
X664647Y263954D01*
X664731Y264120D01*
X664793Y264204D01*
X664814Y264245D01*
X665022Y264516D01*
X665272Y264745D01*
X665543Y264933D01*
X665793Y265120D01*
X666043Y265245D01*
X666230Y265349D01*
X666355Y265412D01*
X666376Y265432D01*
X666397D01*
X666793Y265578D01*
X667188Y265703D01*
X667584Y265787D01*
X667938Y265828D01*
X668251Y265870D01*
X668376D01*
X668501Y265891D01*
X668709D01*
X669230Y265870D01*
D02*
G37*
G36*
X660294Y251644D02*
X657941D01*
Y265578D01*
X660294D01*
Y251644D01*
D02*
G37*
G36*
X789678Y271181D02*
X790386Y271077D01*
X791052Y270952D01*
X791677Y270785D01*
X792281Y270577D01*
X792823Y270348D01*
X793323Y270098D01*
X793781Y269848D01*
X794198Y269598D01*
X794552Y269348D01*
X794843Y269119D01*
X795114Y268911D01*
X795302Y268744D01*
X795447Y268619D01*
X795551Y268515D01*
X795572Y268494D01*
X796030Y267973D01*
X796426Y267390D01*
X796759Y266807D01*
X797051Y266182D01*
X797301Y265557D01*
X797509Y264933D01*
X797676Y264329D01*
X797822Y263725D01*
X797926Y263162D01*
X797988Y262662D01*
X798051Y262183D01*
X798092Y261788D01*
X798113Y261454D01*
Y261329D01*
X798134Y261204D01*
Y261121D01*
Y261059D01*
Y261017D01*
Y260996D01*
X798113Y260538D01*
X798092Y260059D01*
X797967Y259184D01*
X797884Y258768D01*
X797801Y258372D01*
X797697Y257997D01*
X797592Y257664D01*
X797488Y257330D01*
X797384Y257060D01*
X797301Y256810D01*
X797218Y256601D01*
X797155Y256435D01*
X797093Y256310D01*
X797072Y256227D01*
X797051Y256206D01*
X796822Y255789D01*
X796593Y255393D01*
X796343Y255039D01*
X796072Y254685D01*
X795801Y254373D01*
X795531Y254081D01*
X795281Y253811D01*
X795010Y253561D01*
X794760Y253352D01*
X794531Y253165D01*
X794323Y252998D01*
X794156Y252873D01*
X794010Y252769D01*
X793885Y252686D01*
X793823Y252644D01*
X793802Y252623D01*
X793385Y252394D01*
X792969Y252207D01*
X792552Y252019D01*
X792136Y251873D01*
X791719Y251749D01*
X791323Y251644D01*
X790928Y251561D01*
X790574Y251499D01*
X790219Y251436D01*
X789928Y251394D01*
X789636Y251374D01*
X789407Y251353D01*
X789220Y251332D01*
X788949D01*
X788491Y251353D01*
X788033Y251374D01*
X787158Y251519D01*
X786762Y251603D01*
X786366Y251707D01*
X786012Y251811D01*
X785679Y251915D01*
X785367Y252019D01*
X785096Y252123D01*
X784867Y252228D01*
X784658Y252311D01*
X784492Y252394D01*
X784388Y252457D01*
X784304Y252477D01*
X784283Y252498D01*
X783888Y252727D01*
X783513Y252998D01*
X783159Y253269D01*
X782846Y253540D01*
X782555Y253831D01*
X782263Y254123D01*
X782013Y254415D01*
X781784Y254685D01*
X781597Y254956D01*
X781409Y255206D01*
X781263Y255435D01*
X781138Y255623D01*
X781055Y255768D01*
X780993Y255893D01*
X780951Y255977D01*
X780930Y255997D01*
X780722Y256435D01*
X780534Y256893D01*
X780389Y257330D01*
X780243Y257789D01*
X780118Y258226D01*
X780034Y258663D01*
X779951Y259080D01*
X779889Y259476D01*
X779847Y259851D01*
X779805Y260184D01*
X779785Y260476D01*
X779764Y260725D01*
X779743Y260934D01*
Y261100D01*
Y261184D01*
Y261225D01*
X779764Y261767D01*
X779785Y262267D01*
X779847Y262766D01*
X779910Y263246D01*
X779993Y263683D01*
X780097Y264120D01*
X780201Y264516D01*
X780305Y264870D01*
X780409Y265203D01*
X780514Y265495D01*
X780597Y265766D01*
X780701Y265974D01*
X780763Y266141D01*
X780826Y266266D01*
X780847Y266349D01*
X780868Y266370D01*
X781097Y266786D01*
X781326Y267182D01*
X781597Y267557D01*
X781847Y267890D01*
X782117Y268203D01*
X782388Y268494D01*
X782659Y268765D01*
X782930Y269015D01*
X783180Y269223D01*
X783409Y269411D01*
X783596Y269577D01*
X783784Y269702D01*
X783929Y269806D01*
X784034Y269869D01*
X784117Y269911D01*
X784138Y269931D01*
X784554Y270161D01*
X784950Y270348D01*
X785367Y270515D01*
X785783Y270660D01*
X786200Y270785D01*
X786595Y270889D01*
X786970Y270973D01*
X787345Y271035D01*
X787678Y271098D01*
X787970Y271139D01*
X788241Y271160D01*
X788491Y271181D01*
X788678Y271202D01*
X788928D01*
X789678Y271181D01*
D02*
G37*
G36*
X724632Y263954D02*
X724882Y264266D01*
X725153Y264537D01*
X725424Y264766D01*
X725674Y264974D01*
X725903Y265141D01*
X726069Y265245D01*
X726194Y265328D01*
X726215Y265349D01*
X726236D01*
X726611Y265537D01*
X727006Y265662D01*
X727381Y265766D01*
X727735Y265828D01*
X728027Y265870D01*
X728277Y265891D01*
X728798D01*
X729110Y265849D01*
X729693Y265745D01*
X730214Y265599D01*
X730672Y265432D01*
X730881Y265349D01*
X731047Y265266D01*
X731214Y265183D01*
X731339Y265120D01*
X731443Y265058D01*
X731526Y265016D01*
X731568Y264995D01*
X731589Y264974D01*
X732088Y264599D01*
X732505Y264183D01*
X732859Y263766D01*
X733151Y263329D01*
X733380Y262954D01*
X733463Y262787D01*
X733546Y262662D01*
X733588Y262537D01*
X733630Y262454D01*
X733671Y262392D01*
Y262371D01*
X733901Y261725D01*
X734067Y261059D01*
X734192Y260434D01*
X734275Y259851D01*
X734296Y259580D01*
X734317Y259330D01*
X734338Y259122D01*
Y258934D01*
X734359Y258788D01*
Y258684D01*
Y258601D01*
Y258580D01*
X734317Y257810D01*
X734234Y257101D01*
X734192Y256768D01*
X734130Y256456D01*
X734046Y256164D01*
X733984Y255893D01*
X733921Y255664D01*
X733838Y255435D01*
X733775Y255248D01*
X733734Y255102D01*
X733671Y254977D01*
X733651Y254893D01*
X733609Y254831D01*
Y254810D01*
X733297Y254227D01*
X732942Y253706D01*
X732588Y253269D01*
X732234Y252915D01*
X731922Y252623D01*
X731797Y252519D01*
X731672Y252415D01*
X731568Y252353D01*
X731505Y252290D01*
X731464Y252269D01*
X731443Y252248D01*
X731172Y252082D01*
X730901Y251957D01*
X730381Y251728D01*
X729860Y251561D01*
X729381Y251457D01*
X729173Y251415D01*
X728985Y251374D01*
X728819Y251353D01*
X728673D01*
X728548Y251332D01*
X728381D01*
X727902Y251353D01*
X727465Y251415D01*
X727069Y251519D01*
X726673Y251665D01*
X726319Y251811D01*
X726007Y251978D01*
X725715Y252165D01*
X725444Y252373D01*
X725215Y252561D01*
X725028Y252748D01*
X724861Y252915D01*
X724715Y253081D01*
X724611Y253207D01*
X724528Y253311D01*
X724486Y253373D01*
X724465Y253394D01*
Y251644D01*
X722279D01*
Y270869D01*
X724632D01*
Y263954D01*
D02*
G37*
G36*
X713385Y265870D02*
X713843Y265828D01*
X714260Y265745D01*
X714676Y265641D01*
X715072Y265537D01*
X715426Y265391D01*
X715759Y265266D01*
X716051Y265120D01*
X716342Y264974D01*
X716572Y264828D01*
X716780Y264683D01*
X716967Y264579D01*
X717092Y264474D01*
X717197Y264391D01*
X717259Y264349D01*
X717280Y264329D01*
X717655Y263954D01*
X717988Y263558D01*
X718279Y263121D01*
X718529Y262662D01*
X718717Y262183D01*
X718904Y261704D01*
X719050Y261225D01*
X719154Y260767D01*
X719238Y260330D01*
X719321Y259934D01*
X719363Y259559D01*
X719383Y259226D01*
X719404Y258976D01*
X719425Y258768D01*
Y258643D01*
Y258622D01*
Y258601D01*
X719404Y257955D01*
X719342Y257351D01*
X719258Y256789D01*
X719154Y256268D01*
X719008Y255789D01*
X718863Y255352D01*
X718696Y254956D01*
X718529Y254581D01*
X718363Y254269D01*
X718196Y253977D01*
X718050Y253748D01*
X717905Y253561D01*
X717801Y253394D01*
X717717Y253290D01*
X717655Y253227D01*
X717634Y253207D01*
X717280Y252873D01*
X716905Y252582D01*
X716530Y252332D01*
X716134Y252123D01*
X715739Y251936D01*
X715343Y251790D01*
X714968Y251665D01*
X714593Y251561D01*
X714239Y251499D01*
X713926Y251436D01*
X713635Y251394D01*
X713385Y251353D01*
X713177D01*
X713031Y251332D01*
X712906D01*
X712239Y251374D01*
X711615Y251457D01*
X711052Y251603D01*
X710781Y251665D01*
X710552Y251749D01*
X710323Y251832D01*
X710136Y251894D01*
X709969Y251978D01*
X709823Y252040D01*
X709698Y252082D01*
X709615Y252123D01*
X709573Y252165D01*
X709553D01*
X709011Y252519D01*
X708532Y252894D01*
X708136Y253290D01*
X707803Y253685D01*
X707532Y254019D01*
X707428Y254185D01*
X707345Y254310D01*
X707282Y254415D01*
X707241Y254498D01*
X707199Y254540D01*
Y254560D01*
X707053Y254873D01*
X706928Y255185D01*
X706720Y255872D01*
X706574Y256581D01*
X706491Y257247D01*
X706449Y257560D01*
X706428Y257851D01*
X706408Y258122D01*
Y258351D01*
X706387Y258538D01*
Y258663D01*
Y258768D01*
Y258788D01*
X706408Y259392D01*
X706470Y259976D01*
X706553Y260517D01*
X706678Y261017D01*
X706803Y261475D01*
X706970Y261892D01*
X707137Y262288D01*
X707303Y262642D01*
X707470Y262954D01*
X707636Y263225D01*
X707803Y263454D01*
X707928Y263641D01*
X708053Y263808D01*
X708136Y263912D01*
X708199Y263975D01*
X708220Y263995D01*
X708574Y264329D01*
X708949Y264620D01*
X709324Y264870D01*
X709719Y265099D01*
X710115Y265266D01*
X710490Y265432D01*
X710886Y265557D01*
X711240Y265662D01*
X711594Y265724D01*
X711906Y265787D01*
X712177Y265828D01*
X712427Y265870D01*
X712635D01*
X712781Y265891D01*
X712906D01*
X713385Y265870D01*
D02*
G37*
%LPC*%
G36*
X776806Y224118D02*
X766024D01*
Y224032D01*
X764894D01*
Y223944D01*
X764111D01*
Y223858D01*
X763503D01*
Y223771D01*
X763068D01*
Y223684D01*
X762720D01*
Y223597D01*
X762372D01*
Y223510D01*
X762111D01*
Y223423D01*
X761851D01*
Y223336D01*
X761590D01*
Y223249D01*
X761329D01*
Y223162D01*
X761155D01*
Y223075D01*
X760981D01*
Y222988D01*
X760807D01*
Y222901D01*
X760633D01*
Y222814D01*
X760459D01*
Y222727D01*
X760285D01*
Y222640D01*
X760199D01*
Y222553D01*
X760025D01*
Y222466D01*
X759938D01*
Y222379D01*
X759851D01*
Y222292D01*
X759764D01*
Y222205D01*
X759590D01*
Y222118D01*
X759503D01*
Y222032D01*
X759416D01*
Y221945D01*
X759329D01*
Y221858D01*
X759242D01*
Y221771D01*
X759155D01*
Y221684D01*
Y221597D01*
X759068D01*
Y221510D01*
X758981D01*
Y221423D01*
X758894D01*
Y221336D01*
X758807D01*
Y221249D01*
Y221162D01*
X758720D01*
Y221075D01*
X758633D01*
Y220988D01*
Y220901D01*
X758546D01*
Y220814D01*
Y220727D01*
X758459D01*
Y220640D01*
Y220553D01*
Y220466D01*
X758372D01*
Y220380D01*
Y220292D01*
X758286D01*
Y220206D01*
Y220119D01*
Y220032D01*
Y219945D01*
X758199D01*
Y219858D01*
Y219771D01*
Y219684D01*
Y219597D01*
X758112D01*
Y219510D01*
Y219423D01*
Y219336D01*
Y219249D01*
Y219162D01*
Y219075D01*
Y218988D01*
Y218901D01*
Y218814D01*
Y218727D01*
X758025D01*
Y218640D01*
Y218554D01*
Y218466D01*
Y218380D01*
Y218293D01*
Y218206D01*
Y218119D01*
Y218032D01*
X758112D01*
Y217945D01*
Y217858D01*
Y217771D01*
Y217684D01*
Y217597D01*
Y217510D01*
Y217423D01*
Y217336D01*
Y217249D01*
X758199D01*
Y217162D01*
Y217075D01*
Y216988D01*
Y216901D01*
Y216814D01*
X758286D01*
Y216728D01*
Y216641D01*
Y216554D01*
X758372D01*
Y216467D01*
Y216380D01*
Y216293D01*
X758459D01*
Y216206D01*
Y216119D01*
X758546D01*
Y216032D01*
Y215945D01*
X758633D01*
Y215858D01*
Y215771D01*
X758720D01*
Y215684D01*
Y215597D01*
X758807D01*
Y215510D01*
X758894D01*
Y215423D01*
Y215336D01*
X758981D01*
Y215249D01*
X759068D01*
Y215162D01*
X759155D01*
Y215075D01*
X759242D01*
Y214988D01*
X759329D01*
Y214902D01*
X759416D01*
Y214815D01*
X759503D01*
Y214728D01*
X759590D01*
Y214641D01*
X759677D01*
Y214554D01*
X759764D01*
Y214467D01*
X759851D01*
Y214380D01*
X760025D01*
Y214293D01*
X760111D01*
Y214206D01*
X760199D01*
Y214119D01*
X760372D01*
Y214032D01*
X760546D01*
Y213945D01*
X760633D01*
Y213858D01*
X760807D01*
Y213771D01*
X760981D01*
Y213684D01*
X761242D01*
Y213597D01*
X761416D01*
Y213510D01*
X761677D01*
Y213423D01*
X761937D01*
Y213336D01*
X762198D01*
Y213249D01*
X762459D01*
Y213162D01*
X762807D01*
Y213076D01*
X763242D01*
Y212989D01*
X763677D01*
Y212902D01*
X764372D01*
Y212815D01*
X765242D01*
Y212728D01*
X766633D01*
Y212641D01*
X776806D01*
Y212728D01*
Y212815D01*
Y212902D01*
Y212989D01*
Y213076D01*
Y213162D01*
Y213249D01*
Y213336D01*
Y213423D01*
Y213510D01*
Y213597D01*
Y213684D01*
Y213771D01*
Y213858D01*
Y213945D01*
Y214032D01*
Y214119D01*
Y214206D01*
Y214293D01*
Y214380D01*
Y214467D01*
Y214554D01*
Y214641D01*
Y214728D01*
Y214815D01*
Y214902D01*
Y214988D01*
Y215075D01*
Y215162D01*
Y215249D01*
Y215336D01*
Y215423D01*
Y215510D01*
Y215597D01*
Y215684D01*
Y215771D01*
Y215858D01*
Y215945D01*
Y216032D01*
Y216119D01*
Y216206D01*
Y216293D01*
Y216380D01*
Y216467D01*
Y216554D01*
Y216641D01*
Y216728D01*
Y216814D01*
Y216901D01*
Y216988D01*
Y217075D01*
Y217162D01*
Y217249D01*
Y217336D01*
Y217423D01*
Y217510D01*
Y217597D01*
Y217684D01*
Y217771D01*
Y217858D01*
Y217945D01*
Y218032D01*
Y218119D01*
Y218206D01*
Y218293D01*
Y218380D01*
Y218466D01*
Y218554D01*
Y218640D01*
Y218727D01*
Y218814D01*
Y218901D01*
Y218988D01*
Y219075D01*
Y219162D01*
Y219249D01*
Y219336D01*
Y219423D01*
Y219510D01*
Y219597D01*
Y219684D01*
Y219771D01*
Y219858D01*
Y219945D01*
Y220032D01*
Y220119D01*
Y220206D01*
Y220292D01*
Y220380D01*
Y220466D01*
Y220553D01*
Y220640D01*
Y220727D01*
Y220814D01*
Y220901D01*
Y220988D01*
Y221075D01*
Y221162D01*
Y221249D01*
Y221336D01*
Y221423D01*
Y221510D01*
Y221597D01*
Y221684D01*
Y221771D01*
Y221858D01*
Y221945D01*
Y222032D01*
Y222118D01*
Y222205D01*
Y222292D01*
Y222379D01*
Y222466D01*
Y222553D01*
Y222640D01*
Y222727D01*
Y222814D01*
Y222901D01*
Y222988D01*
Y223075D01*
Y223162D01*
Y223249D01*
Y223336D01*
Y223423D01*
Y223510D01*
Y223597D01*
Y223684D01*
Y223771D01*
Y223858D01*
Y223944D01*
Y224032D01*
Y224118D01*
D02*
G37*
G36*
X756543Y115027D02*
X751455D01*
Y114663D01*
X750365D01*
Y114300D01*
X749638D01*
Y113937D01*
X748911D01*
Y113573D01*
X748547D01*
Y113210D01*
X748184D01*
Y112846D01*
X747821D01*
Y112483D01*
X747457D01*
Y112119D01*
X747094D01*
Y111756D01*
Y111392D01*
X746730D01*
Y111029D01*
X746367D01*
Y110666D01*
Y110302D01*
Y109939D01*
Y109576D01*
X747457D01*
Y109212D01*
X748911D01*
Y108849D01*
X750365D01*
Y108485D01*
X750728D01*
Y108849D01*
Y109212D01*
X751091D01*
Y109576D01*
Y109939D01*
X751455D01*
Y110302D01*
X752182D01*
Y110666D01*
X752908D01*
Y111029D01*
X756179D01*
Y110666D01*
X757269D01*
Y110302D01*
X757996D01*
Y109939D01*
X758360D01*
Y109576D01*
X759087D01*
Y109212D01*
X759450D01*
Y108849D01*
Y108485D01*
X759813D01*
Y108122D01*
Y107758D01*
Y107395D01*
Y107032D01*
Y106668D01*
Y106305D01*
X759450D01*
Y105941D01*
Y105578D01*
X759087D01*
Y105215D01*
X757996D01*
Y104851D01*
X752182D01*
Y105215D01*
X747821D01*
Y104851D01*
X746367D01*
Y104488D01*
X745640D01*
Y104124D01*
X744913D01*
Y103761D01*
X744550D01*
Y103397D01*
X744186D01*
Y103034D01*
X743823D01*
Y102671D01*
X743460D01*
Y102307D01*
Y101944D01*
X743096D01*
Y101580D01*
Y101217D01*
X742733D01*
Y100854D01*
Y100490D01*
Y100127D01*
Y99763D01*
X742369D01*
Y99400D01*
Y99036D01*
Y98673D01*
Y98310D01*
Y97946D01*
Y97583D01*
Y97219D01*
X742733D01*
Y96856D01*
Y96493D01*
Y96129D01*
X743096D01*
Y95766D01*
Y95402D01*
X743460D01*
Y95039D01*
Y94676D01*
X743823D01*
Y94312D01*
X744186D01*
Y93949D01*
Y93585D01*
X744550D01*
Y93222D01*
X745277D01*
Y92858D01*
X745640D01*
Y92495D01*
X746003D01*
Y92132D01*
X746730D01*
Y91768D01*
X747457D01*
Y91405D01*
X748184D01*
Y91041D01*
X749274D01*
Y90678D01*
X750365D01*
Y90314D01*
X752182D01*
Y89951D01*
X755816D01*
Y90314D01*
X757269D01*
Y90678D01*
X757996D01*
Y91041D01*
X758723D01*
Y91405D01*
X759087D01*
Y91768D01*
X759813D01*
Y92132D01*
X760177D01*
Y92495D01*
Y92858D01*
X760540D01*
Y93222D01*
X760903D01*
Y93585D01*
Y93949D01*
X761267D01*
Y94312D01*
Y94676D01*
X761630D01*
Y95039D01*
Y95402D01*
X761267D01*
Y95766D01*
X759813D01*
Y96129D01*
X758723D01*
Y96493D01*
X756906D01*
Y96129D01*
Y95766D01*
X756543D01*
Y95402D01*
X756179D01*
Y95039D01*
X755816D01*
Y94676D01*
X755452D01*
Y94312D01*
X754725D01*
Y93949D01*
X751818D01*
Y94312D01*
X750728D01*
Y94676D01*
X749638D01*
Y95039D01*
X748911D01*
Y95402D01*
X748184D01*
Y95766D01*
X747821D01*
Y96129D01*
X747457D01*
Y96493D01*
Y96856D01*
X747094D01*
Y97219D01*
Y97583D01*
Y97946D01*
Y98310D01*
Y98673D01*
Y99036D01*
Y99400D01*
X747457D01*
Y99763D01*
X747821D01*
Y100127D01*
X748184D01*
Y100490D01*
X759813D01*
Y100854D01*
X760903D01*
Y101217D01*
X761630D01*
Y101580D01*
X761994D01*
Y101944D01*
X762357D01*
Y102307D01*
X762721D01*
Y102671D01*
X763084D01*
Y103034D01*
Y103397D01*
X763447D01*
Y103761D01*
Y104124D01*
X763811D01*
Y104488D01*
Y104851D01*
Y105215D01*
X764174D01*
Y105578D01*
Y105941D01*
Y106305D01*
Y106668D01*
Y107032D01*
Y107395D01*
Y107758D01*
Y108122D01*
Y108485D01*
Y108849D01*
Y109212D01*
X763811D01*
Y109576D01*
Y109939D01*
X763447D01*
Y110302D01*
Y110666D01*
X763084D01*
Y111029D01*
Y111392D01*
X762721D01*
Y111756D01*
X762357D01*
Y112119D01*
X761994D01*
Y112483D01*
X761630D01*
Y112846D01*
X760903D01*
Y113210D01*
X760540D01*
Y113573D01*
X759813D01*
Y113937D01*
X758723D01*
Y114300D01*
X757996D01*
Y114663D01*
X756543D01*
Y115027D01*
D02*
G37*
G36*
X789977Y104851D02*
X788887D01*
Y104488D01*
X788523D01*
Y104124D01*
Y103761D01*
Y103397D01*
Y103034D01*
X788160D01*
Y102671D01*
Y102307D01*
Y101944D01*
X787796D01*
Y101580D01*
Y101217D01*
Y100854D01*
Y100490D01*
X787433D01*
Y100127D01*
Y99763D01*
Y99400D01*
X787069D01*
Y99036D01*
Y98673D01*
Y98310D01*
Y97946D01*
X786706D01*
Y97583D01*
Y97219D01*
Y96856D01*
Y96493D01*
X786343D01*
Y96129D01*
Y95766D01*
Y95402D01*
X785979D01*
Y95039D01*
Y94676D01*
Y94312D01*
Y93949D01*
X785616D01*
Y93585D01*
Y93222D01*
Y92858D01*
X785252D01*
Y92495D01*
Y92132D01*
Y91768D01*
Y91405D01*
X784889D01*
Y91041D01*
Y90678D01*
Y90314D01*
X784526D01*
Y89951D01*
Y89588D01*
Y89224D01*
Y88861D01*
X784162D01*
Y88497D01*
Y88134D01*
Y87771D01*
Y87407D01*
X783799D01*
Y87044D01*
Y86680D01*
Y86317D01*
X782345D01*
Y86680D01*
X780891D01*
Y87044D01*
X779438D01*
Y87407D01*
X778347D01*
Y87771D01*
X776894D01*
Y88134D01*
X775804D01*
Y88497D01*
X774350D01*
Y88861D01*
X773260D01*
Y89224D01*
X772169D01*
Y88861D01*
X771806D01*
Y88497D01*
Y88134D01*
Y87771D01*
Y87407D01*
X771443D01*
Y87044D01*
Y86680D01*
Y86317D01*
X771079D01*
Y85954D01*
Y85590D01*
Y85227D01*
X772169D01*
Y84863D01*
X773623D01*
Y84500D01*
X774713D01*
Y84136D01*
X776167D01*
Y83773D01*
X777257D01*
Y83410D01*
X778711D01*
Y83046D01*
X779801D01*
Y82683D01*
X781255D01*
Y82319D01*
X782345D01*
Y81956D01*
X783799D01*
Y81593D01*
X785252D01*
Y81229D01*
X786343D01*
Y80866D01*
X787069D01*
Y81229D01*
X787433D01*
Y81593D01*
Y81956D01*
Y82319D01*
Y82683D01*
X787796D01*
Y83046D01*
Y83410D01*
Y83773D01*
Y84136D01*
X788160D01*
Y84500D01*
Y84863D01*
Y85227D01*
X788523D01*
Y85590D01*
Y85954D01*
Y86317D01*
Y86680D01*
X788887D01*
Y87044D01*
Y87407D01*
Y87771D01*
X789250D01*
Y88134D01*
Y88497D01*
Y88861D01*
Y89224D01*
X789613D01*
Y89588D01*
Y89951D01*
Y90314D01*
X789977D01*
Y90678D01*
Y91041D01*
Y91405D01*
Y91768D01*
X790340D01*
Y92132D01*
Y92495D01*
Y92858D01*
X790704D01*
Y93222D01*
Y93585D01*
Y93949D01*
Y94312D01*
X791067D01*
Y94676D01*
Y95039D01*
Y95402D01*
X791431D01*
Y95766D01*
Y96129D01*
Y96493D01*
Y96856D01*
X791794D01*
Y97219D01*
Y97583D01*
Y97946D01*
Y98310D01*
X792157D01*
Y98673D01*
Y99036D01*
Y99400D01*
X792521D01*
Y99763D01*
Y100127D01*
Y100490D01*
Y100854D01*
X792884D01*
Y101217D01*
Y101580D01*
Y101944D01*
X793248D01*
Y102307D01*
Y102671D01*
Y103034D01*
Y103397D01*
X793611D01*
Y103761D01*
X792884D01*
Y104124D01*
X791431D01*
Y104488D01*
X789977D01*
Y104851D01*
D02*
G37*
G36*
X770716Y110302D02*
X769625D01*
Y109939D01*
Y109576D01*
X769262D01*
Y109212D01*
Y108849D01*
Y108485D01*
Y108122D01*
X768899D01*
Y107758D01*
Y107395D01*
Y107032D01*
Y106668D01*
X768535D01*
Y106305D01*
Y105941D01*
Y105578D01*
X768172D01*
Y105215D01*
Y104851D01*
Y104488D01*
Y104124D01*
X767808D01*
Y103761D01*
Y103397D01*
Y103034D01*
X767445D01*
Y102671D01*
Y102307D01*
Y101944D01*
Y101580D01*
X767082D01*
Y101217D01*
Y100854D01*
Y100490D01*
X766718D01*
Y100127D01*
Y99763D01*
Y99400D01*
Y99036D01*
X766355D01*
Y98673D01*
Y98310D01*
Y97946D01*
Y97583D01*
X765991D01*
Y97219D01*
Y96856D01*
Y96493D01*
X765628D01*
Y96129D01*
Y95766D01*
Y95402D01*
Y95039D01*
X765265D01*
Y94676D01*
Y94312D01*
Y93949D01*
X764901D01*
Y93585D01*
Y93222D01*
Y92858D01*
Y92495D01*
X764538D01*
Y92132D01*
Y91768D01*
Y91405D01*
X764174D01*
Y91041D01*
Y90678D01*
Y90314D01*
Y89951D01*
X763811D01*
Y89588D01*
Y89224D01*
Y88861D01*
Y88497D01*
X763447D01*
Y88134D01*
Y87771D01*
Y87407D01*
X764538D01*
Y87044D01*
X765628D01*
Y86680D01*
X767082D01*
Y86317D01*
X767808D01*
Y86680D01*
X768172D01*
Y87044D01*
Y87407D01*
Y87771D01*
X768535D01*
Y88134D01*
Y88497D01*
Y88861D01*
X768899D01*
Y89224D01*
Y89588D01*
Y89951D01*
Y90314D01*
X769262D01*
Y90678D01*
Y91041D01*
Y91405D01*
Y91768D01*
X769625D01*
Y92132D01*
Y92495D01*
Y92858D01*
X769989D01*
Y93222D01*
Y93585D01*
Y93949D01*
Y94312D01*
X770352D01*
Y94676D01*
Y95039D01*
Y95402D01*
X770716D01*
Y95766D01*
Y96129D01*
Y96493D01*
Y96856D01*
X771079D01*
Y97219D01*
Y97583D01*
Y97946D01*
X771443D01*
Y98310D01*
Y98673D01*
Y99036D01*
Y99400D01*
X771806D01*
Y99763D01*
Y100127D01*
Y100490D01*
Y100854D01*
X772169D01*
Y101217D01*
Y101580D01*
Y101944D01*
X772533D01*
Y102307D01*
Y102671D01*
Y103034D01*
Y103397D01*
X772896D01*
Y103761D01*
Y104124D01*
Y104488D01*
X773260D01*
Y104851D01*
Y105215D01*
Y105578D01*
Y105941D01*
X773623D01*
Y106305D01*
Y106668D01*
Y107032D01*
X773987D01*
Y107395D01*
Y107758D01*
Y108122D01*
Y108485D01*
X774350D01*
Y108849D01*
Y109212D01*
X773260D01*
Y109576D01*
X772169D01*
Y109939D01*
X770716D01*
Y110302D01*
D02*
G37*
G36*
X730377Y86680D02*
X729650D01*
Y86317D01*
X730013D01*
Y85954D01*
X731104D01*
Y86317D01*
X730377D01*
Y86680D01*
D02*
G37*
G36*
X732194Y85954D02*
X731830D01*
Y85590D01*
X732194D01*
Y85954D01*
D02*
G37*
G36*
X827689Y263954D02*
X827543D01*
X827252Y263933D01*
X826981Y263891D01*
X826731Y263829D01*
X826481Y263745D01*
X826044Y263537D01*
X825648Y263308D01*
X825335Y263058D01*
X825210Y262954D01*
X825106Y262850D01*
X825023Y262766D01*
X824960Y262704D01*
X824940Y262662D01*
X824919Y262642D01*
X824731Y262392D01*
X824565Y262100D01*
X824419Y261788D01*
X824294Y261475D01*
X824107Y260809D01*
X823961Y260142D01*
X823919Y259851D01*
X823898Y259559D01*
X823877Y259288D01*
X823857Y259059D01*
X823836Y258892D01*
Y258747D01*
Y258663D01*
Y258622D01*
X823857Y258143D01*
X823877Y257684D01*
X823940Y257268D01*
X824023Y256872D01*
X824107Y256518D01*
X824190Y256185D01*
X824294Y255872D01*
X824398Y255623D01*
X824523Y255373D01*
X824627Y255164D01*
X824711Y254998D01*
X824794Y254852D01*
X824877Y254748D01*
X824940Y254664D01*
X824960Y254623D01*
X824981Y254602D01*
X825190Y254373D01*
X825419Y254165D01*
X825648Y253977D01*
X825877Y253831D01*
X826106Y253706D01*
X826314Y253602D01*
X826731Y253436D01*
X827106Y253331D01*
X827252Y253311D01*
X827397Y253290D01*
X827502Y253269D01*
X827647D01*
X828001Y253290D01*
X828314Y253352D01*
X828626Y253436D01*
X828918Y253561D01*
X829189Y253685D01*
X829438Y253852D01*
X829668Y253998D01*
X829876Y254185D01*
X830043Y254352D01*
X830209Y254519D01*
X830355Y254664D01*
X830459Y254789D01*
X830542Y254914D01*
X830605Y254998D01*
X830647Y255060D01*
X830667Y255081D01*
X830792Y255310D01*
X830897Y255560D01*
X830980Y255831D01*
X831042Y256122D01*
X831167Y256726D01*
X831251Y257310D01*
X831271Y257601D01*
X831292Y257851D01*
X831313Y258101D01*
Y258288D01*
X831334Y258476D01*
Y258601D01*
Y258684D01*
Y258705D01*
X831313Y259163D01*
X831292Y259601D01*
X831230Y260017D01*
X831167Y260392D01*
X831063Y260725D01*
X830980Y261059D01*
X830876Y261350D01*
X830771Y261600D01*
X830667Y261829D01*
X830563Y262038D01*
X830459Y262204D01*
X830376Y262350D01*
X830313Y262454D01*
X830251Y262537D01*
X830230Y262579D01*
X830209Y262600D01*
X830001Y262829D01*
X829772Y263037D01*
X829543Y263225D01*
X829314Y263391D01*
X829084Y263516D01*
X828876Y263620D01*
X828460Y263787D01*
X828085Y263891D01*
X827939Y263912D01*
X827793Y263933D01*
X827689Y263954D01*
D02*
G37*
G36*
X789053Y269015D02*
X788574D01*
X788220Y268973D01*
X787574Y268869D01*
X786991Y268703D01*
X786741Y268619D01*
X786491Y268536D01*
X786262Y268432D01*
X786075Y268348D01*
X785908Y268265D01*
X785762Y268182D01*
X785637Y268119D01*
X785554Y268078D01*
X785512Y268057D01*
X785491Y268036D01*
X784950Y267640D01*
X784492Y267203D01*
X784096Y266765D01*
X783763Y266328D01*
X783513Y265932D01*
X783409Y265766D01*
X783325Y265620D01*
X783263Y265495D01*
X783221Y265412D01*
X783180Y265349D01*
Y265328D01*
X782909Y264641D01*
X782701Y263954D01*
X782555Y263266D01*
X782471Y262621D01*
X782430Y262329D01*
X782409Y262058D01*
X782388Y261829D01*
Y261621D01*
X782367Y261454D01*
Y261329D01*
Y261246D01*
Y261225D01*
X782388Y260559D01*
X782451Y259913D01*
X782534Y259330D01*
X782659Y258768D01*
X782805Y258247D01*
X782951Y257789D01*
X783138Y257351D01*
X783305Y256976D01*
X783471Y256622D01*
X783638Y256331D01*
X783804Y256081D01*
X783950Y255872D01*
X784075Y255706D01*
X784158Y255602D01*
X784221Y255518D01*
X784242Y255498D01*
X784596Y255144D01*
X784971Y254831D01*
X785367Y254581D01*
X785762Y254352D01*
X786158Y254144D01*
X786554Y253977D01*
X786929Y253852D01*
X787303Y253748D01*
X787637Y253665D01*
X787970Y253602D01*
X788241Y253561D01*
X788491Y253540D01*
X788699Y253519D01*
X788845Y253498D01*
X788970D01*
X789490Y253519D01*
X789969Y253581D01*
X790449Y253685D01*
X790886Y253811D01*
X791302Y253956D01*
X791677Y254123D01*
X792052Y254310D01*
X792365Y254498D01*
X792656Y254664D01*
X792906Y254852D01*
X793135Y255019D01*
X793323Y255164D01*
X793469Y255289D01*
X793573Y255393D01*
X793635Y255456D01*
X793656Y255477D01*
X793989Y255872D01*
X794260Y256289D01*
X794510Y256726D01*
X794718Y257185D01*
X794906Y257643D01*
X795051Y258080D01*
X795176Y258538D01*
X795281Y258976D01*
X795364Y259372D01*
X795406Y259746D01*
X795447Y260080D01*
X795489Y260371D01*
Y260621D01*
X795510Y260809D01*
Y260913D01*
Y260954D01*
X795489Y261746D01*
X795426Y262475D01*
X795322Y263141D01*
X795197Y263745D01*
X795051Y264308D01*
X794906Y264808D01*
X794718Y265266D01*
X794531Y265683D01*
X794364Y266016D01*
X794177Y266328D01*
X794031Y266578D01*
X793864Y266786D01*
X793760Y266932D01*
X793656Y267057D01*
X793594Y267120D01*
X793573Y267140D01*
X793198Y267474D01*
X792802Y267765D01*
X792406Y268015D01*
X792011Y268223D01*
X791636Y268411D01*
X791240Y268557D01*
X790865Y268682D01*
X790511Y268786D01*
X790178Y268848D01*
X789886Y268911D01*
X789615Y268952D01*
X789386Y268994D01*
X789178D01*
X789053Y269015D01*
D02*
G37*
G36*
X728402Y263933D02*
X728256D01*
X727964Y263912D01*
X727673Y263870D01*
X727402Y263808D01*
X727152Y263725D01*
X726673Y263496D01*
X726277Y263266D01*
X725965Y263016D01*
X725840Y262892D01*
X725715Y262787D01*
X725632Y262704D01*
X725569Y262642D01*
X725548Y262600D01*
X725528Y262579D01*
X725319Y262308D01*
X725153Y262017D01*
X725007Y261704D01*
X724882Y261371D01*
X724674Y260663D01*
X724549Y259996D01*
X724486Y259663D01*
X724465Y259372D01*
X724445Y259101D01*
X724424Y258851D01*
X724403Y258663D01*
Y258518D01*
Y258434D01*
Y258393D01*
X724424Y257914D01*
X724445Y257476D01*
X724507Y257060D01*
X724570Y256685D01*
X724653Y256352D01*
X724757Y256018D01*
X724861Y255727D01*
X724945Y255477D01*
X725049Y255248D01*
X725153Y255060D01*
X725257Y254893D01*
X725340Y254769D01*
X725403Y254644D01*
X725465Y254581D01*
X725486Y254540D01*
X725507Y254519D01*
X725715Y254289D01*
X725923Y254102D01*
X726152Y253936D01*
X726382Y253790D01*
X726590Y253685D01*
X726819Y253581D01*
X727236Y253436D01*
X727590Y253331D01*
X727756Y253311D01*
X727881Y253290D01*
X728006Y253269D01*
X728152D01*
X728444Y253290D01*
X728714Y253331D01*
X728964Y253394D01*
X729214Y253477D01*
X729672Y253685D01*
X730068Y253936D01*
X730381Y254165D01*
X730506Y254269D01*
X730610Y254373D01*
X730693Y254456D01*
X730776Y254519D01*
X730797Y254560D01*
X730818Y254581D01*
X731005Y254852D01*
X731193Y255144D01*
X731339Y255456D01*
X731464Y255768D01*
X731672Y256435D01*
X731797Y257080D01*
X731839Y257393D01*
X731880Y257664D01*
X731901Y257914D01*
X731922Y258143D01*
X731943Y258330D01*
Y258455D01*
Y258559D01*
Y258580D01*
X731922Y259080D01*
X731901Y259559D01*
X731839Y259976D01*
X731776Y260392D01*
X731693Y260746D01*
X731609Y261080D01*
X731526Y261392D01*
X731422Y261642D01*
X731318Y261892D01*
X731235Y262079D01*
X731151Y262267D01*
X731068Y262392D01*
X731005Y262496D01*
X730943Y262579D01*
X730922Y262621D01*
X730901Y262642D01*
X730693Y262871D01*
X730485Y263058D01*
X730256Y263246D01*
X730047Y263391D01*
X729818Y263516D01*
X729589Y263620D01*
X729173Y263766D01*
X728819Y263870D01*
X728652Y263891D01*
X728527Y263912D01*
X728402Y263933D01*
D02*
G37*
G36*
X713073D02*
X712906D01*
X712594Y263912D01*
X712281Y263870D01*
X711990Y263808D01*
X711719Y263725D01*
X711219Y263516D01*
X710781Y263266D01*
X710615Y263141D01*
X710448Y263016D01*
X710323Y262912D01*
X710198Y262808D01*
X710115Y262725D01*
X710052Y262662D01*
X710011Y262621D01*
X709990Y262600D01*
X709782Y262329D01*
X709594Y262058D01*
X709448Y261746D01*
X709303Y261434D01*
X709178Y261100D01*
X709094Y260767D01*
X708949Y260142D01*
X708907Y259851D01*
X708865Y259580D01*
X708844Y259330D01*
X708824Y259101D01*
X708803Y258934D01*
Y258788D01*
Y258705D01*
Y258684D01*
X708824Y258184D01*
X708844Y257726D01*
X708907Y257289D01*
X708990Y256893D01*
X709073Y256518D01*
X709178Y256185D01*
X709282Y255872D01*
X709386Y255623D01*
X709511Y255373D01*
X709615Y255164D01*
X709719Y254998D01*
X709802Y254852D01*
X709886Y254748D01*
X709948Y254664D01*
X709969Y254623D01*
X709990Y254602D01*
X710219Y254373D01*
X710448Y254165D01*
X710698Y253977D01*
X710927Y253831D01*
X711177Y253706D01*
X711427Y253602D01*
X711885Y253436D01*
X712281Y253331D01*
X712468Y253311D01*
X712614Y253290D01*
X712739Y253269D01*
X712906D01*
X713239Y253290D01*
X713531Y253331D01*
X713843Y253394D01*
X714114Y253477D01*
X714614Y253685D01*
X715030Y253936D01*
X715218Y254040D01*
X715384Y254165D01*
X715509Y254269D01*
X715634Y254373D01*
X715718Y254456D01*
X715780Y254519D01*
X715822Y254560D01*
X715843Y254581D01*
X716051Y254852D01*
X716217Y255144D01*
X716384Y255456D01*
X716509Y255768D01*
X716717Y256435D01*
X716863Y257101D01*
X716905Y257393D01*
X716946Y257684D01*
X716967Y257934D01*
X716988Y258164D01*
X717009Y258351D01*
Y258476D01*
Y258580D01*
Y258601D01*
X716988Y259080D01*
X716967Y259538D01*
X716905Y259955D01*
X716822Y260350D01*
X716738Y260705D01*
X716634Y261038D01*
X716530Y261329D01*
X716426Y261600D01*
X716322Y261829D01*
X716217Y262038D01*
X716113Y262204D01*
X716030Y262350D01*
X715947Y262454D01*
X715884Y262537D01*
X715863Y262579D01*
X715843Y262600D01*
X715613Y262829D01*
X715384Y263037D01*
X715135Y263225D01*
X714884Y263370D01*
X714635Y263496D01*
X714406Y263600D01*
X713926Y263766D01*
X713531Y263870D01*
X713343Y263891D01*
X713197Y263912D01*
X713073Y263933D01*
D02*
G37*
%LPD*%
D10*
X84250Y511250D02*
X119250D01*
X84250Y531750D02*
X119250D01*
X774250Y431500D02*
Y453500D01*
X762250D02*
X774250D01*
X762250Y425500D02*
Y453500D01*
Y425500D02*
X774250D01*
Y431500D01*
D15*
X336850Y527000D02*
G03*
X325850Y538000I-11000J0D01*
G01*
X237850D02*
G03*
X226850Y527000I0J-11000D01*
G01*
Y508000D02*
Y527000D01*
X237850Y538000D02*
X325850D01*
X336850Y508000D02*
Y527000D01*
X341850Y446000D02*
Y490000D01*
Y409000D02*
Y431000D01*
Y388000D02*
Y395000D01*
X315850Y388000D02*
X341850D01*
X255850D02*
X291850D01*
X221850D02*
X232850D01*
X221850D02*
Y486000D01*
X574816Y530081D02*
X576482Y531747D01*
X579814D01*
X581480Y530081D01*
Y523416D01*
X579814Y521750D01*
X576482D01*
X574816Y523416D01*
X571484Y521750D02*
Y528414D01*
X568151Y531747D01*
X564819Y528414D01*
Y521750D01*
Y526748D01*
X571484D01*
X561487Y521750D02*
Y531747D01*
X558155Y528414D01*
X554822Y531747D01*
Y521750D01*
X745164Y444332D02*
X746831Y445998D01*
X750163D01*
X751829Y444332D01*
Y437668D01*
X750163Y436002D01*
X746831D01*
X745164Y437668D01*
X741832Y444332D02*
X740166Y445998D01*
X736834D01*
X735168Y444332D01*
Y442666D01*
X736834Y441000D01*
X738500D01*
X736834D01*
X735168Y439334D01*
Y437668D01*
X736834Y436002D01*
X740166D01*
X741832Y437668D01*
X731835Y444332D02*
X730169Y445998D01*
X726837D01*
X725171Y444332D01*
Y442666D01*
X726837Y441000D01*
X725171Y439334D01*
Y437668D01*
X726837Y436002D01*
X730169D01*
X731835Y437668D01*
Y439334D01*
X730169Y441000D01*
X731835Y442666D01*
Y444332D01*
X730169Y441000D02*
X726837D01*
X795665Y437582D02*
X797331Y439248D01*
X800663D01*
X802329Y437582D01*
Y430918D01*
X800663Y429252D01*
X797331D01*
X795665Y430918D01*
X792332Y437582D02*
X790666Y439248D01*
X787334D01*
X785668Y437582D01*
Y435916D01*
X787334Y434250D01*
X789000D01*
X787334D01*
X785668Y432584D01*
Y430918D01*
X787334Y429252D01*
X790666D01*
X792332Y430918D01*
X782336Y439248D02*
X775671D01*
Y437582D01*
X782336Y430918D01*
Y429252D01*
X336165Y491919D02*
X334498Y490253D01*
X331166D01*
X329500Y491919D01*
Y498584D01*
X331166Y500250D01*
X334498D01*
X336165Y498584D01*
X339497Y491919D02*
X341163Y490253D01*
X344495D01*
X346161Y491919D01*
Y493586D01*
X344495Y495252D01*
X342829D01*
X344495D01*
X346161Y496918D01*
Y498584D01*
X344495Y500250D01*
X341163D01*
X339497Y498584D01*
X349494Y491919D02*
X351160Y490253D01*
X354492D01*
X356158Y491919D01*
Y493586D01*
X354492Y495252D01*
X352826D01*
X354492D01*
X356158Y496918D01*
Y498584D01*
X354492Y500250D01*
X351160D01*
X349494Y498584D01*
X370835Y427581D02*
X372502Y429247D01*
X375834D01*
X377500Y427581D01*
Y425915D01*
X375834Y424249D01*
X372502D01*
X370835Y422582D01*
Y420916D01*
X372502Y419250D01*
X375834D01*
X377500Y420916D01*
X367503Y429247D02*
Y419250D01*
X362505D01*
X360839Y420916D01*
Y427581D01*
X362505Y429247D01*
X367503D01*
X357506Y419250D02*
X354174D01*
X355840D01*
Y429247D01*
X357506Y427581D01*
X117250Y60500D02*
Y70497D01*
X113918Y67165D01*
X110585Y70497D01*
Y60500D01*
X102255Y70497D02*
X105587D01*
X107253Y68831D01*
Y62166D01*
X105587Y60500D01*
X102255D01*
X100589Y62166D01*
Y68831D01*
X102255Y70497D01*
X90592Y68831D02*
X92258Y70497D01*
X95590D01*
X97256Y68831D01*
Y67165D01*
X95590Y65498D01*
X92258D01*
X90592Y63832D01*
Y62166D01*
X92258Y60500D01*
X95590D01*
X97256Y62166D01*
X87260Y65498D02*
X80595D01*
X70598Y68831D02*
X72264Y70497D01*
X75597D01*
X77263Y68831D01*
Y62166D01*
X75597Y60500D01*
X72264D01*
X70598Y62166D01*
Y65498D01*
X73931D01*
X65600Y67165D02*
X62268D01*
X60602Y65498D01*
Y60500D01*
X65600D01*
X67266Y62166D01*
X65600Y63832D01*
X60602D01*
X55603Y68831D02*
Y67165D01*
X57269D01*
X53937D01*
X55603D01*
Y62166D01*
X53937Y60500D01*
X43940D02*
X47273D01*
X48939Y62166D01*
Y65498D01*
X47273Y67165D01*
X43940D01*
X42274Y65498D01*
Y63832D01*
X48939D01*
X394585Y205497D02*
X401250D01*
Y200498D01*
X397918Y202164D01*
X396252D01*
X394585Y200498D01*
Y197166D01*
X396252Y195500D01*
X399584D01*
X401250Y197166D01*
X391253Y205497D02*
Y198832D01*
X387921Y195500D01*
X384589Y198832D01*
Y205497D01*
X486500Y402581D02*
X484834Y404247D01*
X481502D01*
X479836Y402581D01*
Y400914D01*
X481502Y399248D01*
X483168D01*
X481502D01*
X479836Y397582D01*
Y395916D01*
X481502Y394250D01*
X484834D01*
X486500Y395916D01*
X476503Y394250D02*
Y395916D01*
X474837D01*
Y394250D01*
X476503D01*
X468173Y402581D02*
X466506Y404247D01*
X463174D01*
X461508Y402581D01*
Y400914D01*
X463174Y399248D01*
X464840D01*
X463174D01*
X461508Y397582D01*
Y395916D01*
X463174Y394250D01*
X466506D01*
X468173Y395916D01*
X458176Y404247D02*
Y397582D01*
X454843Y394250D01*
X451511Y397582D01*
Y404247D01*
X775250Y296000D02*
X771918D01*
X773584D01*
Y305997D01*
X775250Y304331D01*
X766919Y296000D02*
Y297666D01*
X765253D01*
Y296000D01*
X766919D01*
X758589Y304331D02*
X756923Y305997D01*
X753590D01*
X751924Y304331D01*
Y302665D01*
X753590Y300998D01*
X751924Y299332D01*
Y297666D01*
X753590Y296000D01*
X756923D01*
X758589Y297666D01*
Y299332D01*
X756923Y300998D01*
X758589Y302665D01*
Y304331D01*
X756923Y300998D02*
X753590D01*
X748592Y305997D02*
Y299332D01*
X745260Y296000D01*
X741927Y299332D01*
Y305997D01*
X268836Y289253D02*
X270502Y290919D01*
X273834D01*
X275500Y289253D01*
Y287587D01*
X273834Y285921D01*
X270502D01*
X268836Y284255D01*
Y282589D01*
X270502Y280922D01*
X273834D01*
X275500Y282589D01*
X265503Y290919D02*
Y280922D01*
Y285921D01*
X258839D01*
Y290919D01*
Y280922D01*
X255506Y290919D02*
Y280922D01*
X250508D01*
X248842Y282589D01*
Y289253D01*
X250508Y290919D01*
X255506D01*
X245510Y280922D02*
Y290919D01*
X238845Y280922D01*
Y290919D01*
X235513Y279256D02*
X228848D01*
X225516Y280922D02*
Y290919D01*
X220518D01*
X218852Y289253D01*
Y285921D01*
X220518Y284255D01*
X225516D01*
X222184D02*
X218852Y280922D01*
X208855Y290919D02*
X215519D01*
Y280922D01*
X208855D01*
X215519Y285921D02*
X212187D01*
X198858Y282589D02*
Y289253D01*
X200524Y290919D01*
X203856D01*
X205523Y289253D01*
Y282589D01*
X203856Y280922D01*
X200524D01*
X202190Y284255D02*
X198858Y280922D01*
X200524D02*
X198858Y282589D01*
X333500Y256750D02*
Y266747D01*
X328502D01*
X326836Y265081D01*
Y261748D01*
X328502Y260082D01*
X333500D01*
X330168D02*
X326836Y256750D01*
X316839Y265081D02*
X318505Y266747D01*
X321837D01*
X323503Y265081D01*
Y263414D01*
X321837Y261748D01*
X318505D01*
X316839Y260082D01*
Y258416D01*
X318505Y256750D01*
X321837D01*
X323503Y258416D01*
X313507Y266747D02*
X306842D01*
X310174D01*
Y256750D01*
X172500Y258000D02*
Y267997D01*
X167502D01*
X165835Y266331D01*
Y262998D01*
X167502Y261332D01*
X172500D01*
X162503Y267997D02*
Y258000D01*
X159171Y261332D01*
X155839Y258000D01*
Y267997D01*
X152507Y258000D02*
Y267997D01*
X147508D01*
X145842Y266331D01*
Y262998D01*
X147508Y261332D01*
X152507D01*
X149174D02*
X145842Y258000D01*
X142510Y256334D02*
X135845D01*
X125848Y267997D02*
X132513D01*
Y258000D01*
X125848D01*
X132513Y262998D02*
X129181D01*
X122516Y258000D02*
Y267997D01*
X115852Y258000D01*
Y267997D01*
X151750Y402000D02*
Y411997D01*
X146752D01*
X145085Y410331D01*
Y406998D01*
X146752Y405332D01*
X151750D01*
X141753Y411997D02*
Y402000D01*
X138421Y405332D01*
X135089Y402000D01*
Y411997D01*
X131756Y402000D02*
Y411997D01*
X126758D01*
X125092Y410331D01*
Y406998D01*
X126758Y405332D01*
X131756D01*
X128424D02*
X125092Y402000D01*
X121760Y400334D02*
X115095D01*
X111763Y411997D02*
Y402000D01*
X106764D01*
X105098Y403666D01*
Y405332D01*
X106764Y406998D01*
X111763D01*
X106764D01*
X105098Y408665D01*
Y410331D01*
X106764Y411997D01*
X111763D01*
X101766D02*
X95102D01*
X98434D01*
Y402000D01*
X334003Y24497D02*
X336002Y26496D01*
X340001D01*
X342000Y24497D01*
Y16499D01*
X340001Y14500D01*
X336002D01*
X334003Y16499D01*
X330004Y14500D02*
Y26496D01*
X324006D01*
X322006Y24497D01*
Y20498D01*
X324006Y18498D01*
X330004D01*
X326005D02*
X322006Y14500D01*
X318008D02*
X314009D01*
X316008D01*
Y26496D01*
X318008Y24497D01*
X300014Y14500D02*
X308011D01*
X300014Y22497D01*
Y24497D01*
X302013Y26496D01*
X306012D01*
X308011Y24497D01*
X288018Y14500D02*
X296015D01*
X288018Y22497D01*
Y24497D01*
X290017Y26496D01*
X294016D01*
X296015Y24497D01*
X276021Y26496D02*
X284019D01*
Y20498D01*
X280020Y22497D01*
X278021D01*
X276021Y20498D01*
Y16499D01*
X278021Y14500D01*
X282019D01*
X284019Y16499D01*
X73250Y203750D02*
Y213747D01*
X68252D01*
X66585Y212081D01*
Y208748D01*
X68252Y207082D01*
X73250D01*
X56589Y213747D02*
X63253D01*
Y208748D01*
X59921Y210415D01*
X58255D01*
X56589Y208748D01*
Y205416D01*
X58255Y203750D01*
X61587D01*
X63253Y205416D01*
X185445Y498225D02*
Y508222D01*
X180446D01*
X178780Y506556D01*
Y503223D01*
X180446Y501557D01*
X185445D01*
X182112D02*
X178780Y498225D01*
X168783Y508222D02*
X175448D01*
Y498225D01*
X168783D01*
X175448Y503223D02*
X172116D01*
X158786Y506556D02*
X160453Y508222D01*
X163785D01*
X165451Y506556D01*
Y499891D01*
X163785Y498225D01*
X160453D01*
X158786Y499891D01*
X150456Y508222D02*
X153788D01*
X155454Y506556D01*
Y499891D01*
X153788Y498225D01*
X150456D01*
X148790Y499891D01*
Y506556D01*
X150456Y508222D01*
X145457D02*
Y501557D01*
X142125Y498225D01*
X138793Y501557D01*
Y508222D01*
X135461Y498225D02*
Y499891D01*
X133795D01*
Y498225D01*
X135461D01*
D208*
X102086Y506581D02*
X103752Y508247D01*
X107084D01*
X108750Y506581D01*
Y499916D01*
X107084Y498250D01*
X103752D01*
X102086Y499916D01*
X98753Y508247D02*
X92089D01*
Y506581D01*
X98753Y499916D01*
Y498250D01*
M02*
