G04*
G04 #@! TF.GenerationSoftware,Altium Limited,Altium Designer,20.1.11 (218)*
G04*
G04 Layer_Physical_Order=3*
G04 Layer_Color=128*
%FSLAX44Y44*%
%MOMM*%
G71*
G04*
G04 #@! TF.SameCoordinates,4E8BECB8-10D7-4487-B94D-AC5258AA6689*
G04*
G04*
G04 #@! TF.FilePolarity,Negative*
G04*
G01*
G75*
%ADD11C,0.2000*%
%ADD12C,0.2540*%
%ADD133C,0.4000*%
%ADD173C,2.1080*%
%ADD174C,1.6080*%
%ADD175C,1.5580*%
%ADD176C,1.4080*%
%ADD177C,2.3080*%
%ADD178C,1.2080*%
%ADD179C,3.2080*%
%ADD180C,3.7080*%
%ADD181C,0.7080*%
%ADD182C,0.8080*%
%ADD183O,1.1080X1.8080*%
%ADD184O,1.1080X1.6080*%
%ADD185O,1.7080X1.0080*%
%ADD186O,1.1080X2.8080*%
%ADD187O,1.1080X2.0080*%
G36*
X522332Y111939D02*
X523739Y110533D01*
X524500Y108695D01*
Y107701D01*
Y1D01*
X387500D01*
Y107701D01*
X387500D01*
Y108695D01*
X388261Y110533D01*
X389668Y111939D01*
X391505Y112701D01*
X393494D01*
X395332Y111939D01*
X396739Y110533D01*
X397500Y108695D01*
Y107701D01*
X514500D01*
Y108695D01*
X515261Y110533D01*
X516668Y111939D01*
X518505Y112701D01*
X520494D01*
X522332Y111939D01*
D02*
G37*
D11*
X758000Y274750D02*
Y288750D01*
X138500Y274750D02*
Y288750D01*
Y274750D02*
X758000D01*
X758000Y274750D02*
X758000Y274750D01*
X138500Y288750D02*
X758000D01*
D12*
X264750Y540000D02*
X309500D01*
X348500Y501000D01*
Y438000D02*
Y501000D01*
X108000Y438000D02*
X348500D01*
X428750Y349250D02*
X436500Y357000D01*
X428750Y321500D02*
Y349250D01*
Y321500D02*
X442250Y308000D01*
X470750D01*
X485500Y322750D01*
Y350000D01*
X469750Y365750D02*
X485500Y350000D01*
X445250Y365750D02*
X469750D01*
X436500Y357000D02*
X445250Y365750D01*
X747000Y426250D02*
Y453750D01*
Y426250D02*
X764000Y409250D01*
Y350250D02*
Y409250D01*
X748000Y334250D02*
X764000Y350250D01*
X586250Y334250D02*
X748000D01*
X570750Y349750D02*
X586250Y334250D01*
X555250Y365250D02*
X570750Y349750D01*
X555250Y365250D02*
Y452000D01*
X571250Y468000D01*
X735000D01*
X747000Y456000D01*
Y453750D02*
Y456000D01*
X585000Y23000D02*
X640500D01*
Y129250D01*
X585000D02*
X640500D01*
X585000Y23000D02*
Y129250D01*
X821000Y269250D02*
Y540250D01*
X763000Y211250D02*
X821000Y269250D01*
X108000Y438000D02*
Y540000D01*
X124750Y211250D02*
X763000D01*
X69500Y266500D02*
X124750Y211250D01*
X69500Y266500D02*
Y399500D01*
X108000Y438000D01*
D133*
X850000Y540000D02*
X851966Y540000D01*
X30000Y540000D02*
X850000D01*
X28034Y540000D02*
X30000Y540000D01*
X24135Y539487D02*
X28034Y540000D01*
X20336Y538469D02*
X24135Y539487D01*
X16703Y536964D02*
X20336Y538469D01*
X13297Y534998D02*
X16703Y536964D01*
X10177Y532604D02*
X13297Y534998D01*
X7396Y529823D02*
X10177Y532604D01*
X5002Y526703D02*
X7396Y529823D01*
X3036Y523297D02*
X5002Y526703D01*
X1531Y519664D02*
X3036Y523297D01*
X513Y515865D02*
X1531Y519664D01*
X0Y511966D02*
X513Y515865D01*
X-0Y510000D02*
X0Y511966D01*
X-0Y510000D02*
X0Y30000D01*
Y28034D02*
Y30000D01*
Y28034D02*
X513Y24135D01*
X1531Y20336D01*
X3036Y16703D01*
X5002Y13297D01*
X7396Y10177D01*
X10177Y7396D01*
X13297Y5002D01*
X16703Y3036D01*
X20336Y1531D01*
X24135Y513D01*
X28034Y0D01*
X30000D01*
X524500Y-0D01*
X850000Y0D01*
X851966D01*
X855865Y513D01*
X859664Y1531D01*
X863297Y3036D01*
X866703Y5002D01*
X869823Y7396D01*
X872604Y10177D01*
X874998Y13297D01*
X876964Y16703D01*
X878469Y20336D01*
X879487Y24135D01*
X880000Y28034D01*
X880000Y30000D02*
X880000Y28034D01*
X880000Y30000D02*
X880000Y510000D01*
Y511966D01*
X879487Y515865D02*
X880000Y511966D01*
X878469Y519664D02*
X879487Y515865D01*
X876964Y523297D02*
X878469Y519664D01*
X874998Y526703D02*
X876964Y523297D01*
X872604Y529823D02*
X874998Y526703D01*
X869823Y532604D02*
X872604Y529823D01*
X866703Y534998D02*
X869823Y532604D01*
X863297Y536964D02*
X866703Y534998D01*
X859664Y538469D02*
X863297Y536964D01*
X855865Y539487D02*
X859664Y538469D01*
X851966Y540000D02*
X855865Y539487D01*
X520494Y112701D02*
X522332Y111939D01*
X523739Y110533D01*
X524500Y108695D01*
Y107701D02*
Y108695D01*
Y1D02*
Y107701D01*
X387500Y1D02*
X524500D01*
X387500D02*
Y107701D01*
X387500D02*
X387500D01*
X387500D02*
Y108695D01*
X388261Y110533D01*
X389668Y111939D01*
X391505Y112701D01*
X393494D01*
X395332Y111939D01*
X396739Y110533D01*
X397500Y108695D01*
Y107701D02*
Y108695D01*
Y107701D02*
X514500D01*
Y108695D01*
X515261Y110533D01*
X516668Y111939D01*
X518505Y112701D01*
X520494D01*
D173*
X784695Y455975D02*
D03*
D174*
X96694D02*
D03*
X30000Y76000D02*
D03*
Y186000D02*
D03*
D175*
X853750Y154600D02*
D03*
Y129199D02*
D03*
Y103799D02*
D03*
Y78400D02*
D03*
D176*
X413689Y525180D02*
D03*
X388289D02*
D03*
X362889D02*
D03*
X181750Y261500D02*
D03*
X86250Y404250D02*
D03*
X315000Y242250D02*
D03*
X745750Y282750D02*
D03*
X12000Y67750D02*
D03*
X204750Y269000D02*
D03*
D177*
X130000Y156000D02*
D03*
Y106000D02*
D03*
D178*
X416000Y134000D02*
D03*
X436000D02*
D03*
X496000D02*
D03*
X476000D02*
D03*
X491000Y119000D02*
D03*
X456000Y134000D02*
D03*
X466000Y119000D02*
D03*
X446000D02*
D03*
X421000D02*
D03*
D179*
X122695Y35975D02*
D03*
X758695D02*
D03*
D180*
X850000Y30000D02*
D03*
Y510000D02*
D03*
X30000D02*
D03*
Y30000D02*
D03*
D181*
X15000Y147480D02*
D03*
X216500Y324480D02*
D03*
X209500D02*
D03*
X224000D02*
D03*
X288750Y392250D02*
D03*
X259250D02*
D03*
X350750Y401250D02*
D03*
X344500Y512250D02*
D03*
X231500Y324250D02*
D03*
X184000Y248500D02*
D03*
X251750Y463250D02*
D03*
X203500Y433500D02*
D03*
X187250Y465000D02*
D03*
X151750Y517500D02*
D03*
X339250Y441500D02*
D03*
X158000Y464000D02*
D03*
X320750Y517500D02*
D03*
X306500Y524750D02*
D03*
X290750Y533500D02*
D03*
X245500Y518750D02*
D03*
X296000Y473750D02*
D03*
X289500Y473119D02*
D03*
X278500Y533000D02*
D03*
X247852Y511326D02*
D03*
X223250Y514918D02*
D03*
X214750Y510500D02*
D03*
X199500Y483000D02*
D03*
X214750Y474750D02*
D03*
X256945Y427648D02*
D03*
X155000Y380000D02*
D03*
X173918Y376832D02*
D03*
X195106Y432106D02*
D03*
X186356Y431856D02*
D03*
X243750Y459250D02*
D03*
X236750Y457750D02*
D03*
X229750Y457250D02*
D03*
X255750Y346000D02*
D03*
X256000Y354000D02*
D03*
X636750Y452000D02*
D03*
X548500Y457000D02*
D03*
X79500Y304250D02*
D03*
X340500Y462000D02*
D03*
X353000Y467000D02*
D03*
X413014Y224750D02*
D03*
X414500Y235000D02*
D03*
X90000Y420000D02*
D03*
X89500Y433000D02*
D03*
X78500Y425250D02*
D03*
X485500Y174750D02*
D03*
X693250Y85750D02*
D03*
X605500Y180250D02*
D03*
X594250Y181787D02*
D03*
X583500Y181906D02*
D03*
X654750Y63000D02*
D03*
X568500Y91500D02*
D03*
X605597Y204716D02*
D03*
X690750Y63250D02*
D03*
X702750Y63000D02*
D03*
X678750Y63250D02*
D03*
X666750Y63000D02*
D03*
X623250Y178500D02*
D03*
X630750Y377000D02*
D03*
X562000Y438750D02*
D03*
X789250Y228750D02*
D03*
X143000Y231000D02*
D03*
X181250Y328250D02*
D03*
X818500Y357750D02*
D03*
X840750Y245000D02*
D03*
X842000Y443750D02*
D03*
X870250Y315000D02*
D03*
X852250Y302500D02*
D03*
X814500Y456750D02*
D03*
X808552Y228750D02*
D03*
X783250Y157000D02*
D03*
X800750Y62500D02*
D03*
X799250Y98250D02*
D03*
X576000Y165750D02*
D03*
X630500Y199250D02*
D03*
Y229750D02*
D03*
X622000Y159750D02*
D03*
X611000Y148250D02*
D03*
X618250Y139000D02*
D03*
X564750Y67500D02*
D03*
X600750Y51750D02*
D03*
X179500Y225000D02*
D03*
X147750Y54750D02*
D03*
X158250Y54500D02*
D03*
X37750Y406500D02*
D03*
X90000Y344000D02*
D03*
X159000Y360000D02*
D03*
X173250Y368250D02*
D03*
X133500Y334500D02*
D03*
X136500Y365250D02*
D03*
X131750Y271750D02*
D03*
X100500Y265000D02*
D03*
X37250Y267500D02*
D03*
X61750Y225250D02*
D03*
X49550Y231050D02*
D03*
X66500Y235750D02*
D03*
X137250Y244000D02*
D03*
X14750Y169750D02*
D03*
X20500Y206750D02*
D03*
X87500Y235750D02*
D03*
X75500Y237750D02*
D03*
X97500Y231250D02*
D03*
X131750Y207500D02*
D03*
X106000Y192000D02*
D03*
X291750Y215750D02*
D03*
X222500Y217000D02*
D03*
X307250Y175750D02*
D03*
X315500Y55750D02*
D03*
X244500Y17500D02*
D03*
X194250Y22500D02*
D03*
X104000Y147000D02*
D03*
X79000Y311500D02*
D03*
X65750Y288000D02*
D03*
X74500Y288750D02*
D03*
X107500Y386250D02*
D03*
X736250Y185750D02*
D03*
X414000Y214500D02*
D03*
X748500Y185500D02*
D03*
X408000Y456250D02*
D03*
X399250Y456500D02*
D03*
X772000Y402750D02*
D03*
X723731Y453231D02*
D03*
X623803Y443803D02*
D03*
X623750Y437940D02*
D03*
X657575Y444065D02*
D03*
X657750Y438080D02*
D03*
X736750Y452000D02*
D03*
X752370Y367714D02*
D03*
X746560D02*
D03*
X671900Y386750D02*
D03*
X677710D02*
D03*
X461984Y347750D02*
D03*
X456174D02*
D03*
X446750Y327520D02*
D03*
Y321710D02*
D03*
X426000Y174750D02*
D03*
X545500Y246885D02*
D03*
Y241115D02*
D03*
X520920Y245670D02*
D03*
X525000Y249750D02*
D03*
X641250Y134250D02*
D03*
X660000D02*
D03*
X680250D02*
D03*
X700500D02*
D03*
X718000D02*
D03*
X637000Y102750D02*
D03*
X586000Y80250D02*
D03*
X619790Y397195D02*
D03*
X613980D02*
D03*
X608750Y438690D02*
D03*
X608803Y444553D02*
D03*
X604790Y397147D02*
D03*
X598980D02*
D03*
X578750Y438690D02*
D03*
X578803Y444553D02*
D03*
X574790Y397250D02*
D03*
X568980D02*
D03*
X593681Y438714D02*
D03*
X593734Y444577D02*
D03*
X589790Y397250D02*
D03*
X583980D02*
D03*
X666750Y85750D02*
D03*
D182*
X149500Y428750D02*
D03*
X392000Y400500D02*
D03*
X316889Y429450D02*
D03*
X268750Y190750D02*
D03*
X288250Y186500D02*
D03*
Y194500D02*
D03*
X296250D02*
D03*
Y186500D02*
D03*
X758843Y430750D02*
D03*
X772041Y195948D02*
D03*
X792750Y137250D02*
D03*
X804750Y43000D02*
D03*
X70750Y94250D02*
D03*
X70500Y84000D02*
D03*
X50250Y84250D02*
D03*
X50000Y93500D02*
D03*
X156000Y209750D02*
D03*
X201250Y63500D02*
D03*
X276250Y63750D02*
D03*
X230250Y63500D02*
D03*
X245250D02*
D03*
X260750Y63750D02*
D03*
X215000Y63500D02*
D03*
X262000Y226500D02*
D03*
Y234000D02*
D03*
Y241250D02*
D03*
X281500Y162250D02*
D03*
X264000D02*
D03*
X186750Y63500D02*
D03*
X172750Y64000D02*
D03*
X89250Y507000D02*
D03*
X82750D02*
D03*
X89250Y534750D02*
D03*
X82750D02*
D03*
X106750Y516500D02*
D03*
Y525250D02*
D03*
X128750Y516500D02*
D03*
Y525500D02*
D03*
X416947Y429450D02*
D03*
X332020D02*
D03*
X699250Y483250D02*
D03*
X715250Y484000D02*
D03*
X730000Y483500D02*
D03*
X744500Y483000D02*
D03*
X454500Y482500D02*
D03*
X174750Y432250D02*
D03*
X609500Y482500D02*
D03*
X564539D02*
D03*
X624500D02*
D03*
X579500D02*
D03*
X479389Y511450D02*
D03*
X494389D02*
D03*
X509000Y481750D02*
D03*
X346889Y429450D02*
D03*
X361889D02*
D03*
X376889D02*
D03*
X431889D02*
D03*
X446889D02*
D03*
X521889D02*
D03*
X142250Y428500D02*
D03*
X134500D02*
D03*
X359389Y511450D02*
D03*
X374500Y482500D02*
D03*
X389500D02*
D03*
X424500D02*
D03*
X439500D02*
D03*
X464500D02*
D03*
X594500D02*
D03*
X639500D02*
D03*
X654500D02*
D03*
X669500D02*
D03*
X684500D02*
D03*
X774500D02*
D03*
X159250Y324000D02*
D03*
X289250Y119500D02*
D03*
X275750Y119000D02*
D03*
X260750D02*
D03*
X245250D02*
D03*
X230250Y118750D02*
D03*
X215000Y119000D02*
D03*
X200500D02*
D03*
X186500Y118750D02*
D03*
X171500Y119000D02*
D03*
X366750Y13750D02*
D03*
D183*
X612500Y62750D02*
D03*
X721000D02*
D03*
D184*
X612500Y17750D02*
D03*
X721000D02*
D03*
D185*
X856500Y265000D02*
D03*
Y199000D02*
D03*
X857000Y400500D02*
D03*
Y466500D02*
D03*
D186*
X534500Y109700D02*
D03*
X377500D02*
D03*
D187*
X534500Y41700D02*
D03*
X377500D02*
D03*
M02*
