G04*
G04 #@! TF.GenerationSoftware,Altium Limited,Altium Designer,20.1.11 (218)*
G04*
G04 Layer_Physical_Order=4*
G04 Layer_Color=16711680*
%FSLAX44Y44*%
%MOMM*%
G71*
G04*
G04 #@! TF.SameCoordinates,4E8BECB8-10D7-4487-B94D-AC5258AA6689*
G04*
G04*
G04 #@! TF.FilePolarity,Positive*
G04*
G01*
G75*
%ADD13C,0.2500*%
%ADD15C,0.1500*%
%ADD17C,0.1270*%
G04:AMPARAMS|DCode=42|XSize=0.5mm|YSize=0.4mm|CornerRadius=0.02mm|HoleSize=0mm|Usage=FLASHONLY|Rotation=0.000|XOffset=0mm|YOffset=0mm|HoleType=Round|Shape=RoundedRectangle|*
%AMROUNDEDRECTD42*
21,1,0.5000,0.3600,0,0,0.0*
21,1,0.4600,0.4000,0,0,0.0*
1,1,0.0400,0.2300,-0.1800*
1,1,0.0400,-0.2300,-0.1800*
1,1,0.0400,-0.2300,0.1800*
1,1,0.0400,0.2300,0.1800*
%
%ADD42ROUNDEDRECTD42*%
G04:AMPARAMS|DCode=50|XSize=0.8mm|YSize=0.7mm|CornerRadius=0.035mm|HoleSize=0mm|Usage=FLASHONLY|Rotation=0.000|XOffset=0mm|YOffset=0mm|HoleType=Round|Shape=RoundedRectangle|*
%AMROUNDEDRECTD50*
21,1,0.8000,0.6300,0,0,0.0*
21,1,0.7300,0.7000,0,0,0.0*
1,1,0.0700,0.3650,-0.3150*
1,1,0.0700,-0.3650,-0.3150*
1,1,0.0700,-0.3650,0.3150*
1,1,0.0700,0.3650,0.3150*
%
%ADD50ROUNDEDRECTD50*%
G04:AMPARAMS|DCode=57|XSize=1mm|YSize=1.7mm|CornerRadius=0.05mm|HoleSize=0mm|Usage=FLASHONLY|Rotation=180.000|XOffset=0mm|YOffset=0mm|HoleType=Round|Shape=RoundedRectangle|*
%AMROUNDEDRECTD57*
21,1,1.0000,1.6000,0,0,180.0*
21,1,0.9000,1.7000,0,0,180.0*
1,1,0.1000,-0.4500,0.8000*
1,1,0.1000,0.4500,0.8000*
1,1,0.1000,0.4500,-0.8000*
1,1,0.1000,-0.4500,-0.8000*
%
%ADD57ROUNDEDRECTD57*%
%ADD125C,0.1618*%
%ADD126C,0.1431*%
%ADD133C,0.4000*%
%ADD134C,0.1796*%
%ADD135C,0.5000*%
%ADD137C,0.3000*%
%ADD157C,1.9000*%
%ADD158C,1.5000*%
%ADD159O,1.2000X1.9000*%
%ADD160O,1.2000X1.7000*%
%ADD161R,1.5000X1.5000*%
%ADD162O,2.0000X1.2000*%
%ADD163C,1.2000*%
%ADD164C,2.8000*%
%ADD165C,1.8000*%
%ADD166O,1.2000X3.0000*%
%ADD167O,1.2000X2.2000*%
%ADD168C,2.5000*%
%ADD169C,3.2000*%
%ADD170C,0.4500*%
%ADD171C,0.6000*%
%ADD188R,2.1000X2.8000*%
%ADD189R,0.6000X1.9000*%
%ADD190R,1.5500X1.3500*%
%ADD191R,1.1700X1.8000*%
%ADD192R,1.9000X1.3500*%
%ADD193R,1.2000X1.0000*%
%ADD194R,0.7500X1.1000*%
%ADD195R,0.8500X1.1000*%
%ADD196R,4.0000X4.0000*%
%ADD197R,3.2000X3.2000*%
G36*
X79750Y537750D02*
X92250D01*
Y503500D01*
X79750D01*
Y537750D01*
D02*
G37*
G36*
X132250Y533000D02*
Y511250D01*
X103000D01*
Y533000D01*
X132250D01*
D02*
G37*
D13*
X583619Y181787D02*
X603963D01*
X605500Y180250D01*
X583500Y181906D02*
X583619Y181787D01*
X299750Y215750D02*
X309500Y206000D01*
X291750Y215750D02*
X299750D01*
X611000Y148250D02*
Y148750D01*
X622000Y159750D01*
X245250Y107000D02*
X259500Y92750D01*
X245250Y107000D02*
Y119000D01*
D15*
X181750Y261500D02*
Y262713D01*
X186356Y267319D02*
Y431856D01*
X181750Y262713D02*
X186356Y267319D01*
X164250Y244000D02*
X181750Y261500D01*
X209500Y324480D02*
Y422500D01*
X224000Y324480D02*
Y413500D01*
X216500Y324480D02*
Y418250D01*
X224300Y493850D02*
Y497000D01*
X215474Y485023D02*
X224300Y493850D01*
X215474Y483361D02*
Y485023D01*
X214613Y482500D02*
X215474Y483361D01*
X257900Y487150D02*
Y500500D01*
X254500Y483750D02*
X257900Y487150D01*
X288750Y392250D02*
X304250D01*
X288750Y392250D02*
X288750Y392250D01*
X244550D02*
X259250D01*
X259250Y392250D01*
X339250Y402000D02*
X350000D01*
X350750Y401250D01*
X337250Y499250D02*
X338250D01*
X344250Y505250D01*
Y512000D01*
X344500Y512250D01*
X231500Y409500D02*
X251750Y429750D01*
X231500Y324250D02*
Y409500D01*
X224000Y413500D02*
X243750Y433250D01*
X216500Y418250D02*
X236750Y438500D01*
X209500Y422500D02*
X229750Y442750D01*
X203500Y270250D02*
X204750Y269000D01*
X203500Y270250D02*
Y433500D01*
X193500Y249250D02*
X195106Y250856D01*
Y432106D01*
X166500Y231000D02*
X184000Y248500D01*
X143000Y231000D02*
X166500D01*
X243750Y433250D02*
Y459250D01*
X236750Y438500D02*
Y457750D01*
X251750Y429750D02*
Y463250D01*
X187250Y465000D02*
Y489250D01*
X140750Y524250D02*
X152250D01*
X187250Y489250D01*
X151750Y517500D02*
X158000Y511250D01*
Y464000D02*
Y511250D01*
X170250Y521500D02*
X173000Y524250D01*
X170250Y518250D02*
Y521500D01*
X173000Y524250D02*
X180750D01*
X362000Y500500D02*
Y507621D01*
X359389Y510232D02*
X362000Y507621D01*
X359389Y510232D02*
Y511450D01*
X291000Y478750D02*
X296000Y473750D01*
X211750Y454750D02*
X235750Y478750D01*
X291000D01*
X237308Y473119D02*
X289500D01*
X213189Y449000D02*
X237308Y473119D01*
X119500Y386250D02*
X125750Y380000D01*
X107500Y386250D02*
X119500D01*
X125750Y380000D02*
X155000D01*
X89500Y433000D02*
X111250Y454750D01*
X211750D01*
X119000Y449000D02*
X213189D01*
X229750Y442750D02*
Y457250D01*
X255750Y346000D02*
X344000D01*
X379500Y381500D01*
Y408750D01*
X256000Y354000D02*
X339000D01*
X369750Y384750D01*
Y413250D01*
X557000Y390000D02*
X565500Y381500D01*
X557000Y433750D02*
X562000Y438750D01*
X557000Y390000D02*
Y433750D01*
X634750Y455500D02*
X636750Y453500D01*
Y452000D02*
Y453500D01*
X624000Y455500D02*
X634750D01*
X548500Y457000D02*
X622500D01*
X624000Y455500D01*
X526500Y467000D02*
X589000Y529500D01*
X709250D02*
X749868Y488882D01*
X589000Y529500D02*
X709250D01*
X519179Y473821D02*
X579358Y534000D01*
X718892D02*
X759868Y493024D01*
X579358Y534000D02*
X718892D01*
X352321Y473821D02*
X519179D01*
X340500Y462000D02*
X352321Y473821D01*
X353000Y467000D02*
X526500D01*
X708750Y224750D02*
X748000Y185500D01*
X413014Y224750D02*
X708750D01*
X625250Y235000D02*
X630500Y229750D01*
X414500Y235000D02*
X625250D01*
X390500Y438750D02*
X408000Y456250D01*
X390500Y419750D02*
Y438750D01*
X379500Y408750D02*
X390500Y419750D01*
X384000Y427500D02*
Y441250D01*
X369750Y413250D02*
X384000Y427500D01*
Y441250D02*
X399250Y456500D01*
X785097Y493097D02*
X801368D01*
X774500Y482500D02*
X785097Y493097D01*
X315000Y242250D02*
X378750Y306000D01*
X707250D01*
X565500Y381500D02*
X626250D01*
X630750Y377000D01*
X726250Y325000D02*
X844750D01*
X707250Y306000D02*
X726250Y325000D01*
X854750Y315000D02*
X870250D01*
X844750Y325000D02*
X854750Y315000D01*
X158250Y54500D02*
X166250Y46500D01*
X158250Y75500D02*
X175500Y92750D01*
X158250Y54500D02*
Y75500D01*
X166250Y46500D02*
X320250D01*
X343500Y69750D02*
Y92750D01*
X320250Y46500D02*
X343500Y69750D01*
X193500Y207750D02*
Y249250D01*
X147750Y54750D02*
Y162000D01*
X193500Y207750D01*
X137250Y244000D02*
X164250D01*
X90000Y420000D02*
X119000Y449000D01*
X49550Y231050D02*
Y235550D01*
X54020Y240020D02*
X73230D01*
X49550Y235550D02*
X54020Y240020D01*
X73230D02*
X75500Y237750D01*
X66500Y235750D02*
X76250Y226000D01*
X75500Y237750D02*
X85500D01*
X87500Y235750D01*
X76250Y226000D02*
X92250D01*
X97500Y231250D01*
X315000Y56250D02*
X315500Y55750D01*
X315000Y56250D02*
Y242250D01*
X71250Y311500D02*
X79000D01*
X65750Y306000D02*
X71250Y311500D01*
X65750Y288000D02*
Y306000D01*
X74500Y288750D02*
X79500Y293750D01*
Y304250D01*
X707500Y214500D02*
X736250Y185750D01*
X414000Y214500D02*
X707500D01*
X748000Y185500D02*
X748500D01*
X174750Y432250D02*
X181250Y425750D01*
Y328250D02*
Y425750D01*
X759868Y468097D02*
Y493024D01*
X749868Y468097D02*
Y488882D01*
X723731Y453231D02*
X724000Y453500D01*
X728000D01*
X739868Y455118D02*
Y468097D01*
X736750Y452000D02*
X739868Y455118D01*
X728000Y453500D02*
X729868Y455368D01*
Y468097D01*
X545115Y246500D02*
X545500Y246885D01*
X528250Y246500D02*
X545115D01*
Y241500D02*
X545500Y241115D01*
X525090Y241500D02*
X545115D01*
X520920Y245670D02*
X525090Y241500D01*
X525000Y249750D02*
X528250Y246500D01*
D17*
X622938Y437940D02*
X623750D01*
X621444Y442257D02*
X622991Y443803D01*
X621391Y439487D02*
X622938Y437940D01*
X615480Y401370D02*
Y438634D01*
X619103Y442257D02*
X621444D01*
X618250Y437486D02*
X620250Y439487D01*
X618250Y402517D02*
Y437486D01*
X615480Y438634D02*
X619103Y442257D01*
X620250Y439487D02*
X621391D01*
X622991Y443803D02*
X623803D01*
X618250Y402517D02*
X618270Y402497D01*
Y399554D02*
Y402497D01*
X613980Y397195D02*
Y398034D01*
X615480Y401370D02*
X615500Y401350D01*
X618270Y399554D02*
X619790Y398034D01*
X615500Y399554D02*
Y401350D01*
X619790Y397195D02*
Y398034D01*
X613980Y398034D02*
X615500Y399554D01*
X598980Y397986D02*
X600500Y399506D01*
X607938Y438690D02*
X608750D01*
X606391Y440237D02*
X607938Y438690D01*
X605250Y440237D02*
X606391D01*
X603250Y438237D02*
X605250Y440237D01*
X607991Y444553D02*
X608803D01*
X606444Y443007D02*
X607991Y444553D01*
X604103Y443007D02*
X606444D01*
X600480Y439384D02*
X604103Y443007D01*
X603270Y399506D02*
Y402450D01*
X600480Y401322D02*
Y439384D01*
X604790Y397147D02*
Y397986D01*
X603250Y402470D02*
Y438237D01*
X600480Y401322D02*
X600500Y401302D01*
X603270Y399506D02*
X604790Y397986D01*
X603250Y402470D02*
X603270Y402450D01*
X600500Y399506D02*
Y401302D01*
X598980Y397147D02*
Y397986D01*
X577938Y438690D02*
X578750D01*
X576391Y440237D02*
X577938Y438690D01*
X575250Y440237D02*
X576391D01*
X573250Y402572D02*
Y438237D01*
X575250Y440237D01*
X577991Y444553D02*
X578803D01*
X576444Y443007D02*
X577991Y444553D01*
X574103Y443007D02*
X576444D01*
X570480Y439384D02*
X574103Y443007D01*
X568980Y398089D02*
X570500Y399609D01*
X574790Y397250D02*
Y398089D01*
X573270Y399609D02*
X574790Y398089D01*
X573270Y399609D02*
Y402552D01*
X573250Y402572D02*
X573270Y402552D01*
X570480Y401425D02*
X570500Y401405D01*
X570480Y401425D02*
Y439384D01*
X570500Y399609D02*
Y401405D01*
X568980Y397250D02*
Y398089D01*
X591322Y440261D02*
X592868Y438714D01*
X593681D01*
X589054Y440261D02*
X591322D01*
X588250Y439457D02*
X589054Y440261D01*
X588250Y397994D02*
Y439457D01*
X591375Y443031D02*
X592921Y444577D01*
X593734D01*
X587906Y443031D02*
X591375D01*
X585480Y440605D02*
X585480D01*
X587906Y443031D01*
X585480Y397994D02*
Y440605D01*
X588250Y397994D02*
X588994Y397250D01*
X589790D01*
X584736D02*
X585480Y397994D01*
X583980Y397250D02*
X584736D01*
D42*
X362000Y500500D02*
D03*
Y491500D02*
D03*
X756500Y446250D02*
D03*
Y437250D02*
D03*
D50*
X768250Y448250D02*
D03*
Y430750D02*
D03*
D57*
X140750Y524250D02*
D03*
X180750D02*
D03*
X85750Y521500D02*
D03*
X117750D02*
D03*
D125*
X460618Y331303D02*
Y346802D01*
X457500Y332595D02*
Y346802D01*
X456552Y347750D02*
X457500Y346802D01*
X456174Y347750D02*
X456552D01*
X460618Y346802D02*
X461566Y347750D01*
X461984D01*
X446750Y321710D02*
X447530D01*
X448876Y323056D02*
X452370D01*
X460618Y331303D01*
X446750Y327520D02*
X447530D01*
X448876Y326174D02*
X451079D01*
X447530Y327520D02*
X448876Y326174D01*
X451079D02*
X457500Y332595D01*
X447530Y321710D02*
X448876Y323056D01*
D126*
X706333Y389008D02*
G03*
X709049Y386293I2715J0D01*
G01*
X710805Y380862D02*
G03*
X710805Y386293I0J2715D01*
G01*
X709049Y380862D02*
G03*
X706333Y378146I0J-2715D01*
G01*
X656745Y444065D02*
X657575D01*
X655131Y442451D02*
X656745Y444065D01*
X652301Y442451D02*
X655131D01*
X643402Y444322D02*
X648204Y439520D01*
X649418Y442451D02*
X652300D01*
X652301Y442451D01*
X654140Y439520D02*
X654993Y438668D01*
X648204Y439520D02*
X654140D01*
X654993Y438668D02*
X657163D01*
X657750Y438080D01*
X642152Y459313D02*
X642564D01*
X639868Y461597D02*
Y468097D01*
Y461597D02*
X642152Y459313D01*
X643402Y444322D02*
Y458474D01*
X642564Y459313D02*
X643402Y458474D01*
X646333Y445536D02*
X649418Y442451D01*
X646333Y445536D02*
Y458474D01*
X647172Y459313D01*
X647583D01*
X649868Y461597D01*
Y468097D01*
X706333Y389008D02*
Y402674D01*
X709049Y386293D02*
X710805D01*
X709049Y380862D02*
X710805D01*
X706333Y372000D02*
Y378146D01*
Y402674D02*
Y458063D01*
Y364910D02*
Y372000D01*
X703402Y345953D02*
Y366124D01*
X706333Y347167D02*
Y364910D01*
X703402Y366124D02*
Y458063D01*
X703402Y366124D02*
X703402Y366124D01*
X699868Y461597D02*
X703402Y458063D01*
X699868Y461597D02*
Y468097D01*
X709868Y461597D02*
Y468097D01*
X706333Y458063D02*
X709868Y461597D01*
X706333Y364910D02*
X706333Y364910D01*
X706333Y347167D02*
X709500Y344000D01*
X735500D01*
X703402Y345953D02*
X708286Y341069D01*
X736714D01*
X750930Y355285D01*
X735500Y344000D02*
X747999Y356499D01*
Y365444D01*
X746560Y366884D02*
X747999Y365444D01*
X746560Y366884D02*
Y367714D01*
X750930Y355285D02*
Y365444D01*
X752370Y366884D01*
Y367714D01*
X671900Y386750D02*
Y387580D01*
X673339Y389020D01*
X672152Y459313D02*
X672564D01*
X669868Y461597D02*
Y468097D01*
Y461597D02*
X672152Y459313D01*
X673339Y393309D02*
X673402Y393372D01*
X673339Y389020D02*
Y393309D01*
X672564Y459313D02*
X673402Y458474D01*
X673402Y393372D02*
Y404389D01*
X673402Y404389D01*
Y458474D01*
X676270Y389020D02*
Y392095D01*
Y389020D02*
X677710Y387580D01*
X676270Y392095D02*
X676333Y392158D01*
Y403175D01*
X676333Y403175D01*
Y458474D02*
X677172Y459313D01*
X676333Y403175D02*
Y458474D01*
X677710Y386750D02*
Y387580D01*
X677172Y459313D02*
X677583D01*
X679868Y461597D01*
Y468097D01*
D133*
X16020Y147480D02*
X16500Y147000D01*
X15000Y147480D02*
X16020D01*
X362000Y484750D02*
Y491500D01*
X362000Y484750D02*
X362000Y484750D01*
X279900Y500500D02*
X280000Y500400D01*
Y491750D02*
Y500400D01*
Y491750D02*
X287250Y484500D01*
X299000D01*
X308250Y475250D01*
X335750D01*
X352000Y491500D01*
X362000D01*
X757000Y432593D02*
Y437250D01*
X758843Y430750D02*
X768250D01*
X756500Y437250D02*
X757000D01*
Y432593D02*
X758843Y430750D01*
X139635Y368250D02*
X173250D01*
X136635Y365250D02*
X139635Y368250D01*
X136500Y365250D02*
X136635D01*
X136500Y337500D02*
Y365250D01*
X133500Y334500D02*
X136500Y337500D01*
X16500Y147000D02*
X104000D01*
D134*
X199500Y505000D02*
X209500Y515000D01*
X223168D02*
X223250Y514918D01*
X209500Y515000D02*
X223168D01*
X268900Y500500D02*
Y519900D01*
X278500Y529500D02*
Y533000D01*
X268900Y519900D02*
X278500Y529500D01*
X312900Y509650D02*
X320750Y517500D01*
X312900Y500500D02*
Y509650D01*
X301500Y508250D02*
X306500Y513250D01*
Y524750D01*
X291025Y500625D02*
Y533225D01*
X290750Y533500D02*
X291025Y533225D01*
X290900Y500500D02*
X291025Y500625D01*
X301500Y500900D02*
Y508250D01*
Y500900D02*
X301900Y500500D01*
X239252Y512502D02*
X245500Y518750D01*
X239252Y503352D02*
Y512502D01*
X236400Y500500D02*
X239252Y503352D01*
X247852Y510594D02*
Y511326D01*
X246500Y500900D02*
Y509242D01*
X247852Y510594D01*
X246500Y500900D02*
X246900Y500500D01*
X209000Y504750D02*
X214750Y510500D01*
X199500Y483000D02*
Y505000D01*
X209000Y480500D02*
Y504750D01*
Y480500D02*
X214750Y474750D01*
D135*
X719368Y468597D02*
X719868Y468097D01*
X719368Y468597D02*
Y479611D01*
X715250Y483729D02*
X719368Y479611D01*
X715250Y483729D02*
Y484000D01*
X689368Y468597D02*
X689868Y468097D01*
X689368Y468597D02*
Y477361D01*
X684500Y482229D02*
X689368Y477361D01*
X684500Y482229D02*
Y482500D01*
X659368Y468597D02*
X659868Y468097D01*
X659368Y468597D02*
Y477361D01*
X654500Y482229D02*
X659368Y477361D01*
X654500Y482229D02*
Y482500D01*
X629868Y468097D02*
Y474597D01*
X624691Y479774D02*
X629868Y474597D01*
X624691Y479774D02*
Y482309D01*
X624500Y482500D02*
X624691Y482309D01*
X756500Y446250D02*
Y451750D01*
X756000Y452250D02*
X756500Y451750D01*
X758500Y448250D02*
X768250D01*
X756500Y446250D02*
X758500Y448250D01*
X768250D02*
X768500Y448500D01*
Y455500D01*
X769368Y467597D02*
X769868Y468097D01*
X769368Y456368D02*
Y467597D01*
X768500Y455500D02*
X769368Y456368D01*
X660000Y134250D02*
X680250D01*
X641250D02*
X660000D01*
X680250D02*
X700500D01*
X718000D01*
D137*
X269500Y170000D02*
X301500D01*
X222500Y217000D02*
X269500Y170000D01*
X301500D02*
X307250Y175750D01*
D157*
X784695Y455975D02*
D03*
D158*
X96694D02*
D03*
X853750Y154600D02*
D03*
Y129199D02*
D03*
Y103799D02*
D03*
Y78400D02*
D03*
X388289Y525180D02*
D03*
X362889D02*
D03*
D159*
X612500Y62750D02*
D03*
X721000D02*
D03*
D160*
X612500Y17750D02*
D03*
X721000D02*
D03*
D161*
X413689Y525180D02*
D03*
D162*
X856500Y265000D02*
D03*
Y199000D02*
D03*
X857000Y400500D02*
D03*
Y466500D02*
D03*
D163*
X181750Y261500D02*
D03*
X416000Y134000D02*
D03*
X436000D02*
D03*
X496000D02*
D03*
X476000D02*
D03*
X491000Y119000D02*
D03*
X456000Y134000D02*
D03*
X466000Y119000D02*
D03*
X446000D02*
D03*
X421000D02*
D03*
X86250Y404250D02*
D03*
X315000Y242250D02*
D03*
X745750Y282750D02*
D03*
X462500Y381250D02*
D03*
X386500Y181500D02*
D03*
X12000Y67750D02*
D03*
X204750Y269000D02*
D03*
D164*
X130000Y156000D02*
D03*
Y106000D02*
D03*
D165*
X30000Y76000D02*
D03*
Y186000D02*
D03*
D166*
X534500Y109700D02*
D03*
X377500D02*
D03*
D167*
X534500Y41700D02*
D03*
X377500D02*
D03*
D168*
X122695Y35975D02*
D03*
X758695D02*
D03*
D169*
X850000Y30000D02*
D03*
Y510000D02*
D03*
X30000D02*
D03*
Y30000D02*
D03*
D170*
X15000Y147480D02*
D03*
X216500Y324480D02*
D03*
X209500D02*
D03*
X224000D02*
D03*
X179500Y484000D02*
D03*
X288750Y392250D02*
D03*
X259250D02*
D03*
X254500Y483750D02*
D03*
X350750Y401250D02*
D03*
X344500Y512250D02*
D03*
X231500Y324250D02*
D03*
X184000Y248500D02*
D03*
X251750Y463250D02*
D03*
X203500Y433500D02*
D03*
X216500Y519500D02*
D03*
X313750Y522500D02*
D03*
X251500Y516500D02*
D03*
X284500Y534000D02*
D03*
X187250Y465000D02*
D03*
X151750Y517500D02*
D03*
X170250Y518250D02*
D03*
X362000Y484750D02*
D03*
X339250Y441500D02*
D03*
X158000Y464000D02*
D03*
X266773Y529521D02*
D03*
X320750Y517500D02*
D03*
X306500Y524750D02*
D03*
X290750Y533500D02*
D03*
X296750Y521250D02*
D03*
X245500Y518750D02*
D03*
X296000Y473750D02*
D03*
X289500Y473119D02*
D03*
X278500Y533000D02*
D03*
X247852Y511326D02*
D03*
X235000Y514500D02*
D03*
X223250Y514918D02*
D03*
X214750Y510500D02*
D03*
X199500Y483000D02*
D03*
X214750Y474750D02*
D03*
X256945Y427648D02*
D03*
X155000Y380000D02*
D03*
X173918Y376832D02*
D03*
X195106Y432106D02*
D03*
X186356Y431856D02*
D03*
X243750Y459250D02*
D03*
X236750Y457750D02*
D03*
X229750Y457250D02*
D03*
X255750Y346000D02*
D03*
X256000Y354000D02*
D03*
X137000Y464750D02*
D03*
Y474250D02*
D03*
X138750Y444500D02*
D03*
X154750Y443750D02*
D03*
X216750Y445000D02*
D03*
X726250Y432250D02*
D03*
X715500Y432750D02*
D03*
X714500Y449750D02*
D03*
X696250Y450000D02*
D03*
X684500Y449500D02*
D03*
X747250Y342000D02*
D03*
X757750Y353750D02*
D03*
X737500Y354250D02*
D03*
X741750Y387500D02*
D03*
X757750Y388000D02*
D03*
X719250Y395500D02*
D03*
X719750Y363500D02*
D03*
X690000Y396250D02*
D03*
X691000Y363250D02*
D03*
X658000Y365500D02*
D03*
X667000Y354250D02*
D03*
X679500Y343500D02*
D03*
X625000Y392500D02*
D03*
X609500Y392000D02*
D03*
X594250Y392250D02*
D03*
X579250Y392000D02*
D03*
X565500D02*
D03*
X564750Y450000D02*
D03*
X609500Y462250D02*
D03*
X594500D02*
D03*
X579000Y462000D02*
D03*
X563000Y371250D02*
D03*
X634250Y342000D02*
D03*
X625000Y351250D02*
D03*
X614000Y361750D02*
D03*
X595750Y350500D02*
D03*
X604000Y340750D02*
D03*
X464500Y314250D02*
D03*
X435000Y325750D02*
D03*
X434750Y342500D02*
D03*
X443500Y356250D02*
D03*
X466500Y360500D02*
D03*
X479000Y345250D02*
D03*
Y325750D02*
D03*
X450250Y347750D02*
D03*
X468000D02*
D03*
X445750Y333500D02*
D03*
X446750Y315750D02*
D03*
X657750Y450000D02*
D03*
Y432250D02*
D03*
X666000Y386750D02*
D03*
X683500D02*
D03*
X758250Y367750D02*
D03*
X740750D02*
D03*
X565323Y402177D02*
D03*
X578750Y450500D02*
D03*
Y432750D02*
D03*
X593750D02*
D03*
Y450500D02*
D03*
X608750Y432750D02*
D03*
Y450500D02*
D03*
X623750Y449750D02*
D03*
Y432000D02*
D03*
X636750Y452000D02*
D03*
X548500Y457000D02*
D03*
X79500Y304250D02*
D03*
X340500Y462000D02*
D03*
X353000Y467000D02*
D03*
X413014Y224750D02*
D03*
X414500Y235000D02*
D03*
X90000Y420000D02*
D03*
X89500Y433000D02*
D03*
X78500Y425250D02*
D03*
X485500Y174750D02*
D03*
X693250Y85750D02*
D03*
X605500Y180250D02*
D03*
X594250Y181787D02*
D03*
X583500Y181906D02*
D03*
X654750Y63000D02*
D03*
X585500Y264750D02*
D03*
X555250Y241500D02*
D03*
X74750Y326500D02*
D03*
X568500Y91500D02*
D03*
X605597Y204716D02*
D03*
X690750Y63250D02*
D03*
X702750Y63000D02*
D03*
X678750Y63250D02*
D03*
X666750Y63000D02*
D03*
X629750Y63500D02*
D03*
X309500Y206000D02*
D03*
X623250Y178500D02*
D03*
X756000Y452250D02*
D03*
X630750Y377000D02*
D03*
X562000Y438750D02*
D03*
X789250Y228750D02*
D03*
X143000Y231000D02*
D03*
X167250Y281000D02*
D03*
X181250Y328250D02*
D03*
X173500Y345000D02*
D03*
X818500Y357750D02*
D03*
X840750Y245000D02*
D03*
X842000Y443750D02*
D03*
X870250Y315000D02*
D03*
X852250Y302500D02*
D03*
X831250Y279000D02*
D03*
X814500Y456750D02*
D03*
X808552Y228750D02*
D03*
X783250Y157000D02*
D03*
Y168000D02*
D03*
X800750Y62500D02*
D03*
X799250Y98250D02*
D03*
X810250Y98000D02*
D03*
X576000Y165750D02*
D03*
X614500Y219000D02*
D03*
X630500Y199250D02*
D03*
Y229750D02*
D03*
X622000Y159750D02*
D03*
X611000Y148250D02*
D03*
X618250Y139000D02*
D03*
Y118000D02*
D03*
X620250Y100250D02*
D03*
X591750Y87500D02*
D03*
X574250Y68250D02*
D03*
X564750Y67500D02*
D03*
X600750Y51750D02*
D03*
X603000Y34250D02*
D03*
X179500Y225000D02*
D03*
X147750Y54750D02*
D03*
X158250Y54500D02*
D03*
X37750Y444000D02*
D03*
Y406500D02*
D03*
X90000Y344000D02*
D03*
Y366500D02*
D03*
X159000Y360000D02*
D03*
X173250Y368250D02*
D03*
X133500Y334500D02*
D03*
X136500Y365250D02*
D03*
X131750Y271750D02*
D03*
X100500Y265000D02*
D03*
X91250D02*
D03*
X37250Y267500D02*
D03*
X61750Y225250D02*
D03*
X49550Y231050D02*
D03*
X66500Y235750D02*
D03*
X137250Y244000D02*
D03*
X14750Y169750D02*
D03*
X20500Y206750D02*
D03*
X87500Y235750D02*
D03*
X75500Y237750D02*
D03*
X97500Y231250D02*
D03*
X131750Y207500D02*
D03*
X106000Y192000D02*
D03*
X97000Y200000D02*
D03*
X291750Y215750D02*
D03*
X222500Y217000D02*
D03*
X307250Y175750D02*
D03*
X315500Y55750D02*
D03*
X244500Y17500D02*
D03*
X194250Y22500D02*
D03*
X78250Y10000D02*
D03*
X267000Y23250D02*
D03*
X104000Y147000D02*
D03*
X79000Y311500D02*
D03*
X65750Y288000D02*
D03*
X74500Y288750D02*
D03*
X107500Y386250D02*
D03*
X736250Y185750D02*
D03*
X414000Y214500D02*
D03*
X748500Y185500D02*
D03*
X408000Y456250D02*
D03*
X399250Y456500D02*
D03*
X712000Y402750D02*
D03*
X727000D02*
D03*
X742000D02*
D03*
X757000D02*
D03*
X772000D02*
D03*
X723731Y453231D02*
D03*
X623803Y443803D02*
D03*
X623750Y437940D02*
D03*
X657575Y444065D02*
D03*
X657750Y438080D02*
D03*
X736750Y452000D02*
D03*
X624500Y401750D02*
D03*
X579250Y402000D02*
D03*
X609250D02*
D03*
X594000Y402250D02*
D03*
X752370Y367714D02*
D03*
X746560D02*
D03*
X671900Y386750D02*
D03*
X677710D02*
D03*
X461984Y347750D02*
D03*
X456174D02*
D03*
X446750Y327520D02*
D03*
Y321710D02*
D03*
X426000Y174750D02*
D03*
X545500Y246885D02*
D03*
Y241115D02*
D03*
X520920Y245670D02*
D03*
X525000Y249750D02*
D03*
X641250Y134250D02*
D03*
X660000D02*
D03*
X680250D02*
D03*
X700500D02*
D03*
X718000D02*
D03*
X637000Y102750D02*
D03*
X586000Y80250D02*
D03*
X619790Y397195D02*
D03*
X613980D02*
D03*
X608750Y438690D02*
D03*
X608803Y444553D02*
D03*
X604790Y397147D02*
D03*
X598980D02*
D03*
X578750Y438690D02*
D03*
X578803Y444553D02*
D03*
X574790Y397250D02*
D03*
X568980D02*
D03*
X593681Y438714D02*
D03*
X593734Y444577D02*
D03*
X589790Y397250D02*
D03*
X583980D02*
D03*
X666750Y85750D02*
D03*
D171*
X314500Y482500D02*
D03*
X329500D02*
D03*
X214613D02*
D03*
X149500Y428750D02*
D03*
X392000Y400500D02*
D03*
X316889Y429450D02*
D03*
X268750Y190750D02*
D03*
X288250Y186500D02*
D03*
Y194500D02*
D03*
X296250D02*
D03*
Y186500D02*
D03*
X758843Y430750D02*
D03*
X772041Y195948D02*
D03*
X541889Y281889D02*
D03*
X735250Y281750D02*
D03*
X833000Y309750D02*
D03*
X837000Y301500D02*
D03*
X792750Y137250D02*
D03*
X804750Y43000D02*
D03*
X70750Y94250D02*
D03*
X70500Y84000D02*
D03*
X50250Y84250D02*
D03*
X50000Y93500D02*
D03*
X156000Y209750D02*
D03*
X201250Y63500D02*
D03*
X276250Y63750D02*
D03*
X230250Y63500D02*
D03*
X245250D02*
D03*
X260750Y63750D02*
D03*
X215000Y63500D02*
D03*
X152000Y483500D02*
D03*
X144250D02*
D03*
X137000Y483250D02*
D03*
X106000Y215000D02*
D03*
X200750Y243000D02*
D03*
Y235250D02*
D03*
X212750D02*
D03*
X262000Y226500D02*
D03*
Y234000D02*
D03*
Y241250D02*
D03*
X281500Y162250D02*
D03*
X264000D02*
D03*
X309750Y162750D02*
D03*
X302750D02*
D03*
X186750Y63500D02*
D03*
X172750Y64000D02*
D03*
X351750Y51750D02*
D03*
Y61500D02*
D03*
X89250Y507000D02*
D03*
X82750D02*
D03*
X89250Y534750D02*
D03*
X82750D02*
D03*
X106750Y516500D02*
D03*
Y525250D02*
D03*
X128750Y516500D02*
D03*
Y525500D02*
D03*
X416947Y429450D02*
D03*
X332020D02*
D03*
X637111Y429321D02*
D03*
X699250Y483250D02*
D03*
X715250Y484000D02*
D03*
X730000Y483500D02*
D03*
X744500Y483000D02*
D03*
X359500Y179750D02*
D03*
Y168750D02*
D03*
X332250D02*
D03*
X454500Y482500D02*
D03*
X174750Y432250D02*
D03*
X609500Y482500D02*
D03*
X564539D02*
D03*
X624500D02*
D03*
X579500D02*
D03*
X696889Y429450D02*
D03*
X479389Y511450D02*
D03*
X494389D02*
D03*
X509000Y481750D02*
D03*
X346889Y429450D02*
D03*
X361889D02*
D03*
X376889D02*
D03*
X431889D02*
D03*
X446889D02*
D03*
X521889D02*
D03*
X651889D02*
D03*
X666889D02*
D03*
X681889D02*
D03*
X96750Y525750D02*
D03*
X74250Y526250D02*
D03*
Y517000D02*
D03*
X96750Y517500D02*
D03*
X142250Y428500D02*
D03*
X134500D02*
D03*
X359389Y511450D02*
D03*
X374500Y482500D02*
D03*
X389500D02*
D03*
X424500D02*
D03*
X439500D02*
D03*
X464500D02*
D03*
X594500D02*
D03*
X639500D02*
D03*
X654500D02*
D03*
X669500D02*
D03*
X684500D02*
D03*
X774500D02*
D03*
X332750Y180250D02*
D03*
X159250Y324000D02*
D03*
X289250Y119500D02*
D03*
X275750Y119000D02*
D03*
X260750D02*
D03*
X245250D02*
D03*
X230250Y118750D02*
D03*
X215000Y119000D02*
D03*
X200500D02*
D03*
X186500Y118750D02*
D03*
X171500Y119000D02*
D03*
X366750Y13750D02*
D03*
D188*
X598368Y493097D02*
D03*
X801368D02*
D03*
D189*
X769868Y468097D02*
D03*
X759868D02*
D03*
X749868D02*
D03*
X739868D02*
D03*
X729868D02*
D03*
X719868D02*
D03*
X709868D02*
D03*
X699868D02*
D03*
X689868D02*
D03*
X679868D02*
D03*
X669868D02*
D03*
X659868D02*
D03*
X649868D02*
D03*
X639868D02*
D03*
X629868D02*
D03*
D190*
X337250Y499250D02*
D03*
D191*
X224300Y497000D02*
D03*
D192*
X244550Y392250D02*
D03*
X304250D02*
D03*
D193*
X339250Y402000D02*
D03*
Y439000D02*
D03*
D194*
X236400Y500500D02*
D03*
D195*
X246900D02*
D03*
X257900D02*
D03*
X268900D02*
D03*
X279900D02*
D03*
X290900D02*
D03*
X301900D02*
D03*
X312900D02*
D03*
D196*
X259500Y92750D02*
D03*
D197*
X175500D02*
D03*
X343500D02*
D03*
M02*
