G04*
G04 #@! TF.GenerationSoftware,Altium Limited,Altium Designer,20.1.11 (218)*
G04*
G04 Layer_Color=8388736*
%FSLAX44Y44*%
%MOMM*%
G71*
G04*
G04 #@! TF.SameCoordinates,4E8BECB8-10D7-4487-B94D-AC5258AA6689*
G04*
G04*
G04 #@! TF.FilePolarity,Negative*
G04*
G01*
G75*
%ADD55R,0.4500X1.4500*%
%ADD63R,0.5032X1.9532*%
%ADD64R,2.2032X3.7032*%
%ADD65R,0.7500X0.9000*%
%ADD66R,1.1500X0.9000*%
%ADD67R,0.9000X1.1500*%
%ADD68R,0.9000X0.7500*%
%ADD69R,1.4532X0.8032*%
%ADD70R,2.9032X1.2032*%
G04:AMPARAMS|DCode=71|XSize=1.2032mm|YSize=1.9032mm|CornerRadius=0.1516mm|HoleSize=0mm|Usage=FLASHONLY|Rotation=0.000|XOffset=0mm|YOffset=0mm|HoleType=Round|Shape=RoundedRectangle|*
%AMROUNDEDRECTD71*
21,1,1.2032,1.6000,0,0,0.0*
21,1,0.9000,1.9032,0,0,0.0*
1,1,0.3032,0.4500,-0.8000*
1,1,0.3032,-0.4500,-0.8000*
1,1,0.3032,-0.4500,0.8000*
1,1,0.3032,0.4500,0.8000*
%
%ADD71ROUNDEDRECTD71*%
%ADD72R,1.4032X0.8532*%
%ADD73R,0.7932X0.6532*%
%ADD74R,0.5532X1.0532*%
G04:AMPARAMS|DCode=75|XSize=0.6032mm|YSize=1.4032mm|CornerRadius=0.1516mm|HoleSize=0mm|Usage=FLASHONLY|Rotation=270.000|XOffset=0mm|YOffset=0mm|HoleType=Round|Shape=RoundedRectangle|*
%AMROUNDEDRECTD75*
21,1,0.6032,1.1000,0,0,270.0*
21,1,0.3000,1.4032,0,0,270.0*
1,1,0.3032,-0.5500,-0.1500*
1,1,0.3032,-0.5500,0.1500*
1,1,0.3032,0.5500,0.1500*
1,1,0.3032,0.5500,-0.1500*
%
%ADD75ROUNDEDRECTD75*%
%ADD76O,0.4000X0.9000*%
%ADD77O,0.9000X0.4000*%
%ADD78R,1.6000X1.1000*%
G04:AMPARAMS|DCode=79|XSize=0.6032mm|YSize=0.8532mm|CornerRadius=0.1516mm|HoleSize=0mm|Usage=FLASHONLY|Rotation=0.000|XOffset=0mm|YOffset=0mm|HoleType=Round|Shape=RoundedRectangle|*
%AMROUNDEDRECTD79*
21,1,0.6032,0.5500,0,0,0.0*
21,1,0.3000,0.8532,0,0,0.0*
1,1,0.3032,0.1500,-0.2750*
1,1,0.3032,-0.1500,-0.2750*
1,1,0.3032,-0.1500,0.2750*
1,1,0.3032,0.1500,0.2750*
%
%ADD79ROUNDEDRECTD79*%
%ADD80R,0.3300X1.1000*%
%ADD81R,1.0032X1.1032*%
%ADD82R,1.0400X1.7400*%
G04:AMPARAMS|DCode=83|XSize=0.32mm|YSize=0.685mm|CornerRadius=0.11mm|HoleSize=0mm|Usage=FLASHONLY|Rotation=180.000|XOffset=0mm|YOffset=0mm|HoleType=Round|Shape=RoundedRectangle|*
%AMROUNDEDRECTD83*
21,1,0.3200,0.4650,0,0,180.0*
21,1,0.1000,0.6850,0,0,180.0*
1,1,0.2200,-0.0500,0.2325*
1,1,0.2200,0.0500,0.2325*
1,1,0.2200,0.0500,-0.2325*
1,1,0.2200,-0.0500,-0.2325*
%
%ADD83ROUNDEDRECTD83*%
G04:AMPARAMS|DCode=84|XSize=0.52mm|YSize=0.685mm|CornerRadius=0.11mm|HoleSize=0mm|Usage=FLASHONLY|Rotation=180.000|XOffset=0mm|YOffset=0mm|HoleType=Round|Shape=RoundedRectangle|*
%AMROUNDEDRECTD84*
21,1,0.5200,0.4650,0,0,180.0*
21,1,0.3000,0.6850,0,0,180.0*
1,1,0.2200,-0.1500,0.2325*
1,1,0.2200,0.1500,0.2325*
1,1,0.2200,0.1500,-0.2325*
1,1,0.2200,-0.1500,-0.2325*
%
%ADD84ROUNDEDRECTD84*%
%ADD85R,1.5032X1.2032*%
G04:AMPARAMS|DCode=86|XSize=0.64mm|YSize=0.54mm|CornerRadius=0.09mm|HoleSize=0mm|Usage=FLASHONLY|Rotation=270.000|XOffset=0mm|YOffset=0mm|HoleType=Round|Shape=RoundedRectangle|*
%AMROUNDEDRECTD86*
21,1,0.6400,0.3600,0,0,270.0*
21,1,0.4600,0.5400,0,0,270.0*
1,1,0.1800,-0.1800,-0.2300*
1,1,0.1800,-0.1800,0.2300*
1,1,0.1800,0.1800,0.2300*
1,1,0.1800,0.1800,-0.2300*
%
%ADD86ROUNDEDRECTD86*%
G04:AMPARAMS|DCode=87|XSize=0.64mm|YSize=0.54mm|CornerRadius=0.09mm|HoleSize=0mm|Usage=FLASHONLY|Rotation=0.000|XOffset=0mm|YOffset=0mm|HoleType=Round|Shape=RoundedRectangle|*
%AMROUNDEDRECTD87*
21,1,0.6400,0.3600,0,0,0.0*
21,1,0.4600,0.5400,0,0,0.0*
1,1,0.1800,0.2300,-0.1800*
1,1,0.1800,-0.2300,-0.1800*
1,1,0.1800,-0.2300,0.1800*
1,1,0.1800,0.2300,0.1800*
%
%ADD87ROUNDEDRECTD87*%
%ADD88R,2.2032X2.2032*%
%ADD89R,0.7032X0.6032*%
%ADD90R,0.6032X0.7032*%
%ADD91R,1.6032X1.8032*%
%ADD92R,2.1032X2.1032*%
%ADD93R,1.4500X0.5000*%
%ADD94R,0.9032X0.7032*%
%ADD95R,1.4500X3.9500*%
G04:AMPARAMS|DCode=96|XSize=0.96mm|YSize=0.86mm|CornerRadius=0.115mm|HoleSize=0mm|Usage=FLASHONLY|Rotation=0.000|XOffset=0mm|YOffset=0mm|HoleType=Round|Shape=RoundedRectangle|*
%AMROUNDEDRECTD96*
21,1,0.9600,0.6300,0,0,0.0*
21,1,0.7300,0.8600,0,0,0.0*
1,1,0.2300,0.3650,-0.3150*
1,1,0.2300,-0.3650,-0.3150*
1,1,0.2300,-0.3650,0.3150*
1,1,0.2300,0.3650,0.3150*
%
%ADD96ROUNDEDRECTD96*%
G04:AMPARAMS|DCode=97|XSize=0.96mm|YSize=0.86mm|CornerRadius=0.115mm|HoleSize=0mm|Usage=FLASHONLY|Rotation=90.000|XOffset=0mm|YOffset=0mm|HoleType=Round|Shape=RoundedRectangle|*
%AMROUNDEDRECTD97*
21,1,0.9600,0.6300,0,0,90.0*
21,1,0.7300,0.8600,0,0,90.0*
1,1,0.2300,0.3150,0.3650*
1,1,0.2300,0.3150,-0.3650*
1,1,0.2300,-0.3150,-0.3650*
1,1,0.2300,-0.3150,0.3650*
%
%ADD97ROUNDEDRECTD97*%
%ADD98O,0.7032X1.8032*%
G04:AMPARAMS|DCode=99|XSize=0.4mm|YSize=0.4mm|CornerRadius=0.08mm|HoleSize=0mm|Usage=FLASHONLY|Rotation=180.000|XOffset=0mm|YOffset=0mm|HoleType=Round|Shape=RoundedRectangle|*
%AMROUNDEDRECTD99*
21,1,0.4000,0.2400,0,0,180.0*
21,1,0.2400,0.4000,0,0,180.0*
1,1,0.1600,-0.1200,0.1200*
1,1,0.1600,0.1200,0.1200*
1,1,0.1600,0.1200,-0.1200*
1,1,0.1600,-0.1200,-0.1200*
%
%ADD99ROUNDEDRECTD99*%
G04:AMPARAMS|DCode=100|XSize=0.4mm|YSize=0.4mm|CornerRadius=0.08mm|HoleSize=0mm|Usage=FLASHONLY|Rotation=270.000|XOffset=0mm|YOffset=0mm|HoleType=Round|Shape=RoundedRectangle|*
%AMROUNDEDRECTD100*
21,1,0.4000,0.2400,0,0,270.0*
21,1,0.2400,0.4000,0,0,270.0*
1,1,0.1600,-0.1200,-0.1200*
1,1,0.1600,-0.1200,0.1200*
1,1,0.1600,0.1200,0.1200*
1,1,0.1600,0.1200,-0.1200*
%
%ADD100ROUNDEDRECTD100*%
G04:AMPARAMS|DCode=101|XSize=0.62mm|YSize=0.52mm|CornerRadius=0.08mm|HoleSize=0mm|Usage=FLASHONLY|Rotation=0.000|XOffset=0mm|YOffset=0mm|HoleType=Round|Shape=RoundedRectangle|*
%AMROUNDEDRECTD101*
21,1,0.6200,0.3600,0,0,0.0*
21,1,0.4600,0.5200,0,0,0.0*
1,1,0.1600,0.2300,-0.1800*
1,1,0.1600,-0.2300,-0.1800*
1,1,0.1600,-0.2300,0.1800*
1,1,0.1600,0.2300,0.1800*
%
%ADD101ROUNDEDRECTD101*%
%ADD102O,0.3600X0.8600*%
%ADD103O,0.8600X0.3600*%
G04:AMPARAMS|DCode=104|XSize=1.76mm|YSize=1.76mm|CornerRadius=0.115mm|HoleSize=0mm|Usage=FLASHONLY|Rotation=270.000|XOffset=0mm|YOffset=0mm|HoleType=Round|Shape=RoundedRectangle|*
%AMROUNDEDRECTD104*
21,1,1.7600,1.5300,0,0,270.0*
21,1,1.5300,1.7600,0,0,270.0*
1,1,0.2300,-0.7650,-0.7650*
1,1,0.2300,-0.7650,0.7650*
1,1,0.2300,0.7650,0.7650*
1,1,0.2300,0.7650,-0.7650*
%
%ADD104ROUNDEDRECTD104*%
G04:AMPARAMS|DCode=105|XSize=1.0032mm|YSize=0.9032mm|CornerRadius=0.1366mm|HoleSize=0mm|Usage=FLASHONLY|Rotation=270.000|XOffset=0mm|YOffset=0mm|HoleType=Round|Shape=RoundedRectangle|*
%AMROUNDEDRECTD105*
21,1,1.0032,0.6300,0,0,270.0*
21,1,0.7300,0.9032,0,0,270.0*
1,1,0.2732,-0.3150,-0.3650*
1,1,0.2732,-0.3150,0.3650*
1,1,0.2732,0.3150,0.3650*
1,1,0.2732,0.3150,-0.3650*
%
%ADD105ROUNDEDRECTD105*%
G04:AMPARAMS|DCode=106|XSize=1.0032mm|YSize=1.0032mm|CornerRadius=0.1416mm|HoleSize=0mm|Usage=FLASHONLY|Rotation=0.000|XOffset=0mm|YOffset=0mm|HoleType=Round|Shape=RoundedRectangle|*
%AMROUNDEDRECTD106*
21,1,1.0032,0.7200,0,0,0.0*
21,1,0.7200,1.0032,0,0,0.0*
1,1,0.2832,0.3600,-0.3600*
1,1,0.2832,-0.3600,-0.3600*
1,1,0.2832,-0.3600,0.3600*
1,1,0.2832,0.3600,0.3600*
%
%ADD106ROUNDEDRECTD106*%
G04:AMPARAMS|DCode=107|XSize=1.0032mm|YSize=1.0032mm|CornerRadius=0.1416mm|HoleSize=0mm|Usage=FLASHONLY|Rotation=90.000|XOffset=0mm|YOffset=0mm|HoleType=Round|Shape=RoundedRectangle|*
%AMROUNDEDRECTD107*
21,1,1.0032,0.7200,0,0,90.0*
21,1,0.7200,1.0032,0,0,90.0*
1,1,0.2832,0.3600,0.3600*
1,1,0.2832,0.3600,-0.3600*
1,1,0.2832,-0.3600,-0.3600*
1,1,0.2832,-0.3600,0.3600*
%
%ADD107ROUNDEDRECTD107*%
G04:AMPARAMS|DCode=108|XSize=1.0032mm|YSize=0.9032mm|CornerRadius=0.1366mm|HoleSize=0mm|Usage=FLASHONLY|Rotation=0.000|XOffset=0mm|YOffset=0mm|HoleType=Round|Shape=RoundedRectangle|*
%AMROUNDEDRECTD108*
21,1,1.0032,0.6300,0,0,0.0*
21,1,0.7300,0.9032,0,0,0.0*
1,1,0.2732,0.3650,-0.3150*
1,1,0.2732,-0.3650,-0.3150*
1,1,0.2732,-0.3650,0.3150*
1,1,0.2732,0.3650,0.3150*
%
%ADD108ROUNDEDRECTD108*%
%ADD109R,0.6532X0.8032*%
%ADD110O,1.5000X0.5500*%
%ADD111R,0.8032X0.7032*%
%ADD112C,2.1032*%
%ADD113C,1.7032*%
%ADD114O,1.4032X2.1032*%
%ADD115O,1.4032X1.9032*%
%ADD116R,1.7032X1.7032*%
%ADD117O,2.2032X1.4032*%
%ADD118C,1.4032*%
%ADD119C,3.0032*%
%ADD120C,2.0032*%
%ADD121O,1.4032X3.2032*%
%ADD122O,1.4032X2.4032*%
%ADD123C,2.7032*%
%ADD124C,5.8000*%
G36*
X81633Y152259D02*
X81764Y152233D01*
X81890Y152190D01*
X82009Y152131D01*
X82120Y152057D01*
X82220Y151969D01*
X82308Y151869D01*
X82382Y151758D01*
X82441Y151639D01*
X82484Y151513D01*
X82510Y151382D01*
X82518Y151250D01*
Y104249D01*
X82510Y104117D01*
X82484Y103986D01*
X82441Y103860D01*
X82382Y103740D01*
X82308Y103630D01*
X82220Y103530D01*
X82120Y103442D01*
X82009Y103368D01*
X81890Y103309D01*
X81764Y103266D01*
X81633Y103240D01*
X81500Y103231D01*
X31500D01*
X31367Y103240D01*
X31237Y103266D01*
X31110Y103309D01*
X30991Y103368D01*
X30880Y103442D01*
X30780Y103530D01*
X30692Y103630D01*
X30618Y103740D01*
X30559Y103860D01*
X30517Y103986D01*
X30491Y104117D01*
X30482Y104249D01*
Y111250D01*
X30491Y111382D01*
X30517Y111513D01*
X30559Y111639D01*
X30618Y111759D01*
X30692Y111869D01*
X30780Y111969D01*
X30880Y112057D01*
X30991Y112131D01*
X31110Y112190D01*
X31237Y112233D01*
X31367Y112259D01*
X31500Y112268D01*
X35482D01*
Y116581D01*
X31500D01*
X31367Y116590D01*
X31237Y116616D01*
X31110Y116659D01*
X30991Y116718D01*
X30880Y116792D01*
X30780Y116880D01*
X30692Y116980D01*
X30618Y117090D01*
X30559Y117210D01*
X30517Y117336D01*
X30491Y117467D01*
X30482Y117599D01*
Y124599D01*
X30491Y124732D01*
X30517Y124863D01*
X30559Y124989D01*
X30618Y125108D01*
X30692Y125219D01*
X30780Y125319D01*
X30880Y125407D01*
X30991Y125481D01*
X31110Y125540D01*
X31237Y125583D01*
X31367Y125609D01*
X31500Y125618D01*
X35482D01*
Y129881D01*
X31500D01*
X31367Y129890D01*
X31237Y129916D01*
X31110Y129959D01*
X30991Y130018D01*
X30880Y130092D01*
X30780Y130180D01*
X30692Y130280D01*
X30618Y130390D01*
X30559Y130510D01*
X30517Y130636D01*
X30491Y130767D01*
X30482Y130899D01*
Y137899D01*
X30491Y138032D01*
X30517Y138163D01*
X30559Y138289D01*
X30618Y138408D01*
X30692Y138519D01*
X30780Y138619D01*
X30880Y138707D01*
X30991Y138781D01*
X31110Y138840D01*
X31237Y138883D01*
X31367Y138909D01*
X31500Y138918D01*
X35482D01*
Y143231D01*
X31500D01*
X31367Y143240D01*
X31237Y143266D01*
X31110Y143309D01*
X30991Y143368D01*
X30880Y143442D01*
X30780Y143530D01*
X30692Y143630D01*
X30618Y143740D01*
X30559Y143860D01*
X30517Y143986D01*
X30491Y144117D01*
X30482Y144249D01*
Y151250D01*
X30491Y151382D01*
X30517Y151513D01*
X30559Y151639D01*
X30618Y151758D01*
X30692Y151869D01*
X30780Y151969D01*
X30880Y152057D01*
X30991Y152131D01*
X31110Y152190D01*
X31237Y152233D01*
X31367Y152259D01*
X31500Y152268D01*
X81500D01*
X81633Y152259D01*
D02*
G37*
D55*
X603000Y122000D02*
D03*
X596500D02*
D03*
X590000D02*
D03*
X583500D02*
D03*
Y166000D02*
D03*
X590000D02*
D03*
X596500D02*
D03*
X603000D02*
D03*
D63*
X611945Y414975D02*
D03*
X616945D02*
D03*
X626945D02*
D03*
X631945D02*
D03*
X641945D02*
D03*
X646945D02*
D03*
X656945D02*
D03*
X661945D02*
D03*
X671945D02*
D03*
X676945D02*
D03*
X716945D02*
D03*
X721945D02*
D03*
X701945D02*
D03*
X706945D02*
D03*
X686945D02*
D03*
X691945D02*
D03*
X731945D02*
D03*
X736945D02*
D03*
X761945D02*
D03*
X766945D02*
D03*
X719445Y496975D02*
D03*
X724445D02*
D03*
X704445D02*
D03*
X709445D02*
D03*
X689445D02*
D03*
X694445D02*
D03*
X291945Y414975D02*
D03*
X296945D02*
D03*
X336945D02*
D03*
X341945D02*
D03*
X499445Y496975D02*
D03*
X504445D02*
D03*
X734445D02*
D03*
X739445D02*
D03*
X349445D02*
D03*
X354445D02*
D03*
X614445D02*
D03*
X619445D02*
D03*
X674445D02*
D03*
X679445D02*
D03*
X109445D02*
D03*
X106945Y414975D02*
D03*
X114444Y496975D02*
D03*
X111945Y414975D02*
D03*
X119445Y496975D02*
D03*
X116945Y414975D02*
D03*
X124445Y496975D02*
D03*
X121945Y414975D02*
D03*
X129445Y496975D02*
D03*
X126945Y414975D02*
D03*
X134445Y496975D02*
D03*
X131945Y414975D02*
D03*
X139445Y496975D02*
D03*
X136945Y414975D02*
D03*
X144445Y496975D02*
D03*
X141945Y414975D02*
D03*
X149445Y496975D02*
D03*
X146945Y414975D02*
D03*
X154445Y496975D02*
D03*
X151945Y414975D02*
D03*
X159445Y496975D02*
D03*
X156945Y414975D02*
D03*
X164445Y496975D02*
D03*
X161945Y414975D02*
D03*
X169445Y496975D02*
D03*
X166945Y414975D02*
D03*
X174445Y496975D02*
D03*
X171945Y414975D02*
D03*
X179445Y496975D02*
D03*
X176945Y414975D02*
D03*
X184445Y496975D02*
D03*
X181945Y414975D02*
D03*
X189445Y496975D02*
D03*
X186945Y414975D02*
D03*
X194445Y496975D02*
D03*
X191945Y414975D02*
D03*
X199445Y496975D02*
D03*
X196945Y414975D02*
D03*
X204445Y496975D02*
D03*
X201945Y414975D02*
D03*
X209445Y496975D02*
D03*
X206945Y414975D02*
D03*
X214445Y496975D02*
D03*
X211945Y414975D02*
D03*
X219445Y496975D02*
D03*
X216945Y414975D02*
D03*
X224445Y496975D02*
D03*
X221945Y414975D02*
D03*
X229445Y496975D02*
D03*
X226945Y414975D02*
D03*
X234445Y496975D02*
D03*
X231945Y414975D02*
D03*
X239445Y496975D02*
D03*
X236945Y414975D02*
D03*
X244445Y496975D02*
D03*
X241945Y414975D02*
D03*
X249445Y496975D02*
D03*
X246945Y414975D02*
D03*
X254445Y496975D02*
D03*
X251945Y414975D02*
D03*
X259445Y496975D02*
D03*
X256945Y414975D02*
D03*
X264445Y496975D02*
D03*
X261945Y414975D02*
D03*
X269445Y496975D02*
D03*
X266945Y414975D02*
D03*
X274445Y496975D02*
D03*
X271945Y414975D02*
D03*
X279445Y496975D02*
D03*
X276945Y414975D02*
D03*
X284445Y496975D02*
D03*
X281945Y414975D02*
D03*
X289445Y496975D02*
D03*
X286945Y414975D02*
D03*
X294445Y496975D02*
D03*
X299445D02*
D03*
X304445D02*
D03*
X301945Y414975D02*
D03*
X309445Y496975D02*
D03*
X306945Y414975D02*
D03*
X314445Y496975D02*
D03*
X311945Y414975D02*
D03*
X319445Y496975D02*
D03*
X316945Y414975D02*
D03*
X324445Y496975D02*
D03*
X321945Y414975D02*
D03*
X329445Y496975D02*
D03*
X326945Y414975D02*
D03*
X364445Y496975D02*
D03*
X359445D02*
D03*
X344445D02*
D03*
X339445D02*
D03*
X334445D02*
D03*
X394445D02*
D03*
X389445D02*
D03*
X384445D02*
D03*
X379445D02*
D03*
X374445D02*
D03*
X369445D02*
D03*
X361945Y414975D02*
D03*
X356945D02*
D03*
X351945D02*
D03*
X346945D02*
D03*
X331945D02*
D03*
X391945D02*
D03*
X386945D02*
D03*
X381945D02*
D03*
X376945D02*
D03*
X371945D02*
D03*
X366945D02*
D03*
X681945D02*
D03*
X696945D02*
D03*
X651945D02*
D03*
X666945D02*
D03*
X684445Y496975D02*
D03*
X699445D02*
D03*
X644445D02*
D03*
X649445D02*
D03*
X654445D02*
D03*
X659445D02*
D03*
X664445D02*
D03*
X669445D02*
D03*
X636945Y414975D02*
D03*
X639445Y496975D02*
D03*
X634445D02*
D03*
X629445D02*
D03*
X621945Y414975D02*
D03*
X624445Y496975D02*
D03*
X606945Y414975D02*
D03*
X609445Y496975D02*
D03*
X601945Y414975D02*
D03*
X604445Y496975D02*
D03*
X596945Y414975D02*
D03*
X599444Y496975D02*
D03*
X591945Y414975D02*
D03*
X594445Y496975D02*
D03*
X586945Y414975D02*
D03*
X589445Y496975D02*
D03*
X581945Y414975D02*
D03*
X584445Y496975D02*
D03*
X576945Y414975D02*
D03*
X579445Y496975D02*
D03*
X571945Y414975D02*
D03*
X574445Y496975D02*
D03*
X566945Y414975D02*
D03*
X569445Y496975D02*
D03*
X561945Y414975D02*
D03*
X564445Y496975D02*
D03*
X556945Y414975D02*
D03*
X559445Y496975D02*
D03*
X551945Y414975D02*
D03*
X554445Y496975D02*
D03*
X546945Y414975D02*
D03*
X549445Y496975D02*
D03*
X541945Y414975D02*
D03*
X544445Y496975D02*
D03*
X536945Y414975D02*
D03*
X539445Y496975D02*
D03*
X531945Y414975D02*
D03*
X534445Y496975D02*
D03*
X526945Y414975D02*
D03*
X529445Y496975D02*
D03*
X521945Y414975D02*
D03*
X524445Y496975D02*
D03*
X516945Y414975D02*
D03*
X519445Y496975D02*
D03*
X511945Y414975D02*
D03*
X514445Y496975D02*
D03*
X506945Y414975D02*
D03*
X509445Y496975D02*
D03*
X501945Y414975D02*
D03*
X496945D02*
D03*
X491945D02*
D03*
X494445Y496975D02*
D03*
X486945Y414975D02*
D03*
X489445Y496975D02*
D03*
X481945Y414975D02*
D03*
X484445Y496975D02*
D03*
X476945Y414975D02*
D03*
X479445Y496975D02*
D03*
X471945Y414975D02*
D03*
X474445Y496975D02*
D03*
X466945Y414975D02*
D03*
X469445Y496975D02*
D03*
X461945Y414975D02*
D03*
X464445Y496975D02*
D03*
X456945Y414975D02*
D03*
X459445Y496975D02*
D03*
X451945Y414975D02*
D03*
X454445Y496975D02*
D03*
X446945Y414975D02*
D03*
X449445Y496975D02*
D03*
X441945Y414975D02*
D03*
X444445Y496975D02*
D03*
X436945Y414975D02*
D03*
X439445Y496975D02*
D03*
X431944Y414975D02*
D03*
X434444Y496975D02*
D03*
X426945Y414975D02*
D03*
X429445Y496975D02*
D03*
X421944Y414975D02*
D03*
X424444Y496975D02*
D03*
X416945Y414975D02*
D03*
X419444Y496975D02*
D03*
X714445D02*
D03*
X749445D02*
D03*
X744445D02*
D03*
X729445D02*
D03*
X711945Y414975D02*
D03*
X746945D02*
D03*
X741945D02*
D03*
X726945D02*
D03*
X751945D02*
D03*
X756945D02*
D03*
X771945D02*
D03*
X754445Y496975D02*
D03*
X759445D02*
D03*
X764445D02*
D03*
X769445D02*
D03*
X774445D02*
D03*
D64*
X818445Y335975D02*
D03*
X63444Y375975D02*
D03*
D65*
X158500Y65000D02*
D03*
D66*
X148000D02*
D03*
D67*
X794250Y167750D02*
D03*
D68*
Y157250D02*
D03*
D69*
X49500Y444000D02*
D03*
Y406500D02*
D03*
Y431500D02*
D03*
Y419000D02*
D03*
Y330249D02*
D03*
Y317749D02*
D03*
Y305249D02*
D03*
Y292749D02*
D03*
Y280249D02*
D03*
Y267749D02*
D03*
D70*
X17500Y462750D02*
D03*
Y387750D02*
D03*
Y348999D02*
D03*
Y248999D02*
D03*
D71*
X180750Y524250D02*
D03*
X140750D02*
D03*
X866750Y376250D02*
D03*
X834750D02*
D03*
X359000Y82000D02*
D03*
X327000D02*
D03*
X92250Y88750D02*
D03*
X60250D02*
D03*
D72*
X37810Y107683D02*
D03*
Y121145D02*
D03*
Y134354D02*
D03*
Y147816D02*
D03*
X94000Y146799D02*
D03*
Y134100D02*
D03*
Y121399D02*
D03*
Y108700D02*
D03*
D73*
X28450Y223500D02*
D03*
X49550D02*
D03*
D74*
X173000Y237000D02*
D03*
X186000D02*
D03*
Y215000D02*
D03*
X179500D02*
D03*
X173000D02*
D03*
D75*
X148000Y285000D02*
D03*
Y291500D02*
D03*
Y298000D02*
D03*
Y304500D02*
D03*
Y311000D02*
D03*
Y317500D02*
D03*
Y324000D02*
D03*
X91000Y285000D02*
D03*
Y291500D02*
D03*
Y298000D02*
D03*
Y304500D02*
D03*
Y311000D02*
D03*
Y317500D02*
D03*
Y324000D02*
D03*
D76*
X89250Y227000D02*
D03*
X84250D02*
D03*
X79250D02*
D03*
X74250D02*
D03*
X69250D02*
D03*
Y202000D02*
D03*
X74250D02*
D03*
X79250D02*
D03*
X84250D02*
D03*
X89250D02*
D03*
D77*
X64250Y217000D02*
D03*
Y212000D02*
D03*
X94250D02*
D03*
Y217000D02*
D03*
D78*
X79250Y214500D02*
D03*
D79*
X805500Y69750D02*
D03*
X799000D02*
D03*
X792500D02*
D03*
Y90250D02*
D03*
X799000D02*
D03*
X805500D02*
D03*
D80*
X694750Y73250D02*
D03*
X682750D02*
D03*
X670750D02*
D03*
X658750D02*
D03*
X654750D02*
D03*
X650750D02*
D03*
X646750D02*
D03*
X642750D02*
D03*
X638750D02*
D03*
X634750D02*
D03*
X630750D02*
D03*
X666750D02*
D03*
X662750D02*
D03*
X678750D02*
D03*
X674750D02*
D03*
X690750D02*
D03*
X686750D02*
D03*
X702750D02*
D03*
X698750D02*
D03*
D81*
X364000Y142500D02*
D03*
Y126500D02*
D03*
X817250Y372750D02*
D03*
Y388750D02*
D03*
X810250Y151750D02*
D03*
Y167750D02*
D03*
D82*
X87749Y522000D02*
D03*
X116749D02*
D03*
D83*
X676750Y91825D02*
D03*
X671750D02*
D03*
X661750D02*
D03*
X656750D02*
D03*
Y100170D02*
D03*
X661750D02*
D03*
X671750D02*
D03*
X676750D02*
D03*
X703250Y100170D02*
D03*
X698250D02*
D03*
X688250D02*
D03*
X683250D02*
D03*
Y91825D02*
D03*
X688250D02*
D03*
X698250D02*
D03*
X703250D02*
D03*
D84*
X666750Y91825D02*
D03*
Y100170D02*
D03*
X693250Y100170D02*
D03*
Y91825D02*
D03*
D85*
X304000Y117500D02*
D03*
Y137500D02*
D03*
X323750D02*
D03*
Y117500D02*
D03*
X343750D02*
D03*
Y137500D02*
D03*
D86*
X222250Y17500D02*
D03*
X231250D02*
D03*
X122444Y387750D02*
D03*
X131445D02*
D03*
X114944Y338750D02*
D03*
X123945D02*
D03*
X598500Y94000D02*
D03*
X589500D02*
D03*
X620250Y94250D02*
D03*
X611250D02*
D03*
X568500Y80250D02*
D03*
X559500D02*
D03*
X568500Y99250D02*
D03*
X559500D02*
D03*
X749250Y117750D02*
D03*
X758250D02*
D03*
X810250Y139000D02*
D03*
X801250D02*
D03*
X91250Y271500D02*
D03*
X100250D02*
D03*
X147250Y271750D02*
D03*
X138250D02*
D03*
D87*
X302750Y51250D02*
D03*
Y42250D02*
D03*
X14500Y162750D02*
D03*
Y153750D02*
D03*
X65750Y317647D02*
D03*
Y326646D02*
D03*
Y271249D02*
D03*
Y280249D02*
D03*
X115750Y198500D02*
D03*
Y207500D02*
D03*
X12750Y214000D02*
D03*
Y223000D02*
D03*
X115750Y222000D02*
D03*
Y231000D02*
D03*
X106000Y222000D02*
D03*
Y231000D02*
D03*
X125500Y222000D02*
D03*
Y231000D02*
D03*
X167000Y345000D02*
D03*
Y354000D02*
D03*
X630500Y184750D02*
D03*
Y193750D02*
D03*
X583500Y198250D02*
D03*
Y189250D02*
D03*
X594250Y188750D02*
D03*
Y197750D02*
D03*
X546000Y135750D02*
D03*
Y144750D02*
D03*
X564250Y254250D02*
D03*
Y263250D02*
D03*
X561750Y241250D02*
D03*
Y232250D02*
D03*
X797000Y52000D02*
D03*
Y43000D02*
D03*
X772500Y91000D02*
D03*
Y100000D02*
D03*
X812750Y52000D02*
D03*
Y43000D02*
D03*
X646000Y123750D02*
D03*
Y114750D02*
D03*
X654000D02*
D03*
Y123750D02*
D03*
X665750Y124000D02*
D03*
Y115000D02*
D03*
X673750D02*
D03*
Y124000D02*
D03*
X686250Y124000D02*
D03*
Y115000D02*
D03*
X694250D02*
D03*
Y124000D02*
D03*
X706500Y123750D02*
D03*
Y114750D02*
D03*
X714500D02*
D03*
Y123750D02*
D03*
X643750Y150750D02*
D03*
Y141750D02*
D03*
X655751D02*
D03*
Y150750D02*
D03*
X664000D02*
D03*
Y141750D02*
D03*
X676001D02*
D03*
Y150750D02*
D03*
X684250D02*
D03*
Y141750D02*
D03*
X696251D02*
D03*
Y150750D02*
D03*
X704500D02*
D03*
Y141750D02*
D03*
X716500D02*
D03*
Y150750D02*
D03*
X618250Y124000D02*
D03*
Y133000D02*
D03*
X605750Y197500D02*
D03*
Y188500D02*
D03*
X431000Y203250D02*
D03*
Y194250D02*
D03*
X421000D02*
D03*
Y203250D02*
D03*
X125500Y198500D02*
D03*
Y207500D02*
D03*
X167000Y377000D02*
D03*
Y368000D02*
D03*
X90000Y350000D02*
D03*
Y359000D02*
D03*
X106000Y207500D02*
D03*
Y198500D02*
D03*
D88*
X178750Y41250D02*
D03*
X211750D02*
D03*
X244750D02*
D03*
X277750D02*
D03*
Y140250D02*
D03*
X244750D02*
D03*
X211750D02*
D03*
X178750D02*
D03*
X180250Y79250D02*
D03*
X204250D02*
D03*
X228250D02*
D03*
X252250D02*
D03*
X276250D02*
D03*
Y102250D02*
D03*
X252250D02*
D03*
X228250D02*
D03*
X204250D02*
D03*
X180250D02*
D03*
D89*
X770250Y216750D02*
D03*
X789250Y223250D02*
D03*
Y210250D02*
D03*
X204000Y9500D02*
D03*
Y22500D02*
D03*
X185000Y16000D02*
D03*
X596750Y258500D02*
D03*
X577750Y252000D02*
D03*
Y265000D02*
D03*
D90*
X628250Y153500D02*
D03*
X621750Y172500D02*
D03*
X634750D02*
D03*
X556750Y116500D02*
D03*
X569750D02*
D03*
X563250Y135500D02*
D03*
X760250Y108250D02*
D03*
X747250D02*
D03*
X753750Y89250D02*
D03*
D91*
X832000Y264000D02*
D03*
Y200000D02*
D03*
X832500Y401500D02*
D03*
Y465500D02*
D03*
D92*
X856500Y244000D02*
D03*
Y220000D02*
D03*
X857000Y421500D02*
D03*
Y445500D02*
D03*
D93*
X829750Y245000D02*
D03*
Y238500D02*
D03*
Y231999D02*
D03*
Y225499D02*
D03*
Y219000D02*
D03*
X830250Y420500D02*
D03*
Y427000D02*
D03*
Y433500D02*
D03*
Y440000D02*
D03*
Y446501D02*
D03*
D94*
X596500Y231250D02*
D03*
X575500Y224750D02*
D03*
Y237750D02*
D03*
D95*
X252000Y190000D02*
D03*
X216000D02*
D03*
D96*
X346000Y173250D02*
D03*
Y155750D02*
D03*
X212750Y243750D02*
D03*
Y226250D02*
D03*
D97*
X789500Y186000D02*
D03*
X772000D02*
D03*
X267000Y13500D02*
D03*
X284500D02*
D03*
X338250Y13250D02*
D03*
X355750D02*
D03*
X67000Y55750D02*
D03*
X84500D02*
D03*
X818500Y289500D02*
D03*
X836000D02*
D03*
X850250Y356000D02*
D03*
X867750D02*
D03*
X596000Y14750D02*
D03*
X578500D02*
D03*
D98*
X344000Y55750D02*
D03*
X334500D02*
D03*
X325000D02*
D03*
X344000Y33750D02*
D03*
X334500D02*
D03*
X325000D02*
D03*
X861500Y337000D02*
D03*
X852000D02*
D03*
X842500D02*
D03*
X861500Y315000D02*
D03*
X852000D02*
D03*
X842500D02*
D03*
X574250Y54750D02*
D03*
X564750D02*
D03*
X555250D02*
D03*
X574250Y32750D02*
D03*
X564750D02*
D03*
X555250D02*
D03*
D99*
X459500Y169750D02*
D03*
X452500D02*
D03*
X456000Y161250D02*
D03*
X813250Y204750D02*
D03*
X806250D02*
D03*
X809750Y196250D02*
D03*
X485500Y169750D02*
D03*
X489000Y161250D02*
D03*
X482000D02*
D03*
X422500D02*
D03*
X429500D02*
D03*
X426000Y169750D02*
D03*
X637000Y98250D02*
D03*
X640500Y89750D02*
D03*
X633500D02*
D03*
X814500Y461750D02*
D03*
X811000Y470250D02*
D03*
X818000D02*
D03*
D100*
X812750Y228750D02*
D03*
X804250Y225250D02*
D03*
Y232250D02*
D03*
X599500Y76750D02*
D03*
Y83750D02*
D03*
X591000Y80250D02*
D03*
X301000Y517750D02*
D03*
Y524750D02*
D03*
X292500Y521250D02*
D03*
X263000Y529500D02*
D03*
X271500Y533000D02*
D03*
Y526000D02*
D03*
X239250Y511000D02*
D03*
Y518000D02*
D03*
X230750Y514500D02*
D03*
X73000Y425250D02*
D03*
X64500Y421750D02*
D03*
Y428750D02*
D03*
D101*
X646250Y169750D02*
D03*
Y178750D02*
D03*
X653500D02*
D03*
Y169750D02*
D03*
X666500D02*
D03*
Y178750D02*
D03*
X673750D02*
D03*
Y169750D02*
D03*
X686750D02*
D03*
Y178750D02*
D03*
X694000D02*
D03*
Y169750D02*
D03*
X707000Y169750D02*
D03*
Y178750D02*
D03*
X714250D02*
D03*
Y169750D02*
D03*
D102*
X284750Y175500D02*
D03*
X289750D02*
D03*
X294750D02*
D03*
X299750D02*
D03*
Y205500D02*
D03*
X294750D02*
D03*
X289750D02*
D03*
X284750D02*
D03*
D103*
X307250Y183000D02*
D03*
Y188000D02*
D03*
Y193000D02*
D03*
Y198000D02*
D03*
X277250D02*
D03*
Y193000D02*
D03*
Y188000D02*
D03*
Y183000D02*
D03*
D104*
X292250Y190500D02*
D03*
D105*
X792250Y126000D02*
D03*
X809750D02*
D03*
X248000Y226250D02*
D03*
X230500D02*
D03*
X248000Y240750D02*
D03*
X230500D02*
D03*
X48750Y207000D02*
D03*
X31250D02*
D03*
X301250Y223000D02*
D03*
X283750D02*
D03*
X155750Y199750D02*
D03*
X173250D02*
D03*
X291750Y162000D02*
D03*
X274250D02*
D03*
D106*
X851750Y292000D02*
D03*
X867750D02*
D03*
X320250Y13500D02*
D03*
X304250D02*
D03*
D107*
X78000Y22000D02*
D03*
Y38000D02*
D03*
D108*
X593000Y51750D02*
D03*
Y34250D02*
D03*
X156000Y236500D02*
D03*
Y219000D02*
D03*
D109*
X16250Y123750D02*
D03*
Y102750D02*
D03*
D110*
X148500Y353750D02*
D03*
Y360250D02*
D03*
Y366750D02*
D03*
Y373250D02*
D03*
X107500Y353750D02*
D03*
Y360250D02*
D03*
Y366750D02*
D03*
Y373250D02*
D03*
D111*
X779500Y198250D02*
D03*
X789500D02*
D03*
D112*
X784695Y455975D02*
D03*
D113*
X96694D02*
D03*
X853750Y154600D02*
D03*
Y129199D02*
D03*
Y103799D02*
D03*
Y78400D02*
D03*
X388289Y525180D02*
D03*
X362889D02*
D03*
D114*
X612500Y62750D02*
D03*
X721000D02*
D03*
D115*
X612500Y17750D02*
D03*
X721000D02*
D03*
D116*
X413689Y525180D02*
D03*
D117*
X856500Y265000D02*
D03*
Y199000D02*
D03*
X857000Y400500D02*
D03*
Y466500D02*
D03*
D118*
X181750Y261500D02*
D03*
X416000Y134000D02*
D03*
X436000D02*
D03*
X496000D02*
D03*
X476000D02*
D03*
X491000Y119000D02*
D03*
X456000Y134000D02*
D03*
X466000Y119000D02*
D03*
X446000D02*
D03*
X421000D02*
D03*
X86250Y404250D02*
D03*
X315000Y242250D02*
D03*
X745750Y282750D02*
D03*
X462500Y381250D02*
D03*
X386500Y181500D02*
D03*
X12000Y67750D02*
D03*
X204750Y269000D02*
D03*
D119*
X130000Y156000D02*
D03*
Y106000D02*
D03*
D120*
X30000Y76000D02*
D03*
Y186000D02*
D03*
D121*
X534500Y109700D02*
D03*
X377500D02*
D03*
D122*
X534500Y41700D02*
D03*
X377500D02*
D03*
D123*
X122695Y35975D02*
D03*
X758695D02*
D03*
D124*
X850000Y30000D02*
D03*
Y510000D02*
D03*
X30000D02*
D03*
Y30000D02*
D03*
M02*
